M48
; DRILL file {KiCad 7.0.6} date Thu Jul 20 11:30:53 2023
; FORMAT={-:-/ absolute / inch / decimal}
; #@! TF.CreationDate,2023-07-20T11:30:53+01:00
; #@! TF.GenerationSoftware,Kicad,Pcbnew,7.0.6
; #@! TF.FileFunction,Plated,1,2,PTH
FMAT,2
INCH
; #@! TA.AperFunction,Plated,PTH,ViaDrill
T1C0.0157
; #@! TA.AperFunction,Plated,PTH,ComponentDrill
T2C0.0157
; #@! TA.AperFunction,Plated,PTH,ViaDrill
T3C0.0197
; #@! TA.AperFunction,Plated,PTH,ComponentDrill
T4C0.0197
; #@! TA.AperFunction,Plated,PTH,ComponentDrill
T5C0.0315
; #@! TA.AperFunction,Plated,PTH,ComponentDrill
T6C0.0394
; #@! TA.AperFunction,Plated,PTH,ComponentDrill
T7C0.0472
; #@! TA.AperFunction,Plated,PTH,ComponentDrill
T8C0.0512
; #@! TA.AperFunction,Plated,PTH,ComponentDrill
T9C0.0551
; #@! TA.AperFunction,Plated,PTH,ComponentDrill
T10C0.0591
; #@! TA.AperFunction,Plated,PTH,ComponentDrill
T11C0.0709
; #@! TA.AperFunction,Plated,PTH,ComponentDrill
T12C0.0787
; #@! TA.AperFunction,Plated,PTH,ComponentDrill
T13C0.1000
; #@! TA.AperFunction,Plated,PTH,ComponentDrill
T14C0.1299
; #@! TA.AperFunction,Plated,PTH,ComponentDrill
T15C0.1339
; #@! TA.AperFunction,Plated,PTH,ComponentDrill
T16C0.1457
%
G90
G05
T1
X8.3037Y-9.2559
X8.4931Y-9.2608
T2
X5.111Y-7.5469
X5.1126Y-7.6728
X5.3402Y-7.6728
X5.3406Y-7.5465
X5.3429Y-8.5028
X5.3437Y-8.4028
X5.3441Y-8.3024
X16.7591Y-3.2894
X16.863Y-4.4146
X16.887Y-4.9921
X16.8886Y-4.8921
X17.2598Y-3.2902
X17.5618Y-4.1146
X17.5657Y-3.8894
T3
X5.2173Y-8.6783
X5.239Y-9.9315
X5.2661Y-8.6024
X5.3488Y-6.9035
X5.3795Y-3.1571
X5.4563Y-3.2331
X5.4642Y-8.1039
X5.4909Y-6.9972
X5.5323Y-3.3067
X5.5398Y-8.3516
X5.5425Y-9.9299
X5.5445Y-8.5
X5.5638Y-8.1969
X5.565Y-8.2772
X5.5669Y-8.7524
X5.5984Y-12.0917
X5.6075Y-3.0819
X5.6087Y-3.3803
X5.6173Y-7.6752
X5.6346Y-4.4098
X5.6374Y-5.5138
X5.6661Y-6.8697
X5.6669Y-6.9449
X5.6736Y-10.961
X5.6909Y-8.8291
X5.6929Y-7.9504
X5.7185Y-8.9295
X5.7697Y-13.1563
X5.7701Y-11.1555
X5.7717Y-9.728
X5.7902Y-6.7457
X5.8165Y-6.9213
X5.8173Y-7.0724
X5.8185Y-8.1516
X5.8409Y-7.1965
X5.8429Y-8.2992
X5.8437Y-7.5996
X5.8673Y-6.8709
X5.8689Y-7.3453
X5.8925Y-7.9752
X5.9177Y-8.4508
X5.9437Y-9.1287
X5.9476Y-8.8276
X5.9646Y-6.4697
X5.9657Y-6.1697
X6.0098Y-4.1106
X6.0102Y-3.012
X6.0134Y-7.072
X6.0346Y-4.2591
X6.0394Y-6.0673
X6.0862Y-5.1161
X6.0886Y-5.8161
X6.089Y-5.6173
X6.0913Y-6.2724
X6.0917Y-8.05
X6.1012Y-3.0236
X6.1398Y-7.7504
X6.14Y-9.8323
X6.1409Y-7.0465
X6.1642Y-5.6661
X6.1654Y-8.1756
X6.1677Y-8.5528
X6.1677Y-9.5315
X6.1685Y-9.0799
X6.1685Y-9.2303
X6.1689Y-9.6311
X6.1724Y-12.0232
X6.1736Y-10.9618
X6.1835Y-3.1567
X6.1839Y-4.2087
X6.1854Y-4.4075
X6.1902Y-8.3508
X6.2134Y-5.3685
X6.2138Y-6.8713
X6.2146Y-7.2
X6.2409Y-7.9512
X6.2626Y-6.9453
X6.2634Y-6.8228
X6.2693Y-9.4315
X6.2717Y-10.0839
X6.2717Y-13.163
X6.272Y-11.1618
X6.2898Y-7.8457
X6.2913Y-7.7752
X6.3126Y-3.2339
X6.3323Y-3.3051
X6.3583Y-2.9984
X6.3646Y-6.7461
X6.365Y-7.1728
X6.3661Y-8.6764
X6.385Y-5.6657
X6.3854Y-5.2681
X6.4079Y-3.3807
X6.4386Y-5.1657
X6.4661Y-8.8791
X6.4673Y-8.052
X6.4677Y-8.5531
X6.4709Y-11.0614
X6.4937Y-9.5803
X6.5402Y-7.4492
X6.5413Y-6.8732
X6.5673Y-8.2024
X6.5835Y-3.4579
X6.5886Y-6.7232
X6.5921Y-6.8228
X6.5929Y-8.8787
X6.6146Y-6.974
X6.6386Y-6.7677
X6.6421Y-9.1299
X6.6705Y-10.9618
X6.7189Y-8.252
X6.7193Y-8.5031
X6.7209Y-9.028
X6.7382Y-7.3484
X6.7406Y-6.7201
X6.7413Y-6.8976
X6.7449Y-9.3791
X6.7654Y-7.1
X6.7665Y-6.9984
X6.7665Y-8.0465
X6.7673Y-7.4429
X6.7685Y-7.6496
X6.7693Y-8.6772
X6.7697Y-13.1575
X6.7701Y-12.2154
X6.8335Y-3.9094
X6.8343Y-4.3614
X6.8366Y-3.0307
X6.8409Y-4.7142
X6.8425Y-6.3177
X6.8709Y-8.4264
X6.8854Y-4.1102
X6.889Y-4.9154
X6.8906Y-7.7461
X6.8909Y-7.6484
X6.911Y-3.1567
X6.9161Y-5.4665
X6.9201Y-8.8012
X6.9626Y-5.2661
X6.9654Y-5.0157
X6.9669Y-6.8972
X6.9713Y-7.0972
X6.9717Y-9.3807
X6.9732Y-12.022
X6.9854Y-3.7079
X6.9917Y-6.7992
X7.0126Y-5.1161
X7.0126Y-5.4193
X7.0213Y-8.7291
X7.022Y-9.1791
X7.0224Y-9.6315
X7.0421Y-8.8996
X7.0476Y-9.7327
X7.063Y-3.2354
X7.0969Y-9.5343
X7.115Y-3.05
X7.1181Y-8.8976
X7.1213Y-7.4528
X7.1398Y-3.3075
X7.1457Y-6.8988
X7.1461Y-8.0508
X7.1472Y-8.6768
X7.1756Y-10.9618
X7.1909Y-5.9197
X7.1976Y-7.5539
X7.2142Y-3.3815
X7.2181Y-6.748
X7.2236Y-9.2799
X7.2445Y-5.5161
X7.2465Y-9.1295
X7.2469Y-9.0059
X7.2472Y-8.5031
X7.2488Y-8.6276
X7.2713Y-6.9717
X7.272Y-8.8531
X7.2748Y-13.1535
X7.3472Y-9.5323
X7.3736Y-9.2051
X7.3906Y-3.3831
X7.3949Y-7.0744
X7.3972Y-7.676
X7.422Y-7.5472
X7.422Y-7.752
X7.424Y-8.652
X7.4252Y-9.3028
X7.4398Y-4.7118
X7.45Y-10.7886
X7.472Y-8.1496
X7.474Y-9.1354
X7.4752Y-11.0378
X7.4953Y-7.0724
X7.4961Y-7.3484
X7.4976Y-6.6535
X7.4996Y-8.5524
X7.5154Y-3.4535
X7.522Y-9.7248
X7.5224Y-9.0315
X7.5248Y-9.5043
X7.5681Y-4.3094
X7.5685Y-2.8602
X7.572Y-9.6252
X7.5728Y-9.1795
X7.5736Y-7.0992
X7.5736Y-8.3516
X7.5736Y-8.6524
X7.5902Y-4.7961
X7.5917Y-6.6461
X7.5933Y-4.8654
X7.5945Y-6.8205
X7.6134Y-3.6551
X7.6169Y-4.5126
X7.6201Y-8.4803
X7.6402Y-6.0701
X7.6409Y-4.0354
X7.6413Y-4.1079
X7.6417Y-3.7346
X7.6425Y-6.2449
X7.6661Y-5.039
X7.6677Y-7.4472
X7.6693Y-7.5461
X7.6705Y-7.3484
X7.6736Y-9.102
X7.6736Y-9.5087
X7.674Y-9.3803
X7.674Y-10.2846
X7.6909Y-5.113
X7.6909Y-5.3441
X7.6917Y-3.6815
X7.6921Y-3.9362
X7.6921Y-4.2638
X7.6949Y-7.7732
X7.6969Y-6.9516
X7.7193Y-6.8484
X7.722Y-8.3547
X7.7441Y-10.7843
X7.7472Y-8.4776
X7.7646Y-2.9358
X7.765Y-4.4114
X7.7697Y-6.7476
X7.7713Y-9.7315
X7.772Y-9.5575
X7.7728Y-10.3843
X7.7732Y-10.135
X7.7752Y-12.1465
X7.7756Y-13.1563
X7.776Y-11.1598
X7.8732Y-9.0299
X7.8957Y-8.6787
X7.8961Y-8.3543
X7.9394Y-3.9862
X7.9429Y-4.6398
X7.9441Y-4.7886
X7.9445Y-9.5291
X7.9457Y-6.4969
X7.9508Y-9.9319
X7.965Y-3.3768
X7.9661Y-5.9169
X7.9665Y-5.239
X7.9665Y-5.3413
X7.9681Y-6.2976
X7.9752Y-12.0142
X7.9921Y-3.7614
X7.9921Y-4.187
X7.9925Y-3.8362
X7.9972Y-7.4516
X7.998Y-10.6606
X8.0106Y-2.8594
X8.0201Y-7.8516
X8.0217Y-7.5551
X8.022Y-7.6559
X8.0457Y-8.6315
X8.0461Y-9.2339
X8.0465Y-8.8024
X8.0465Y-11.0382
X8.0469Y-8.9055
X8.0492Y-9.3354
X8.0646Y-3.2602
X8.0646Y-6.3961
X8.0665Y-3.0854
X8.0669Y-5.7492
X8.0689Y-6.2945
X8.0705Y-8.3524
X8.0709Y-6.7492
X8.0728Y-7.9752
X8.0732Y-9.937
X8.076Y-9.6059
X8.0898Y-6.648
X8.0976Y-7.3496
X8.0992Y-12.0209
X8.1433Y-5.5961
X8.1484Y-9.6094
X8.1488Y-9.3043
X8.1681Y-5.7461
X8.1697Y-10.7378
X8.1933Y-10.4594
X8.1992Y-9.7315
X8.2213Y-9.6051
X8.2244Y-10.1831
X8.2362Y-3.3862
X8.2453Y-10.4098
X8.2461Y-8.6551
X8.2469Y-6.8984
X8.2484Y-10.8626
X8.2508Y-10.511
X8.2646Y-3.0512
X8.2705Y-5.3921
X8.2713Y-7.3496
X8.2732Y-10.3102
X8.274Y-7.4512
X8.2744Y-11.0898
X8.2744Y-12.1469
X8.2744Y-13.1571
X8.2752Y-8.8587
X8.2976Y-8.9799
X8.3118Y-2.9862
X8.3122Y-3.1102
X8.3181Y-6.6465
X8.3193Y-5.8165
X8.3209Y-7.6504
X8.3236Y-7.7508
X8.3236Y-8.2996
X8.324Y-7.5496
X8.3358Y-3.7602
X8.3461Y-8.1016
X8.3492Y-8.1724
X8.3634Y-3.911
X8.3646Y-4.1358
X8.3661Y-4.5835
X8.3732Y-6.3965
X8.3744Y-7.9744
X8.3748Y-9.7319
X8.3752Y-8.928
X8.3961Y-4.7874
X8.3961Y-4.9906
X8.3965Y-5.0953
X8.4126Y-3.7606
X8.4205Y-4.0362
X8.4224Y-6.0213
X8.4244Y-8.3051
X8.4252Y-8.9831
X8.4441Y-3.5551
X8.4445Y-5.6429
X8.4476Y-6.4953
X8.448Y-6.0969
X8.448Y-6.1969
X8.448Y-6.2697
X8.4496Y-8.5028
X8.4626Y-3.9114
X8.4705Y-6.8717
X8.4713Y-5.5445
X8.474Y-9.5555
X8.4748Y-8.7579
X8.4752Y-10.4358
X8.4764Y-9.1276
X8.4949Y-6.6205
X8.4992Y-8.2996
X8.5205Y-4.8406
X8.5213Y-4.3854
X8.5217Y-4.5374
X8.5248Y-9.7122
X8.5402Y-3.8862
X8.5508Y-12.0689
X8.5693Y-8.026
X8.5713Y-7.576
X8.5722Y-6.748
X8.5768Y-11.0882
X8.5913Y-4.1122
X8.5969Y-4.2134
X8.6209Y-3.9567
X8.622Y-6.8969
X8.6228Y-7.4764
X8.6232Y-7.102
X8.6252Y-8.3539
X8.6256Y-7.6748
X8.6685Y-6.4476
X8.6717Y-9.1287
X8.6772Y-5.8705
X8.6795Y-10.9618
X8.6953Y-6.0949
X8.6972Y-8.628
X8.6988Y-5.4941
X8.6996Y-5.7677
X8.7016Y-9.2547
X8.7205Y-3.9634
X8.726Y-8.9535
X8.728Y-9.4287
X8.7421Y-5.2417
X8.7437Y-4.7894
X8.7445Y-5.924
X8.7453Y-5.5906
X8.7469Y-7.3496
X8.748Y-10.7114
X8.7508Y-6.1437
X8.752Y-10.7862
X8.7677Y-4.1382
X8.7728Y-5.1409
X8.776Y-6.572
X8.7764Y-13.1567
X8.7772Y-9.2579
X8.778Y-11.0866
X8.778Y-12.1461
X8.7953Y-5.3409
X8.7988Y-5.7441
X8.8Y-7.6488
X8.8004Y-7.4516
X8.8012Y-7.2496
X8.802Y-8.7528
X8.8028Y-10.5307
X8.8185Y-4.3378
X8.8197Y-3.6291
X8.8209Y-3.5539
X8.8209Y-3.7031
X8.8236Y-7.0728
X8.826Y-8.276
X8.8276Y-7.7283
X8.8496Y-7.9287
X8.8504Y-8.6016
X8.8516Y-8.0291
X8.8736Y-6.9504
X8.8736Y-9.4547
X8.8752Y-4.6177
X8.8752Y-5.3945
X8.8752Y-6.748
X8.876Y-9.228
X8.8772Y-9.5571
X8.9024Y-8.2787
X8.9181Y-3.4776
X8.9185Y-3.7618
X8.9197Y-4.1374
X8.9232Y-9.1295
X8.9264Y-8.8563
X8.9272Y-8.6051
X8.9461Y-4.7146
X8.948Y-5.0906
X8.95Y-10.5854
X8.9508Y-10.1862
X8.9512Y-10.2874
X8.9744Y-8.6768
X8.978Y-4.3894
X8.9953Y-4.9409
X8.9965Y-5.7925
X8.998Y-5.5929
X9.0004Y-5.9713
X9.0024Y-9.1492
X9.0102Y-9.9362
X9.0213Y-12.0618
X9.0217Y-6.1972
X9.0228Y-6.1224
X9.0248Y-7.7256
X9.0248Y-11.0862
X9.0457Y-5.4969
X9.052Y-8.5535
X9.052Y-9.3343
X9.0528Y-10.837
X9.0535Y-9.2012
X9.0713Y-5.6937
X9.0756Y-8.0504
X9.0783Y-5.1925
X9.1031Y-11.0394
X9.1244Y-9.4839
X9.1272Y-9.3335
X9.1528Y-8.8756
X9.1531Y-9.5539
X9.172Y-4.2917
X9.176Y-6.8724
X9.176Y-8.002
X9.178Y-10.4091
X9.1783Y-10.9626
X9.2004Y-8.2795
X9.2024Y-8.5287
X9.2031Y-10.5323
X9.2201Y-3.8823
X9.2252Y-7.878
X9.2264Y-8.7528
X9.2264Y-9.3087
X9.2453Y-6.1476
X9.2476Y-5.2913
X9.2476Y-5.3929
X9.248Y-5.4917
X9.2484Y-5.7961
X9.2504Y-8.1807
X9.2748Y-7.7043
X9.2772Y-10.8386
X9.2772Y-11.0882
X9.2772Y-12.1453
X9.2772Y-13.148
X9.3035Y-9.1091
X9.3256Y-10.037
X9.3492Y-9.6291
X9.35Y-9.3803
X9.3512Y-9.9366
X9.372Y-7.0728
X9.3724Y-10.3567
X9.3736Y-6.7476
X9.3744Y-7.6756
X9.3752Y-9.2591
X9.398Y-8.0016
X9.4Y-10.1854
X9.4012Y-7.9035
X9.402Y-10.0591
X9.4213Y-4.1327
X9.4252Y-7.5528
X9.4272Y-8.3268
X9.4437Y-3.1642
X9.4476Y-6.0933
X9.4496Y-8.5823
X9.472Y-5.8445
X9.472Y-6.5197
X9.4724Y-4.363
X9.474Y-9.9606
X9.4744Y-9.761
X9.4748Y-6.6244
X9.4906Y-3.8138
X9.4929Y-4.6894
X9.4961Y-5.5665
X9.5004Y-8.6331
X9.5004Y-8.7776
X9.5016Y-8.5315
X9.522Y-9.0035
X9.5248Y-9.3563
X9.5256Y-8.9327
X9.5264Y-9.6295
X9.5441Y-4.9925
X9.5461Y-5.6169
X9.5472Y-5.3421
X9.548Y-11.0563
X9.55Y-9.8106
X9.5528Y-10.6102
X9.5697Y-4.1354
X9.5764Y-9.4606
X9.5858Y-7.8894
X9.587Y-7.6087
X9.5945Y-5.215
X9.5988Y-5.1413
X9.5996Y-5.3909
X9.6012Y-13.1181
X9.6031Y-8.0988
X9.6496Y-6.5228
X9.6528Y-10.2016
X9.6646Y-8.0508
X9.674Y-5.5669
X9.6752Y-10.3091
X9.6783Y-11.0839
X9.6961Y-6.1972
X9.6992Y-6.6972
X9.7Y-11.9169
X9.7004Y-5.8929
X9.7012Y-11.589
X9.7016Y-6.0925
X9.7154Y-3.813
X9.7252Y-11.4906
X9.7264Y-8.1571
X9.7295Y-8.4547
X9.7461Y-7.2976
X9.7496Y-8.3563
X9.7547Y-8.7031
X9.7736Y-5.7449
X9.7744Y-11.3406
X9.7748Y-10.2874
X9.7937Y-5.4429
X9.7957Y-5.2406
X9.7965Y-6.7961
X9.798Y-4.7906
X9.826Y-11.5433
X9.826Y-11.9894
X9.8295Y-8.1811
X9.8516Y-7.5803
X9.8764Y-7.7008
X9.8768Y-10.3114
X9.8768Y-10.7079
X9.9012Y-8.3272
X9.9016Y-7.05
X9.902Y-11.0335
X9.9031Y-8.8535
X9.9071Y-9.2287
X9.9244Y-7.8791
X9.9264Y-8.5311
X9.9272Y-7.2988
X9.9272Y-7.576
X9.9272Y-9.7071
X9.928Y-9.4354
X9.9504Y-8.2272
X9.9528Y-9.9854
X9.9677Y-4.1382
X10.0004Y-8.3291
X10.0024Y-9.1831
X10.0028Y-8.5319
X10.0039Y-7.7287
X10.0039Y-10.685
X10.0043Y-10.1098
X10.0252Y-7.8764
X10.028Y-10.5126
X10.0488Y-4.7398
X10.0516Y-8.8295
X10.0535Y-9.8063
X10.1035Y-6.4469
X10.1205Y-5.0409
X10.1213Y-4.8657
X10.1252Y-4.9417
X10.1264Y-8.2768
X10.128Y-8.5783
X10.1504Y-6.3205
X10.1512Y-5.3945
X10.1543Y-9.7567
X10.1551Y-10.8728
X10.172Y-5.2917
X10.174Y-4.7425
X10.1764Y-7.9756
X10.1795Y-7.8783
X10.1969Y-7.5748
X10.2043Y-6.7496
X10.2043Y-9.9319
X10.2047Y-6.8217
X10.2079Y-7.7004
X10.2508Y-4.8917
X10.2531Y-9.8362
X10.2539Y-6.2232
X10.2547Y-9.3008
X10.2547Y-9.4319
X10.2555Y-8.7031
X10.2819Y-7.4209
X10.2819Y-7.9524
X10.2941Y-3.4386
X10.2996Y-6.1693
X10.3051Y-6.4969
X10.3287Y-5.4453
X10.3551Y-10.9618
X10.3563Y-9.5807
X10.3693Y-7.876
X10.3744Y-5.9185
X10.376Y-6.1685
X10.3764Y-6.0717
X10.3768Y-4.4665
X10.3787Y-5.8457
X10.3819Y-8.0776
X10.3988Y-6.6728
X10.4016Y-4.1366
X10.4028Y-10.3827
X10.4051Y-6.4496
X10.4051Y-6.5972
X10.4063Y-10.1083
X10.4071Y-8.6016
X10.4248Y-5.6949
X10.4252Y-5.9693
X10.4256Y-3.5614
X10.4268Y-6.8969
X10.4276Y-7.7004
X10.428Y-5.1941
X10.4299Y-5.7953
X10.4303Y-9.6059
X10.4492Y-5.3697
X10.4539Y-5.2929
X10.4555Y-7.5783
X10.4689Y-10.6969
X10.4819Y-5.9209
X10.5299Y-6.4496
X10.5319Y-9.4106
X10.5476Y-4.5146
X10.5531Y-4.9173
X10.5531Y-9.3051
X10.5543Y-7.05
X10.5555Y-9.1791
X10.5555Y-10.7646
X10.5567Y-9.6559
X10.5776Y-6.4945
X10.5799Y-6.2949
X10.5949Y-3.7382
X10.6047Y-8.6276
X10.6047Y-10.8791
X10.6075Y-9.3583
X10.6209Y-10.5831
X10.6563Y-9.9063
X10.6571Y-7.8539
X10.6803Y-11.4921
X10.6823Y-8.3299
X10.7035Y-10.0098
X10.7051Y-11.939
X10.7067Y-11.2413
X10.7165Y-10.7984
X10.7539Y-10.535
X10.765Y-4.4669
X10.7811Y-8.3283
X10.7953Y-10.7618
X10.8028Y-10.9618
X10.8063Y-11.9425
X10.8421Y-10.6343
X10.8776Y-11.5878
X10.8787Y-4.7921
X10.8795Y-11.2898
X10.8795Y-11.389
X10.8799Y-10.3602
X10.8823Y-11.1638
X10.8953Y-4.3638
X10.8961Y-4.2161
X10.9006Y-11.9448
X10.9031Y-8.3031
X10.9209Y-10.5642
X10.926Y-6.1976
X10.926Y-6.3945
X10.9283Y-8.552
X10.9504Y-5.7453
X10.9791Y-8.302
X10.9791Y-8.6043
X10.9791Y-12.0689
X10.9815Y-8.8543
X11.0335Y-9.5547
X11.0457Y-4.3646
X11.0492Y-6.4752
X11.0524Y-6.5492
X11.0748Y-3.9673
X11.0799Y-9.0283
X11.0929Y-10.9614
X11.0984Y-4.213
X11.1248Y-4.6181
X11.2311Y-9.1295
X11.2748Y-6.3449
X11.2756Y-4.3634
X11.278Y-8.7031
X11.2795Y-10.8701
X11.2815Y-9.3551
X11.3717Y-4.2146
X11.4012Y-10.2831
X11.4252Y-4.3634
X11.426Y-10.1524
X11.4283Y-8.9835
X11.4717Y-3.7665
X11.4717Y-4.2157
X11.4776Y-9.1508
X11.4976Y-4.8933
X11.5028Y-5.5472
X11.5039Y-4.3638
X11.5063Y-10.2563
X11.5071Y-8.2516
X11.526Y-6.5449
X11.5276Y-7.7988
X11.5299Y-10.4079
X11.5299Y-10.8736
X11.5303Y-6.6484
X11.5303Y-8.4268
X11.5303Y-10.6346
X11.5315Y-6.0748
X11.552Y-11.8673
X11.5551Y-11.9949
X11.5571Y-8.0012
X11.5756Y-6.0256
X11.576Y-3.9681
X11.578Y-4.4642
X11.5783Y-7.2732
X11.5831Y-7.126
X11.5972Y-6.3224
X11.602Y-11.6894
X11.6043Y-8.2504
X11.6295Y-7.9504
X11.6331Y-9.1795
X11.6531Y-9.2768
X11.6579Y-12.3476
X11.7063Y-11.9154
X11.7303Y-12.0146
X11.7319Y-8.1512
X11.7346Y-10.2343
X11.7449Y-4.0917
X11.7567Y-10.1098
X11.7587Y-10.4606
X11.778Y-6.3717
X11.7795Y-5.1957
X11.7803Y-5.4476
X11.7827Y-6.4748
X11.7843Y-7.8787
X11.8008Y-3.4831
X11.8043Y-10.4102
X11.8067Y-8.3992
X11.8079Y-8.8531
X11.8776Y-3.885
X11.8823Y-6.4004
X11.8831Y-12.1154
X11.8839Y-10.2382
X11.8839Y-10.5122
X11.9043Y-11.385
X11.9051Y-10.0287
X11.9067Y-8.9039
X11.9067Y-9.8787
X11.9079Y-10.1079
X11.9087Y-8.528
X11.9094Y-11.0323
X11.9287Y-3.715
X11.9291Y-4.4618
X11.9307Y-9.9535
X11.9319Y-12.0201
X11.9335Y-8.6295
X11.9335Y-10.6638
X11.9346Y-6.4744
X11.935Y-8.3051
X11.935Y-9.8075
X11.9539Y-11.285
X11.9583Y-11.1898
X11.9602Y-7.8791
X11.9768Y-5.0425
X11.9815Y-4.8425
X11.9831Y-12.1154
X11.9843Y-10.2839
X11.9843Y-10.5079
X11.9846Y-8.2555
X12.0094Y-8.4504
X12.0094Y-9.7071
X12.0268Y-5.1492
X12.0291Y-5.2413
X12.0339Y-10.1587
X12.0547Y-8.0004
X12.0567Y-7.1717
X12.0575Y-5.698
X12.1016Y-3.7339
X12.1024Y-3.9673
X12.1035Y-5.2933
X12.1094Y-10.0126
X12.1098Y-7.2791
X12.1098Y-9.4091
X12.1102Y-7.0504
X12.1283Y-4.5437
X12.1291Y-5.698
X12.1291Y-5.998
X12.1307Y-4.9417
X12.1307Y-6.1724
X12.1307Y-6.2461
X12.1331Y-5.7965
X12.1555Y-5.0429
X12.1583Y-8.276
X12.1606Y-8.9039
X12.1846Y-10.8689
X12.2004Y-4.4673
X12.2035Y-5.1929
X12.2067Y-4.9417
X12.2091Y-6.9717
X12.2315Y-8.1524
X12.2323Y-7.1232
X12.2346Y-7.8524
X12.2579Y-8.6291
X12.2587Y-10.3374
X12.2587Y-10.487
X12.2598Y-11.6417
X12.2598Y-11.863
X12.274Y-3.4409
X12.2835Y-7.7252
X12.2854Y-8.2291
X12.2854Y-8.4307
X12.3079Y-12.8232
X12.3091Y-10.5618
X12.3102Y-9.2055
X12.3106Y-8.5783
X12.3264Y-4.5409
X12.3335Y-10.4614
X12.3598Y-8.8547
X12.3681Y-4.9398
X12.3815Y-10.9638
X12.3846Y-10.5827
X12.4028Y-5.2949
X12.4035Y-5.0433
X12.4083Y-8.9783
X12.4102Y-9.3059
X12.4291Y-4.4669
X12.4535Y-5.0941
X12.4591Y-8.8311
X12.463Y-8.6323
X12.4776Y-11.139
X12.4831Y-10.2626
X12.4839Y-9.7551
X12.5016Y-4.3417
X12.5028Y-4.9421
X12.5067Y-10.963
X12.5091Y-9.4587
X12.5102Y-7.9012
X12.5307Y-7.1732
X12.5343Y-8.4035
X12.5346Y-9.8815
X12.5543Y-4.2878
X12.5559Y-5.2161
X12.5571Y-7.7992
X12.5583Y-6.0965
X12.5583Y-6.2012
X12.5594Y-9.9854
X12.5606Y-9.5819
X12.5799Y-5.9957
X12.5839Y-8.1535
X12.5846Y-11.4118
X12.5858Y-8.4567
X12.5858Y-10.8382
X12.6008Y-4.7933
X12.6035Y-5.5953
X12.6043Y-4.8917
X12.6055Y-11.8874
X12.6071Y-8.3559
X12.6075Y-8.2535
X12.6079Y-12.0398
X12.6094Y-9.3579
X12.6272Y-5.7689
X12.6343Y-9.0791
X12.6358Y-9.7543
X12.6575Y-11.6114
X12.6583Y-8.8567
X12.6591Y-8.9543
X12.6602Y-11.3661
X12.672Y-3.7197
X12.7012Y-4.7945
X12.7051Y-10.2295
X12.7311Y-5.7465
X12.7539Y-5.9441
X12.7579Y-10.8362
X12.7701Y-12.0791
X12.7772Y-3.6843
X12.7783Y-4.6205
X12.7815Y-11.2618
X12.7831Y-10.9638
X12.7843Y-7.9
X12.7858Y-8.3535
X12.7866Y-7.6772
X12.8043Y-5.4681
X12.8087Y-9.3094
X12.8098Y-10.2358
X12.8106Y-8.7047
X12.8319Y-7.0484
X12.8327Y-7.1236
X12.8346Y-8.5063
X12.8598Y-7.3028
X12.876Y-3.6602
X12.8823Y-12.1724
X12.8846Y-10.4327
X12.9024Y-3.5843
X12.9083Y-8.8531
X12.9319Y-11.4677
X12.9327Y-10.3835
X12.9591Y-12.6567
X12.9594Y-11.1654
X12.9744Y-3.9673
X13.0039Y-5.5193
X13.0051Y-6.0209
X13.0083Y-8.9047
X13.0091Y-8.8287
X13.0106Y-7.2764
X13.0555Y-3.7846
X13.0575Y-12.215
X13.0591Y-9.1051
X13.0594Y-11.7445
X13.0602Y-8.5563
X13.0606Y-7.9524
X13.0819Y-6.1941
X13.0819Y-7.5472
X13.0823Y-6.748
X13.1094Y-8.4512
X13.1098Y-8.302
X13.1102Y-9.2075
X13.1114Y-7.8031
X13.1173Y-7.6756
X13.1272Y-12.122
X13.1343Y-11.8402
X13.1555Y-9.8547
X13.1563Y-5.9701
X13.1579Y-5.4705
X13.1591Y-6.0457
X13.1811Y-4.1929
X13.1831Y-6.8984
X13.1831Y-10.0579
X13.1906Y-5.0953
X13.1953Y-3.626
X13.1976Y-4.6858
X13.2031Y-5.2937
X13.2059Y-9.4587
X13.2067Y-7.9512
X13.2083Y-5.5689
X13.2087Y-11.7382
X13.2094Y-9.8071
X13.2102Y-12.0185
X13.211Y-9.3823
X13.2122Y-9.9819
X13.2126Y-8.1539
X13.2276Y-4.7937
X13.2295Y-7.1984
X13.2358Y-5.8445
X13.2512Y-12.7748
X13.2594Y-5.3709
X13.2598Y-11.2634
X13.2598Y-11.7882
X13.2602Y-11.5157
X13.261Y-10.4335
X13.2618Y-9.5811
X13.2622Y-10.3343
X13.2752Y-4.3429
X13.3094Y-5.6445
X13.3098Y-7.0976
X13.3098Y-7.1984
X13.3114Y-7.5512
X13.337Y-9.7071
X13.337Y-10.0504
X13.337Y-10.3362
X13.337Y-10.411
X13.3583Y-5.4657
X13.3882Y-8.9063
X13.4094Y-5.3937
X13.4102Y-10.0591
X13.4102Y-10.6669
X13.4106Y-7.6992
X13.4114Y-9.6071
X13.4118Y-9.4563
X13.4122Y-7.35
X13.4122Y-9.5339
X13.4126Y-8.7528
X13.4307Y-3.9157
X13.437Y-8.852
X13.4614Y-9.7323
X13.463Y-9.1587
X13.4634Y-9.8071
X13.472Y-7.5661
X13.4831Y-5.8453
X13.4862Y-5.9701
X13.4862Y-12.3157
X13.5024Y-4.3925
X13.5087Y-4.0606
X13.5102Y-11.1654
X13.5118Y-8.6028
X13.5122Y-8.1756
X13.5138Y-8.7047
X13.5291Y-4.9937
X13.5291Y-6.2217
X13.5311Y-5.5177
X13.5327Y-11.0343
X13.5335Y-11.8161
X13.5339Y-4.5433
X13.5346Y-12.524
X13.5362Y-12.2728
X13.5374Y-8.378
X13.55Y-3.7421
X13.5543Y-3.8906
X13.5543Y-4.3429
X13.5626Y-10.9606
X13.563Y-10.8618
X13.5827Y-10.0059
X13.585Y-4.8394
X13.6031Y-7.687
X13.615Y-8.1776
X13.6165Y-9.9319
X13.6252Y-3.7921
X13.6319Y-4.0154
X13.6339Y-7.9031
X13.6366Y-11.6134
X13.6374Y-7.5516
X13.639Y-8.0039
X13.6626Y-12.1616
X13.6634Y-7.048
X13.6638Y-9.1791
X13.6642Y-8.4264
X13.6843Y-4.6209
X13.6843Y-5.2972
X13.685Y-6.972
X13.6854Y-11.2606
X13.687Y-11.0646
X13.6898Y-9.3059
X13.7102Y-10.8362
X13.7122Y-11.4673
X13.7283Y-3.6154
X13.7315Y-3.8846
X13.7315Y-4.0169
X13.7382Y-10.9665
X13.7602Y-12.2154
X13.7618Y-11.9177
X13.787Y-7.0484
X13.7902Y-8.5031
X13.8102Y-12.3728
X13.8114Y-10.6669
X13.8118Y-12.0205
X13.8287Y-4.1925
X13.8319Y-4.0829
X13.8327Y-4.3185
X13.8354Y-11.211
X13.8366Y-10.9626
X13.837Y-11.115
X13.8374Y-12.1146
X13.8378Y-9.5043
X13.8614Y-12.6406
X13.8783Y-3.4039
X13.8839Y-4.5902
X13.8846Y-12.2728
X13.8976Y-7.9681
X13.9134Y-7.5472
X13.9134Y-7.7512
X13.937Y-6.5496
X13.937Y-11.4673
X13.9374Y-8.9035
X13.9713Y-5.0961
X13.9846Y-5.4984
X13.9874Y-7.6756
X13.9882Y-7.7488
X14.0067Y-3.8882
X14.0067Y-4.4449
X14.0071Y-4.7689
X14.0098Y-7.2984
X14.0346Y-7.0764
X14.035Y-8.7008
X14.0378Y-8.5972
X14.0575Y-6.05
X14.0587Y-5.3713
X14.078Y-3.389
X14.0799Y-4.0169
X14.0846Y-5.7461
X14.0846Y-5.9469
X14.085Y-7.952
X14.0858Y-8.1504
X14.0882Y-6.6476
X14.1079Y-5.5421
X14.1102Y-7.05
X14.1146Y-7.2969
X14.1272Y-3.3154
X14.1319Y-5.8453
X14.1346Y-10.3307
X14.135Y-9.2039
X14.1374Y-7.7748
X14.1374Y-9.8063
X14.1386Y-9.1283
X14.1594Y-11.7693
X14.1598Y-5.6953
X14.1598Y-11.5677
X14.1768Y-3.4657
X14.1795Y-4.5169
X14.1831Y-5.5949
X14.1835Y-5.1937
X14.1839Y-5.4457
X14.1858Y-10.8846
X14.2106Y-11.2657
X14.211Y-10.2083
X14.2157Y-8.7524
X14.2346Y-11.5634
X14.2354Y-11.8638
X14.2362Y-10.1094
X14.237Y-9.9571
X14.2575Y-5.3705
X14.2575Y-6.4496
X14.2579Y-4.9894
X14.2583Y-6.5504
X14.2598Y-8.2264
X14.2606Y-10.3102
X14.2626Y-7.1728
X14.2626Y-8.1252
X14.2835Y-6.6524
X14.285Y-6.7961
X14.2854Y-7.7736
X14.2858Y-8.752
X14.2858Y-9.8563
X14.2902Y-8.9244
X14.3039Y-4.7701
X14.3042Y-3.9902
X14.313Y-8.6543
X14.3346Y-10.8638
X14.335Y-10.487
X14.3386Y-8.5016
X14.3783Y-4.2165
X14.3795Y-4.3921
X14.3843Y-7.7524
X14.387Y-8.8776
X14.4016Y-4.0898
X14.402Y-3.6843
X14.4039Y-3.7579
X14.4276Y-4.1654
X14.4299Y-4.3366
X14.4334Y-8.0771
X14.4335Y-10.6717
X14.4378Y-8.9531
X14.4551Y-5.0193
X14.461Y-8.6028
X14.4618Y-8.7024
X14.4866Y-8.502
X14.4878Y-8.8291
X14.5035Y-4.7933
X14.5079Y-5.2177
X14.5079Y-5.5449
X14.5091Y-5.4441
X14.5102Y-10.7618
X14.5161Y-9.228
X14.5264Y-3.5083
X14.5272Y-3.815
X14.535Y-7.6996
X14.5378Y-9.0287
X14.5382Y-8.6008
X14.552Y-3.6661
X14.5579Y-6.4768
X14.5587Y-6.6256
X14.5594Y-6.7012
X14.5606Y-6.8008
X14.5807Y-5.3709
X14.5866Y-8.8776
X14.6075Y-11.7126
X14.6094Y-10.4866
X14.6126Y-8.2496
X14.6354Y-8.1488
X14.6362Y-7.674
X14.6587Y-4.7921
X14.6606Y-6.9728
X14.6634Y-8.622
X14.6815Y-3.9894
X14.6843Y-11.7126
X14.6874Y-7.1232
X14.7051Y-5.0697
X14.7051Y-6.0736
X14.706Y-4.1878
X14.7071Y-5.5189
X14.7083Y-5.6193
X14.7083Y-12.0957
X14.7094Y-12.1638
X14.7102Y-5.8193
X14.7106Y-11.3169
X14.7126Y-9.8059
X14.7343Y-6.5705
X14.7346Y-7.6992
X14.735Y-10.3331
X14.7362Y-8.8028
X14.7366Y-6.1461
X14.7524Y-3.5661
X14.7583Y-5.7205
X14.7602Y-11.5622
X14.7614Y-5.5709
X14.7642Y-10.0059
X14.7783Y-4.6921
X14.7815Y-4.4043
X14.7835Y-6.0941
X14.7874Y-10.2339
X14.8051Y-4.8433
X14.8059Y-4.5886
X14.8102Y-10.8378
X14.8122Y-9.6559
X14.8335Y-13.124
X14.8402Y-7.222
X14.8602Y-11.7961
X14.8634Y-6.4185
X14.8638Y-7.122
X14.8831Y-6.0437
X14.887Y-5.7681
X14.887Y-10.1831
X14.889Y-8.5492
X14.9114Y-10.4602
X14.9142Y-9.1039
X14.935Y-5.6177
X14.9362Y-8.9787
X14.9374Y-6.8724
X14.939Y-6.5193
X14.9409Y-7.1469
X14.9563Y-3.8378
X14.9614Y-11.8717
X14.9634Y-7.2224
X14.9642Y-9.5055
X14.9831Y-5.1673
X14.9858Y-5.4921
X14.9882Y-9.226
X14.9894Y-9.3795
X15.0051Y-3.6882
X15.0067Y-4.4642
X15.0087Y-4.5638
X15.0268Y-3.0327
X15.0307Y-4.6921
X15.0319Y-3.9846
X15.0331Y-4.7906
X15.035Y-4.8654
X15.0354Y-5.2996
X15.0374Y-8.5512
X15.0386Y-10.3075
X15.039Y-10.1059
X15.0413Y-7.3476
X15.0622Y-10.676
X15.0642Y-10.2335
X15.0673Y-6.4457
X15.0886Y-8.2004
X15.0902Y-6.8996
X15.0902Y-7.7228
X15.1051Y-3.7398
X15.1079Y-4.0894
X15.1098Y-5.4437
X15.1157Y-8.5512
X15.1189Y-9.0299
X15.126Y-3.3846
X15.1402Y-10.1346
X15.1634Y-12.3748
X15.1654Y-9.9303
X15.1843Y-5.2531
X15.1862Y-6.8957
X15.187Y-6.8205
X15.1878Y-8.276
X15.189Y-8.8276
X15.1894Y-9.2256
X15.1913Y-8.55
X15.2079Y-3.7323
X15.2114Y-5.7039
X15.2122Y-6.3189
X15.235Y-5.1425
X15.2378Y-5.2925
X15.2406Y-9.4559
X15.2516Y-3.039
X15.263Y-6.0945
X15.263Y-7.1224
X15.2819Y-4.1417
X15.2827Y-4.2622
X15.285Y-5.1913
X15.2866Y-7.7449
X15.2898Y-8.5484
X15.3346Y-5.1425
X15.3386Y-6.1933
X15.3531Y-3.3843
X15.361Y-5.6425
X15.361Y-5.8433
X15.3614Y-11.9614
X15.3642Y-5.7685
X15.365Y-8.2469
X15.365Y-9.4535
X15.3799Y-4.4925
X15.3823Y-4.1654
X15.3846Y-4.9929
X15.3874Y-11.1567
X15.3882Y-8.7028
X15.3894Y-9.228
X15.3921Y-7.2941
X15.4126Y-9.6803
X15.413Y-11.6717
X15.4134Y-9.7799
X15.4134Y-9.9303
X15.4157Y-10.0055
X15.4382Y-5.3665
X15.4386Y-7.6992
X15.439Y-6.3193
X15.4398Y-10.3547
X15.4402Y-9.3776
X15.4402Y-9.4768
X15.4406Y-9.1055
X15.4413Y-8.2461
X15.4598Y-12.365
X15.4618Y-5.6988
X15.4622Y-7.1476
X15.463Y-11.4177
X15.4843Y-5.1402
X15.487Y-5.9417
X15.4874Y-8.1484
X15.4882Y-6.122
X15.489Y-6.8461
X15.4906Y-9.2291
X15.5075Y-3.6579
X15.5146Y-7.6701
X15.5154Y-9.1047
X15.5386Y-11.6957
X15.585Y-5.3736
X15.6098Y-5.2925
X15.6319Y-3.639
X15.6335Y-10.6681
X15.6358Y-6.0197
X15.637Y-6.1177
X15.6374Y-5.9417
X15.6394Y-8.9276
X15.6402Y-7.0929
X15.6413Y-10.2807
X15.6622Y-6.2913
X15.6669Y-9.4811
X15.6886Y-8.7465
X15.689Y-9.1004
X15.713Y-12.0201
X15.7587Y-4.9413
X15.7626Y-7.6689
X15.7831Y-4.7374
X15.789Y-8.9276
X15.8047Y-3.8402
X15.8071Y-5.1921
X15.8134Y-10.378
X15.835Y-5.4134
X15.8508Y-3.1811
X15.8622Y-10.4303
X15.8846Y-5.2906
X15.8878Y-8.25
X15.889Y-9.1028
X15.8894Y-8.7213
X15.9122Y-11.0091
X15.9138Y-11.2157
X15.9287Y-3.3165
X15.9394Y-9.0264
X15.9594Y-6.3929
X15.9598Y-11.9433
X15.9606Y-12.1642
X15.961Y-11.4685
X15.9614Y-6.1638
X15.987Y-7.6732
X15.9886Y-8.9217
X15.9894Y-10.8878
X16.0126Y-6.2169
X16.0142Y-11.6957
X16.0331Y-5.039
X16.0339Y-6.1157
X16.0622Y-10.8791
X16.063Y-9.1736
X16.0634Y-10.3358
X16.0638Y-10.0079
X16.0646Y-9.4193
X16.0819Y-4.2587
X16.087Y-6.0177
X16.113Y-10.2969
X16.1134Y-9.8262
X16.115Y-9.6063
X16.1232Y-3.7126
X16.1244Y-3.6354
X16.128Y-3.7917
X16.1394Y-10.4354
X16.1398Y-10.8378
X16.1665Y-9.5323
X16.1831Y-4.5402
X16.1846Y-3.1476
X16.1898Y-8.8476
X16.1906Y-9.1043
X16.2134Y-8.9701
X16.2287Y-3.0472
X16.2382Y-10.437
X16.2382Y-10.7622
X16.2413Y-9.9583
X16.2469Y-3.1102
X16.2622Y-6.1433
X16.285Y-5.9949
X16.2874Y-13.1291
X16.2882Y-8.6776
X16.3106Y-12.6929
X16.3122Y-12.6268
X16.3126Y-9.7327
X16.3142Y-9.226
X16.3146Y-9.102
X16.3173Y-5.5937
X16.3386Y-7.8953
X16.3386Y-11.7453
X16.339Y-6.2445
X16.3413Y-7.8201
X16.3413Y-8.9953
X16.3606Y-5.7425
X16.3634Y-6.4945
X16.3661Y-6.4197
X16.3811Y-5.0421
X16.3929Y-10.8299
X16.4146Y-8.2165
X16.4146Y-12.3657
X16.415Y-9.9469
X16.4303Y-3.4382
X16.4394Y-7.8248
X16.4402Y-10.8894
X16.4614Y-5.0413
X16.463Y-6.0685
X16.4894Y-6.6949
X16.4898Y-7.9976
X16.4898Y-12.1496
X16.502Y-10.4846
X16.5098Y-5.4437
X16.5413Y-11.6453
X16.5417Y-11.9469
X16.5559Y-8.7803
X16.5583Y-5.7425
X16.5665Y-7.6728
X16.5898Y-11.8429
X16.5913Y-12.098
X16.6165Y-10.6484
X16.6169Y-6.6925
X16.6335Y-8.528
X16.6406Y-7.7933
X16.6409Y-11.9894
X16.6638Y-8.3012
X16.6827Y-3.4839
X16.687Y-4.965
X16.6917Y-11.6949
X16.7118Y-4.7886
X16.7169Y-11.5441
X16.7201Y-8.476
X16.7378Y-6.5252
X16.7378Y-8.4035
X16.739Y-12.4992
X16.7402Y-5.0417
X16.7413Y-6.2689
X16.7685Y-7.8417
X16.7921Y-6.7425
X16.8055Y-8.3429
X16.8177Y-8.2232
X16.8417Y-11.8169
X16.8421Y-5.1402
X16.8669Y-4.7165
X16.8689Y-11.2921
X16.8909Y-5.974
X16.8953Y-11.5933
X16.9169Y-5.6681
X16.9181Y-7.6736
X16.9626Y-4.987
X16.9669Y-6.4445
X16.9673Y-6.3441
X16.9673Y-9.7772
X16.9685Y-9.2035
X16.9685Y-9.3035
X16.9697Y-10.0571
X16.9717Y-10.2091
X16.9882Y-10.639
X16.989Y-11.3681
X16.9898Y-5.8913
X16.9898Y-5.9654
X16.9898Y-6.1902
X16.9906Y-6.265
X16.9921Y-6.5445
X17.0157Y-7.6685
X17.0169Y-5.2409
X17.0177Y-10.4268
X17.0378Y-5.5665
X17.0386Y-5.3394
X17.065Y-5.4413
X17.111Y-4.7902
X17.1646Y-5.9394
X17.1925Y-11.9465
X17.313Y-4.8913
X17.313Y-6.0445
X17.3165Y-6.3906
X17.3169Y-6.2409
X17.3185Y-6.6929
X17.5091Y-4.8098
X17.5106Y-5.3366
X17.5937Y-8.7531
X17.5937Y-11.3673
T4
X15.2354Y-7.9996
X16.0374Y-8.3508
X16.1354Y-7.8996
T5
X11.1819Y-9.3547
X11.1819Y-9.9547
X11.4819Y-9.3547
X11.4819Y-9.9547
X11.6787Y-6.0465
X11.8717Y-6.0465
X12.424Y-3.9425
X12.524Y-3.9425
X12.624Y-3.9425
X13.4354Y-8.003
X13.5339Y-7.901
X13.5339Y-8.0022
X13.9358Y-2.678
X13.9358Y-2.978
X14.0358Y-2.678
X14.0358Y-2.978
X14.1358Y-2.678
X14.1358Y-2.978
X14.211Y-12.2264
X14.211Y-12.8264
X14.2358Y-2.678
X14.2358Y-2.978
X14.511Y-12.2264
X14.511Y-12.8264
X15.9307Y-3.8874
X15.9902Y-6.8945
X15.9902Y-7.4945
X16.0307Y-3.8874
X16.1307Y-3.8874
X16.2902Y-6.8945
X16.2902Y-7.4945
X16.4925Y-6.8933
X16.4925Y-7.4933
X16.7925Y-6.8933
X16.7925Y-7.4933
X16.989Y-11.6961
X17.089Y-11.6961
X17.189Y-11.6961
T6
X5.1291Y-4.2618
X5.1291Y-4.3618
X5.1291Y-4.4618
X5.1291Y-4.5618
X5.1291Y-4.6618
X5.1291Y-4.7618
X5.1291Y-4.8618
X5.1291Y-4.9618
X5.1315Y-3.2094
X5.1315Y-3.3094
X5.1315Y-3.4094
X5.1315Y-3.5094
X5.1315Y-3.6094
X5.1315Y-3.7094
X5.1315Y-3.8094
X5.1315Y-3.9094
X5.1315Y-4.0094
X5.1315Y-4.1094
X5.1346Y-5.1429
X5.1346Y-5.2429
X5.1346Y-5.3429
X5.1346Y-5.4429
X5.1346Y-5.5429
X5.1346Y-5.6429
X5.1346Y-5.7429
X5.1346Y-5.8429
X5.1358Y-6.0213
X5.1358Y-6.1213
X5.1358Y-6.2213
X5.1358Y-6.3213
X5.1358Y-6.4213
X5.1358Y-6.5213
X5.1358Y-6.6213
X5.1358Y-6.7213
X5.1646Y-9.0077
X5.1646Y-9.1077
X5.1734Y-12.7801
X5.1917Y-9.2827
X5.1917Y-9.7827
X5.2118Y-8.297
X5.2118Y-8.397
X5.2118Y-8.497
X5.2874Y-4.3354
X5.2874Y-4.4614
X5.2878Y-4.5874
X5.2882Y-4.7138
X5.2886Y-4.8382
X5.289Y-4.9634
X5.2894Y-5.0898
X5.2894Y-5.215
X5.2902Y-5.3417
X5.2902Y-5.5921
X5.2906Y-5.4677
X5.2906Y-6.0945
X5.2909Y-5.8437
X5.2913Y-5.7189
X5.2917Y-5.9693
X5.2921Y-6.3445
X5.2921Y-6.4689
X5.2925Y-6.2189
X5.2925Y-6.5953
X5.2945Y-6.722
X5.3165Y-9.0065
X5.3165Y-9.1065
X5.3197Y-9.2827
X5.3197Y-9.7827
X5.3319Y-7.9228
X5.3319Y-8.0228
X5.3703Y-12.7801
X5.4843Y-4.3354
X5.4843Y-4.4614
X5.4846Y-4.5874
X5.485Y-4.7138
X5.4854Y-4.8382
X5.4858Y-4.9634
X5.4862Y-5.0898
X5.4862Y-5.215
X5.487Y-5.3417
X5.487Y-5.5921
X5.4874Y-5.4677
X5.4874Y-6.0945
X5.4878Y-5.8437
X5.4882Y-5.7189
X5.4886Y-5.9693
X5.489Y-6.3445
X5.489Y-6.4689
X5.4894Y-6.2189
X5.4894Y-6.5953
X5.4913Y-6.722
X5.5693Y-10.0839
X5.5693Y-10.1839
X5.5693Y-10.2839
X5.5693Y-10.3839
X5.5693Y-10.4839
X5.5693Y-10.5839
X5.5693Y-10.6839
X5.5693Y-10.7839
X5.5693Y-10.8839
X5.5713Y-11.2478
X5.5713Y-11.3478
X5.5713Y-11.4478
X5.5713Y-11.5478
X5.5713Y-11.6478
X5.5713Y-11.7478
X5.5713Y-11.8478
X5.5713Y-11.9478
X5.5728Y-8.8305
X5.5728Y-8.9305
X5.5728Y-9.0305
X5.5728Y-9.1305
X5.5728Y-9.2305
X5.5728Y-9.3305
X5.5728Y-9.4305
X5.5728Y-9.5305
X5.5728Y-9.6305
X5.5728Y-9.7305
X5.5736Y-12.3043
X5.5736Y-12.4043
X5.5736Y-12.5043
X5.5736Y-12.6043
X5.5736Y-12.7043
X5.5736Y-12.8043
X5.5736Y-12.9043
X5.5736Y-13.0043
X5.6315Y-2.7378
X5.6315Y-2.9346
X5.6697Y-9.9268
X5.6728Y-12.1417
X5.6736Y-11.0945
X5.6752Y-8.6764
X5.7583Y-2.7378
X5.7583Y-2.9346
X5.8665Y-9.9268
X5.8693Y-10.0839
X5.8693Y-10.1839
X5.8693Y-10.2839
X5.8693Y-10.3839
X5.8693Y-10.4839
X5.8693Y-10.5839
X5.8693Y-10.6839
X5.8693Y-10.7839
X5.8693Y-10.8839
X5.8697Y-12.1417
X5.8705Y-11.0945
X5.8713Y-11.2478
X5.8713Y-11.3478
X5.8713Y-11.4478
X5.8713Y-11.5478
X5.8713Y-11.6478
X5.8713Y-11.7478
X5.8713Y-11.8478
X5.8713Y-11.9478
X5.872Y-8.6764
X5.8728Y-8.8305
X5.8728Y-8.9305
X5.8728Y-9.0305
X5.8728Y-9.1305
X5.8728Y-9.2305
X5.8728Y-9.3305
X5.8728Y-9.4305
X5.8728Y-9.5305
X5.8728Y-9.6305
X5.8728Y-9.7305
X5.8736Y-12.3043
X5.8736Y-12.4043
X5.8736Y-12.5043
X5.8736Y-12.6043
X5.8736Y-12.7043
X5.8736Y-12.8043
X5.8736Y-12.9043
X5.8736Y-13.0043
X5.8843Y-2.7378
X5.8843Y-2.9346
X6.0079Y-2.7378
X6.0079Y-2.9346
X6.0213Y-7.252
X6.0213Y-7.352
X6.0213Y-7.452
X6.0213Y-7.552
X6.0213Y-7.652
X6.0213Y-7.752
X6.0213Y-7.852
X6.0213Y-7.952
X6.0213Y-8.052
X6.0213Y-8.152
X6.0213Y-8.252
X6.0213Y-8.352
X6.0213Y-8.452
X6.0213Y-8.552
X6.0669Y-10.0843
X6.0669Y-10.1843
X6.0669Y-10.2843
X6.0669Y-10.3843
X6.0669Y-10.4843
X6.0669Y-10.5843
X6.0669Y-10.6843
X6.0669Y-10.7843
X6.0669Y-10.8843
X6.0701Y-9.0299
X6.0701Y-9.1299
X6.0701Y-9.2299
X6.0701Y-9.3299
X6.0701Y-9.4299
X6.0701Y-9.5299
X6.0701Y-9.6299
X6.0701Y-9.7299
X6.072Y-11.2472
X6.072Y-11.3472
X6.072Y-11.4472
X6.072Y-11.5472
X6.072Y-11.6472
X6.072Y-11.7472
X6.072Y-11.8472
X6.072Y-11.9472
X6.072Y-12.3045
X6.072Y-12.4045
X6.072Y-12.5045
X6.072Y-12.6045
X6.072Y-12.7045
X6.072Y-12.8045
X6.072Y-12.9045
X6.072Y-13.0045
X6.137Y-2.7378
X6.137Y-2.9346
X6.1693Y-12.15
X6.172Y-9.9343
X6.1724Y-11.0917
X6.1748Y-8.8795
X6.2598Y-2.7378
X6.2598Y-2.9346
X6.3661Y-12.15
X6.3669Y-10.0843
X6.3669Y-10.1843
X6.3669Y-10.2843
X6.3669Y-10.3843
X6.3669Y-10.4843
X6.3669Y-10.5843
X6.3669Y-10.6843
X6.3669Y-10.7843
X6.3669Y-10.8843
X6.3689Y-9.9343
X6.3693Y-11.0917
X6.3701Y-9.0299
X6.3701Y-9.1299
X6.3701Y-9.2299
X6.3701Y-9.3299
X6.3701Y-9.4299
X6.3701Y-9.5299
X6.3701Y-9.6299
X6.3701Y-9.7299
X6.3717Y-8.8795
X6.372Y-11.2472
X6.372Y-11.3472
X6.372Y-11.4472
X6.372Y-11.5472
X6.372Y-11.6472
X6.372Y-11.7472
X6.372Y-11.8472
X6.372Y-11.9472
X6.372Y-12.3045
X6.372Y-12.4045
X6.372Y-12.5045
X6.372Y-12.6045
X6.372Y-12.7045
X6.372Y-12.8045
X6.372Y-12.9045
X6.372Y-13.0045
X6.3831Y-2.7378
X6.3831Y-2.9346
X6.4724Y-7.0976
X6.5094Y-2.7378
X6.5094Y-2.9346
X6.5705Y-9.1305
X6.5705Y-9.2305
X6.5705Y-9.3305
X6.5705Y-9.4305
X6.5705Y-9.5305
X6.5705Y-9.6305
X6.5705Y-9.7305
X6.5709Y-10.0874
X6.5709Y-10.1874
X6.5709Y-10.2874
X6.5709Y-10.3874
X6.5709Y-10.4874
X6.5709Y-10.5874
X6.5709Y-10.6874
X6.5709Y-10.7874
X6.5709Y-10.8874
X6.5717Y-12.303
X6.5717Y-12.403
X6.5717Y-12.503
X6.5717Y-12.603
X6.5717Y-12.703
X6.5717Y-12.803
X6.5717Y-12.903
X6.5717Y-13.003
X6.5728Y-11.2459
X6.5728Y-11.3459
X6.5728Y-11.4459
X6.5728Y-11.5459
X6.5728Y-11.6459
X6.5728Y-11.7459
X6.5728Y-11.8459
X6.5728Y-11.9459
X6.6213Y-7.252
X6.6213Y-7.352
X6.6213Y-7.452
X6.6213Y-7.552
X6.6213Y-7.652
X6.6213Y-7.752
X6.6213Y-7.852
X6.6213Y-7.952
X6.6213Y-8.052
X6.6213Y-8.152
X6.6213Y-8.252
X6.6213Y-8.352
X6.6213Y-8.452
X6.6213Y-8.552
X6.6331Y-2.7378
X6.6331Y-2.9346
X6.6693Y-7.0976
X6.6705Y-12.148
X6.6709Y-11.0909
X6.6713Y-9.9339
X6.7579Y-2.7378
X6.7579Y-2.9346
X6.8673Y-12.148
X6.8677Y-11.0909
X6.8681Y-9.9339
X6.8705Y-9.1305
X6.8705Y-9.2305
X6.8705Y-9.3305
X6.8705Y-9.4305
X6.8705Y-9.5305
X6.8705Y-9.6305
X6.8705Y-9.7305
X6.8709Y-10.0874
X6.8709Y-10.1874
X6.8709Y-10.2874
X6.8709Y-10.3874
X6.8709Y-10.4874
X6.8709Y-10.5874
X6.8709Y-10.6874
X6.8709Y-10.7874
X6.8709Y-10.8874
X6.8717Y-12.303
X6.8717Y-12.403
X6.8717Y-12.503
X6.8717Y-12.603
X6.8717Y-12.703
X6.8717Y-12.803
X6.8717Y-12.903
X6.8717Y-13.003
X6.8728Y-11.2459
X6.8728Y-11.3459
X6.8728Y-11.4459
X6.8728Y-11.5459
X6.8728Y-11.6459
X6.8728Y-11.7459
X6.8728Y-11.8459
X6.8728Y-11.9459
X6.9713Y-7.2492
X6.9713Y-7.3492
X6.9713Y-7.4492
X6.9713Y-7.5492
X6.9713Y-7.6492
X6.9713Y-7.7492
X6.9713Y-7.8492
X6.9713Y-7.9492
X6.9713Y-8.0492
X6.9713Y-8.1492
X7.064Y-2.7384
X7.064Y-2.9352
X7.074Y-10.087
X7.074Y-10.187
X7.074Y-10.287
X7.074Y-10.387
X7.074Y-10.487
X7.074Y-10.587
X7.074Y-10.687
X7.074Y-10.787
X7.074Y-10.887
X7.076Y-11.2435
X7.076Y-11.3435
X7.076Y-11.4435
X7.076Y-11.5435
X7.076Y-11.6435
X7.076Y-11.7435
X7.076Y-11.8435
X7.076Y-11.9435
X7.0764Y-7.0972
X7.0764Y-12.301
X7.0764Y-12.401
X7.0764Y-12.501
X7.0764Y-12.601
X7.0764Y-12.701
X7.0764Y-12.801
X7.0764Y-12.901
X7.0764Y-13.001
X7.1748Y-11.0906
X7.1754Y-9.6333
X7.1756Y-9.9311
X7.1756Y-12.1476
X7.2713Y-7.2492
X7.2713Y-7.3492
X7.2713Y-7.4492
X7.2713Y-7.5492
X7.2713Y-7.6492
X7.2713Y-7.7492
X7.2713Y-7.8492
X7.2713Y-7.9492
X7.2713Y-8.0492
X7.2713Y-8.1492
X7.2732Y-7.0972
X7.3717Y-11.0906
X7.3722Y-9.6333
X7.3724Y-9.9311
X7.3724Y-12.1476
X7.374Y-10.087
X7.374Y-10.187
X7.374Y-10.287
X7.374Y-10.387
X7.374Y-10.487
X7.374Y-10.587
X7.374Y-10.687
X7.374Y-10.787
X7.374Y-10.887
X7.376Y-11.2435
X7.376Y-11.3435
X7.376Y-11.4435
X7.376Y-11.5435
X7.376Y-11.6435
X7.376Y-11.7435
X7.376Y-11.8435
X7.376Y-11.9435
X7.3764Y-12.301
X7.3764Y-12.401
X7.3764Y-12.501
X7.3764Y-12.601
X7.3764Y-12.701
X7.3764Y-12.801
X7.3764Y-12.901
X7.3764Y-13.001
X7.5724Y-7.2496
X7.5724Y-7.3496
X7.5724Y-7.4496
X7.5724Y-7.5496
X7.5724Y-7.6496
X7.5724Y-7.7496
X7.5724Y-7.8496
X7.5724Y-7.9496
X7.5724Y-8.0496
X7.5724Y-8.1496
X7.5748Y-12.2978
X7.5748Y-12.3978
X7.5748Y-12.4978
X7.5748Y-12.5978
X7.5748Y-12.6978
X7.5748Y-12.7978
X7.5748Y-12.8978
X7.5748Y-12.9978
X7.5756Y-10.1844
X7.5756Y-10.2844
X7.5756Y-10.3844
X7.5756Y-10.4844
X7.5756Y-10.5844
X7.5756Y-10.6844
X7.5756Y-10.7844
X7.5756Y-10.8844
X7.5768Y-11.2439
X7.5768Y-11.3439
X7.5768Y-11.4439
X7.5768Y-11.5439
X7.5768Y-11.6439
X7.5768Y-11.7439
X7.5768Y-11.8439
X7.5768Y-11.9439
X7.674Y-7.0992
X7.6752Y-11.0894
X7.676Y-12.1461
X7.6787Y-9.9307
X7.6929Y-5.4252
X7.6929Y-5.9252
X7.8646Y-3.3366
X7.8646Y-3.4366
X7.8646Y-3.5366
X7.8646Y-3.6366
X7.8646Y-3.7366
X7.8646Y-3.8366
X7.8646Y-3.9366
X7.8646Y-4.0366
X7.8646Y-4.1366
X7.8646Y-4.2366
X7.8669Y-4.5898
X7.8669Y-4.6898
X7.8669Y-4.7898
X7.8669Y-4.8898
X7.8669Y-4.9898
X7.8669Y-5.0898
X7.8669Y-5.1898
X7.8669Y-5.2898
X7.8669Y-5.3898
X7.8669Y-5.4898
X7.8681Y-4.3878
X7.8685Y-5.648
X7.8693Y-5.848
X7.8693Y-5.948
X7.8693Y-6.048
X7.8693Y-6.148
X7.8693Y-6.248
X7.8693Y-6.348
X7.8693Y-6.448
X7.8693Y-6.548
X7.8693Y-6.648
X7.8693Y-6.748
X7.8705Y-6.8992
X7.8709Y-7.0992
X7.872Y-11.0894
X7.8724Y-7.2496
X7.8724Y-7.3496
X7.8724Y-7.4496
X7.8724Y-7.5496
X7.8724Y-7.6496
X7.8724Y-7.7496
X7.8724Y-7.8496
X7.8724Y-7.9496
X7.8724Y-8.0496
X7.8724Y-8.1496
X7.8728Y-12.1461
X7.8748Y-12.2978
X7.8748Y-12.3978
X7.8748Y-12.4978
X7.8748Y-12.5978
X7.8748Y-12.6978
X7.8748Y-12.7978
X7.8748Y-12.8978
X7.8748Y-12.9978
X7.8756Y-9.9307
X7.8756Y-10.1844
X7.8756Y-10.2844
X7.8756Y-10.3844
X7.8756Y-10.4844
X7.8756Y-10.5844
X7.8756Y-10.6844
X7.8756Y-10.7844
X7.8756Y-10.8844
X7.8768Y-11.2439
X7.8768Y-11.3439
X7.8768Y-11.4439
X7.8768Y-11.5439
X7.8768Y-11.6439
X7.8768Y-11.7439
X7.8768Y-11.8439
X7.8768Y-11.9439
X8.0177Y-7.2555
X8.0177Y-7.7555
X8.0628Y-2.7388
X8.0628Y-2.9356
X8.065Y-4.3878
X8.0654Y-5.648
X8.0673Y-6.8992
X8.0736Y-10.2612
X8.0736Y-10.3612
X8.0736Y-10.4612
X8.0736Y-10.5612
X8.0736Y-10.6612
X8.0736Y-10.7612
X8.0736Y-10.8612
X8.0752Y-11.2419
X8.0752Y-11.3419
X8.0752Y-11.4419
X8.0752Y-11.5419
X8.0752Y-11.6419
X8.0752Y-11.7419
X8.0752Y-11.8419
X8.0752Y-11.9419
X8.0752Y-12.2984
X8.0752Y-12.3984
X8.0752Y-12.4984
X8.0752Y-12.5984
X8.0752Y-12.6984
X8.0752Y-12.7984
X8.0752Y-12.8984
X8.0752Y-12.9984
X8.1646Y-3.3366
X8.1646Y-3.4366
X8.1646Y-3.5366
X8.1646Y-3.6366
X8.1646Y-3.7366
X8.1646Y-3.8366
X8.1646Y-3.9366
X8.1646Y-4.0366
X8.1646Y-4.1366
X8.1646Y-4.2366
X8.1669Y-4.5898
X8.1669Y-4.6898
X8.1669Y-4.7898
X8.1669Y-4.8898
X8.1669Y-4.9898
X8.1669Y-5.0898
X8.1669Y-5.1898
X8.1669Y-5.2898
X8.1669Y-5.3898
X8.1669Y-5.4898
X8.1693Y-5.848
X8.1693Y-5.948
X8.1693Y-6.048
X8.1693Y-6.148
X8.1693Y-6.248
X8.1693Y-6.348
X8.1693Y-6.448
X8.1693Y-6.548
X8.1693Y-6.648
X8.1693Y-6.748
X8.1713Y-7.2496
X8.1713Y-7.3496
X8.1713Y-7.4496
X8.1713Y-7.5496
X8.1713Y-7.6496
X8.1713Y-7.7496
X8.1713Y-7.8496
X8.1713Y-7.9496
X8.1713Y-8.0496
X8.1713Y-8.1496
X8.1713Y-12.1465
X8.1744Y-11.0898
X8.1992Y-8.3535
X8.1992Y-8.8535
X8.2742Y-9.9295
X8.278Y-7.0949
X8.3681Y-12.1465
X8.3713Y-11.0898
X8.3736Y-10.2612
X8.3736Y-10.3612
X8.3736Y-10.4612
X8.3736Y-10.5612
X8.3736Y-10.6612
X8.3736Y-10.7612
X8.3736Y-10.8612
X8.3742Y-9.9295
X8.3752Y-11.2419
X8.3752Y-11.3419
X8.3752Y-11.4419
X8.3752Y-11.5419
X8.3752Y-11.6419
X8.3752Y-11.7419
X8.3752Y-11.8419
X8.3752Y-11.9419
X8.3752Y-12.2984
X8.3752Y-12.3984
X8.3752Y-12.4984
X8.3752Y-12.5984
X8.3752Y-12.6984
X8.3752Y-12.7984
X8.3752Y-12.8984
X8.3752Y-12.9984
X8.4713Y-7.2496
X8.4713Y-7.3496
X8.4713Y-7.4496
X8.4713Y-7.5496
X8.4713Y-7.6496
X8.4713Y-7.7496
X8.4713Y-7.8496
X8.4713Y-7.9496
X8.4713Y-8.0496
X8.4713Y-8.1496
X8.4748Y-7.0949
X8.5207Y-3.7632
X8.5697Y-4.6949
X8.5697Y-4.7949
X8.5697Y-4.8949
X8.5697Y-4.9949
X8.5697Y-5.0949
X8.5697Y-5.1949
X8.5697Y-5.2949
X8.5697Y-5.3949
X8.5697Y-5.4949
X8.5697Y-5.5949
X8.5697Y-5.6949
X8.5697Y-5.7949
X8.5697Y-5.8949
X8.5697Y-5.9949
X8.5697Y-6.0949
X8.5697Y-6.1949
X8.5697Y-6.2949
X8.5697Y-6.3949
X8.5697Y-6.4949
X8.5697Y-6.5949
X8.5772Y-10.1866
X8.5772Y-10.2866
X8.5772Y-10.3866
X8.5772Y-10.4866
X8.5772Y-10.5866
X8.5772Y-10.6866
X8.5772Y-10.7866
X8.5772Y-10.8866
X8.5776Y-11.2431
X8.5776Y-11.3431
X8.5776Y-11.4431
X8.5776Y-11.5431
X8.5776Y-11.6431
X8.5776Y-11.7431
X8.5776Y-11.8431
X8.5776Y-11.9431
X8.5807Y-12.2969
X8.5807Y-12.3969
X8.5807Y-12.4969
X8.5807Y-12.5969
X8.5807Y-12.6969
X8.5807Y-12.7969
X8.5807Y-12.8969
X8.5807Y-12.9969
X8.6201Y-7.25
X8.6201Y-7.75
X8.6224Y-8.1508
X8.6772Y-12.1457
X8.6795Y-11.0866
X8.6803Y-9.9311
X8.7175Y-3.7632
X8.8193Y-8.1508
X8.874Y-12.1457
X8.8764Y-11.0866
X8.8772Y-9.9311
X8.8772Y-10.1866
X8.8772Y-10.2866
X8.8772Y-10.3866
X8.8772Y-10.4866
X8.8772Y-10.5866
X8.8772Y-10.6866
X8.8772Y-10.7866
X8.8772Y-10.8866
X8.8776Y-11.2431
X8.8776Y-11.3431
X8.8776Y-11.4431
X8.8776Y-11.5431
X8.8776Y-11.6431
X8.8776Y-11.7431
X8.8776Y-11.8431
X8.8776Y-11.9431
X8.8807Y-12.2969
X8.8807Y-12.3969
X8.8807Y-12.4969
X8.8807Y-12.5969
X8.8807Y-12.6969
X8.8807Y-12.7969
X8.8807Y-12.8969
X8.8807Y-12.9969
X8.9728Y-6.9984
X8.9748Y-4.5484
X9.0413Y-4.2921
X9.0728Y-6.9984
X9.0795Y-11.2435
X9.0795Y-11.3435
X9.0795Y-11.4435
X9.0795Y-11.5435
X9.0795Y-11.6435
X9.0795Y-11.7435
X9.0795Y-11.8435
X9.0795Y-11.9435
X9.0795Y-12.2976
X9.0795Y-12.3976
X9.0795Y-12.4976
X9.0795Y-12.5976
X9.0795Y-12.6976
X9.0795Y-12.7976
X9.0795Y-12.8976
X9.0795Y-12.9976
X9.1531Y-9.8551
X9.1531Y-10.052
X9.1697Y-4.6949
X9.1697Y-4.7949
X9.1697Y-4.8949
X9.1697Y-4.9949
X9.1697Y-5.0949
X9.1697Y-5.1949
X9.1697Y-5.2949
X9.1697Y-5.3949
X9.1697Y-5.4949
X9.1697Y-5.5949
X9.1697Y-5.6949
X9.1697Y-5.7949
X9.1697Y-5.8949
X9.1697Y-5.9949
X9.1697Y-6.0949
X9.1697Y-6.1949
X9.1697Y-6.2949
X9.1697Y-6.3949
X9.1697Y-6.4949
X9.1697Y-6.5949
X9.1717Y-4.5484
X9.1728Y-6.9984
X9.1748Y-7.7
X9.1776Y-12.1453
X9.1799Y-11.0882
X9.2728Y-6.9984
X9.3201Y-3.2382
X9.3201Y-3.335
X9.3201Y-3.435
X9.3201Y-3.6866
X9.3201Y-3.8835
X9.3705Y-4.6925
X9.3705Y-4.7925
X9.3705Y-4.8925
X9.3705Y-4.9925
X9.3705Y-5.0925
X9.3705Y-5.1925
X9.3705Y-5.2925
X9.3705Y-5.3925
X9.3705Y-5.4925
X9.3705Y-5.5925
X9.3705Y-5.6925
X9.3705Y-5.7925
X9.3705Y-5.8925
X9.3705Y-5.9925
X9.3705Y-6.0925
X9.3705Y-6.1925
X9.3705Y-6.2925
X9.3705Y-6.3925
X9.3705Y-6.4925
X9.3705Y-6.5925
X9.3728Y-6.9984
X9.3744Y-12.1453
X9.3768Y-11.0882
X9.3795Y-11.2435
X9.3795Y-11.3435
X9.3795Y-11.4435
X9.3795Y-11.5435
X9.3795Y-11.6435
X9.3795Y-11.7435
X9.3795Y-11.8435
X9.3795Y-11.9435
X9.3795Y-12.2976
X9.3795Y-12.3976
X9.3795Y-12.4976
X9.3795Y-12.5976
X9.3795Y-12.6976
X9.3795Y-12.7976
X9.3795Y-12.8976
X9.3795Y-12.9976
X9.4693Y-3.2386
X9.4693Y-3.3354
X9.4693Y-3.4354
X9.4713Y-3.6878
X9.4713Y-3.8846
X9.4728Y-6.9984
X9.5413Y-4.2921
X9.602Y-12.2949
X9.602Y-12.3949
X9.602Y-12.4949
X9.602Y-12.5949
X9.602Y-12.6949
X9.602Y-12.7949
X9.602Y-12.8949
X9.6075Y-11.2425
X9.6075Y-11.3425
X9.6075Y-11.4425
X9.6075Y-11.5425
X9.6075Y-11.6425
X9.6075Y-11.7425
X9.6075Y-11.8425
X9.6189Y-3.2386
X9.6189Y-3.3354
X9.6189Y-3.4354
X9.622Y-3.6874
X9.622Y-3.8843
X9.6287Y-7.976
X9.6555Y-9.0543
X9.6555Y-9.1543
X9.6555Y-9.2543
X9.6555Y-9.3543
X9.6555Y-9.4543
X9.6555Y-9.5543
X9.6555Y-9.6543
X9.6555Y-9.7543
X9.6555Y-9.8543
X9.6555Y-9.9543
X9.6555Y-10.0543
X9.6748Y-7.7
X9.7083Y-12.1449
X9.7555Y-8.9543
X9.7555Y-9.0543
X9.7555Y-9.1543
X9.7555Y-9.2543
X9.7555Y-9.3543
X9.7555Y-9.4543
X9.7555Y-9.5543
X9.7555Y-9.6543
X9.7555Y-9.7543
X9.7555Y-9.8543
X9.7555Y-9.9543
X9.7555Y-10.0543
X9.7555Y-10.1543
X9.7697Y-3.239
X9.7697Y-3.3358
X9.7697Y-3.4358
X9.7705Y-4.0902
X9.7717Y-3.6874
X9.7717Y-3.8843
X9.7736Y-4.5398
X9.7787Y-8.0685
X9.8256Y-7.976
X9.8555Y-8.9543
X9.8555Y-9.0543
X9.8555Y-10.0543
X9.8555Y-10.1543
X9.8685Y-4.3646
X9.902Y-12.2949
X9.902Y-12.3949
X9.902Y-12.4949
X9.902Y-12.5949
X9.902Y-12.6949
X9.902Y-12.7949
X9.902Y-12.8949
X9.9051Y-12.1449
X9.9075Y-11.2425
X9.9075Y-11.3425
X9.9075Y-11.4425
X9.9075Y-11.5425
X9.9075Y-11.6425
X9.9075Y-11.7425
X9.9075Y-11.8425
X9.922Y-3.2378
X9.922Y-3.3346
X9.922Y-3.4346
X9.9228Y-3.6878
X9.9228Y-3.8846
X9.9555Y-8.9543
X9.9555Y-9.0543
X9.9555Y-10.0543
X9.9555Y-10.1543
X9.9685Y-4.3646
X9.9705Y-4.5398
X9.9705Y-4.6925
X9.9705Y-4.7925
X9.9705Y-4.8925
X9.9705Y-4.9925
X9.9705Y-5.0925
X9.9705Y-5.1925
X9.9705Y-5.2925
X9.9705Y-5.3925
X9.9705Y-5.4925
X9.9705Y-5.5925
X9.9705Y-5.6925
X9.9705Y-5.7925
X9.9705Y-5.8925
X9.9705Y-5.9925
X9.9705Y-6.0925
X9.9705Y-6.1925
X9.9705Y-6.2925
X9.9705Y-6.3925
X9.9705Y-6.4925
X9.9705Y-6.5925
X10.0531Y-11.2409
X10.0531Y-11.3409
X10.0531Y-11.4409
X10.0531Y-11.5409
X10.0531Y-11.6409
X10.0531Y-11.7409
X10.0531Y-11.8409
X10.0555Y-8.9543
X10.0555Y-9.0543
X10.0555Y-10.0543
X10.0555Y-10.1543
X10.0685Y-4.3646
X10.0724Y-3.2394
X10.0724Y-3.3362
X10.0724Y-3.4362
X10.0748Y-3.6902
X10.0748Y-3.887
X10.1555Y-8.9543
X10.1555Y-9.0543
X10.1555Y-10.0543
X10.1555Y-10.1543
X10.1575Y-11.085
X10.1685Y-4.3646
X10.2236Y-3.2366
X10.2236Y-3.3335
X10.2236Y-3.4335
X10.2252Y-3.6882
X10.2252Y-3.885
X10.2476Y-4.9996
X10.2476Y-5.0996
X10.2476Y-5.1996
X10.2476Y-5.2996
X10.2476Y-5.3996
X10.2476Y-5.4996
X10.2476Y-5.5996
X10.2476Y-5.6996
X10.2555Y-8.9543
X10.2555Y-9.0543
X10.2555Y-10.0543
X10.2555Y-10.1543
X10.2685Y-4.3646
X10.2705Y-4.0902
X10.2742Y-7.0463
X10.2742Y-7.2431
X10.2787Y-8.0685
X10.3531Y-11.2409
X10.3531Y-11.3409
X10.3531Y-11.4409
X10.3531Y-11.5409
X10.3531Y-11.6409
X10.3531Y-11.7409
X10.3531Y-11.8409
X10.3543Y-11.085
X10.3555Y-8.9543
X10.3555Y-9.0543
X10.3555Y-10.0543
X10.3555Y-10.1543
X10.3685Y-4.3646
X10.3744Y-3.2366
X10.3744Y-3.3335
X10.3744Y-3.4335
X10.3756Y-3.6894
X10.3756Y-3.8862
X10.3811Y-8.4315
X10.4555Y-8.9543
X10.4555Y-9.0543
X10.4555Y-10.0543
X10.4555Y-10.1543
X10.4685Y-4.3646
X10.4811Y-8.4315
X10.5067Y-11.2417
X10.5067Y-11.3417
X10.5067Y-11.4417
X10.5067Y-11.5417
X10.5067Y-11.6417
X10.5067Y-11.7417
X10.5067Y-11.8417
X10.5232Y-3.2374
X10.5232Y-3.3343
X10.5232Y-3.4343
X10.5244Y-3.6894
X10.5244Y-3.8862
X10.5476Y-4.9996
X10.5476Y-5.0996
X10.5476Y-5.1996
X10.5476Y-5.2996
X10.5476Y-5.3996
X10.5476Y-5.4996
X10.5476Y-5.5996
X10.5476Y-5.6996
X10.5543Y-7.9258
X10.5555Y-8.9543
X10.5555Y-9.0543
X10.5555Y-10.0543
X10.5555Y-10.1543
X10.5598Y-8.0776
X10.5685Y-4.3646
X10.5811Y-8.4315
X10.6067Y-11.0858
X10.6555Y-8.9543
X10.6555Y-9.0543
X10.6555Y-10.0543
X10.6555Y-10.1543
X10.6736Y-3.2374
X10.6736Y-3.3343
X10.6736Y-3.4343
X10.6756Y-3.6906
X10.6756Y-3.8874
X10.6811Y-8.4315
X10.7555Y-8.9543
X10.7555Y-9.0543
X10.7555Y-9.1543
X10.7555Y-9.2543
X10.7555Y-9.3543
X10.7555Y-9.4543
X10.7555Y-9.5543
X10.7555Y-9.6543
X10.7555Y-9.7543
X10.7555Y-9.8543
X10.7555Y-9.9543
X10.7555Y-10.0543
X10.7555Y-10.1543
X10.7768Y-4.6945
X10.7768Y-4.7945
X10.7768Y-4.8945
X10.7768Y-4.9945
X10.7768Y-5.0945
X10.7768Y-5.1945
X10.7768Y-5.2945
X10.7768Y-5.3945
X10.7768Y-5.4945
X10.7768Y-5.5945
X10.7768Y-5.6945
X10.7768Y-5.7945
X10.7768Y-5.8945
X10.7768Y-5.9945
X10.7768Y-6.0945
X10.7768Y-6.1945
X10.7768Y-6.2945
X10.7768Y-6.3945
X10.7768Y-6.4945
X10.7768Y-6.5945
X10.7811Y-8.4315
X10.8035Y-11.0858
X10.8067Y-11.2417
X10.8067Y-11.3417
X10.8067Y-11.4417
X10.8067Y-11.5417
X10.8067Y-11.6417
X10.8067Y-11.7417
X10.8067Y-11.8417
X10.8224Y-3.2378
X10.8224Y-3.3346
X10.8224Y-3.4346
X10.8248Y-3.6902
X10.8248Y-3.887
X10.8555Y-9.0543
X10.8555Y-9.1543
X10.8555Y-9.2543
X10.8555Y-9.3543
X10.8555Y-9.4543
X10.8555Y-9.5543
X10.8555Y-9.6543
X10.8555Y-9.7543
X10.8555Y-9.8543
X10.8555Y-9.9543
X10.8555Y-10.0543
X10.8811Y-8.4315
X10.972Y-3.2394
X10.972Y-3.3362
X10.972Y-3.4362
X10.9736Y-3.6909
X10.9736Y-3.8878
X10.9803Y-11.9165
X11.0543Y-7.9258
X11.0598Y-8.0776
X11.0787Y-10.2047
X11.122Y-3.239
X11.122Y-3.3358
X11.122Y-3.4358
X11.1244Y-3.6906
X11.1244Y-3.8874
X11.126Y-4.5409
X11.1772Y-11.9165
X11.2012Y-8.8764
X11.2335Y-8.552
X11.2724Y-3.2382
X11.2724Y-3.335
X11.2724Y-3.435
X11.2744Y-3.6906
X11.2744Y-3.8874
X11.2756Y-10.2047
X11.3228Y-4.5409
X11.3768Y-4.6945
X11.3768Y-4.7945
X11.3768Y-4.8945
X11.3768Y-4.9945
X11.3768Y-5.0945
X11.3768Y-5.1945
X11.3768Y-5.2945
X11.3768Y-5.3945
X11.3768Y-5.4945
X11.3768Y-5.5945
X11.3768Y-5.6945
X11.3768Y-5.7945
X11.3768Y-5.8945
X11.3768Y-5.9945
X11.3768Y-6.0945
X11.3768Y-6.1945
X11.3768Y-6.2945
X11.3768Y-6.3945
X11.3768Y-6.4945
X11.3768Y-6.5945
X11.4236Y-3.2382
X11.4236Y-3.335
X11.4236Y-3.435
X11.424Y-3.6917
X11.424Y-3.8886
X11.4299Y-11.7654
X11.4303Y-8.552
X11.4309Y-12.1939
X11.4315Y-12.465
X11.4315Y-12.965
X11.4339Y-11.9197
X11.5744Y-3.6913
X11.5744Y-3.8882
X11.5748Y-3.239
X11.5748Y-3.3358
X11.5748Y-3.4358
X11.578Y-4.6941
X11.578Y-4.7941
X11.578Y-4.8941
X11.578Y-4.9941
X11.578Y-5.0941
X11.578Y-5.1941
X11.578Y-5.2941
X11.5803Y-6.202
X11.5803Y-6.3988
X11.5839Y-12.4669
X11.5839Y-12.9669
X11.6012Y-11.0583
X11.6012Y-11.5583
X11.6268Y-11.7654
X11.6278Y-12.1939
X11.6307Y-11.9197
X11.6752Y-6.2039
X11.6752Y-6.7039
X11.6787Y-4.3921
X11.6807Y-4.5445
X11.7012Y-8.8764
X11.7244Y-3.2374
X11.7244Y-3.3343
X11.7244Y-3.4343
X11.7264Y-3.6898
X11.7264Y-3.8866
X11.7272Y-11.0587
X11.7272Y-11.5587
X11.7331Y-12.465
X11.7331Y-12.965
X11.778Y-6.2039
X11.778Y-6.7039
X11.7815Y-6.8524
X11.7815Y-7.0492
X11.7827Y-7.5587
X11.7827Y-7.7555
X11.7839Y-7.2071
X11.7839Y-7.4039
X11.8756Y-3.2386
X11.8756Y-3.3354
X11.8756Y-3.4354
X11.8756Y-4.3921
X11.8776Y-4.5445
X11.878Y-4.6941
X11.878Y-4.7941
X11.878Y-4.8941
X11.878Y-4.9941
X11.878Y-5.0941
X11.878Y-5.1941
X11.878Y-5.2941
X11.8803Y-6.2031
X11.8803Y-6.7031
X11.8831Y-11.8472
X11.8831Y-12.3472
X11.8831Y-12.4661
X11.8831Y-12.9661
X11.9819Y-6.4
X11.9819Y-6.5969
X12.0244Y-3.2386
X12.0244Y-3.3354
X12.0244Y-3.4354
X12.0272Y-3.5866
X12.0272Y-4.0866
X12.0602Y-9.2583
X12.0602Y-9.3583
X12.0602Y-9.4583
X12.0602Y-9.5583
X12.0602Y-9.6583
X12.0602Y-9.7583
X12.0602Y-9.8583
X12.0602Y-9.9583
X12.0602Y-10.0583
X12.0823Y-11.2406
X12.0823Y-11.3406
X12.0823Y-11.4406
X12.0823Y-11.5406
X12.0823Y-11.6406
X12.0823Y-11.7406
X12.0823Y-11.8406
X12.085Y-12.1232
X12.085Y-12.2232
X12.085Y-12.3232
X12.085Y-12.4232
X12.085Y-12.5232
X12.085Y-12.6232
X12.085Y-12.7232
X12.085Y-12.8232
X12.085Y-12.9232
X12.1268Y-3.5862
X12.1268Y-4.0862
X12.1276Y-4.6929
X12.1276Y-5.1929
X12.1311Y-5.3969
X12.1311Y-5.8969
X12.1602Y-9.1583
X12.1602Y-9.2583
X12.1602Y-9.3583
X12.1602Y-9.4583
X12.1602Y-9.5583
X12.1602Y-9.6583
X12.1602Y-9.7583
X12.1602Y-9.8583
X12.1602Y-9.9583
X12.1602Y-10.0583
X12.1602Y-10.1583
X12.1839Y-11.0827
X12.2252Y-3.5862
X12.2252Y-4.0862
X12.2602Y-9.1583
X12.2602Y-9.2583
X12.2602Y-10.0583
X12.2602Y-10.1583
X12.2795Y-4.6949
X12.2795Y-4.7949
X12.2795Y-4.8949
X12.2795Y-4.9949
X12.2795Y-5.0949
X12.2795Y-5.1949
X12.2795Y-5.2949
X12.2795Y-5.3949
X12.2795Y-5.4949
X12.2795Y-5.5949
X12.2795Y-5.6949
X12.2795Y-5.7949
X12.2795Y-5.8949
X12.2795Y-5.9949
X12.2795Y-6.0949
X12.2795Y-6.1949
X12.2795Y-6.2949
X12.2795Y-6.3949
X12.2795Y-6.4949
X12.2795Y-6.5949
X12.2957Y-3.2343
X12.2957Y-3.7343
X12.3602Y-9.1583
X12.3602Y-9.2583
X12.3602Y-10.0583
X12.3602Y-10.1583
X12.3807Y-11.0827
X12.3823Y-11.2406
X12.3823Y-11.3406
X12.3823Y-11.4406
X12.3823Y-11.5406
X12.3823Y-11.6406
X12.3823Y-11.7406
X12.3823Y-11.8406
X12.385Y-12.1232
X12.385Y-12.2232
X12.385Y-12.3232
X12.385Y-12.4232
X12.385Y-12.5232
X12.385Y-12.6232
X12.385Y-12.7232
X12.385Y-12.8232
X12.385Y-12.9232
X12.4547Y-3.2354
X12.4547Y-3.7354
X12.4602Y-9.1583
X12.4602Y-9.2583
X12.4602Y-10.0583
X12.4602Y-10.1583
X12.5504Y-12.715
X12.5504Y-12.9118
X12.5555Y-12.2539
X12.5594Y-10.4843
X12.5602Y-9.1583
X12.5602Y-9.2583
X12.5602Y-10.0583
X12.5602Y-10.1583
X12.5713Y-3.235
X12.5713Y-3.735
X12.5862Y-11.1398
X12.6335Y-8.6028
X12.6555Y-12.2539
X12.6602Y-9.1583
X12.6602Y-9.2583
X12.6602Y-10.0583
X12.6602Y-10.1583
X12.6744Y-3.2429
X12.6744Y-3.3398
X12.6744Y-3.4398
X12.6807Y-4.5449
X12.7563Y-10.4843
X12.7602Y-9.1583
X12.7602Y-9.2583
X12.7602Y-10.0583
X12.7602Y-10.1583
X12.7776Y-3.5835
X12.7776Y-4.0835
X12.7831Y-11.1398
X12.8244Y-3.2429
X12.8244Y-3.3398
X12.8244Y-3.4398
X12.8268Y-12.7142
X12.8268Y-12.911
X12.8303Y-8.6028
X12.8602Y-9.1583
X12.8602Y-9.2583
X12.8602Y-10.0583
X12.8602Y-10.1583
X12.8776Y-4.5449
X12.8795Y-4.6949
X12.8795Y-4.7949
X12.8795Y-4.8949
X12.8795Y-4.9949
X12.8795Y-5.0949
X12.8795Y-5.1949
X12.8795Y-5.2949
X12.8795Y-5.3949
X12.8795Y-5.4949
X12.8795Y-5.5949
X12.8795Y-5.6949
X12.8795Y-5.7949
X12.8795Y-5.8949
X12.8795Y-5.9949
X12.8795Y-6.0949
X12.8795Y-6.1949
X12.8795Y-6.2949
X12.8795Y-6.3949
X12.8795Y-6.4949
X12.8795Y-6.5949
X12.9602Y-9.1583
X12.9602Y-9.2583
X12.9602Y-9.3583
X12.9602Y-9.4583
X12.9602Y-9.5583
X12.9602Y-9.6583
X12.9602Y-9.7583
X12.9602Y-9.8583
X12.9602Y-9.9583
X12.9602Y-10.0583
X12.9602Y-10.1583
X12.9752Y-3.2429
X12.9752Y-3.3398
X12.9752Y-3.4398
X12.9965Y-7.6472
X12.9965Y-8.1472
X13.0059Y-11.8169
X13.0059Y-12.3169
X13.0075Y-11.0122
X13.0075Y-11.5122
X13.0602Y-9.2583
X13.0602Y-9.3583
X13.0602Y-9.4583
X13.0602Y-9.5583
X13.0602Y-9.6583
X13.0602Y-9.7583
X13.0602Y-9.8583
X13.0602Y-9.9583
X13.0602Y-10.0583
X13.0819Y-4.6917
X13.0819Y-4.7917
X13.0819Y-4.8917
X13.0819Y-4.9917
X13.0819Y-5.0917
X13.0819Y-5.1917
X13.0819Y-5.2917
X13.1224Y-3.2429
X13.1224Y-3.3398
X13.1224Y-3.4398
X13.1839Y-4.5453
X13.1846Y-11.0138
X13.1846Y-11.1138
X13.1846Y-11.2138
X13.1846Y-11.3138
X13.1846Y-11.4138
X13.1846Y-11.5138
X13.274Y-3.2429
X13.274Y-3.3398
X13.274Y-3.4398
X13.3075Y-5.7224
X13.3075Y-6.2224
X13.3079Y-6.385
X13.3079Y-6.885
X13.3807Y-4.5453
X13.3819Y-4.6917
X13.3819Y-4.7917
X13.3819Y-4.8917
X13.3819Y-4.9917
X13.3819Y-5.0917
X13.3819Y-5.1917
X13.3819Y-5.2917
X13.4122Y-11.0157
X13.4122Y-11.1157
X13.4122Y-11.2157
X13.4122Y-11.3157
X13.4122Y-11.4157
X13.4122Y-11.5157
X13.4122Y-11.6157
X13.4122Y-11.7157
X13.4122Y-11.8157
X13.4122Y-11.9157
X13.4122Y-12.0157
X13.4122Y-12.1157
X13.4122Y-12.2157
X13.4122Y-12.3157
X13.4122Y-12.4157
X13.4122Y-12.5157
X13.4122Y-12.6157
X13.4122Y-12.7157
X13.4122Y-12.8157
X13.4122Y-12.9157
X13.426Y-3.2429
X13.426Y-3.3398
X13.426Y-3.4398
X13.5642Y-6.972
X13.5642Y-7.472
X13.7138Y-9.4059
X13.7138Y-9.5059
X13.7138Y-9.6059
X13.7138Y-9.7059
X13.7138Y-9.8059
X13.7138Y-9.9059
X13.7138Y-10.0059
X13.7138Y-10.1059
X13.7138Y-10.2059
X13.7138Y-10.3059
X13.8161Y-10.8634
X13.8169Y-9.2295
X13.8358Y-5.4472
X13.8358Y-5.5472
X13.8358Y-5.6472
X13.8358Y-5.7472
X13.8358Y-5.8472
X13.8358Y-5.9472
X13.8358Y-6.0472
X13.8358Y-6.1472
X13.8358Y-6.2472
X13.8358Y-6.3472
X13.8358Y-6.4472
X13.8358Y-6.5472
X13.8358Y-6.6472
X13.8358Y-6.7472
X13.8366Y-6.9016
X13.8626Y-8.3037
X13.8626Y-8.4037
X13.8776Y-3.1992
X13.8776Y-3.6992
X13.8811Y-4.5189
X13.8819Y-4.8925
X13.8831Y-5.1937
X13.8831Y-5.2969
X13.8843Y-5.0417
X13.9768Y-3.1984
X13.9768Y-3.6984
X13.9866Y-8.3045
X13.9866Y-8.4045
X14.0122Y-11.0157
X14.0122Y-11.1157
X14.0122Y-11.2157
X14.0122Y-11.3157
X14.0122Y-11.4157
X14.0122Y-11.5157
X14.0122Y-11.6157
X14.0122Y-11.7157
X14.0122Y-11.8157
X14.0122Y-11.9157
X14.0122Y-12.0157
X14.0122Y-12.1157
X14.0122Y-12.2157
X14.0122Y-12.3157
X14.0122Y-12.4157
X14.0122Y-12.5157
X14.0122Y-12.6157
X14.0122Y-12.7157
X14.0122Y-12.8157
X14.0122Y-12.9157
X14.013Y-10.8634
X14.0138Y-9.2295
X14.0138Y-9.4059
X14.0138Y-9.5059
X14.0138Y-9.6059
X14.0138Y-9.7059
X14.0138Y-9.8059
X14.0138Y-9.9059
X14.0138Y-10.0059
X14.0138Y-10.1059
X14.0138Y-10.2059
X14.0138Y-10.3059
X14.0335Y-6.9016
X14.0772Y-3.1984
X14.0772Y-3.6984
X14.0874Y-8.3045
X14.0874Y-8.4045
X14.1756Y-3.1984
X14.1756Y-3.6984
X14.1819Y-4.6437
X14.1839Y-4.7693
X14.237Y-8.3031
X14.237Y-8.4031
X14.237Y-8.5031
X14.3343Y-9.4075
X14.3343Y-9.5075
X14.3343Y-9.6075
X14.3343Y-9.7075
X14.3343Y-9.8075
X14.3343Y-9.9075
X14.3343Y-10.0075
X14.3343Y-10.1075
X14.3343Y-10.2075
X14.3343Y-10.3075
X14.3358Y-11.0175
X14.3358Y-11.1175
X14.3358Y-11.2175
X14.3358Y-11.3175
X14.3358Y-11.4175
X14.3358Y-11.5175
X14.3358Y-11.6175
X14.3541Y-3.3846
X14.3787Y-4.6437
X14.3807Y-4.7693
X14.3811Y-4.5189
X14.3819Y-4.8925
X14.3831Y-5.1937
X14.3831Y-5.2969
X14.3843Y-5.0417
X14.4358Y-5.4472
X14.4358Y-5.5472
X14.4358Y-5.6472
X14.4358Y-5.7472
X14.4358Y-5.8472
X14.4358Y-5.9472
X14.4358Y-6.0472
X14.4358Y-6.1472
X14.4358Y-6.2472
X14.4358Y-6.3472
X14.4358Y-6.4472
X14.4358Y-6.5472
X14.4358Y-6.6472
X14.4358Y-6.7472
X14.4406Y-10.8634
X14.4409Y-9.2299
X14.4494Y-3.287
X14.4494Y-3.4839
X14.5791Y-3.9894
X14.5791Y-4.0894
X14.5791Y-4.1894
X14.5791Y-4.2894
X14.5791Y-4.3894
X14.5791Y-4.4894
X14.5791Y-4.5894
X14.5791Y-4.6894
X14.5791Y-4.7894
X14.5791Y-4.8894
X14.5805Y-3.3846
X14.6343Y-9.4075
X14.6343Y-9.5075
X14.6343Y-9.6075
X14.6343Y-9.7075
X14.6343Y-9.8075
X14.6343Y-9.9075
X14.6343Y-10.0075
X14.6343Y-10.1075
X14.6343Y-10.2075
X14.6343Y-10.3075
X14.6358Y-11.0175
X14.6358Y-11.1175
X14.6358Y-11.2175
X14.6358Y-11.3175
X14.6358Y-11.4175
X14.6358Y-11.5175
X14.6358Y-11.6175
X14.6374Y-10.8634
X14.6378Y-9.2299
X14.6598Y-5.9492
X14.6598Y-6.1461
X14.6758Y-3.287
X14.6758Y-3.4839
X14.6819Y-12.3287
X14.6819Y-12.8287
X14.6827Y-3.8409
X14.7791Y-12.3283
X14.7791Y-12.8283
X14.8053Y-3.3846
X14.8791Y-3.9894
X14.8791Y-4.0894
X14.8791Y-4.1894
X14.8791Y-4.2894
X14.8791Y-4.3894
X14.8791Y-4.4894
X14.8791Y-4.5894
X14.8791Y-4.6894
X14.8791Y-4.7894
X14.8791Y-4.8894
X14.8795Y-3.8409
X14.9006Y-3.287
X14.9006Y-3.4839
X14.9634Y-11.9724
X14.9634Y-12.0724
X14.9634Y-12.1724
X14.9634Y-12.2724
X14.9634Y-12.3724
X14.9634Y-12.4724
X14.9634Y-12.5724
X14.9654Y-11.0159
X14.9654Y-11.1159
X14.9654Y-11.2159
X14.9654Y-11.3159
X14.9654Y-11.4159
X14.9654Y-11.5159
X14.9654Y-11.6159
X14.9673Y-9.5811
X14.9673Y-9.6811
X14.9673Y-9.7811
X14.9673Y-9.8811
X14.9673Y-9.9811
X14.9673Y-10.0811
X14.9673Y-10.1811
X14.9673Y-10.2811
X15.0309Y-3.3846
X15.0673Y-11.8209
X15.0685Y-10.8634
X15.0697Y-10.5118
X15.1262Y-3.287
X15.1262Y-3.4839
X15.1854Y-3.9921
X15.1854Y-4.0921
X15.1854Y-4.1921
X15.1854Y-4.2921
X15.1854Y-4.3921
X15.1854Y-4.4921
X15.1854Y-4.5921
X15.1854Y-4.6921
X15.1854Y-4.7921
X15.1854Y-4.8921
X15.2581Y-3.3843
X15.2634Y-11.9724
X15.2634Y-12.0724
X15.2634Y-12.1724
X15.2634Y-12.2724
X15.2634Y-12.3724
X15.2634Y-12.4724
X15.2634Y-12.5724
X15.2642Y-11.8209
X15.2654Y-10.8634
X15.2654Y-11.0159
X15.2654Y-11.1159
X15.2654Y-11.2159
X15.2654Y-11.3159
X15.2654Y-11.4159
X15.2654Y-11.5159
X15.2654Y-11.6159
X15.2665Y-10.5118
X15.2673Y-9.5811
X15.2673Y-9.6811
X15.2673Y-9.7811
X15.2673Y-9.8811
X15.2673Y-9.9811
X15.2673Y-10.0811
X15.2673Y-10.1811
X15.2673Y-10.2811
X15.2831Y-3.8366
X15.3533Y-3.2866
X15.3533Y-3.4835
X15.3921Y-6.8965
X15.4122Y-5.1437
X15.4799Y-3.8366
X15.4817Y-3.3846
X15.4854Y-3.9921
X15.4854Y-4.0921
X15.4854Y-4.1921
X15.4854Y-4.2921
X15.4854Y-4.3921
X15.4854Y-4.4921
X15.4854Y-4.5921
X15.4854Y-4.6921
X15.4854Y-4.7921
X15.4854Y-4.8921
X15.5358Y-11.9717
X15.5358Y-12.0717
X15.5358Y-12.1717
X15.5358Y-12.2717
X15.5358Y-12.3717
X15.5358Y-12.4717
X15.5358Y-12.5717
X15.5394Y-11.0179
X15.5394Y-11.1179
X15.5394Y-11.2179
X15.5394Y-11.3179
X15.5394Y-11.4179
X15.5394Y-11.5179
X15.5394Y-11.6179
X15.5402Y-9.3811
X15.5402Y-9.4811
X15.5402Y-9.5811
X15.5402Y-9.6811
X15.5402Y-9.7811
X15.5402Y-9.8811
X15.5402Y-9.9811
X15.5402Y-10.0811
X15.5402Y-10.1811
X15.5402Y-10.2811
X15.577Y-3.287
X15.577Y-3.4839
X15.589Y-6.8965
X15.6091Y-5.1437
X15.6311Y-4.1406
X15.6311Y-4.6406
X15.6413Y-9.2283
X15.6433Y-10.8646
X15.6433Y-11.8224
X15.7085Y-3.3846
X15.7307Y-4.1413
X15.7307Y-4.6413
X15.787Y-6.8953
X15.787Y-7.3953
X15.8037Y-3.287
X15.8037Y-3.4839
X15.8323Y-4.1417
X15.8323Y-4.6417
X15.8358Y-11.9717
X15.8358Y-12.0717
X15.8358Y-12.1717
X15.8358Y-12.2717
X15.8358Y-12.3717
X15.8358Y-12.4717
X15.8358Y-12.5717
X15.8382Y-9.2283
X15.8394Y-11.0179
X15.8394Y-11.1179
X15.8394Y-11.2179
X15.8394Y-11.3179
X15.8394Y-11.4179
X15.8394Y-11.5179
X15.8394Y-11.6179
X15.8402Y-9.3811
X15.8402Y-9.4811
X15.8402Y-9.5811
X15.8402Y-9.6811
X15.8402Y-9.7811
X15.8402Y-9.8811
X15.8402Y-9.9811
X15.8402Y-10.0811
X15.8402Y-10.1811
X15.8402Y-10.2811
X15.8402Y-10.8646
X15.8402Y-11.8224
X15.9307Y-3.1913
X15.9307Y-3.6913
X15.9319Y-4.1417
X15.9319Y-4.6417
X16.0315Y-4.1421
X16.0315Y-4.6421
X16.05Y-3.3821
X16.0906Y-9.7315
X16.0906Y-10.2315
X16.1331Y-4.1429
X16.1331Y-4.6429
X16.1378Y-11.9728
X16.1378Y-12.0728
X16.1378Y-12.1728
X16.1378Y-12.2728
X16.1378Y-12.3728
X16.1378Y-12.4728
X16.1378Y-12.5728
X16.1378Y-12.6728
X16.1378Y-12.7728
X16.1378Y-12.8728
X16.1398Y-11.0177
X16.1398Y-11.1177
X16.1398Y-11.2177
X16.1398Y-11.3177
X16.1398Y-11.4177
X16.1398Y-11.5177
X16.1453Y-3.2844
X16.1453Y-3.4813
X16.1878Y-6.2988
X16.1878Y-6.4957
X16.1906Y-5.6945
X16.1906Y-5.7941
X16.1906Y-5.8937
X16.1909Y-5.5937
X16.1909Y-5.9941
X16.2311Y-4.1441
X16.2311Y-4.6441
X16.2728Y-9.8524
X16.2866Y-4.7925
X16.2866Y-4.8925
X16.2866Y-4.9925
X16.2866Y-5.0925
X16.2866Y-5.1925
X16.2866Y-5.2925
X16.2866Y-5.3925
X16.2866Y-5.4925
X16.3035Y-3.2189
X16.3035Y-3.4157
X16.3047Y-3.5126
X16.3047Y-4.0126
X16.3307Y-4.1441
X16.3307Y-4.6441
X16.412Y-9.6311
X16.4142Y-8.724
X16.415Y-8.6248
X16.415Y-8.8248
X16.4165Y-10.437
X16.4169Y-10.3382
X16.4256Y-9.4311
X16.4295Y-4.1441
X16.4295Y-4.6441
X16.4307Y-3.1516
X16.4307Y-3.6516
X16.4642Y-12.652
X16.4642Y-12.752
X16.4642Y-12.852
X16.4913Y-7.8996
X16.4913Y-8.0965
X16.5378Y-4.1441
X16.5378Y-4.6441
X16.5543Y-3.7406
X16.5543Y-3.9374
X16.5583Y-3.2937
X16.5583Y-3.4906
X16.5669Y-9.9512
X16.5681Y-10.0575
X16.5705Y-10.2106
X16.572Y-9.7559
X16.5724Y-9.3035
X16.5728Y-9.0494
X16.5866Y-4.7925
X16.5866Y-4.8925
X16.5866Y-4.9925
X16.5866Y-5.0925
X16.5866Y-5.1925
X16.5866Y-5.2925
X16.5866Y-5.3925
X16.5866Y-5.4925
X16.612Y-9.6311
X16.663Y-4.1909
X16.6717Y-9.2083
X16.672Y-8.9541
X16.6827Y-3.148
X16.6827Y-3.648
X16.6906Y-5.6945
X16.6906Y-5.7941
X16.6906Y-5.8937
X16.6909Y-5.5937
X16.6909Y-5.9941
X16.7047Y-3.7894
X16.7047Y-3.9862
X16.723Y-9.4295
X16.7406Y-12.7035
X16.7409Y-6.1685
X16.7409Y-6.6685
X16.763Y-4.1909
X16.7638Y-9.9512
X16.765Y-10.0575
X16.7673Y-10.2106
X16.7689Y-9.7559
X16.7693Y-9.3035
X16.7697Y-9.0494
X16.7728Y-9.8524
X16.7831Y-3.148
X16.7831Y-3.648
X16.8417Y-11.4421
X16.8437Y-12.0248
X16.8437Y-12.1496
X16.8551Y-3.7902
X16.8551Y-3.987
X16.863Y-4.1909
X16.8638Y-6.1795
X16.8638Y-6.6795
X16.8831Y-3.148
X16.8831Y-3.648
X16.8906Y-5.0933
X16.8906Y-5.1933
X16.8906Y-5.2933
X16.8906Y-5.3933
X16.8906Y-5.4933
X16.8906Y-5.5933
X16.8941Y-11.898
X16.9142Y-8.724
X16.9142Y-9.6303
X16.915Y-8.6248
X16.915Y-8.8248
X16.9165Y-10.437
X16.9169Y-10.3382
X16.923Y-9.4295
X16.963Y-4.1909
X16.9846Y-3.148
X16.9846Y-3.648
X16.9996Y-11.1413
X17.0083Y-3.7898
X17.0083Y-3.9866
X17.0421Y-12.7035
X17.0427Y-8.3781
X17.063Y-4.1909
X17.0827Y-3.148
X17.0827Y-3.648
X17.0909Y-11.898
X17.1228Y-10.2331
X17.1394Y-4.8913
X17.1394Y-4.9913
X17.1394Y-5.0913
X17.1394Y-5.1913
X17.1394Y-5.2913
X17.1394Y-5.3913
X17.1394Y-5.4913
X17.1394Y-5.5913
X17.1394Y-5.6913
X17.1417Y-6.0441
X17.1417Y-6.1441
X17.1417Y-6.2441
X17.1417Y-6.3441
X17.1417Y-6.4441
X17.1417Y-6.5441
X17.1417Y-6.6441
X17.1417Y-6.7441
X17.1417Y-6.8441
X17.1559Y-3.7902
X17.1559Y-3.987
X17.163Y-4.1909
X17.1843Y-3.148
X17.1843Y-3.648
X17.1965Y-11.1413
X17.2181Y-10.1354
X17.2181Y-10.3323
X17.2374Y-4.465
X17.2378Y-4.7413
X17.2396Y-8.3781
X17.2417Y-5.8929
X17.263Y-4.1909
X17.285Y-3.148
X17.285Y-3.648
X17.3087Y-3.7902
X17.3087Y-3.987
X17.3417Y-11.4421
X17.3437Y-12.0248
X17.3437Y-12.1496
X17.363Y-4.1909
X17.4343Y-4.465
X17.4346Y-4.7413
X17.4386Y-5.8929
X17.4394Y-4.8913
X17.4394Y-4.9913
X17.4394Y-5.0913
X17.4394Y-5.1913
X17.4394Y-5.2913
X17.4394Y-5.3913
X17.4394Y-5.4913
X17.4394Y-5.5913
X17.4394Y-5.6913
X17.4417Y-6.0441
X17.4417Y-6.1441
X17.4417Y-6.2441
X17.4417Y-6.3441
X17.4417Y-6.4441
X17.4417Y-6.5441
X17.4417Y-6.6441
X17.4417Y-6.7441
X17.4417Y-6.8441
X17.5886Y-4.8413
X17.5886Y-4.9413
X17.5886Y-5.0413
X17.5886Y-5.1413
X17.5886Y-5.2413
X17.5886Y-5.3413
X17.5886Y-5.4413
X17.5886Y-5.5413
X17.5886Y-5.6413
X17.5886Y-5.7413
T7
X5.698Y-3.5602
X5.698Y-3.6602
X5.698Y-3.7602
X5.698Y-3.8602
X5.698Y-3.9602
X5.698Y-4.0602
X5.698Y-4.1602
X5.698Y-4.2602
X5.698Y-4.3602
X5.698Y-4.4602
X5.698Y-4.5602
X5.698Y-4.6602
X5.698Y-4.7602
X5.698Y-4.8602
X5.698Y-4.9602
X5.698Y-5.0602
X5.698Y-5.1602
X5.698Y-5.2602
X5.698Y-5.3602
X5.698Y-5.4602
X5.698Y-5.5602
X5.698Y-5.6602
X5.698Y-5.7602
X5.698Y-5.8602
X5.698Y-5.9602
X5.698Y-6.0602
X5.698Y-6.1602
X5.698Y-6.2602
X5.698Y-6.3602
X5.698Y-6.4602
X5.698Y-6.5602
X5.9Y-3.5602
X5.9Y-3.6602
X5.9Y-3.7602
X5.9Y-3.8602
X5.9Y-3.9602
X5.9Y-4.0602
X5.9Y-4.1602
X5.9Y-4.2602
X5.9Y-4.3602
X5.9Y-4.4602
X5.9Y-4.5602
X5.9Y-4.6602
X5.9Y-4.7602
X5.9Y-4.8602
X5.9Y-4.9602
X5.9Y-5.0602
X5.9Y-5.1602
X5.9Y-5.2602
X5.9Y-5.3602
X5.9Y-5.4602
X5.9Y-5.5602
X5.9Y-5.6602
X5.9Y-5.7602
X5.9Y-5.8602
X5.9Y-5.9602
X5.9Y-6.0602
X5.9Y-6.1602
X5.9Y-6.2602
X5.9Y-6.3602
X5.9Y-6.4602
X5.9Y-6.5602
X6.4969Y-3.5638
X6.4969Y-3.6638
X6.4969Y-3.7638
X6.4969Y-3.8638
X6.4969Y-3.9638
X6.4969Y-4.0638
X6.4969Y-4.1638
X6.4969Y-4.2638
X6.4969Y-4.3638
X6.4969Y-4.4638
X6.4969Y-4.5638
X6.4969Y-4.6638
X6.4969Y-4.7638
X6.4969Y-4.8638
X6.4969Y-4.9638
X6.4969Y-5.0638
X6.4969Y-5.1638
X6.4969Y-5.2638
X6.4969Y-5.3638
X6.4969Y-5.4638
X6.4969Y-5.5638
X6.4969Y-5.6638
X6.4969Y-5.7638
X6.4969Y-5.8638
X6.4969Y-5.9638
X6.4969Y-6.0638
X6.4969Y-6.1638
X6.4969Y-6.2638
X6.4969Y-6.3638
X6.4969Y-6.4638
X6.4969Y-6.5638
X6.6988Y-3.5638
X6.6988Y-3.6638
X6.6988Y-3.7638
X6.6988Y-3.8638
X6.6988Y-3.9638
X6.6988Y-4.0638
X6.6988Y-4.1638
X6.6988Y-4.2638
X6.6988Y-4.3638
X6.6988Y-4.4638
X6.6988Y-4.5638
X6.6988Y-4.6638
X6.6988Y-4.7638
X6.6988Y-4.8638
X6.6988Y-4.9638
X6.6988Y-5.0638
X6.6988Y-5.1638
X6.6988Y-5.2638
X6.6988Y-5.3638
X6.6988Y-5.4638
X6.6988Y-5.5638
X6.6988Y-5.6638
X6.6988Y-5.7638
X6.6988Y-5.8638
X6.6988Y-5.9638
X6.6988Y-6.0638
X6.6988Y-6.1638
X6.6988Y-6.2638
X6.6988Y-6.3638
X6.6988Y-6.4638
X6.6988Y-6.5638
X7.302Y-3.5642
X7.302Y-3.6642
X7.302Y-3.7642
X7.302Y-3.8642
X7.302Y-3.9642
X7.302Y-4.0642
X7.302Y-4.1642
X7.302Y-4.2642
X7.302Y-4.3642
X7.302Y-4.4642
X7.302Y-4.5642
X7.302Y-4.6642
X7.302Y-4.7642
X7.302Y-4.8642
X7.302Y-4.9642
X7.302Y-5.0642
X7.302Y-5.1642
X7.302Y-5.2642
X7.302Y-5.3642
X7.302Y-5.4642
X7.302Y-5.5642
X7.302Y-5.6642
X7.302Y-5.7642
X7.302Y-5.8642
X7.302Y-5.9642
X7.302Y-6.0642
X7.302Y-6.1642
X7.302Y-6.2642
X7.302Y-6.3642
X7.302Y-6.4642
X7.302Y-6.5642
X7.5039Y-3.5642
X7.5039Y-3.6642
X7.5039Y-3.7642
X7.5039Y-3.8642
X7.5039Y-3.9642
X7.5039Y-4.0642
X7.5039Y-4.1642
X7.5039Y-4.2642
X7.5039Y-4.3642
X7.5039Y-4.4642
X7.5039Y-4.5642
X7.5039Y-4.6642
X7.5039Y-4.7642
X7.5039Y-4.8642
X7.5039Y-4.9642
X7.5039Y-5.0642
X7.5039Y-5.1642
X7.5039Y-5.2642
X7.5039Y-5.3642
X7.5039Y-5.4642
X7.5039Y-5.5642
X7.5039Y-5.6642
X7.5039Y-5.7642
X7.5039Y-5.8642
X7.5039Y-5.9642
X7.5039Y-6.0642
X7.5039Y-6.1642
X7.5039Y-6.2642
X7.5039Y-6.3642
X7.5039Y-6.4642
X7.5039Y-6.5642
X14.2354Y-7.8996
X14.2354Y-7.9996
X14.3354Y-7.8996
X14.3354Y-7.9996
X14.4354Y-7.8996
X14.4354Y-7.9996
X14.5354Y-7.8996
X14.5354Y-7.9996
X14.5374Y-8.3508
X14.5374Y-8.4508
X14.6354Y-7.8996
X14.6354Y-7.9996
X14.6374Y-8.3508
X14.6374Y-8.4508
X14.7354Y-7.8996
X14.7354Y-7.9996
X14.7374Y-8.3508
X14.7374Y-8.4508
X14.8354Y-7.8996
X14.8354Y-7.9996
X14.8374Y-8.3508
X14.8374Y-8.4508
X14.9354Y-7.8996
X14.9354Y-7.9996
X14.9374Y-8.3508
X14.9374Y-8.4508
X15.0354Y-7.8996
X15.0354Y-7.9996
X15.0374Y-8.3508
X15.0374Y-8.4508
X15.1354Y-7.8996
X15.1354Y-7.9996
X15.1374Y-8.3508
X15.1374Y-8.4508
X15.2354Y-7.8996
X15.2374Y-8.3508
X15.2374Y-8.4508
X15.3354Y-7.8996
X15.3354Y-7.9996
X15.3374Y-8.3508
X15.3374Y-8.4508
X15.4354Y-7.8996
X15.4354Y-7.9996
X15.4374Y-8.3508
X15.4374Y-8.4508
X15.5354Y-7.8996
X15.5354Y-7.9996
X15.5374Y-8.3508
X15.5374Y-8.4508
X15.6354Y-7.8996
X15.6354Y-7.9996
X15.6374Y-8.3508
X15.6374Y-8.4508
X15.7354Y-7.8996
X15.7354Y-7.9996
X15.7374Y-8.3508
X15.7374Y-8.4508
X15.8354Y-7.8996
X15.8354Y-7.9996
X15.8374Y-8.3508
X15.8374Y-8.4508
X15.9354Y-7.8996
X15.9354Y-7.9996
X15.9374Y-8.3508
X15.9374Y-8.4508
X16.0354Y-7.8996
X16.0354Y-7.9996
X16.0374Y-8.4508
X16.1354Y-7.9996
X16.1374Y-8.3508
X16.1374Y-8.4508
X17.0437Y-7.9244
X17.1402Y-7.9244
X17.237Y-7.9244
T8
X8.5193Y-3.4807
X8.6193Y-3.4807
X8.7161Y-3.4807
X9.7778Y-2.9012
X9.8343Y-2.8016
X9.8868Y-2.9012
X9.9433Y-2.8016
X9.9959Y-2.9012
X10.0524Y-2.8016
X10.1049Y-2.9012
X10.1614Y-2.8016
X10.214Y-2.9012
X10.2705Y-2.8016
X10.323Y-2.9012
X10.3795Y-2.8016
X10.4321Y-2.9012
X10.4886Y-2.8016
X10.5411Y-2.9012
X10.5976Y-2.8016
X10.6502Y-2.9012
X10.7067Y-2.8016
X10.7593Y-2.9012
X10.8157Y-2.8016
X10.8683Y-2.9012
X10.9248Y-2.8016
X10.9774Y-2.9012
X11.0339Y-2.8016
X11.0864Y-2.9012
X12.0803Y-2.9083
X12.1341Y-2.7972
X12.1894Y-2.9083
X12.2431Y-2.7972
X12.2984Y-2.9083
X12.3522Y-2.7972
X12.4075Y-2.9083
X12.4612Y-2.7972
X12.5165Y-2.9083
X12.5703Y-2.7972
X12.6256Y-2.9083
X12.6793Y-2.7972
X12.7346Y-2.9083
X12.7884Y-2.7972
X12.8437Y-2.9083
X12.8974Y-2.7972
X12.9528Y-2.9083
X13.0065Y-2.7972
X13.0618Y-2.9083
X13.1156Y-2.7972
X13.1709Y-2.9083
X13.2246Y-2.7972
X13.2799Y-2.9083
X13.3337Y-2.7972
X13.389Y-2.9083
X14.8217Y-2.9035
X14.8732Y-2.8039
X14.9307Y-2.9035
X14.9823Y-2.8039
X15.0398Y-2.9035
X15.0913Y-2.8039
X15.1488Y-2.9035
X15.2004Y-2.8039
X15.2579Y-2.9035
X16.8291Y-2.9118
X16.8837Y-2.8
X16.9142Y-7.9705
X16.9382Y-2.9118
X16.9927Y-2.8
X17.0472Y-2.9118
X17.1018Y-2.8
X17.1563Y-2.9118
X17.1709Y-9.3937
X17.1724Y-9.787
X17.2108Y-2.8
X17.2654Y-2.9118
X17.2689Y-9.8866
X17.2693Y-9.2941
X17.2713Y-9.5917
X17.3594Y-7.8354
X17.5622Y-9.5906
X17.6626Y-9.3937
X17.6626Y-9.4909
X17.6626Y-9.6882
X17.6626Y-9.7854
T9
X10.7315Y-12.9856
X11.1303Y-12.9856
T10
X10.9366Y-12.2195
T11
X11.3795Y-6.9
X11.3795Y-7.0449
X11.3795Y-7.2004
X11.3795Y-7.3551
X11.3795Y-7.5118
X11.3795Y-7.826
T12
X10.8531Y-6.9988
X10.8535Y-7.2496
X10.8535Y-7.5008
X11.102Y-6.9988
X11.102Y-7.2496
X11.1039Y-7.5008
T13
X15.8858Y-2.8752
X16.0311Y-2.7173
X16.1811Y-2.8752
T14
X5.4134Y-7.302
X9.1154Y-3.2724
X9.1228Y-7.3016
X14.5445Y-2.8571
X15.5311Y-2.8579
X16.55Y-2.8618
X17.4783Y-3.4622
X17.4882Y-7.2988
X17.5386Y-2.8622
T15
X8.6193Y-2.7783
X9.5069Y-2.8575
X11.3612Y-2.8575
X11.8055Y-2.8646
X13.6598Y-2.8646
T16
X5.2697Y-12.3614
X5.4055Y-2.8614
X10.176Y-12.352
X17.4894Y-12.3587
X17.4917Y-10.1965
X17.4933Y-9.0091
T0
M30
