%TF.GenerationSoftware,KiCad,Pcbnew,8.0.0*%
%TF.CreationDate,2024-03-10T15:29:52+00:00*%
%TF.ProjectId,Commodore PC10 III,436f6d6d-6f64-46f7-9265-205043313020,1.0*%
%TF.SameCoordinates,Original*%
%TF.FileFunction,Paste,Top*%
%TF.FilePolarity,Positive*%
%FSLAX46Y46*%
G04 Gerber Fmt 4.6, Leading zero omitted, Abs format (unit mm)*
G04 Created by KiCad (PCBNEW 8.0.0) date 2024-03-10 15:29:52*
%MOMM*%
%LPD*%
G01*
G04 APERTURE LIST*
G04 Aperture macros list*
%AMRoundRect*
0 Rectangle with rounded corners*
0 $1 Rounding radius*
0 $2 $3 $4 $5 $6 $7 $8 $9 X,Y pos of 4 corners*
0 Add a 4 corners polygon primitive as box body*
4,1,4,$2,$3,$4,$5,$6,$7,$8,$9,$2,$3,0*
0 Add four circle primitives for the rounded corners*
1,1,$1+$1,$2,$3*
1,1,$1+$1,$4,$5*
1,1,$1+$1,$6,$7*
1,1,$1+$1,$8,$9*
0 Add four rect primitives between the rounded corners*
20,1,$1+$1,$2,$3,$4,$5,0*
20,1,$1+$1,$4,$5,$6,$7,0*
20,1,$1+$1,$6,$7,$8,$9,0*
20,1,$1+$1,$8,$9,$2,$3,0*%
G04 Aperture macros list end*
%ADD10RoundRect,0.100000X1.512500X0.100000X-1.512500X0.100000X-1.512500X-0.100000X1.512500X-0.100000X0*%
%ADD11RoundRect,0.100000X-0.100000X1.512500X-0.100000X-1.512500X0.100000X-1.512500X0.100000X1.512500X0*%
G04 APERTURE END LIST*
D10*
%TO.C,U601*%
X400735000Y-161120000D03*
X400735000Y-160470000D03*
X400735000Y-159820000D03*
X400735000Y-159170000D03*
X400735000Y-158520000D03*
X400735000Y-157870000D03*
X400735000Y-157220000D03*
X400735000Y-156570000D03*
X400735000Y-155920000D03*
X400735000Y-155270000D03*
X400735000Y-154620000D03*
X400735000Y-153970000D03*
X400735000Y-153320000D03*
X400735000Y-152670000D03*
X400735000Y-152020000D03*
X400735000Y-151370000D03*
X400735000Y-150720000D03*
X400735000Y-150070000D03*
X400735000Y-149420000D03*
X400735000Y-148770000D03*
X400735000Y-148120000D03*
X400735000Y-147470000D03*
X400735000Y-146820000D03*
X400735000Y-146170000D03*
X400735000Y-145520000D03*
X400735000Y-144870000D03*
X400735000Y-144220000D03*
X400735000Y-143570000D03*
X400735000Y-142920000D03*
X400735000Y-142270000D03*
D11*
X398005000Y-139920000D03*
X397355000Y-139920000D03*
X396705000Y-139920000D03*
X396055000Y-139920000D03*
X395405000Y-139920000D03*
X394755000Y-139920000D03*
X394105000Y-139920000D03*
X393455000Y-139920000D03*
X392805000Y-139920000D03*
X392155000Y-139920000D03*
X391505000Y-139920000D03*
X390855000Y-139920000D03*
X390205000Y-139920000D03*
X389555000Y-139920000D03*
X388905000Y-139920000D03*
X388255000Y-139920000D03*
X387605000Y-139920000D03*
X386955000Y-139920000D03*
X386305000Y-139920000D03*
X385655000Y-139920000D03*
D10*
X383105000Y-142270000D03*
X383105000Y-142920000D03*
X383105000Y-143570000D03*
X383105000Y-144220000D03*
X383105000Y-144870000D03*
X383105000Y-145520000D03*
X383105000Y-146170000D03*
X383105000Y-146820000D03*
X383105000Y-147470000D03*
X383105000Y-148120000D03*
X383105000Y-148770000D03*
X383105000Y-149420000D03*
X383105000Y-150070000D03*
X383105000Y-150720000D03*
X383105000Y-151370000D03*
X383105000Y-152020000D03*
X383105000Y-152670000D03*
X383105000Y-153320000D03*
X383105000Y-153970000D03*
X383105000Y-154620000D03*
X383105000Y-155270000D03*
X383105000Y-155920000D03*
X383105000Y-156570000D03*
X383105000Y-157220000D03*
X383105000Y-157870000D03*
X383105000Y-158520000D03*
X383105000Y-159170000D03*
X383105000Y-159820000D03*
X383105000Y-160470000D03*
X383105000Y-161120000D03*
D11*
X385655000Y-163690000D03*
X386305000Y-163690000D03*
X386955000Y-163690000D03*
X387605000Y-163690000D03*
X388255000Y-163690000D03*
X388905000Y-163690000D03*
X389555000Y-163690000D03*
X390205000Y-163690000D03*
X390855000Y-163690000D03*
X391505000Y-163690000D03*
X392155000Y-163690000D03*
X392805000Y-163690000D03*
X393455000Y-163690000D03*
X394105000Y-163690000D03*
X394755000Y-163690000D03*
X395405000Y-163690000D03*
X396055000Y-163690000D03*
X396705000Y-163690000D03*
X397355000Y-163690000D03*
X398005000Y-163690000D03*
%TD*%
M02*
