%TF.GenerationSoftware,KiCad,Pcbnew,7.0.6*%
%TF.CreationDate,2023-07-20T11:30:51+01:00*%
%TF.ProjectId,Commodore PC10 III,436f6d6d-6f64-46f7-9265-205043313020,rev?*%
%TF.SameCoordinates,Original*%
%TF.FileFunction,Drillmap*%
%TF.FilePolarity,Positive*%
%FSLAX45Y45*%
G04 Gerber Fmt 4.5, Leading zero omitted, Abs format (unit mm)*
G04 Created by KiCad (PCBNEW 7.0.6) date 2023-07-20 11:30:51*
%MOMM*%
%LPD*%
G01*
G04 APERTURE LIST*
%ADD10C,1.560000*%
%ADD11C,2.040000*%
%ADD12C,0.100000*%
%ADD13C,0.200000*%
G04 APERTURE END LIST*
D10*
X32496000Y-24003000D02*
G75*
G03*
X32496000Y-24003000I-78000J0D01*
G01*
D11*
X44658000Y-33090000D02*
G75*
G03*
X44658000Y-33090000I-102000J0D01*
G01*
D10*
X31468000Y-25021000D02*
G75*
G03*
X31468000Y-25021000I-78000J0D01*
G01*
D11*
X13320000Y-7062000D02*
G75*
G03*
X13320000Y-7062000I-102000J0D01*
G01*
X13349000Y-33110000D02*
G75*
G03*
X13349000Y-33110000I-102000J0D01*
G01*
D10*
X32496000Y-25019000D02*
G75*
G03*
X32496000Y-25019000I-78000J0D01*
G01*
X25623000Y-23740000D02*
G75*
G03*
X25623000Y-23740000I-78000J0D01*
G01*
X26637000Y-24769000D02*
G75*
G03*
X26637000Y-24769000I-78000J0D01*
G01*
D12*
X12727000Y-6608000D02*
X45074000Y-6608000D01*
X45074000Y-33556000D01*
X12727000Y-33556000D01*
X12727000Y-6608000D01*
D10*
X31482000Y-24003000D02*
G75*
G03*
X31482000Y-24003000I-78000J0D01*
G01*
D13*
X12982777Y-33872484D02*
X12982777Y-33672484D01*
X12982777Y-33672484D02*
X13030396Y-33672484D01*
X13030396Y-33672484D02*
X13058967Y-33682008D01*
X13058967Y-33682008D02*
X13078015Y-33701055D01*
X13078015Y-33701055D02*
X13087539Y-33720103D01*
X13087539Y-33720103D02*
X13097062Y-33758198D01*
X13097062Y-33758198D02*
X13097062Y-33786770D01*
X13097062Y-33786770D02*
X13087539Y-33824865D01*
X13087539Y-33824865D02*
X13078015Y-33843912D01*
X13078015Y-33843912D02*
X13058967Y-33862960D01*
X13058967Y-33862960D02*
X13030396Y-33872484D01*
X13030396Y-33872484D02*
X12982777Y-33872484D01*
X13182777Y-33872484D02*
X13182777Y-33739150D01*
X13182777Y-33777246D02*
X13192301Y-33758198D01*
X13192301Y-33758198D02*
X13201824Y-33748674D01*
X13201824Y-33748674D02*
X13220872Y-33739150D01*
X13220872Y-33739150D02*
X13239920Y-33739150D01*
X13306586Y-33872484D02*
X13306586Y-33739150D01*
X13306586Y-33672484D02*
X13297062Y-33682008D01*
X13297062Y-33682008D02*
X13306586Y-33691531D01*
X13306586Y-33691531D02*
X13316110Y-33682008D01*
X13316110Y-33682008D02*
X13306586Y-33672484D01*
X13306586Y-33672484D02*
X13306586Y-33691531D01*
X13430396Y-33872484D02*
X13411348Y-33862960D01*
X13411348Y-33862960D02*
X13401824Y-33843912D01*
X13401824Y-33843912D02*
X13401824Y-33672484D01*
X13535158Y-33872484D02*
X13516110Y-33862960D01*
X13516110Y-33862960D02*
X13506586Y-33843912D01*
X13506586Y-33843912D02*
X13506586Y-33672484D01*
X13763729Y-33872484D02*
X13763729Y-33672484D01*
X13763729Y-33672484D02*
X13830396Y-33815341D01*
X13830396Y-33815341D02*
X13897062Y-33672484D01*
X13897062Y-33672484D02*
X13897062Y-33872484D01*
X14078015Y-33872484D02*
X14078015Y-33767722D01*
X14078015Y-33767722D02*
X14068491Y-33748674D01*
X14068491Y-33748674D02*
X14049443Y-33739150D01*
X14049443Y-33739150D02*
X14011348Y-33739150D01*
X14011348Y-33739150D02*
X13992301Y-33748674D01*
X14078015Y-33862960D02*
X14058967Y-33872484D01*
X14058967Y-33872484D02*
X14011348Y-33872484D01*
X14011348Y-33872484D02*
X13992301Y-33862960D01*
X13992301Y-33862960D02*
X13982777Y-33843912D01*
X13982777Y-33843912D02*
X13982777Y-33824865D01*
X13982777Y-33824865D02*
X13992301Y-33805817D01*
X13992301Y-33805817D02*
X14011348Y-33796293D01*
X14011348Y-33796293D02*
X14058967Y-33796293D01*
X14058967Y-33796293D02*
X14078015Y-33786770D01*
X14173253Y-33739150D02*
X14173253Y-33939150D01*
X14173253Y-33748674D02*
X14192301Y-33739150D01*
X14192301Y-33739150D02*
X14230396Y-33739150D01*
X14230396Y-33739150D02*
X14249443Y-33748674D01*
X14249443Y-33748674D02*
X14258967Y-33758198D01*
X14258967Y-33758198D02*
X14268491Y-33777246D01*
X14268491Y-33777246D02*
X14268491Y-33834389D01*
X14268491Y-33834389D02*
X14258967Y-33853436D01*
X14258967Y-33853436D02*
X14249443Y-33862960D01*
X14249443Y-33862960D02*
X14230396Y-33872484D01*
X14230396Y-33872484D02*
X14192301Y-33872484D01*
X14192301Y-33872484D02*
X14173253Y-33862960D01*
X14354205Y-33853436D02*
X14363729Y-33862960D01*
X14363729Y-33862960D02*
X14354205Y-33872484D01*
X14354205Y-33872484D02*
X14344682Y-33862960D01*
X14344682Y-33862960D02*
X14354205Y-33853436D01*
X14354205Y-33853436D02*
X14354205Y-33872484D01*
X14354205Y-33748674D02*
X14363729Y-33758198D01*
X14363729Y-33758198D02*
X14354205Y-33767722D01*
X14354205Y-33767722D02*
X14344682Y-33758198D01*
X14344682Y-33758198D02*
X14354205Y-33748674D01*
X14354205Y-33748674D02*
X14354205Y-33767722D01*
M02*
