%TF.GenerationSoftware,KiCad,Pcbnew,7.0.6*%
%TF.CreationDate,2023-07-20T11:36:44+01:00*%
%TF.ProjectId,Commodore PC10 III,436f6d6d-6f64-46f7-9265-205043313020,rev?*%
%TF.SameCoordinates,Original*%
%TF.FileFunction,Legend,Bot*%
%TF.FilePolarity,Positive*%
%FSLAX46Y46*%
G04 Gerber Fmt 4.6, Leading zero omitted, Abs format (unit mm)*
G04 Created by KiCad (PCBNEW 7.0.6) date 2023-07-20 11:36:44*
%MOMM*%
%LPD*%
G01*
G04 APERTURE LIST*
%ADD10C,0.150000*%
%ADD11C,0.260000*%
%ADD12C,0.120000*%
G04 APERTURE END LIST*
D10*
X408547744Y-331770342D02*
X408547744Y-332627485D01*
X408547744Y-332627485D02*
X408604887Y-332798914D01*
X408604887Y-332798914D02*
X408719173Y-332913200D01*
X408719173Y-332913200D02*
X408890601Y-332970342D01*
X408890601Y-332970342D02*
X409004887Y-332970342D01*
X407404887Y-332970342D02*
X407976315Y-332970342D01*
X407976315Y-332970342D02*
X407976315Y-331770342D01*
X406319172Y-332856057D02*
X406376315Y-332913200D01*
X406376315Y-332913200D02*
X406547743Y-332970342D01*
X406547743Y-332970342D02*
X406662029Y-332970342D01*
X406662029Y-332970342D02*
X406833458Y-332913200D01*
X406833458Y-332913200D02*
X406947743Y-332798914D01*
X406947743Y-332798914D02*
X407004886Y-332684628D01*
X407004886Y-332684628D02*
X407062029Y-332456057D01*
X407062029Y-332456057D02*
X407062029Y-332284628D01*
X407062029Y-332284628D02*
X407004886Y-332056057D01*
X407004886Y-332056057D02*
X406947743Y-331941771D01*
X406947743Y-331941771D02*
X406833458Y-331827485D01*
X406833458Y-331827485D02*
X406662029Y-331770342D01*
X406662029Y-331770342D02*
X406547743Y-331770342D01*
X406547743Y-331770342D02*
X406376315Y-331827485D01*
X406376315Y-331827485D02*
X406319172Y-331884628D01*
X405462029Y-331770342D02*
X405462029Y-332627485D01*
X405462029Y-332627485D02*
X405519172Y-332798914D01*
X405519172Y-332798914D02*
X405633458Y-332913200D01*
X405633458Y-332913200D02*
X405804886Y-332970342D01*
X405804886Y-332970342D02*
X405919172Y-332970342D01*
X404319172Y-332970342D02*
X404890600Y-332970342D01*
X404890600Y-332970342D02*
X404890600Y-331770342D01*
X403233457Y-332856057D02*
X403290600Y-332913200D01*
X403290600Y-332913200D02*
X403462028Y-332970342D01*
X403462028Y-332970342D02*
X403576314Y-332970342D01*
X403576314Y-332970342D02*
X403747743Y-332913200D01*
X403747743Y-332913200D02*
X403862028Y-332798914D01*
X403862028Y-332798914D02*
X403919171Y-332684628D01*
X403919171Y-332684628D02*
X403976314Y-332456057D01*
X403976314Y-332456057D02*
X403976314Y-332284628D01*
X403976314Y-332284628D02*
X403919171Y-332056057D01*
X403919171Y-332056057D02*
X403862028Y-331941771D01*
X403862028Y-331941771D02*
X403747743Y-331827485D01*
X403747743Y-331827485D02*
X403576314Y-331770342D01*
X403576314Y-331770342D02*
X403462028Y-331770342D01*
X403462028Y-331770342D02*
X403290600Y-331827485D01*
X403290600Y-331827485D02*
X403233457Y-331884628D01*
X402376314Y-331770342D02*
X402376314Y-332627485D01*
X402376314Y-332627485D02*
X402433457Y-332798914D01*
X402433457Y-332798914D02*
X402547743Y-332913200D01*
X402547743Y-332913200D02*
X402719171Y-332970342D01*
X402719171Y-332970342D02*
X402833457Y-332970342D01*
X401233457Y-332970342D02*
X401804885Y-332970342D01*
X401804885Y-332970342D02*
X401804885Y-331770342D01*
X400147742Y-332856057D02*
X400204885Y-332913200D01*
X400204885Y-332913200D02*
X400376313Y-332970342D01*
X400376313Y-332970342D02*
X400490599Y-332970342D01*
X400490599Y-332970342D02*
X400662028Y-332913200D01*
X400662028Y-332913200D02*
X400776313Y-332798914D01*
X400776313Y-332798914D02*
X400833456Y-332684628D01*
X400833456Y-332684628D02*
X400890599Y-332456057D01*
X400890599Y-332456057D02*
X400890599Y-332284628D01*
X400890599Y-332284628D02*
X400833456Y-332056057D01*
X400833456Y-332056057D02*
X400776313Y-331941771D01*
X400776313Y-331941771D02*
X400662028Y-331827485D01*
X400662028Y-331827485D02*
X400490599Y-331770342D01*
X400490599Y-331770342D02*
X400376313Y-331770342D01*
X400376313Y-331770342D02*
X400204885Y-331827485D01*
X400204885Y-331827485D02*
X400147742Y-331884628D01*
X399290599Y-331770342D02*
X399290599Y-332627485D01*
X399290599Y-332627485D02*
X399347742Y-332798914D01*
X399347742Y-332798914D02*
X399462028Y-332913200D01*
X399462028Y-332913200D02*
X399633456Y-332970342D01*
X399633456Y-332970342D02*
X399747742Y-332970342D01*
X398147742Y-332970342D02*
X398719170Y-332970342D01*
X398719170Y-332970342D02*
X398719170Y-331770342D01*
X397062027Y-332856057D02*
X397119170Y-332913200D01*
X397119170Y-332913200D02*
X397290598Y-332970342D01*
X397290598Y-332970342D02*
X397404884Y-332970342D01*
X397404884Y-332970342D02*
X397576313Y-332913200D01*
X397576313Y-332913200D02*
X397690598Y-332798914D01*
X397690598Y-332798914D02*
X397747741Y-332684628D01*
X397747741Y-332684628D02*
X397804884Y-332456057D01*
X397804884Y-332456057D02*
X397804884Y-332284628D01*
X397804884Y-332284628D02*
X397747741Y-332056057D01*
X397747741Y-332056057D02*
X397690598Y-331941771D01*
X397690598Y-331941771D02*
X397576313Y-331827485D01*
X397576313Y-331827485D02*
X397404884Y-331770342D01*
X397404884Y-331770342D02*
X397290598Y-331770342D01*
X397290598Y-331770342D02*
X397119170Y-331827485D01*
X397119170Y-331827485D02*
X397062027Y-331884628D01*
D11*
X218041328Y-237265956D02*
X217422281Y-237265956D01*
X218165138Y-237637384D02*
X217731805Y-236337384D01*
X217731805Y-236337384D02*
X217298471Y-237637384D01*
X216246090Y-237637384D02*
X216865138Y-237637384D01*
X216865138Y-237637384D02*
X216865138Y-236337384D01*
X215812757Y-236956432D02*
X215379423Y-236956432D01*
X215193709Y-237637384D02*
X215812757Y-237637384D01*
X215812757Y-237637384D02*
X215812757Y-236337384D01*
X215812757Y-236337384D02*
X215193709Y-236337384D01*
D12*
%TO.C,J1*%
X211465000Y-239175000D02*
X214585000Y-239175000D01*
X211465000Y-239175000D02*
X211465000Y-230775000D01*
X214585000Y-239175000D02*
X214585000Y-230775000D01*
X211465000Y-230775000D02*
X214585000Y-230775000D01*
%TD*%
M02*
