%TF.GenerationSoftware,KiCad,Pcbnew,8.0.0*%
%TF.CreationDate,2024-03-10T15:29:52+00:00*%
%TF.ProjectId,Commodore PC10 III,436f6d6d-6f64-46f7-9265-205043313020,1.0*%
%TF.SameCoordinates,Original*%
%TF.FileFunction,Soldermask,Top*%
%TF.FilePolarity,Negative*%
%FSLAX46Y46*%
G04 Gerber Fmt 4.6, Leading zero omitted, Abs format (unit mm)*
G04 Created by KiCad (PCBNEW 8.0.0) date 2024-03-10 15:29:52*
%MOMM*%
%LPD*%
G01*
G04 APERTURE LIST*
G04 Aperture macros list*
%AMRoundRect*
0 Rectangle with rounded corners*
0 $1 Rounding radius*
0 $2 $3 $4 $5 $6 $7 $8 $9 X,Y pos of 4 corners*
0 Add a 4 corners polygon primitive as box body*
4,1,4,$2,$3,$4,$5,$6,$7,$8,$9,$2,$3,0*
0 Add four circle primitives for the rounded corners*
1,1,$1+$1,$2,$3*
1,1,$1+$1,$4,$5*
1,1,$1+$1,$6,$7*
1,1,$1+$1,$8,$9*
0 Add four rect primitives between the rounded corners*
20,1,$1+$1,$2,$3,$4,$5,0*
20,1,$1+$1,$4,$5,$6,$7,0*
20,1,$1+$1,$6,$7,$8,$9,0*
20,1,$1+$1,$8,$9,$2,$3,0*%
G04 Aperture macros list end*
%ADD10C,0.150000*%
%ADD11C,1.600000*%
%ADD12O,1.600000X1.600000*%
%ADD13C,5.000000*%
%ADD14R,1.600000X1.600000*%
%ADD15C,1.700000*%
%ADD16O,1.700000X1.700000*%
%ADD17R,1.700000X1.700000*%
%ADD18C,2.500000*%
%ADD19C,3.000000*%
%ADD20O,1.400000X1.400000*%
%ADD21R,2.000000X2.000000*%
%ADD22C,5.200000*%
%ADD23C,2.000000*%
%ADD24C,1.400000*%
%ADD25R,1.500000X1.500000*%
%ADD26C,1.500000*%
%ADD27C,5.500000*%
%ADD28C,3.500000*%
%ADD29C,1.200000*%
%ADD30O,2.000000X2.000000*%
%ADD31O,2.500000X2.500000*%
%ADD32C,1.800000*%
%ADD33RoundRect,0.100000X1.512500X0.100000X-1.512500X0.100000X-1.512500X-0.100000X1.512500X-0.100000X0*%
%ADD34RoundRect,0.100000X-0.100000X1.512500X-0.100000X-1.512500X0.100000X-1.512500X0.100000X1.512500X0*%
%ADD35R,1.800000X1.800000*%
G04 APERTURE END LIST*
D10*
X406140000Y-173750000D02*
X415330000Y-173750000D01*
X415330000Y-176410000D01*
X406140000Y-176410000D01*
X406140000Y-173750000D01*
G36*
X406140000Y-173750000D02*
G01*
X415330000Y-173750000D01*
X415330000Y-176410000D01*
X406140000Y-176410000D01*
X406140000Y-173750000D01*
G37*
G36*
X293260000Y-136260000D02*
G01*
X305020000Y-136260000D01*
X305020000Y-151840000D01*
X293260000Y-151840000D01*
X293260000Y-136260000D01*
G37*
X403910000Y-172620000D02*
X414660000Y-172620000D01*
X414660000Y-174050000D01*
X403910000Y-174050000D01*
X403910000Y-172620000D01*
G36*
X403910000Y-172620000D02*
G01*
X414660000Y-172620000D01*
X414660000Y-174050000D01*
X403910000Y-174050000D01*
X403910000Y-172620000D01*
G37*
G36*
X281700000Y-235090000D02*
G01*
X293990000Y-235090000D01*
X293990000Y-255360000D01*
X281700000Y-255360000D01*
X281700000Y-235090000D01*
G37*
X403910000Y-174050000D02*
X405070000Y-174050000D01*
X405070000Y-174640000D01*
X403910000Y-174640000D01*
X403910000Y-174050000D01*
G36*
X403910000Y-174050000D02*
G01*
X405070000Y-174050000D01*
X405070000Y-174640000D01*
X403910000Y-174640000D01*
X403910000Y-174050000D01*
G37*
X317840000Y-312670000D02*
X322550000Y-312670000D01*
X322550000Y-320130000D01*
X317840000Y-320130000D01*
X317840000Y-312670000D01*
G36*
X317840000Y-312670000D02*
G01*
X322550000Y-312670000D01*
X322550000Y-320130000D01*
X317840000Y-320130000D01*
X317840000Y-312670000D01*
G37*
X403890000Y-176120000D02*
X416030000Y-176120000D01*
X416030000Y-192770000D01*
X403890000Y-192770000D01*
X403890000Y-176120000D01*
G36*
X403890000Y-176120000D02*
G01*
X416030000Y-176120000D01*
X416030000Y-192770000D01*
X403890000Y-192770000D01*
X403890000Y-176120000D01*
G37*
X403890000Y-175640000D02*
X405090000Y-175640000D01*
X405090000Y-176120000D01*
X403890000Y-176120000D01*
X403890000Y-175640000D01*
G36*
X403890000Y-175640000D02*
G01*
X405090000Y-175640000D01*
X405090000Y-176120000D01*
X403890000Y-176120000D01*
X403890000Y-175640000D01*
G37*
X416650000Y-172650000D02*
X428790000Y-172650000D01*
X428790000Y-192770000D01*
X416650000Y-192770000D01*
X416650000Y-172650000D01*
G36*
X416650000Y-172650000D02*
G01*
X428790000Y-172650000D01*
X428790000Y-192770000D01*
X416650000Y-192770000D01*
X416650000Y-172650000D01*
G37*
X414660000Y-172620000D02*
X416030000Y-172620000D01*
X416030000Y-176120000D01*
X414660000Y-176120000D01*
X414660000Y-172620000D01*
G36*
X414660000Y-172620000D02*
G01*
X416030000Y-172620000D01*
X416030000Y-176120000D01*
X414660000Y-176120000D01*
X414660000Y-172620000D01*
G37*
G36*
X358605000Y-308020000D02*
G01*
X370895000Y-308020000D01*
X370895000Y-328290000D01*
X358605000Y-328290000D01*
X358605000Y-308020000D01*
G37*
D11*
%TO.C,R625*%
X411240000Y-149700000D03*
D12*
X423940000Y-149700000D03*
%TD*%
D13*
%TO.C,*%
X444330000Y-228830000D03*
%TD*%
D14*
%TO.C,C403*%
X290345000Y-309725000D03*
D11*
X295345000Y-309725000D03*
%TD*%
%TO.C,EMI405*%
X282500000Y-87270000D03*
X282500000Y-84730000D03*
X282500000Y-82270000D03*
%TD*%
%TO.C,EMI424*%
X333310000Y-87370000D03*
X333310000Y-84830000D03*
X333310000Y-82370000D03*
%TD*%
D14*
%TO.C,U202*%
X394720000Y-238280000D03*
D12*
X394720000Y-240820000D03*
X394720000Y-243360000D03*
X394720000Y-245900000D03*
X394720000Y-248440000D03*
X394720000Y-250980000D03*
X394720000Y-253520000D03*
X394720000Y-256060000D03*
X394720000Y-258600000D03*
X394720000Y-261140000D03*
X402340000Y-261140000D03*
X402340000Y-258600000D03*
X402340000Y-256060000D03*
X402340000Y-253520000D03*
X402340000Y-250980000D03*
X402340000Y-248440000D03*
X402340000Y-245900000D03*
X402340000Y-243360000D03*
X402340000Y-240820000D03*
X402340000Y-238280000D03*
%TD*%
D11*
%TO.C,R503*%
X203650000Y-196990000D03*
D12*
X203650000Y-184290000D03*
%TD*%
D11*
%TO.C,EMI416*%
X240520000Y-87260000D03*
X240520000Y-84720000D03*
X240520000Y-82260000D03*
%TD*%
D14*
%TO.C,U606*%
X435400000Y-153520000D03*
D12*
X435400000Y-156060000D03*
X435400000Y-158600000D03*
X435400000Y-161140000D03*
X435400000Y-163680000D03*
X435400000Y-166220000D03*
X435400000Y-168760000D03*
X435400000Y-171300000D03*
X435400000Y-173840000D03*
X443020000Y-173840000D03*
X443020000Y-171300000D03*
X443020000Y-168760000D03*
X443020000Y-166220000D03*
X443020000Y-163680000D03*
X443020000Y-161140000D03*
X443020000Y-158600000D03*
X443020000Y-156060000D03*
X443020000Y-153520000D03*
%TD*%
D15*
%TO.C,JMP205*%
X135430000Y-201240000D03*
D16*
X135430000Y-203780000D03*
%TD*%
D14*
%TO.C,RP503*%
X130420000Y-130630000D03*
D12*
X130420000Y-133170000D03*
X130420000Y-135710000D03*
X130420000Y-138250000D03*
X130420000Y-140790000D03*
X130420000Y-143330000D03*
X130420000Y-145870000D03*
X130420000Y-148410000D03*
%TD*%
D11*
%TO.C,EMI408*%
X271110000Y-87230000D03*
X271110000Y-84690000D03*
X271110000Y-82230000D03*
%TD*%
%TO.C,C512*%
X146260000Y-74540000D03*
X146260000Y-69540000D03*
%TD*%
%TO.C,C753*%
X274410000Y-281580000D03*
X269410000Y-281580000D03*
%TD*%
D14*
%TO.C,U102*%
X217670000Y-119250000D03*
D12*
X217670000Y-121790000D03*
X217670000Y-124330000D03*
X217670000Y-126870000D03*
X217670000Y-129410000D03*
X217670000Y-131950000D03*
X217670000Y-134490000D03*
X217670000Y-137030000D03*
X217670000Y-139570000D03*
X217670000Y-142110000D03*
X217670000Y-144650000D03*
X217670000Y-147190000D03*
X217670000Y-149730000D03*
X217670000Y-152270000D03*
X217670000Y-154810000D03*
X217670000Y-157350000D03*
X217670000Y-159890000D03*
X217670000Y-162430000D03*
X217670000Y-164970000D03*
X217670000Y-167510000D03*
X232910000Y-167510000D03*
X232910000Y-164970000D03*
X232910000Y-162430000D03*
X232910000Y-159890000D03*
X232910000Y-157350000D03*
X232910000Y-154810000D03*
X232910000Y-152270000D03*
X232910000Y-149730000D03*
X232910000Y-147190000D03*
X232910000Y-144650000D03*
X232910000Y-142110000D03*
X232910000Y-139570000D03*
X232910000Y-137030000D03*
X232910000Y-134490000D03*
X232910000Y-131950000D03*
X232910000Y-129410000D03*
X232910000Y-126870000D03*
X232910000Y-124330000D03*
X232910000Y-121790000D03*
X232910000Y-119250000D03*
%TD*%
D11*
%TO.C,C539*%
X134300000Y-113320000D03*
X139300000Y-113320000D03*
%TD*%
%TO.C,R207*%
X375390000Y-325840000D03*
D12*
X375390000Y-313140000D03*
%TD*%
D16*
%TO.C,JMP268*%
X361620000Y-210900000D03*
X361620000Y-213440000D03*
D17*
X361620000Y-215980000D03*
%TD*%
D11*
%TO.C,C776*%
X282600000Y-115340000D03*
X287600000Y-115340000D03*
%TD*%
%TO.C,C103*%
X429110000Y-302210000D03*
X434110000Y-302210000D03*
%TD*%
%TO.C,C418*%
X259720000Y-98680000D03*
X259720000Y-93680000D03*
%TD*%
%TO.C,FB604*%
X426290000Y-92660000D03*
D12*
X426290000Y-79960000D03*
%TD*%
D11*
%TO.C,C718*%
X371790000Y-275930000D03*
X366790000Y-275930000D03*
%TD*%
%TO.C,R106*%
X408700000Y-247180000D03*
D12*
X408700000Y-259880000D03*
%TD*%
D11*
%TO.C,C772*%
X393190000Y-97450000D03*
X388190000Y-97450000D03*
%TD*%
%TO.C,C757*%
X334870000Y-115450000D03*
X339870000Y-115450000D03*
%TD*%
%TO.C,R204*%
X416920000Y-221590000D03*
D12*
X429620000Y-221590000D03*
%TD*%
D11*
%TO.C,C517*%
X162130000Y-74540000D03*
X162130000Y-69540000D03*
%TD*%
%TO.C,R103*%
X416980000Y-265100000D03*
D12*
X429680000Y-265100000D03*
%TD*%
D14*
%TO.C,OSC601*%
X426530000Y-190330000D03*
D11*
X426530000Y-175090000D03*
X418910000Y-175090000D03*
X418910000Y-190330000D03*
%TD*%
D13*
%TO.C,*%
X444200000Y-185390000D03*
%TD*%
D17*
%TO.C,JMP204*%
X132380000Y-210745000D03*
D16*
X132380000Y-213285000D03*
X132380000Y-215825000D03*
%TD*%
D18*
%TO.C,BT601*%
X272580000Y-329835000D03*
X282710000Y-329835000D03*
D19*
X277790000Y-310375000D03*
%TD*%
D11*
%TO.C,R501*%
X268220000Y-205170000D03*
D12*
X280920000Y-205170000D03*
%TD*%
D11*
%TO.C,C705*%
X199910000Y-175240000D03*
X204910000Y-175240000D03*
%TD*%
D13*
%TO.C,*%
X231530000Y-83120000D03*
%TD*%
D11*
%TO.C,C105*%
X425800000Y-252760000D03*
X420800000Y-252760000D03*
%TD*%
%TO.C,C536*%
X134330000Y-122890000D03*
X139330000Y-122890000D03*
%TD*%
%TO.C,EMI411*%
X259680000Y-87210000D03*
X259680000Y-84670000D03*
X259680000Y-82210000D03*
%TD*%
%TO.C,EMI612*%
X401415000Y-88490000D03*
X398995000Y-85970000D03*
X401415000Y-83490000D03*
%TD*%
D14*
%TO.C,CR404*%
X312310000Y-94850000D03*
D12*
X312310000Y-82150000D03*
%TD*%
D11*
%TO.C,EMI613*%
X395655000Y-88490000D03*
X393235000Y-85970000D03*
X395655000Y-83490000D03*
%TD*%
D20*
%TO.C,*%
X428930000Y-126800000D03*
%TD*%
D11*
%TO.C,EMI415*%
X244320000Y-87260000D03*
X244320000Y-84720000D03*
X244320000Y-82260000D03*
%TD*%
%TO.C,EMI420*%
X325740000Y-87370000D03*
X325740000Y-84830000D03*
X325740000Y-82370000D03*
%TD*%
D15*
%TO.C,CN504*%
X135040000Y-231305000D03*
D16*
X135040000Y-228765000D03*
%TD*%
D11*
%TO.C,EMI407*%
X274890000Y-87240000D03*
X274890000Y-84700000D03*
X274890000Y-82240000D03*
%TD*%
D21*
%TO.C,VR501*%
X216390000Y-88410000D03*
D22*
X218930000Y-70570000D03*
D23*
X218930000Y-88410000D03*
X221390000Y-88410000D03*
%TD*%
D14*
%TO.C,U323*%
X166900000Y-256220000D03*
D12*
X166900000Y-258760000D03*
X166900000Y-261300000D03*
X166900000Y-263840000D03*
X166900000Y-266380000D03*
X166900000Y-268920000D03*
X166900000Y-271460000D03*
X166900000Y-274000000D03*
X166900000Y-276540000D03*
X174520000Y-276540000D03*
X174520000Y-274000000D03*
X174520000Y-271460000D03*
X174520000Y-268920000D03*
X174520000Y-266380000D03*
X174520000Y-263840000D03*
X174520000Y-261300000D03*
X174520000Y-258760000D03*
X174520000Y-256220000D03*
%TD*%
D11*
%TO.C,C707*%
X199920000Y-180320000D03*
X194920000Y-180320000D03*
%TD*%
D14*
%TO.C,U405*%
X332280000Y-119170000D03*
D12*
X332280000Y-121710000D03*
X332280000Y-124250000D03*
X332280000Y-126790000D03*
X332280000Y-129330000D03*
X332280000Y-131870000D03*
X332280000Y-134410000D03*
X339900000Y-134410000D03*
X339900000Y-131870000D03*
X339900000Y-129330000D03*
X339900000Y-126790000D03*
X339900000Y-124250000D03*
X339900000Y-121710000D03*
X339900000Y-119170000D03*
%TD*%
D15*
%TO.C,CN203*%
X131180000Y-231335000D03*
D16*
X131180000Y-228795000D03*
%TD*%
D14*
%TO.C,RP505*%
X130340000Y-81520000D03*
D12*
X130340000Y-84060000D03*
X130340000Y-86600000D03*
X130340000Y-89140000D03*
X130340000Y-91680000D03*
X130340000Y-94220000D03*
X130340000Y-96760000D03*
X130340000Y-99300000D03*
X130340000Y-101840000D03*
X130340000Y-104380000D03*
%TD*%
D14*
%TO.C,C501*%
X260965000Y-178975000D03*
D11*
X260965000Y-183975000D03*
%TD*%
D24*
%TO.C,TP2*%
X135730000Y-213430000D03*
%TD*%
D11*
%TO.C,C736*%
X156780000Y-281730000D03*
X161780000Y-281730000D03*
%TD*%
%TO.C,C762*%
X322090000Y-115440000D03*
X327090000Y-115440000D03*
%TD*%
D25*
%TO.C,U101*%
X275730000Y-242680000D03*
D26*
X273190000Y-242680000D03*
X275730000Y-240140000D03*
X273190000Y-240140000D03*
X275730000Y-237600000D03*
X273190000Y-237600000D03*
X275730000Y-235060000D03*
X273190000Y-235060000D03*
X275730000Y-232520000D03*
X273190000Y-232520000D03*
X275730000Y-229980000D03*
X273190000Y-227440000D03*
X273190000Y-229980000D03*
X270650000Y-227440000D03*
X270650000Y-229980000D03*
X268110000Y-227440000D03*
X268110000Y-229980000D03*
X265570000Y-227440000D03*
X265570000Y-229980000D03*
X263030000Y-227440000D03*
X263030000Y-229980000D03*
X260490000Y-227440000D03*
X260490000Y-229980000D03*
X257950000Y-227440000D03*
X257950000Y-229980000D03*
X255410000Y-227440000D03*
X255410000Y-229980000D03*
X252870000Y-227440000D03*
X252870000Y-229980000D03*
X250330000Y-227440000D03*
X250330000Y-229980000D03*
X247790000Y-227440000D03*
X245250000Y-229980000D03*
X247790000Y-229980000D03*
X245250000Y-232520000D03*
X247790000Y-232520000D03*
X245250000Y-235060000D03*
X247790000Y-235060000D03*
X245250000Y-237600000D03*
X247790000Y-237600000D03*
X245250000Y-240140000D03*
X247790000Y-240140000D03*
X245250000Y-242680000D03*
X247790000Y-242680000D03*
X245250000Y-245220000D03*
X247790000Y-245220000D03*
X245250000Y-247760000D03*
X247790000Y-247760000D03*
X245250000Y-250300000D03*
X247790000Y-250300000D03*
X245250000Y-252840000D03*
X247790000Y-252840000D03*
X245250000Y-255380000D03*
X247790000Y-257920000D03*
X247790000Y-255380000D03*
X250330000Y-257920000D03*
X250330000Y-255380000D03*
X252870000Y-257920000D03*
X252870000Y-255380000D03*
X255410000Y-257920000D03*
X255410000Y-255380000D03*
X257950000Y-257920000D03*
X257950000Y-255380000D03*
X260490000Y-257920000D03*
X260490000Y-255380000D03*
X263030000Y-257920000D03*
X263030000Y-255380000D03*
X265570000Y-257920000D03*
X265570000Y-255380000D03*
X268110000Y-257920000D03*
X268110000Y-255380000D03*
X270650000Y-257920000D03*
X270650000Y-255380000D03*
X273190000Y-257920000D03*
X275730000Y-255380000D03*
X273190000Y-255380000D03*
X275730000Y-252840000D03*
X273190000Y-252840000D03*
X275730000Y-250300000D03*
X273190000Y-250300000D03*
X275730000Y-247760000D03*
X273190000Y-247760000D03*
X275730000Y-245220000D03*
X273190000Y-245220000D03*
%TD*%
D14*
%TO.C,U104*%
X207380000Y-107610000D03*
D12*
X207380000Y-105070000D03*
X207380000Y-102530000D03*
X207380000Y-99990000D03*
X207380000Y-97450000D03*
X207380000Y-94910000D03*
X207380000Y-92370000D03*
X207380000Y-89830000D03*
X207380000Y-87290000D03*
X207380000Y-84750000D03*
X199760000Y-84750000D03*
X199760000Y-87290000D03*
X199760000Y-89830000D03*
X199760000Y-92370000D03*
X199760000Y-94910000D03*
X199760000Y-97450000D03*
X199760000Y-99990000D03*
X199760000Y-102530000D03*
X199760000Y-105070000D03*
X199760000Y-107610000D03*
%TD*%
D11*
%TO.C,C708*%
X215260000Y-180210000D03*
X210260000Y-180210000D03*
%TD*%
%TO.C,C704*%
X199850000Y-111450000D03*
X204850000Y-111450000D03*
%TD*%
%TO.C,C742*%
X233170000Y-281640000D03*
X238170000Y-281640000D03*
%TD*%
%TO.C,C415*%
X271160000Y-98740000D03*
X271160000Y-93740000D03*
%TD*%
%TO.C,C605*%
X439640000Y-96270000D03*
X439640000Y-101270000D03*
%TD*%
D23*
%TO.C,CN601*%
X438540000Y-73960000D03*
X435770000Y-73960000D03*
X433000000Y-73960000D03*
X430230000Y-73960000D03*
X427460000Y-73960000D03*
X437155000Y-71120000D03*
X434385000Y-71120000D03*
D27*
X445480000Y-72700000D03*
D23*
X431615000Y-71120000D03*
D27*
X420370000Y-72690000D03*
D23*
X428845000Y-71120000D03*
%TD*%
D28*
%TO.C,CN603*%
X411000000Y-73030000D03*
X407190000Y-69020000D03*
X403500000Y-73030000D03*
%TD*%
D24*
%TO.C,TP3*%
X135740000Y-210880000D03*
%TD*%
D14*
%TO.C,U401*%
X306960000Y-307930000D03*
D12*
X306960000Y-310470000D03*
X306960000Y-313010000D03*
X306960000Y-315550000D03*
X306960000Y-318090000D03*
X306960000Y-320630000D03*
X306960000Y-323170000D03*
X306960000Y-325710000D03*
X306960000Y-328250000D03*
X314580000Y-328250000D03*
X314580000Y-325710000D03*
X314580000Y-323170000D03*
X314580000Y-320630000D03*
X314580000Y-318090000D03*
X314580000Y-315550000D03*
X314580000Y-313010000D03*
X314580000Y-310470000D03*
X314580000Y-307930000D03*
%TD*%
D11*
%TO.C,R644*%
X316350000Y-82180000D03*
D12*
X316350000Y-94880000D03*
%TD*%
D11*
%TO.C,C803*%
X325890000Y-218510000D03*
X320890000Y-218510000D03*
%TD*%
%TO.C,C748*%
X314470000Y-281500000D03*
X309470000Y-281500000D03*
%TD*%
D13*
%TO.C,*%
X443950000Y-87940000D03*
%TD*%
D14*
%TO.C,C545*%
X436790000Y-282990000D03*
D11*
X431790000Y-282990000D03*
%TD*%
D25*
%TO.C,U602*%
X319030000Y-258020000D03*
D26*
X319030000Y-255480000D03*
X321570000Y-258020000D03*
X321570000Y-255480000D03*
X324110000Y-258020000D03*
X324110000Y-255480000D03*
X326650000Y-258020000D03*
X326650000Y-255480000D03*
X329190000Y-258020000D03*
X331730000Y-255480000D03*
X329190000Y-255480000D03*
X331730000Y-252940000D03*
X329190000Y-252940000D03*
X331730000Y-250400000D03*
X329190000Y-250400000D03*
X331730000Y-247860000D03*
X329190000Y-247860000D03*
X331730000Y-245320000D03*
X329190000Y-245320000D03*
X331730000Y-242780000D03*
X329190000Y-242780000D03*
X331730000Y-240240000D03*
X329190000Y-240240000D03*
X331730000Y-237700000D03*
X329190000Y-237700000D03*
X331730000Y-235160000D03*
X329190000Y-232620000D03*
X329190000Y-235160000D03*
X326650000Y-232620000D03*
X326650000Y-235160000D03*
X324110000Y-232620000D03*
X324110000Y-235160000D03*
X321570000Y-232620000D03*
X321570000Y-235160000D03*
X319030000Y-232620000D03*
X319030000Y-235160000D03*
X316490000Y-232620000D03*
X316490000Y-235160000D03*
X313950000Y-232620000D03*
X313950000Y-235160000D03*
X311410000Y-232620000D03*
X311410000Y-235160000D03*
X308870000Y-232620000D03*
X306330000Y-235160000D03*
X308870000Y-235160000D03*
X306330000Y-237700000D03*
X308870000Y-237700000D03*
X306330000Y-240240000D03*
X308870000Y-240240000D03*
X306330000Y-242780000D03*
X308870000Y-242780000D03*
X306330000Y-245320000D03*
X308870000Y-245320000D03*
X306330000Y-247860000D03*
X308870000Y-247860000D03*
X306330000Y-250400000D03*
X308870000Y-250400000D03*
X306330000Y-252940000D03*
X308870000Y-252940000D03*
X306330000Y-255480000D03*
X308870000Y-258020000D03*
X308870000Y-255480000D03*
X311410000Y-258020000D03*
X311410000Y-255480000D03*
X313950000Y-258020000D03*
X313950000Y-255480000D03*
X316490000Y-258020000D03*
X316490000Y-255480000D03*
%TD*%
D11*
%TO.C,R203*%
X330350000Y-300150000D03*
D12*
X330350000Y-312850000D03*
%TD*%
D11*
%TO.C,EMI403*%
X290160000Y-87250000D03*
X290160000Y-84710000D03*
X290160000Y-82250000D03*
%TD*%
D13*
%TO.C,*%
X137300000Y-72680000D03*
%TD*%
D11*
%TO.C,EMI105*%
X437340000Y-262440000D03*
X434920000Y-259920000D03*
X437340000Y-257440000D03*
%TD*%
%TO.C,C715*%
X402340000Y-300290000D03*
X397340000Y-300290000D03*
%TD*%
%TO.C,C717*%
X387740000Y-275930000D03*
X382740000Y-275930000D03*
%TD*%
%TO.C,FB602*%
X428340000Y-169660000D03*
D12*
X428340000Y-156960000D03*
%TD*%
D14*
%TO.C,U107*%
X192340000Y-184140000D03*
D12*
X192340000Y-186680000D03*
X192340000Y-189220000D03*
X192340000Y-191760000D03*
X192340000Y-194300000D03*
X192340000Y-196840000D03*
X192340000Y-199380000D03*
X192340000Y-201920000D03*
X192340000Y-204460000D03*
X192340000Y-207000000D03*
X199960000Y-207000000D03*
X199960000Y-204460000D03*
X199960000Y-201920000D03*
X199960000Y-199380000D03*
X199960000Y-196840000D03*
X199960000Y-194300000D03*
X199960000Y-191760000D03*
X199960000Y-189220000D03*
X199960000Y-186680000D03*
X199960000Y-184140000D03*
%TD*%
D11*
%TO.C,C518*%
X165340000Y-74540000D03*
X165340000Y-69540000D03*
%TD*%
D14*
%TO.C,RP301*%
X166890000Y-231915000D03*
D12*
X166890000Y-234455000D03*
X166890000Y-236995000D03*
X166890000Y-239535000D03*
X166890000Y-242075000D03*
X166890000Y-244615000D03*
X166890000Y-247155000D03*
X174510000Y-247155000D03*
X174510000Y-244615000D03*
X174510000Y-242075000D03*
X174510000Y-239535000D03*
X174510000Y-236995000D03*
X174510000Y-234455000D03*
X174510000Y-231915000D03*
%TD*%
D11*
%TO.C,R413*%
X338010000Y-158050000D03*
D12*
X338010000Y-145350000D03*
%TD*%
D11*
%TO.C,EMI607*%
X367015000Y-88490000D03*
X364595000Y-85970000D03*
X367015000Y-83490000D03*
%TD*%
%TO.C,C516*%
X159000000Y-74540000D03*
X159000000Y-69540000D03*
%TD*%
%TO.C,C513*%
X143040000Y-74540000D03*
X143040000Y-69540000D03*
%TD*%
%TO.C,C774*%
X437940000Y-149680000D03*
X442940000Y-149680000D03*
%TD*%
%TO.C,C411*%
X286370000Y-98740000D03*
X286370000Y-93740000D03*
%TD*%
%TO.C,C530*%
X134370000Y-142040000D03*
X139370000Y-142040000D03*
%TD*%
%TO.C,C769*%
X411170000Y-159990000D03*
X411170000Y-164990000D03*
%TD*%
D14*
%TO.C,OSC602*%
X413770000Y-190360000D03*
D11*
X413770000Y-175120000D03*
X406150000Y-175120000D03*
X406150000Y-190360000D03*
%TD*%
%TO.C,*%
X429620000Y-244610000D03*
%TD*%
%TO.C,EMI419*%
X321930000Y-87370000D03*
X321930000Y-84830000D03*
X321930000Y-82370000D03*
%TD*%
%TO.C,EMI422*%
X337160000Y-87370000D03*
X337160000Y-84830000D03*
X337160000Y-82370000D03*
%TD*%
%TO.C,C110*%
X290330000Y-217220000D03*
X285330000Y-217220000D03*
%TD*%
D15*
%TO.C,JMP101*%
X212705000Y-252210000D03*
D16*
X210165000Y-252210000D03*
%TD*%
D11*
%TO.C,R640*%
X425220000Y-169380000D03*
D12*
X425220000Y-156680000D03*
%TD*%
D11*
%TO.C,C731*%
X194970000Y-308510000D03*
X199970000Y-308510000D03*
%TD*%
D14*
%TO.C,U607*%
X351430000Y-138360000D03*
D12*
X351430000Y-140900000D03*
X351430000Y-143440000D03*
X351430000Y-145980000D03*
X351430000Y-148520000D03*
X351430000Y-151060000D03*
X351430000Y-153600000D03*
X351430000Y-156140000D03*
X351430000Y-158680000D03*
X351430000Y-161220000D03*
X351430000Y-163760000D03*
X351430000Y-166300000D03*
X351430000Y-168840000D03*
X351430000Y-171380000D03*
X366670000Y-171380000D03*
X366670000Y-168840000D03*
X366670000Y-166300000D03*
X366670000Y-163760000D03*
X366670000Y-161220000D03*
X366670000Y-158680000D03*
X366670000Y-156140000D03*
X366670000Y-153600000D03*
X366670000Y-151060000D03*
X366670000Y-148520000D03*
X366670000Y-145980000D03*
X366670000Y-143440000D03*
X366670000Y-140900000D03*
X366670000Y-138360000D03*
%TD*%
D11*
%TO.C,FB102*%
X429845000Y-239510000D03*
D12*
X424765000Y-239510000D03*
%TD*%
D11*
%TO.C,FB103*%
X416865000Y-244630000D03*
D12*
X421945000Y-244630000D03*
%TD*%
D14*
%TO.C,RP605*%
X429020000Y-142070000D03*
D12*
X429020000Y-139530000D03*
X429020000Y-136990000D03*
X429020000Y-134450000D03*
X429020000Y-131910000D03*
X429020000Y-129370000D03*
%TD*%
D11*
%TO.C,C802*%
X324010000Y-266300000D03*
X319010000Y-266300000D03*
%TD*%
%TO.C,C775*%
X281400000Y-259200000D03*
X286400000Y-259200000D03*
%TD*%
%TO.C,C527*%
X134410000Y-151620000D03*
X139410000Y-151620000D03*
%TD*%
%TO.C,C741*%
X220460000Y-281600000D03*
X225460000Y-281600000D03*
%TD*%
D14*
%TO.C,RP102*%
X263680000Y-214160000D03*
D12*
X266220000Y-214160000D03*
X268760000Y-214160000D03*
X271300000Y-214160000D03*
X273840000Y-214160000D03*
X276380000Y-214160000D03*
%TD*%
D11*
%TO.C,C766*%
X390960000Y-175170000D03*
X395960000Y-175170000D03*
%TD*%
%TO.C,R411*%
X301830000Y-313620000D03*
D12*
X301830000Y-300920000D03*
%TD*%
D22*
%TO.C,CN402*%
X299860000Y-72760000D03*
D21*
X340080000Y-73870000D03*
D22*
X346960000Y-72760000D03*
D23*
X337310000Y-73870000D03*
X334540000Y-73870000D03*
X331770000Y-73870000D03*
X329000000Y-73870000D03*
X326230000Y-73870000D03*
X323460000Y-73870000D03*
X320690000Y-73870000D03*
X317920000Y-73870000D03*
X315150000Y-73870000D03*
X312380000Y-73870000D03*
X309610000Y-73870000D03*
X306840000Y-73870000D03*
X338675000Y-71050000D03*
X335905000Y-71050000D03*
X333135000Y-71050000D03*
X330365000Y-71050000D03*
X327595000Y-71050000D03*
X324825000Y-71050000D03*
X322055000Y-71050000D03*
X319285000Y-71050000D03*
X316515000Y-71050000D03*
X313745000Y-71050000D03*
X310975000Y-71050000D03*
X308205000Y-71050000D03*
%TD*%
D14*
%TO.C,U307*%
X166920000Y-312495000D03*
D12*
X166920000Y-315035000D03*
X166920000Y-317575000D03*
X166920000Y-320115000D03*
X166920000Y-322655000D03*
X166920000Y-325195000D03*
X166920000Y-327735000D03*
X166920000Y-330275000D03*
X174540000Y-330275000D03*
X174540000Y-327735000D03*
X174540000Y-325195000D03*
X174540000Y-322655000D03*
X174540000Y-320115000D03*
X174540000Y-317575000D03*
X174540000Y-315035000D03*
X174540000Y-312495000D03*
%TD*%
D11*
%TO.C,C770*%
X351450000Y-175300000D03*
X356450000Y-175300000D03*
%TD*%
D14*
%TO.C,RP203*%
X409900000Y-326970000D03*
D12*
X409900000Y-324430000D03*
X409900000Y-321890000D03*
X409900000Y-319350000D03*
X409900000Y-316810000D03*
X409900000Y-314270000D03*
X409900000Y-311730000D03*
X409900000Y-309190000D03*
X409900000Y-306650000D03*
X409900000Y-304110000D03*
%TD*%
D11*
%TO.C,R620*%
X404670000Y-117900000D03*
D12*
X404670000Y-105200000D03*
%TD*%
D14*
%TO.C,RP501*%
X334890000Y-279750000D03*
D12*
X334890000Y-282290000D03*
X334890000Y-284830000D03*
X334890000Y-287370000D03*
X334890000Y-289910000D03*
X334890000Y-292450000D03*
%TD*%
D14*
%TO.C,U308*%
X179740000Y-312445000D03*
D12*
X179740000Y-314985000D03*
X179740000Y-317525000D03*
X179740000Y-320065000D03*
X179740000Y-322605000D03*
X179740000Y-325145000D03*
X179740000Y-327685000D03*
X179740000Y-330225000D03*
X187360000Y-330225000D03*
X187360000Y-327685000D03*
X187360000Y-325145000D03*
X187360000Y-322605000D03*
X187360000Y-320065000D03*
X187360000Y-317525000D03*
X187360000Y-314985000D03*
X187360000Y-312445000D03*
%TD*%
D29*
%TO.C,PAD201*%
X355360000Y-204540000D03*
X355360000Y-202670000D03*
X355360000Y-200740000D03*
%TD*%
D11*
%TO.C,R102*%
X440530000Y-308600000D03*
D12*
X427830000Y-308600000D03*
%TD*%
D13*
%TO.C,*%
X444290000Y-258990000D03*
%TD*%
D15*
%TO.C,JMP207*%
X357820000Y-213475000D03*
D16*
X357820000Y-210935000D03*
%TD*%
D13*
%TO.C,*%
X137500000Y-185470000D03*
%TD*%
D11*
%TO.C,EMI421*%
X329570000Y-87370000D03*
X329570000Y-84830000D03*
X329570000Y-82370000D03*
%TD*%
%TO.C,FB201*%
X372920000Y-325850000D03*
D12*
X372920000Y-313150000D03*
%TD*%
D11*
%TO.C,R408*%
X305490000Y-91100000D03*
D12*
X305490000Y-103800000D03*
%TD*%
D14*
%TO.C,U315*%
X166950000Y-285645000D03*
D12*
X166950000Y-288185000D03*
X166950000Y-290725000D03*
X166950000Y-293265000D03*
X166950000Y-295805000D03*
X166950000Y-298345000D03*
X166950000Y-300885000D03*
X166950000Y-303425000D03*
X174570000Y-303425000D03*
X174570000Y-300885000D03*
X174570000Y-298345000D03*
X174570000Y-295805000D03*
X174570000Y-293265000D03*
X174570000Y-290725000D03*
X174570000Y-288185000D03*
X174570000Y-285645000D03*
%TD*%
D14*
%TO.C,U324*%
X179680000Y-256210000D03*
D12*
X179680000Y-258750000D03*
X179680000Y-261290000D03*
X179680000Y-263830000D03*
X179680000Y-266370000D03*
X179680000Y-268910000D03*
X179680000Y-271450000D03*
X179680000Y-273990000D03*
X179680000Y-276530000D03*
X187300000Y-276530000D03*
X187300000Y-273990000D03*
X187300000Y-271450000D03*
X187300000Y-268910000D03*
X187300000Y-266370000D03*
X187300000Y-263830000D03*
X187300000Y-261290000D03*
X187300000Y-258750000D03*
X187300000Y-256210000D03*
%TD*%
D11*
%TO.C,R622*%
X420060000Y-105260000D03*
D12*
X420060000Y-117960000D03*
%TD*%
D14*
%TO.C,RP602*%
X421300000Y-139510000D03*
D12*
X421300000Y-136970000D03*
X421300000Y-134430000D03*
X421300000Y-131890000D03*
X421300000Y-129350000D03*
X421300000Y-126810000D03*
X421300000Y-124270000D03*
X421300000Y-121730000D03*
X413680000Y-121730000D03*
X413680000Y-124270000D03*
X413680000Y-126810000D03*
X413680000Y-129350000D03*
X413680000Y-131890000D03*
X413680000Y-134430000D03*
X413680000Y-136970000D03*
X413680000Y-139510000D03*
%TD*%
D14*
%TO.C,CR601*%
X365360000Y-128060000D03*
D12*
X352660000Y-128060000D03*
%TD*%
D11*
%TO.C,EMI409*%
X267290000Y-87230000D03*
X267290000Y-84690000D03*
X267290000Y-82230000D03*
%TD*%
%TO.C,C414*%
X274950000Y-98730000D03*
X274950000Y-93730000D03*
%TD*%
%TO.C,C740*%
X207630000Y-281680000D03*
X212630000Y-281680000D03*
%TD*%
%TO.C,C538*%
X134310000Y-116520000D03*
X139310000Y-116520000D03*
%TD*%
D20*
%TO.C,*%
X135650000Y-191680000D03*
%TD*%
D11*
%TO.C,C106*%
X425830000Y-255460000D03*
X420830000Y-255460000D03*
%TD*%
D14*
%TO.C,U402*%
X311900000Y-119250000D03*
D12*
X311900000Y-121790000D03*
X311900000Y-124330000D03*
X311900000Y-126870000D03*
X311900000Y-129410000D03*
X311900000Y-131950000D03*
X311900000Y-134490000D03*
X311900000Y-137030000D03*
X311900000Y-139570000D03*
X311900000Y-142110000D03*
X311900000Y-144650000D03*
X311900000Y-147190000D03*
X311900000Y-149730000D03*
X311900000Y-152270000D03*
X311900000Y-154810000D03*
X311900000Y-157350000D03*
X311900000Y-159890000D03*
X311900000Y-162430000D03*
X311900000Y-164970000D03*
X311900000Y-167510000D03*
X327140000Y-167510000D03*
X327140000Y-164970000D03*
X327140000Y-162430000D03*
X327140000Y-159890000D03*
X327140000Y-157350000D03*
X327140000Y-154810000D03*
X327140000Y-152270000D03*
X327140000Y-149730000D03*
X327140000Y-147190000D03*
X327140000Y-144650000D03*
X327140000Y-142110000D03*
X327140000Y-139570000D03*
X327140000Y-137030000D03*
X327140000Y-134490000D03*
X327140000Y-131950000D03*
X327140000Y-129410000D03*
X327140000Y-126870000D03*
X327140000Y-124330000D03*
X327140000Y-121790000D03*
X327140000Y-119250000D03*
%TD*%
D11*
%TO.C,C529*%
X134400000Y-145260000D03*
X139400000Y-145260000D03*
%TD*%
%TO.C,C408*%
X297850000Y-98720000D03*
X297850000Y-93720000D03*
%TD*%
D14*
%TO.C,RP202*%
X380170000Y-243360000D03*
D12*
X380170000Y-245900000D03*
X380170000Y-248440000D03*
X380170000Y-250980000D03*
X380170000Y-253520000D03*
X380170000Y-256060000D03*
X380170000Y-258600000D03*
X380170000Y-261140000D03*
X387790000Y-261140000D03*
X387790000Y-258600000D03*
X387790000Y-256060000D03*
X387790000Y-253520000D03*
X387790000Y-250980000D03*
X387790000Y-248440000D03*
X387790000Y-245900000D03*
X387790000Y-243360000D03*
%TD*%
D11*
%TO.C,C735*%
X144110000Y-281800000D03*
X149110000Y-281800000D03*
%TD*%
%TO.C,C514*%
X152600000Y-74540000D03*
X152600000Y-69540000D03*
%TD*%
%TO.C,C604*%
X435760000Y-96270000D03*
X435760000Y-101270000D03*
%TD*%
%TO.C,C761*%
X296640000Y-111560000D03*
X301640000Y-111560000D03*
%TD*%
%TO.C,C422*%
X244400000Y-98660000D03*
X244400000Y-93660000D03*
%TD*%
D14*
%TO.C,U105*%
X207500000Y-171400000D03*
D12*
X207500000Y-168860000D03*
X207500000Y-166320000D03*
X207500000Y-163780000D03*
X207500000Y-161240000D03*
X207500000Y-158700000D03*
X207500000Y-156160000D03*
X207500000Y-153620000D03*
X207500000Y-151080000D03*
X207500000Y-148540000D03*
X199880000Y-148540000D03*
X199880000Y-151080000D03*
X199880000Y-153620000D03*
X199880000Y-156160000D03*
X199880000Y-158700000D03*
X199880000Y-161240000D03*
X199880000Y-163780000D03*
X199880000Y-166320000D03*
X199880000Y-168860000D03*
X199880000Y-171400000D03*
%TD*%
D11*
%TO.C,C760*%
X296690000Y-115430000D03*
X301690000Y-115430000D03*
%TD*%
%TO.C,R639*%
X397030000Y-105170000D03*
D12*
X397030000Y-117870000D03*
%TD*%
D11*
%TO.C,R407*%
X308040000Y-119200000D03*
D12*
X308040000Y-131900000D03*
%TD*%
D11*
%TO.C,R404*%
X301760000Y-157560000D03*
D12*
X301760000Y-170260000D03*
%TD*%
D11*
%TO.C,R401*%
X301830000Y-316640000D03*
D12*
X301830000Y-329340000D03*
%TD*%
D11*
%TO.C,EMI414*%
X248150000Y-87270000D03*
X248150000Y-84730000D03*
X248150000Y-82270000D03*
%TD*%
D20*
%TO.C,*%
X446070000Y-104510000D03*
%TD*%
D11*
%TO.C,C412*%
X282560000Y-98740000D03*
X282560000Y-93740000D03*
%TD*%
%TO.C,R502*%
X195400000Y-150500000D03*
D12*
X195400000Y-137800000D03*
%TD*%
D14*
%TO.C,U106*%
X207440000Y-139440000D03*
D12*
X207440000Y-136900000D03*
X207440000Y-134360000D03*
X207440000Y-131820000D03*
X207440000Y-129280000D03*
X207440000Y-126740000D03*
X207440000Y-124200000D03*
X207440000Y-121660000D03*
X207440000Y-119120000D03*
X207440000Y-116580000D03*
X199820000Y-116580000D03*
X199820000Y-119120000D03*
X199820000Y-121660000D03*
X199820000Y-124200000D03*
X199820000Y-126740000D03*
X199820000Y-129280000D03*
X199820000Y-131820000D03*
X199820000Y-134360000D03*
X199820000Y-136900000D03*
X199820000Y-139440000D03*
%TD*%
D14*
%TO.C,U328*%
X243890000Y-312290000D03*
D12*
X243890000Y-314830000D03*
X243890000Y-317370000D03*
X243890000Y-319910000D03*
X243890000Y-322450000D03*
X243890000Y-324990000D03*
X243890000Y-327530000D03*
X251510000Y-327530000D03*
X251510000Y-324990000D03*
X251510000Y-322450000D03*
X251510000Y-319910000D03*
X251510000Y-317370000D03*
X251510000Y-314830000D03*
X251510000Y-312290000D03*
%TD*%
D11*
%TO.C,C703*%
X253250000Y-115310000D03*
X248250000Y-115310000D03*
%TD*%
%TO.C,C416*%
X267320000Y-98710000D03*
X267320000Y-93710000D03*
%TD*%
%TO.C,C773*%
X437840000Y-120430000D03*
X442840000Y-120430000D03*
%TD*%
D14*
%TO.C,U604*%
X385710000Y-101400000D03*
D12*
X385710000Y-103940000D03*
X385710000Y-106480000D03*
X385710000Y-109020000D03*
X385710000Y-111560000D03*
X385710000Y-114100000D03*
X385710000Y-116640000D03*
X385710000Y-119180000D03*
X385710000Y-121720000D03*
X385710000Y-124260000D03*
X393330000Y-124260000D03*
X393330000Y-121720000D03*
X393330000Y-119180000D03*
X393330000Y-116640000D03*
X393330000Y-114100000D03*
X393330000Y-111560000D03*
X393330000Y-109020000D03*
X393330000Y-106480000D03*
X393330000Y-103940000D03*
X393330000Y-101400000D03*
%TD*%
D20*
%TO.C,*%
X129820000Y-191690000D03*
%TD*%
D14*
%TO.C,U2*%
X364130000Y-279845000D03*
D12*
X364130000Y-282385000D03*
X364130000Y-284925000D03*
X364130000Y-287465000D03*
X364130000Y-290005000D03*
X364130000Y-292545000D03*
X364130000Y-295085000D03*
X371750000Y-295085000D03*
X371750000Y-292545000D03*
X371750000Y-290005000D03*
X371750000Y-287465000D03*
X371750000Y-284925000D03*
X371750000Y-282385000D03*
X371750000Y-279845000D03*
%TD*%
D11*
%TO.C,C747*%
X263000000Y-281560000D03*
X258000000Y-281560000D03*
%TD*%
D14*
%TO.C,CR403*%
X319310000Y-94870000D03*
D12*
X319310000Y-82170000D03*
%TD*%
D11*
%TO.C,R405*%
X299160000Y-170280000D03*
D12*
X299160000Y-157580000D03*
%TD*%
D17*
%TO.C,CN101*%
X418190000Y-321360000D03*
D16*
X418190000Y-323900000D03*
X418190000Y-326440000D03*
%TD*%
D14*
%TO.C,U306*%
X154230000Y-312535000D03*
D12*
X154230000Y-315075000D03*
X154230000Y-317615000D03*
X154230000Y-320155000D03*
X154230000Y-322695000D03*
X154230000Y-325235000D03*
X154230000Y-327775000D03*
X154230000Y-330315000D03*
X161850000Y-330315000D03*
X161850000Y-327775000D03*
X161850000Y-325235000D03*
X161850000Y-322695000D03*
X161850000Y-320155000D03*
X161850000Y-317615000D03*
X161850000Y-315075000D03*
X161850000Y-312535000D03*
%TD*%
D11*
%TO.C,C701*%
X232490000Y-250320000D03*
X232490000Y-255320000D03*
%TD*%
%TO.C,C201*%
X418880000Y-200650000D03*
X418880000Y-205650000D03*
%TD*%
%TO.C,EMI425*%
X301640000Y-87260000D03*
X301640000Y-84720000D03*
X301640000Y-82260000D03*
%TD*%
%TO.C,C706*%
X199860000Y-143460000D03*
X204860000Y-143460000D03*
%TD*%
%TO.C,R643*%
X229650000Y-109020000D03*
D12*
X242350000Y-109020000D03*
%TD*%
D14*
%TO.C,U321*%
X141460000Y-256130000D03*
D12*
X141460000Y-258670000D03*
X141460000Y-261210000D03*
X141460000Y-263750000D03*
X141460000Y-266290000D03*
X141460000Y-268830000D03*
X141460000Y-271370000D03*
X141460000Y-273910000D03*
X141460000Y-276450000D03*
X149080000Y-276450000D03*
X149080000Y-273910000D03*
X149080000Y-271370000D03*
X149080000Y-268830000D03*
X149080000Y-266290000D03*
X149080000Y-263750000D03*
X149080000Y-261210000D03*
X149080000Y-258670000D03*
X149080000Y-256130000D03*
%TD*%
D11*
%TO.C,C723*%
X161840000Y-225540000D03*
X156840000Y-225540000D03*
%TD*%
D20*
%TO.C,*%
X438400000Y-83570000D03*
%TD*%
D14*
%TO.C,RP303*%
X244030000Y-285560000D03*
D12*
X244030000Y-288100000D03*
X244030000Y-290640000D03*
X244030000Y-293180000D03*
X244030000Y-295720000D03*
X244030000Y-298260000D03*
X244030000Y-300800000D03*
X251650000Y-300800000D03*
X251650000Y-298260000D03*
X251650000Y-295720000D03*
X251650000Y-293180000D03*
X251650000Y-290640000D03*
X251650000Y-288100000D03*
X251650000Y-285560000D03*
%TD*%
D11*
%TO.C,R202*%
X330390000Y-292410000D03*
D12*
X330390000Y-279710000D03*
%TD*%
D11*
%TO.C,C726*%
X149150000Y-220380000D03*
X144150000Y-220380000D03*
%TD*%
%TO.C,R642*%
X330110000Y-206940000D03*
D12*
X330110000Y-194240000D03*
%TD*%
D14*
%TO.C,U304*%
X141550000Y-224295000D03*
D12*
X141550000Y-226835000D03*
X141550000Y-229375000D03*
X141550000Y-231915000D03*
X141550000Y-234455000D03*
X141550000Y-236995000D03*
X141550000Y-239535000D03*
X141550000Y-242075000D03*
X141550000Y-244615000D03*
X141550000Y-247155000D03*
X149170000Y-247155000D03*
X149170000Y-244615000D03*
X149170000Y-242075000D03*
X149170000Y-239535000D03*
X149170000Y-236995000D03*
X149170000Y-234455000D03*
X149170000Y-231915000D03*
X149170000Y-229375000D03*
X149170000Y-226835000D03*
X149170000Y-224295000D03*
%TD*%
D14*
%TO.C,C543*%
X278900000Y-302680000D03*
D11*
X283900000Y-302680000D03*
%TD*%
D20*
%TO.C,*%
X129860000Y-194890000D03*
%TD*%
D11*
%TO.C,R604*%
X414800000Y-117960000D03*
D12*
X414800000Y-105260000D03*
%TD*%
D14*
%TO.C,RP302*%
X205070000Y-260635000D03*
D12*
X205070000Y-263175000D03*
X205070000Y-265715000D03*
X205070000Y-268255000D03*
X205070000Y-270795000D03*
X205070000Y-273335000D03*
X205070000Y-275875000D03*
X212690000Y-275875000D03*
X212690000Y-273335000D03*
X212690000Y-270795000D03*
X212690000Y-268255000D03*
X212690000Y-265715000D03*
X212690000Y-263175000D03*
X212690000Y-260635000D03*
%TD*%
D14*
%TO.C,U605*%
X435340000Y-124240000D03*
D12*
X435340000Y-126780000D03*
X435340000Y-129320000D03*
X435340000Y-131860000D03*
X435340000Y-134400000D03*
X435340000Y-136940000D03*
X435340000Y-139480000D03*
X435340000Y-142020000D03*
X435340000Y-144560000D03*
X442960000Y-144560000D03*
X442960000Y-142020000D03*
X442960000Y-139480000D03*
X442960000Y-136940000D03*
X442960000Y-134400000D03*
X442960000Y-131860000D03*
X442960000Y-129320000D03*
X442960000Y-126780000D03*
X442960000Y-124240000D03*
%TD*%
D11*
%TO.C,C800*%
X251590000Y-308480000D03*
X246590000Y-308480000D03*
%TD*%
%TO.C,R617*%
X412270000Y-117960000D03*
D12*
X412270000Y-105260000D03*
%TD*%
D11*
%TO.C,C733*%
X220400000Y-308500000D03*
X225400000Y-308500000D03*
%TD*%
%TO.C,C104*%
X425930000Y-247800000D03*
X420930000Y-247800000D03*
%TD*%
%TO.C,C424*%
X236730000Y-98640000D03*
X236730000Y-93640000D03*
%TD*%
%TO.C,C702*%
X232960000Y-115530000D03*
X227960000Y-115530000D03*
%TD*%
%TO.C,C108*%
X219010000Y-207030000D03*
X224010000Y-207030000D03*
%TD*%
%TO.C,EMI423*%
X341020000Y-87370000D03*
X341020000Y-84830000D03*
X341020000Y-82370000D03*
%TD*%
D14*
%TO.C,C502*%
X136405000Y-324615000D03*
D11*
X131405000Y-324615000D03*
%TD*%
%TO.C,C537*%
X134320000Y-119730000D03*
X139320000Y-119730000D03*
%TD*%
D14*
%TO.C,U206*%
X394610000Y-304080000D03*
D12*
X394610000Y-306620000D03*
X394610000Y-309160000D03*
X394610000Y-311700000D03*
X394610000Y-314240000D03*
X394610000Y-316780000D03*
X394610000Y-319320000D03*
X402230000Y-319320000D03*
X402230000Y-316780000D03*
X402230000Y-314240000D03*
X402230000Y-311700000D03*
X402230000Y-309160000D03*
X402230000Y-306620000D03*
X402230000Y-304080000D03*
%TD*%
D11*
%TO.C,R412*%
X308130000Y-137080000D03*
D12*
X308130000Y-149780000D03*
%TD*%
D11*
%TO.C,R107*%
X411250000Y-152250000D03*
D12*
X423950000Y-152250000D03*
%TD*%
D11*
%TO.C,C768*%
X391470000Y-130650000D03*
X396470000Y-130650000D03*
%TD*%
%TO.C,R205*%
X131870000Y-235780000D03*
D12*
X131870000Y-248480000D03*
%TD*%
D11*
%TO.C,C109*%
X425890000Y-259350000D03*
X420890000Y-259350000D03*
%TD*%
D14*
%TO.C,CR201*%
X297870000Y-293590000D03*
D12*
X297870000Y-280890000D03*
%TD*%
D11*
%TO.C,C712*%
X402290000Y-234400000D03*
X397290000Y-234400000D03*
%TD*%
%TO.C,R105*%
X427830000Y-305430000D03*
D12*
X440530000Y-305430000D03*
%TD*%
D14*
%TO.C,U201*%
X152940000Y-184200000D03*
D12*
X152940000Y-186740000D03*
X152940000Y-189280000D03*
X152940000Y-191820000D03*
X152940000Y-194360000D03*
X152940000Y-196900000D03*
X152940000Y-199440000D03*
X152940000Y-201980000D03*
X152940000Y-204520000D03*
X152940000Y-207060000D03*
X152940000Y-209600000D03*
X152940000Y-212140000D03*
X152940000Y-214680000D03*
X152940000Y-217220000D03*
X168180000Y-217220000D03*
X168180000Y-214680000D03*
X168180000Y-212140000D03*
X168180000Y-209600000D03*
X168180000Y-207060000D03*
X168180000Y-204520000D03*
X168180000Y-201980000D03*
X168180000Y-199440000D03*
X168180000Y-196900000D03*
X168180000Y-194360000D03*
X168180000Y-191820000D03*
X168180000Y-189280000D03*
X168180000Y-186740000D03*
X168180000Y-184200000D03*
%TD*%
D11*
%TO.C,C520*%
X171650000Y-74540000D03*
X171650000Y-69540000D03*
%TD*%
D14*
%TO.C,RP603*%
X423240000Y-106450000D03*
D12*
X425780000Y-106450000D03*
X428320000Y-106450000D03*
X430860000Y-106450000D03*
X433400000Y-106450000D03*
X435940000Y-106450000D03*
X438480000Y-106450000D03*
X441020000Y-106450000D03*
%TD*%
D11*
%TO.C,C508*%
X299250000Y-179050000D03*
X299250000Y-174050000D03*
%TD*%
%TO.C,C202*%
X290320000Y-298840000D03*
X295320000Y-298840000D03*
%TD*%
D29*
%TO.C,PAD202*%
X352630000Y-204540000D03*
X352630000Y-202670000D03*
X352630000Y-200740000D03*
%TD*%
D27*
%TO.C,CN602*%
X394490000Y-72590000D03*
D23*
X376470000Y-73750000D03*
D27*
X369430000Y-72570000D03*
D23*
X379240000Y-73750000D03*
X382010000Y-73750000D03*
X384780000Y-73750000D03*
X387550000Y-73750000D03*
X377780000Y-71220000D03*
X380550000Y-71220000D03*
X383320000Y-71220000D03*
X386090000Y-71220000D03*
%TD*%
D14*
%TO.C,U1*%
X380120000Y-279805000D03*
D12*
X380120000Y-282345000D03*
X380120000Y-284885000D03*
X380120000Y-287425000D03*
X380120000Y-289965000D03*
X380120000Y-292505000D03*
X380120000Y-295045000D03*
X387740000Y-295045000D03*
X387740000Y-292505000D03*
X387740000Y-289965000D03*
X387740000Y-287425000D03*
X387740000Y-284885000D03*
X387740000Y-282345000D03*
X387740000Y-279805000D03*
%TD*%
D26*
%TO.C,Q602*%
X343760000Y-203255000D03*
X341260000Y-203275000D03*
X343760000Y-200685000D03*
%TD*%
D11*
%TO.C,R410*%
X324550000Y-91020000D03*
D12*
X324550000Y-103720000D03*
%TD*%
D11*
%TO.C,C727*%
X144090000Y-308400000D03*
X149090000Y-308400000D03*
%TD*%
%TO.C,C716*%
X387710000Y-300250000D03*
X382710000Y-300250000D03*
%TD*%
D14*
%TO.C,OSC201*%
X360960000Y-310550000D03*
D11*
X360960000Y-325790000D03*
X368580000Y-325790000D03*
X368580000Y-310550000D03*
%TD*%
D15*
%TO.C,JMP206*%
X355260000Y-213475000D03*
D16*
X355260000Y-210935000D03*
%TD*%
D11*
%TO.C,C737*%
X169440000Y-281710000D03*
X174440000Y-281710000D03*
%TD*%
%TO.C,C524*%
X134420000Y-161150000D03*
X139420000Y-161150000D03*
%TD*%
D14*
%TO.C,U305*%
X141570000Y-312530000D03*
D12*
X141570000Y-315070000D03*
X141570000Y-317610000D03*
X141570000Y-320150000D03*
X141570000Y-322690000D03*
X141570000Y-325230000D03*
X141570000Y-327770000D03*
X141570000Y-330310000D03*
X149190000Y-330310000D03*
X149190000Y-327770000D03*
X149190000Y-325230000D03*
X149190000Y-322690000D03*
X149190000Y-320150000D03*
X149190000Y-317610000D03*
X149190000Y-315070000D03*
X149190000Y-312530000D03*
%TD*%
D11*
%TO.C,FB105*%
X261080000Y-204940000D03*
D12*
X248380000Y-204940000D03*
%TD*%
D11*
%TO.C,C413*%
X278730000Y-98750000D03*
X278730000Y-93750000D03*
%TD*%
D14*
%TO.C,C544*%
X324690000Y-282950000D03*
D11*
X319690000Y-282950000D03*
%TD*%
%TO.C,R206*%
X294670000Y-280880000D03*
D12*
X294670000Y-293580000D03*
%TD*%
D14*
%TO.C,U325*%
X255350000Y-285520000D03*
D12*
X255350000Y-288060000D03*
X255350000Y-290600000D03*
X255350000Y-293140000D03*
X255350000Y-295680000D03*
X255350000Y-298220000D03*
X255350000Y-300760000D03*
X262970000Y-300760000D03*
X262970000Y-298220000D03*
X262970000Y-295680000D03*
X262970000Y-293140000D03*
X262970000Y-290600000D03*
X262970000Y-288060000D03*
X262970000Y-285520000D03*
%TD*%
D11*
%TO.C,C739*%
X194950000Y-281670000D03*
X199950000Y-281670000D03*
%TD*%
%TO.C,C771*%
X377940000Y-97560000D03*
X372940000Y-97560000D03*
%TD*%
%TO.C,C521*%
X134480000Y-170740000D03*
X139480000Y-170740000D03*
%TD*%
D20*
%TO.C,*%
X425680000Y-83550000D03*
%TD*%
D14*
%TO.C,CR405*%
X310520000Y-103790000D03*
D12*
X310520000Y-91090000D03*
%TD*%
D11*
%TO.C,C714*%
X355950000Y-234430000D03*
X350950000Y-234430000D03*
%TD*%
%TO.C,C603*%
X420480000Y-95010000D03*
X420480000Y-100010000D03*
%TD*%
%TO.C,C532*%
X134370000Y-135680000D03*
X139370000Y-135680000D03*
%TD*%
D13*
%TO.C,*%
X133850000Y-313980000D03*
%TD*%
D11*
%TO.C,EMI102*%
X420940000Y-236310000D03*
X423460000Y-233890000D03*
X425940000Y-236310000D03*
%TD*%
%TO.C,EMI410*%
X263510000Y-87210000D03*
X263510000Y-84670000D03*
X263510000Y-82210000D03*
%TD*%
%TO.C,R616*%
X360060000Y-93940000D03*
D12*
X360060000Y-81240000D03*
%TD*%
D11*
%TO.C,C713*%
X371800000Y-234440000D03*
X366800000Y-234440000D03*
%TD*%
%TO.C,C724*%
X200040000Y-252240000D03*
X195040000Y-252240000D03*
%TD*%
D14*
%TO.C,C541*%
X432885000Y-212805000D03*
D11*
X437885000Y-212805000D03*
%TD*%
D14*
%TO.C,U310*%
X205110000Y-312380000D03*
D12*
X205110000Y-314920000D03*
X205110000Y-317460000D03*
X205110000Y-320000000D03*
X205110000Y-322540000D03*
X205110000Y-325080000D03*
X205110000Y-327620000D03*
X205110000Y-330160000D03*
X212730000Y-330160000D03*
X212730000Y-327620000D03*
X212730000Y-325080000D03*
X212730000Y-322540000D03*
X212730000Y-320000000D03*
X212730000Y-317460000D03*
X212730000Y-314920000D03*
X212730000Y-312380000D03*
%TD*%
D11*
%TO.C,C401*%
X318780000Y-327960000D03*
X318780000Y-322960000D03*
%TD*%
%TO.C,EMI417*%
X236730000Y-87250000D03*
X236730000Y-84710000D03*
X236730000Y-82250000D03*
%TD*%
%TO.C,EMI404*%
X286320000Y-87250000D03*
X286320000Y-84710000D03*
X286320000Y-82250000D03*
%TD*%
D20*
%TO.C,*%
X135640000Y-194890000D03*
%TD*%
D14*
%TO.C,C505*%
X204795000Y-69565000D03*
D11*
X204795000Y-74565000D03*
%TD*%
%TO.C,R201*%
X416940000Y-224150000D03*
D12*
X429640000Y-224150000D03*
%TD*%
D14*
%TO.C,CR402*%
X294230000Y-329360000D03*
D12*
X294230000Y-316660000D03*
%TD*%
D11*
%TO.C,EMI611*%
X372765000Y-88490000D03*
X370345000Y-85970000D03*
X372765000Y-83490000D03*
%TD*%
%TO.C,EMI413*%
X252020000Y-87240000D03*
X252020000Y-84700000D03*
X252020000Y-82240000D03*
%TD*%
%TO.C,R402*%
X290360000Y-329310000D03*
D12*
X290360000Y-316610000D03*
%TD*%
D11*
%TO.C,R409*%
X308020000Y-91090000D03*
D12*
X308020000Y-103790000D03*
%TD*%
D11*
%TO.C,C535*%
X134340000Y-126070000D03*
X139340000Y-126070000D03*
%TD*%
%TO.C,R627*%
X365280000Y-114780000D03*
D12*
X352580000Y-114780000D03*
%TD*%
D14*
%TO.C,U109*%
X177070000Y-184130000D03*
D12*
X177070000Y-186670000D03*
X177070000Y-189210000D03*
X177070000Y-191750000D03*
X177070000Y-194290000D03*
X177070000Y-196830000D03*
X177070000Y-199370000D03*
X177070000Y-201910000D03*
X177070000Y-204450000D03*
X177070000Y-206990000D03*
X184690000Y-206990000D03*
X184690000Y-204450000D03*
X184690000Y-201910000D03*
X184690000Y-199370000D03*
X184690000Y-196830000D03*
X184690000Y-194290000D03*
X184690000Y-191750000D03*
X184690000Y-189210000D03*
X184690000Y-186670000D03*
X184690000Y-184130000D03*
%TD*%
D14*
%TO.C,U603*%
X370310000Y-101330000D03*
D12*
X370310000Y-103870000D03*
X370310000Y-106410000D03*
X370310000Y-108950000D03*
X370310000Y-111490000D03*
X370310000Y-114030000D03*
X370310000Y-116570000D03*
X370310000Y-119110000D03*
X370310000Y-121650000D03*
X370310000Y-124190000D03*
X377930000Y-124190000D03*
X377930000Y-121650000D03*
X377930000Y-119110000D03*
X377930000Y-116570000D03*
X377930000Y-114030000D03*
X377930000Y-111490000D03*
X377930000Y-108950000D03*
X377930000Y-106410000D03*
X377930000Y-103870000D03*
X377930000Y-101330000D03*
%TD*%
D11*
%TO.C,C419*%
X255900000Y-98730000D03*
X255900000Y-93730000D03*
%TD*%
D13*
%TO.C,*%
X258470000Y-313740000D03*
%TD*%
D14*
%TO.C,C547*%
X437830000Y-113410000D03*
D11*
X442830000Y-113410000D03*
%TD*%
%TO.C,R606*%
X352490000Y-93960000D03*
D12*
X352490000Y-81260000D03*
%TD*%
D11*
%TO.C,C744*%
X156770000Y-252330000D03*
X161770000Y-252330000D03*
%TD*%
D21*
%TO.C,CN102*%
X438630000Y-251120000D03*
D30*
X438690000Y-243630000D03*
X438640000Y-236070000D03*
X436180000Y-248590000D03*
X436140000Y-238600000D03*
D31*
X446080000Y-243600000D03*
X448630000Y-238600000D03*
X448630000Y-241070000D03*
X448630000Y-246080000D03*
X448630000Y-248550000D03*
%TD*%
D14*
%TO.C,U3*%
X394700000Y-279855000D03*
D12*
X394700000Y-282395000D03*
X394700000Y-284935000D03*
X394700000Y-287475000D03*
X394700000Y-290015000D03*
X394700000Y-292555000D03*
X394700000Y-295095000D03*
X402320000Y-295095000D03*
X402320000Y-292555000D03*
X402320000Y-290015000D03*
X402320000Y-287475000D03*
X402320000Y-284935000D03*
X402320000Y-282395000D03*
X402320000Y-279855000D03*
%TD*%
D14*
%TO.C,U326*%
X306890000Y-285510000D03*
D12*
X306890000Y-288050000D03*
X306890000Y-290590000D03*
X306890000Y-293130000D03*
X306890000Y-295670000D03*
X306890000Y-298210000D03*
X306890000Y-300750000D03*
X314510000Y-300750000D03*
X314510000Y-298210000D03*
X314510000Y-295670000D03*
X314510000Y-293130000D03*
X314510000Y-290590000D03*
X314510000Y-288050000D03*
X314510000Y-285510000D03*
%TD*%
D11*
%TO.C,FB605*%
X436480000Y-92660000D03*
D12*
X436480000Y-79960000D03*
%TD*%
D14*
%TO.C,C504*%
X299310000Y-188060000D03*
D11*
X299310000Y-183060000D03*
%TD*%
%TO.C,C609*%
X420580000Y-83660000D03*
X420580000Y-88660000D03*
%TD*%
%TO.C,R608*%
X357560000Y-81240000D03*
D12*
X357560000Y-93940000D03*
%TD*%
D14*
%TO.C,U313*%
X141510000Y-285695000D03*
D12*
X141510000Y-288235000D03*
X141510000Y-290775000D03*
X141510000Y-293315000D03*
X141510000Y-295855000D03*
X141510000Y-298395000D03*
X141510000Y-300935000D03*
X141510000Y-303475000D03*
X149130000Y-303475000D03*
X149130000Y-300935000D03*
X149130000Y-298395000D03*
X149130000Y-295855000D03*
X149130000Y-293315000D03*
X149130000Y-290775000D03*
X149130000Y-288235000D03*
X149130000Y-285695000D03*
%TD*%
D14*
%TO.C,RP401*%
X250660000Y-110860000D03*
D12*
X253200000Y-110860000D03*
X255740000Y-110860000D03*
X258280000Y-110860000D03*
X260820000Y-110860000D03*
X263360000Y-110860000D03*
X265900000Y-110860000D03*
X268440000Y-110860000D03*
%TD*%
D11*
%TO.C,FB609*%
X428830000Y-92660000D03*
D12*
X428830000Y-79960000D03*
%TD*%
D11*
%TO.C,C729*%
X169430000Y-308560000D03*
X174430000Y-308560000D03*
%TD*%
%TO.C,*%
X417210000Y-239550000D03*
%TD*%
%TO.C,EMI608*%
X389975000Y-88480000D03*
X387555000Y-85960000D03*
X389975000Y-83480000D03*
%TD*%
%TO.C,R403*%
X296550000Y-170280000D03*
D12*
X296550000Y-157580000D03*
%TD*%
D11*
%TO.C,R109*%
X245740000Y-195580000D03*
D12*
X233040000Y-195580000D03*
%TD*%
D11*
%TO.C,R108*%
X218950000Y-196850000D03*
D12*
X218950000Y-184150000D03*
%TD*%
D16*
%TO.C,CN503*%
X144730000Y-90430000D03*
X144730000Y-92970000D03*
X144730000Y-95510000D03*
X144730000Y-98050000D03*
X144730000Y-100590000D03*
X144730000Y-103130000D03*
X144730000Y-105670000D03*
X144730000Y-108210000D03*
X144730000Y-110750000D03*
X144730000Y-113290000D03*
X144730000Y-115830000D03*
X144730000Y-118370000D03*
X144730000Y-120910000D03*
X144730000Y-123450000D03*
X144730000Y-125990000D03*
X144730000Y-128530000D03*
X144730000Y-131070000D03*
X144730000Y-133610000D03*
X144730000Y-136150000D03*
X144730000Y-138690000D03*
X144730000Y-141230000D03*
X144730000Y-143770000D03*
X144730000Y-146310000D03*
X144730000Y-148850000D03*
X144730000Y-151390000D03*
X144730000Y-153930000D03*
X144730000Y-156470000D03*
X144730000Y-159010000D03*
X144730000Y-161550000D03*
X144730000Y-164090000D03*
X144730000Y-166630000D03*
D17*
X149860000Y-90430000D03*
D16*
X149860000Y-92970000D03*
X149860000Y-95510000D03*
X149860000Y-98050000D03*
X149860000Y-100590000D03*
X149860000Y-103130000D03*
X149860000Y-105670000D03*
X149860000Y-108210000D03*
X149860000Y-110750000D03*
X149860000Y-113290000D03*
X149860000Y-115830000D03*
X149860000Y-118370000D03*
X149860000Y-120910000D03*
X149860000Y-123450000D03*
X149860000Y-125990000D03*
X149860000Y-128530000D03*
X149860000Y-131070000D03*
X149860000Y-133610000D03*
X149860000Y-136150000D03*
X149860000Y-138690000D03*
X149860000Y-141230000D03*
X149860000Y-143770000D03*
X149860000Y-146310000D03*
X149860000Y-148850000D03*
X149860000Y-151390000D03*
X149860000Y-153930000D03*
X149860000Y-156470000D03*
X149860000Y-159010000D03*
X149860000Y-161550000D03*
X149860000Y-164090000D03*
X149860000Y-166630000D03*
%TD*%
D11*
%TO.C,EMI418*%
X305420000Y-87260000D03*
X305420000Y-84720000D03*
X305420000Y-82260000D03*
%TD*%
%TO.C,C420*%
X252040000Y-98670000D03*
X252040000Y-93670000D03*
%TD*%
%TO.C,C405*%
X294140000Y-157530000D03*
X294140000Y-162530000D03*
%TD*%
%TO.C,C738*%
X182240000Y-281700000D03*
X187240000Y-281700000D03*
%TD*%
%TO.C,C608*%
X424300000Y-96250000D03*
X424300000Y-101250000D03*
%TD*%
%TO.C,C526*%
X134380000Y-154800000D03*
X139380000Y-154800000D03*
%TD*%
D26*
%TO.C,XTAL3*%
X296640000Y-153580000D03*
X301540000Y-153580000D03*
%TD*%
D11*
%TO.C,R626*%
X365300000Y-124270000D03*
D12*
X352600000Y-124270000D03*
%TD*%
D13*
%TO.C,CN506*%
X282040000Y-190520000D03*
X281990000Y-184140000D03*
X281990000Y-177770000D03*
X275680000Y-190520000D03*
X275680000Y-184140000D03*
X275670000Y-177770000D03*
%TD*%
D14*
%TO.C,U303*%
X217860000Y-258740000D03*
D12*
X217860000Y-261280000D03*
X217860000Y-263820000D03*
X217860000Y-266360000D03*
X217860000Y-268900000D03*
X217860000Y-271440000D03*
X217860000Y-273980000D03*
X217860000Y-276520000D03*
X225480000Y-276520000D03*
X225480000Y-273980000D03*
X225480000Y-271440000D03*
X225480000Y-268900000D03*
X225480000Y-266360000D03*
X225480000Y-263820000D03*
X225480000Y-261280000D03*
X225480000Y-258740000D03*
%TD*%
D11*
%TO.C,C607*%
X428120000Y-96270000D03*
X428120000Y-101270000D03*
%TD*%
D14*
%TO.C,U108*%
X207550000Y-184140000D03*
D12*
X207550000Y-186680000D03*
X207550000Y-189220000D03*
X207550000Y-191760000D03*
X207550000Y-194300000D03*
X207550000Y-196840000D03*
X207550000Y-199380000D03*
X207550000Y-201920000D03*
X207550000Y-204460000D03*
X207550000Y-207000000D03*
X215170000Y-207000000D03*
X215170000Y-204460000D03*
X215170000Y-201920000D03*
X215170000Y-199380000D03*
X215170000Y-196840000D03*
X215170000Y-194300000D03*
X215170000Y-191760000D03*
X215170000Y-189220000D03*
X215170000Y-186680000D03*
X215170000Y-184140000D03*
%TD*%
D11*
%TO.C,C423*%
X240570000Y-98670000D03*
X240570000Y-93670000D03*
%TD*%
D32*
%TO.C,CN202*%
X409840000Y-203190000D03*
X407300000Y-200650000D03*
X407300000Y-203190000D03*
X404760000Y-200650000D03*
X404760000Y-203190000D03*
X402220000Y-200650000D03*
X402220000Y-203190000D03*
X399680000Y-200650000D03*
X399680000Y-203190000D03*
X397140000Y-200650000D03*
X397140000Y-203190000D03*
X394600000Y-200650000D03*
X394600000Y-203190000D03*
X392060000Y-200650000D03*
X392060000Y-203190000D03*
X389520000Y-200650000D03*
X389520000Y-203190000D03*
X386980000Y-200650000D03*
X384440000Y-200650000D03*
X384440000Y-203190000D03*
X381900000Y-200650000D03*
X381900000Y-203190000D03*
X379360000Y-200650000D03*
X379360000Y-203190000D03*
X376820000Y-200650000D03*
X376820000Y-203190000D03*
X374280000Y-200650000D03*
X374280000Y-203190000D03*
X371740000Y-200650000D03*
X371740000Y-203190000D03*
X369200000Y-200650000D03*
X369200000Y-203190000D03*
X366660000Y-200650000D03*
X366660000Y-203190000D03*
X364120000Y-200650000D03*
X364120000Y-203190000D03*
X361580000Y-200650000D03*
X361580000Y-203190000D03*
%TD*%
D14*
%TO.C,C542*%
X182255000Y-244685000D03*
D11*
X187255000Y-244685000D03*
%TD*%
D14*
%TO.C,U301*%
X154180000Y-229360000D03*
D12*
X154180000Y-231900000D03*
X154180000Y-234440000D03*
X154180000Y-236980000D03*
X154180000Y-239520000D03*
X154180000Y-242060000D03*
X154180000Y-244600000D03*
X154180000Y-247140000D03*
X161800000Y-247140000D03*
X161800000Y-244600000D03*
X161800000Y-242060000D03*
X161800000Y-239520000D03*
X161800000Y-236980000D03*
X161800000Y-234440000D03*
X161800000Y-231900000D03*
X161800000Y-229360000D03*
%TD*%
D11*
%TO.C,R421*%
X260870000Y-103890000D03*
D12*
X248170000Y-103890000D03*
%TD*%
D21*
%TO.C,CN401*%
X248355000Y-73690000D03*
D23*
X251125000Y-73690000D03*
X253895000Y-73690000D03*
X256665000Y-73690000D03*
X259435000Y-73690000D03*
X262205000Y-73690000D03*
X264975000Y-73690000D03*
X267745000Y-73690000D03*
X270515000Y-73690000D03*
X273285000Y-73690000D03*
X276055000Y-73690000D03*
X278825000Y-73690000D03*
X281595000Y-73690000D03*
X249790000Y-71160000D03*
X252560000Y-71160000D03*
X255330000Y-71160000D03*
X258100000Y-71160000D03*
X260870000Y-71160000D03*
X263640000Y-71160000D03*
X266410000Y-71160000D03*
X269180000Y-71160000D03*
X271950000Y-71160000D03*
X274720000Y-71160000D03*
X277490000Y-71160000D03*
D22*
X241475000Y-72580000D03*
D23*
X280260000Y-71160000D03*
D22*
X288575000Y-72580000D03*
%TD*%
D11*
%TO.C,C523*%
X134420000Y-164310000D03*
X139420000Y-164310000D03*
%TD*%
D14*
%TO.C,U316*%
X179730000Y-285585000D03*
D12*
X179730000Y-288125000D03*
X179730000Y-290665000D03*
X179730000Y-293205000D03*
X179730000Y-295745000D03*
X179730000Y-298285000D03*
X179730000Y-300825000D03*
X179730000Y-303365000D03*
X187350000Y-303365000D03*
X187350000Y-300825000D03*
X187350000Y-298285000D03*
X187350000Y-295745000D03*
X187350000Y-293205000D03*
X187350000Y-290665000D03*
X187350000Y-288125000D03*
X187350000Y-285585000D03*
%TD*%
D14*
%TO.C,OSC101*%
X291640000Y-252850000D03*
D11*
X291640000Y-237610000D03*
X284020000Y-237610000D03*
X284020000Y-252850000D03*
%TD*%
D14*
%TO.C,RP101*%
X240610000Y-177760000D03*
D12*
X238070000Y-177760000D03*
X235530000Y-177760000D03*
X232990000Y-177760000D03*
X230450000Y-177760000D03*
X227910000Y-177760000D03*
%TD*%
D11*
%TO.C,R607*%
X355010000Y-81240000D03*
D12*
X355010000Y-93940000D03*
%TD*%
D11*
%TO.C,R414*%
X338020000Y-174880000D03*
D12*
X338020000Y-162180000D03*
%TD*%
D14*
%TO.C,U302*%
X192420000Y-258685000D03*
D12*
X192420000Y-261225000D03*
X192420000Y-263765000D03*
X192420000Y-266305000D03*
X192420000Y-268845000D03*
X192420000Y-271385000D03*
X192420000Y-273925000D03*
X192420000Y-276465000D03*
X200040000Y-276465000D03*
X200040000Y-273925000D03*
X200040000Y-271385000D03*
X200040000Y-268845000D03*
X200040000Y-266305000D03*
X200040000Y-263765000D03*
X200040000Y-261225000D03*
X200040000Y-258685000D03*
%TD*%
D11*
%TO.C,R104*%
X413330000Y-250250000D03*
D12*
X426030000Y-250250000D03*
%TD*%
D11*
%TO.C,R505*%
X135120000Y-248480000D03*
D12*
X135120000Y-235780000D03*
%TD*%
D11*
%TO.C,C404*%
X295420000Y-302760000D03*
X290420000Y-302760000D03*
%TD*%
%TO.C,R630*%
X423950000Y-142080000D03*
D12*
X411250000Y-142080000D03*
%TD*%
D11*
%TO.C,C402*%
X325800000Y-327940000D03*
X325800000Y-322940000D03*
%TD*%
%TO.C,EMI101*%
X420950000Y-229855000D03*
X423470000Y-227435000D03*
X425950000Y-229855000D03*
%TD*%
%TO.C,C406*%
X304340000Y-167560000D03*
X304340000Y-162560000D03*
%TD*%
%TO.C,R605*%
X417310000Y-117960000D03*
D12*
X417310000Y-105260000D03*
%TD*%
D11*
%TO.C,C111*%
X244570000Y-202590000D03*
X249570000Y-202590000D03*
%TD*%
%TO.C,C522*%
X134430000Y-167520000D03*
X139430000Y-167520000D03*
%TD*%
D14*
%TO.C,U309*%
X192400000Y-312365000D03*
D12*
X192400000Y-314905000D03*
X192400000Y-317445000D03*
X192400000Y-319985000D03*
X192400000Y-322525000D03*
X192400000Y-325065000D03*
X192400000Y-327605000D03*
X192400000Y-330145000D03*
X200020000Y-330145000D03*
X200020000Y-327605000D03*
X200020000Y-325065000D03*
X200020000Y-322525000D03*
X200020000Y-319985000D03*
X200020000Y-317445000D03*
X200020000Y-314905000D03*
X200020000Y-312365000D03*
%TD*%
D24*
%TO.C,TP1*%
X135710000Y-215970000D03*
%TD*%
D18*
%TO.C,CN505*%
X289040000Y-198780000D03*
X289040000Y-190800000D03*
X289040000Y-186820000D03*
X289040000Y-182890000D03*
X289040000Y-178940000D03*
X289040000Y-175260000D03*
%TD*%
D11*
%TO.C,R645*%
X417340000Y-92750000D03*
D12*
X417340000Y-80050000D03*
%TD*%
D11*
%TO.C,R628*%
X423940000Y-144640000D03*
D12*
X411240000Y-144640000D03*
%TD*%
D11*
%TO.C,FB608*%
X431410000Y-92660000D03*
D12*
X431410000Y-79960000D03*
%TD*%
D11*
%TO.C,R601*%
X407200000Y-105210000D03*
D12*
X407200000Y-117910000D03*
%TD*%
D14*
%TO.C,U319*%
X217870000Y-285575000D03*
D12*
X217870000Y-288115000D03*
X217870000Y-290655000D03*
X217870000Y-293195000D03*
X217870000Y-295735000D03*
X217870000Y-298275000D03*
X217870000Y-300815000D03*
X217870000Y-303355000D03*
X225490000Y-303355000D03*
X225490000Y-300815000D03*
X225490000Y-298275000D03*
X225490000Y-295735000D03*
X225490000Y-293195000D03*
X225490000Y-290655000D03*
X225490000Y-288115000D03*
X225490000Y-285575000D03*
%TD*%
D11*
%TO.C,C525*%
X134430000Y-157960000D03*
X139430000Y-157960000D03*
%TD*%
%TO.C,EMI614*%
X410090000Y-88425000D03*
X407670000Y-85905000D03*
X410090000Y-83425000D03*
%TD*%
%TO.C,XTAL2*%
X318910000Y-311250000D03*
X321450000Y-311250000D03*
%TD*%
D14*
%TO.C,U103*%
X238010000Y-119190000D03*
D12*
X238010000Y-121730000D03*
X238010000Y-124270000D03*
X238010000Y-126810000D03*
X238010000Y-129350000D03*
X238010000Y-131890000D03*
X238010000Y-134430000D03*
X238010000Y-136970000D03*
X238010000Y-139510000D03*
X238010000Y-142050000D03*
X238010000Y-144590000D03*
X238010000Y-147130000D03*
X238010000Y-149670000D03*
X238010000Y-152210000D03*
X238010000Y-154750000D03*
X238010000Y-157290000D03*
X238010000Y-159830000D03*
X238010000Y-162370000D03*
X238010000Y-164910000D03*
X238010000Y-167450000D03*
X253250000Y-167450000D03*
X253250000Y-164910000D03*
X253250000Y-162370000D03*
X253250000Y-159830000D03*
X253250000Y-157290000D03*
X253250000Y-154750000D03*
X253250000Y-152210000D03*
X253250000Y-149670000D03*
X253250000Y-147130000D03*
X253250000Y-144590000D03*
X253250000Y-142050000D03*
X253250000Y-139510000D03*
X253250000Y-136970000D03*
X253250000Y-134430000D03*
X253250000Y-131890000D03*
X253250000Y-129350000D03*
X253250000Y-126810000D03*
X253250000Y-124270000D03*
X253250000Y-121730000D03*
X253250000Y-119190000D03*
%TD*%
D11*
%TO.C,C719*%
X402340000Y-275960000D03*
X397340000Y-275960000D03*
%TD*%
D14*
%TO.C,U312*%
X230620000Y-312360000D03*
D12*
X230620000Y-314900000D03*
X230620000Y-317440000D03*
X230620000Y-319980000D03*
X230620000Y-322520000D03*
X230620000Y-325060000D03*
X230620000Y-327600000D03*
X230620000Y-330140000D03*
X238240000Y-330140000D03*
X238240000Y-327600000D03*
X238240000Y-325060000D03*
X238240000Y-322520000D03*
X238240000Y-319980000D03*
X238240000Y-317440000D03*
X238240000Y-314900000D03*
X238240000Y-312360000D03*
%TD*%
D11*
%TO.C,C515*%
X155880000Y-74540000D03*
X155880000Y-69540000D03*
%TD*%
%TO.C,C709*%
X184740000Y-180270000D03*
X179740000Y-180270000D03*
%TD*%
D14*
%TO.C,C507*%
X179425000Y-74555000D03*
D11*
X179425000Y-69555000D03*
%TD*%
%TO.C,C745*%
X169450000Y-252320000D03*
X174450000Y-252320000D03*
%TD*%
D14*
%TO.C,RP604*%
X446750000Y-122970000D03*
D12*
X446750000Y-125510000D03*
X446750000Y-128050000D03*
X446750000Y-130590000D03*
X446750000Y-133130000D03*
X446750000Y-135670000D03*
X446750000Y-138210000D03*
X446750000Y-140750000D03*
X446750000Y-143290000D03*
X446750000Y-145830000D03*
%TD*%
D25*
%TO.C,Q601*%
X404640000Y-98740000D03*
D26*
X407180000Y-98740000D03*
X409720000Y-98740000D03*
%TD*%
D11*
%TO.C,FB607*%
X433900000Y-92660000D03*
D12*
X433900000Y-79960000D03*
%TD*%
D14*
%TO.C,U317*%
X192450000Y-285595000D03*
D12*
X192450000Y-288135000D03*
X192450000Y-290675000D03*
X192450000Y-293215000D03*
X192450000Y-295755000D03*
X192450000Y-298295000D03*
X192450000Y-300835000D03*
X192450000Y-303375000D03*
X200070000Y-303375000D03*
X200070000Y-300835000D03*
X200070000Y-298295000D03*
X200070000Y-295755000D03*
X200070000Y-293215000D03*
X200070000Y-290675000D03*
X200070000Y-288135000D03*
X200070000Y-285595000D03*
%TD*%
D29*
%TO.C,PAD203*%
X349900000Y-204540000D03*
X349900000Y-202670000D03*
X349900000Y-200740000D03*
%TD*%
D11*
%TO.C,C533*%
X134350000Y-132460000D03*
X139350000Y-132460000D03*
%TD*%
D14*
%TO.C,U204*%
X364090000Y-238950000D03*
D12*
X364090000Y-241490000D03*
X364090000Y-244030000D03*
X364090000Y-246570000D03*
X364090000Y-249110000D03*
X364090000Y-251650000D03*
X364090000Y-254190000D03*
X364090000Y-256730000D03*
X364090000Y-259270000D03*
X364090000Y-261810000D03*
X371710000Y-261810000D03*
X371710000Y-259270000D03*
X371710000Y-256730000D03*
X371710000Y-254190000D03*
X371710000Y-251650000D03*
X371710000Y-249110000D03*
X371710000Y-246570000D03*
X371710000Y-244030000D03*
X371710000Y-241490000D03*
X371710000Y-238950000D03*
%TD*%
D11*
%TO.C,FB610*%
X423740000Y-92660000D03*
D12*
X423740000Y-79960000D03*
%TD*%
D11*
%TO.C,EMI412*%
X255840000Y-87280000D03*
X255840000Y-84740000D03*
X255840000Y-82280000D03*
%TD*%
D33*
%TO.C,U601*%
X400735000Y-161120000D03*
X400735000Y-160470000D03*
X400735000Y-159820000D03*
X400735000Y-159170000D03*
X400735000Y-158520000D03*
X400735000Y-157870000D03*
X400735000Y-157220000D03*
X400735000Y-156570000D03*
X400735000Y-155920000D03*
X400735000Y-155270000D03*
X400735000Y-154620000D03*
X400735000Y-153970000D03*
X400735000Y-153320000D03*
X400735000Y-152670000D03*
X400735000Y-152020000D03*
X400735000Y-151370000D03*
X400735000Y-150720000D03*
X400735000Y-150070000D03*
X400735000Y-149420000D03*
X400735000Y-148770000D03*
X400735000Y-148120000D03*
X400735000Y-147470000D03*
X400735000Y-146820000D03*
X400735000Y-146170000D03*
X400735000Y-145520000D03*
X400735000Y-144870000D03*
X400735000Y-144220000D03*
X400735000Y-143570000D03*
X400735000Y-142920000D03*
X400735000Y-142270000D03*
D34*
X398005000Y-139920000D03*
X397355000Y-139920000D03*
X396705000Y-139920000D03*
X396055000Y-139920000D03*
X395405000Y-139920000D03*
X394755000Y-139920000D03*
X394105000Y-139920000D03*
X393455000Y-139920000D03*
X392805000Y-139920000D03*
X392155000Y-139920000D03*
X391505000Y-139920000D03*
X390855000Y-139920000D03*
X390205000Y-139920000D03*
X389555000Y-139920000D03*
X388905000Y-139920000D03*
X388255000Y-139920000D03*
X387605000Y-139920000D03*
X386955000Y-139920000D03*
X386305000Y-139920000D03*
X385655000Y-139920000D03*
D33*
X383105000Y-142270000D03*
X383105000Y-142920000D03*
X383105000Y-143570000D03*
X383105000Y-144220000D03*
X383105000Y-144870000D03*
X383105000Y-145520000D03*
X383105000Y-146170000D03*
X383105000Y-146820000D03*
X383105000Y-147470000D03*
X383105000Y-148120000D03*
X383105000Y-148770000D03*
X383105000Y-149420000D03*
X383105000Y-150070000D03*
X383105000Y-150720000D03*
X383105000Y-151370000D03*
X383105000Y-152020000D03*
X383105000Y-152670000D03*
X383105000Y-153320000D03*
X383105000Y-153970000D03*
X383105000Y-154620000D03*
X383105000Y-155270000D03*
X383105000Y-155920000D03*
X383105000Y-156570000D03*
X383105000Y-157220000D03*
X383105000Y-157870000D03*
X383105000Y-158520000D03*
X383105000Y-159170000D03*
X383105000Y-159820000D03*
X383105000Y-160470000D03*
X383105000Y-161120000D03*
D34*
X385655000Y-163690000D03*
X386305000Y-163690000D03*
X386955000Y-163690000D03*
X387605000Y-163690000D03*
X388255000Y-163690000D03*
X388905000Y-163690000D03*
X389555000Y-163690000D03*
X390205000Y-163690000D03*
X390855000Y-163690000D03*
X391505000Y-163690000D03*
X392155000Y-163690000D03*
X392805000Y-163690000D03*
X393455000Y-163690000D03*
X394105000Y-163690000D03*
X394755000Y-163690000D03*
X395405000Y-163690000D03*
X396055000Y-163690000D03*
X396705000Y-163690000D03*
X397355000Y-163690000D03*
X398005000Y-163690000D03*
%TD*%
D14*
%TO.C,U205*%
X348330000Y-238910000D03*
D12*
X348330000Y-241450000D03*
X348330000Y-243990000D03*
X348330000Y-246530000D03*
X348330000Y-249070000D03*
X348330000Y-251610000D03*
X348330000Y-254150000D03*
X348330000Y-256690000D03*
X348330000Y-259230000D03*
X348330000Y-261770000D03*
X355950000Y-261770000D03*
X355950000Y-259230000D03*
X355950000Y-256690000D03*
X355950000Y-254150000D03*
X355950000Y-251610000D03*
X355950000Y-249070000D03*
X355950000Y-246530000D03*
X355950000Y-243990000D03*
X355950000Y-241450000D03*
X355950000Y-238910000D03*
%TD*%
D11*
%TO.C,C107*%
X387770000Y-267000000D03*
X382770000Y-267000000D03*
%TD*%
D35*
%TO.C,CN201*%
X409890000Y-212110000D03*
D32*
X409890000Y-214650000D03*
X407350000Y-214650000D03*
X404810000Y-212110000D03*
X404810000Y-214650000D03*
X402270000Y-212110000D03*
X402270000Y-214650000D03*
X399730000Y-212110000D03*
X399730000Y-214650000D03*
X397190000Y-212110000D03*
X397190000Y-214650000D03*
X394650000Y-212110000D03*
X394650000Y-214650000D03*
X392110000Y-212110000D03*
X392110000Y-214650000D03*
X389570000Y-212110000D03*
X389570000Y-214650000D03*
X387030000Y-212110000D03*
X387030000Y-214650000D03*
X384490000Y-212110000D03*
X384490000Y-214650000D03*
X381950000Y-212110000D03*
X381950000Y-214650000D03*
X379410000Y-212110000D03*
X379410000Y-214650000D03*
X376870000Y-212110000D03*
X376870000Y-214650000D03*
X374330000Y-212110000D03*
X374330000Y-214650000D03*
X371790000Y-212110000D03*
X371790000Y-214650000D03*
X369250000Y-212110000D03*
X369250000Y-214650000D03*
%TD*%
D11*
%TO.C,C610*%
X414110000Y-81760000D03*
X414110000Y-86760000D03*
%TD*%
D14*
%TO.C,U320*%
X230620000Y-285585000D03*
D12*
X230620000Y-288125000D03*
X230620000Y-290665000D03*
X230620000Y-293205000D03*
X230620000Y-295745000D03*
X230620000Y-298285000D03*
X230620000Y-300825000D03*
X230620000Y-303365000D03*
X238240000Y-303365000D03*
X238240000Y-300825000D03*
X238240000Y-298285000D03*
X238240000Y-295745000D03*
X238240000Y-293205000D03*
X238240000Y-290665000D03*
X238240000Y-288125000D03*
X238240000Y-285585000D03*
%TD*%
D16*
%TO.C,CN501*%
X185470000Y-90530000D03*
X185470000Y-93070000D03*
X185470000Y-95610000D03*
X185470000Y-98150000D03*
X185470000Y-100690000D03*
X185470000Y-103230000D03*
X185470000Y-105770000D03*
X185470000Y-108310000D03*
X185470000Y-110850000D03*
X185470000Y-113390000D03*
X185470000Y-115930000D03*
X185470000Y-118470000D03*
X185470000Y-121010000D03*
X185470000Y-123550000D03*
X185470000Y-126090000D03*
X185470000Y-128630000D03*
X185470000Y-131170000D03*
X185470000Y-133710000D03*
X185470000Y-136250000D03*
X185470000Y-138790000D03*
X185470000Y-141330000D03*
X185470000Y-143870000D03*
X185470000Y-146410000D03*
X185470000Y-148950000D03*
X185470000Y-151490000D03*
X185470000Y-154030000D03*
X185470000Y-156570000D03*
X185470000Y-159110000D03*
X185470000Y-161650000D03*
X185470000Y-164190000D03*
X185470000Y-166730000D03*
D17*
X190600000Y-90530000D03*
D16*
X190600000Y-93070000D03*
X190600000Y-95610000D03*
X190600000Y-98150000D03*
X190600000Y-100690000D03*
X190600000Y-103230000D03*
X190600000Y-105770000D03*
X190600000Y-108310000D03*
X190600000Y-110850000D03*
X190600000Y-113390000D03*
X190600000Y-115930000D03*
X190600000Y-118470000D03*
X190600000Y-121010000D03*
X190600000Y-123550000D03*
X190600000Y-126090000D03*
X190600000Y-128630000D03*
X190600000Y-131170000D03*
X190600000Y-133710000D03*
X190600000Y-136250000D03*
X190600000Y-138790000D03*
X190600000Y-141330000D03*
X190600000Y-143870000D03*
X190600000Y-146410000D03*
X190600000Y-148950000D03*
X190600000Y-151490000D03*
X190600000Y-154030000D03*
X190600000Y-156570000D03*
X190600000Y-159110000D03*
X190600000Y-161650000D03*
X190600000Y-164190000D03*
X190600000Y-166730000D03*
%TD*%
D14*
%TO.C,SWTCH601*%
X361590000Y-68020000D03*
D12*
X359050000Y-68020000D03*
X356510000Y-68020000D03*
X353970000Y-68020000D03*
X353970000Y-75640000D03*
X356510000Y-75640000D03*
X359050000Y-75640000D03*
X361590000Y-75640000D03*
%TD*%
D11*
%TO.C,R504*%
X416940000Y-219070000D03*
D12*
X429640000Y-219070000D03*
%TD*%
D11*
%TO.C,C602*%
X365270000Y-121140000D03*
X360270000Y-121140000D03*
%TD*%
D14*
%TO.C,RP502*%
X130280000Y-108250000D03*
D12*
X130280000Y-110790000D03*
X130280000Y-113330000D03*
X130280000Y-115870000D03*
X130280000Y-118410000D03*
X130280000Y-120950000D03*
X130280000Y-123490000D03*
X130280000Y-126030000D03*
%TD*%
D14*
%TO.C,C503*%
X299280000Y-196990000D03*
D11*
X299280000Y-191990000D03*
%TD*%
%TO.C,R602*%
X409780000Y-105230000D03*
D12*
X409780000Y-117930000D03*
%TD*%
D14*
%TO.C,U311*%
X217950000Y-312340000D03*
D12*
X217950000Y-314880000D03*
X217950000Y-317420000D03*
X217950000Y-319960000D03*
X217950000Y-322500000D03*
X217950000Y-325040000D03*
X217950000Y-327580000D03*
X217950000Y-330120000D03*
X225570000Y-330120000D03*
X225570000Y-327580000D03*
X225570000Y-325040000D03*
X225570000Y-322500000D03*
X225570000Y-319960000D03*
X225570000Y-317420000D03*
X225570000Y-314880000D03*
X225570000Y-312340000D03*
%TD*%
D11*
%TO.C,FB611*%
X414140000Y-89220000D03*
D12*
X414140000Y-101920000D03*
%TD*%
D11*
%TO.C,R101*%
X440480000Y-290630000D03*
D12*
X427780000Y-290630000D03*
%TD*%
D14*
%TO.C,U207*%
X380070000Y-304100000D03*
D12*
X380070000Y-306640000D03*
X380070000Y-309180000D03*
X380070000Y-311720000D03*
X380070000Y-314260000D03*
X380070000Y-316800000D03*
X380070000Y-319340000D03*
X387690000Y-319340000D03*
X387690000Y-316800000D03*
X387690000Y-314260000D03*
X387690000Y-311720000D03*
X387690000Y-309180000D03*
X387690000Y-306640000D03*
X387690000Y-304100000D03*
%TD*%
D11*
%TO.C,C728*%
X156700000Y-308610000D03*
X161700000Y-308610000D03*
%TD*%
%TO.C,EMI406*%
X278690000Y-87280000D03*
X278690000Y-84740000D03*
X278690000Y-82280000D03*
%TD*%
D20*
%TO.C,*%
X446170000Y-98790000D03*
%TD*%
D16*
%TO.C,CN502*%
X165020000Y-90520000D03*
X165020000Y-93060000D03*
X165020000Y-95600000D03*
X165020000Y-98140000D03*
X165020000Y-100680000D03*
X165020000Y-103220000D03*
X165020000Y-105760000D03*
X165020000Y-108300000D03*
X165020000Y-110840000D03*
X165020000Y-113380000D03*
X165020000Y-115920000D03*
X165020000Y-118460000D03*
X165020000Y-121000000D03*
X165020000Y-123540000D03*
X165020000Y-126080000D03*
X165020000Y-128620000D03*
X165020000Y-131160000D03*
X165020000Y-133700000D03*
X165020000Y-136240000D03*
X165020000Y-138780000D03*
X165020000Y-141320000D03*
X165020000Y-143860000D03*
X165020000Y-146400000D03*
X165020000Y-148940000D03*
X165020000Y-151480000D03*
X165020000Y-154020000D03*
X165020000Y-156560000D03*
X165020000Y-159100000D03*
X165020000Y-161640000D03*
X165020000Y-164180000D03*
X165020000Y-166720000D03*
D17*
X170150000Y-90520000D03*
D16*
X170150000Y-93060000D03*
X170150000Y-95600000D03*
X170150000Y-98140000D03*
X170150000Y-100680000D03*
X170150000Y-103220000D03*
X170150000Y-105760000D03*
X170150000Y-108300000D03*
X170150000Y-110840000D03*
X170150000Y-113380000D03*
X170150000Y-115920000D03*
X170150000Y-118460000D03*
X170150000Y-121000000D03*
X170150000Y-123540000D03*
X170150000Y-126080000D03*
X170150000Y-128620000D03*
X170150000Y-131160000D03*
X170150000Y-133700000D03*
X170150000Y-136240000D03*
X170150000Y-138780000D03*
X170150000Y-141320000D03*
X170150000Y-143860000D03*
X170150000Y-146400000D03*
X170150000Y-148940000D03*
X170150000Y-151480000D03*
X170150000Y-154020000D03*
X170150000Y-156560000D03*
X170150000Y-159100000D03*
X170150000Y-161640000D03*
X170150000Y-164180000D03*
X170150000Y-166720000D03*
%TD*%
D11*
%TO.C,C531*%
X134380000Y-138880000D03*
X139380000Y-138880000D03*
%TD*%
%TO.C,C417*%
X263540000Y-98710000D03*
X263540000Y-93710000D03*
%TD*%
%TO.C,C725*%
X225480000Y-252250000D03*
X220480000Y-252250000D03*
%TD*%
D25*
%TO.C,Q101*%
X431520000Y-297080000D03*
D26*
X434060000Y-297080000D03*
X436600000Y-297080000D03*
%TD*%
D11*
%TO.C,C410*%
X290170000Y-98770000D03*
X290170000Y-93770000D03*
%TD*%
%TO.C,FB104*%
X416990000Y-262590000D03*
D12*
X429690000Y-262590000D03*
%TD*%
D11*
%TO.C,C743*%
X144010000Y-252140000D03*
X149010000Y-252140000D03*
%TD*%
%TO.C,C601*%
X365220000Y-117950000D03*
X360220000Y-117950000D03*
%TD*%
%TO.C,C730*%
X182260000Y-308550000D03*
X187260000Y-308550000D03*
%TD*%
%TO.C,FB606*%
X439040000Y-92660000D03*
D12*
X439040000Y-79960000D03*
%TD*%
D11*
%TO.C,C409*%
X293990000Y-98760000D03*
X293990000Y-93760000D03*
%TD*%
%TO.C,FB603*%
X400990000Y-175140000D03*
D12*
X400990000Y-187840000D03*
%TD*%
D14*
%TO.C,U327*%
X266870000Y-285540000D03*
D12*
X266870000Y-288080000D03*
X266870000Y-290620000D03*
X266870000Y-293160000D03*
X266870000Y-295700000D03*
X266870000Y-298240000D03*
X266870000Y-300780000D03*
X274490000Y-300780000D03*
X274490000Y-298240000D03*
X274490000Y-295700000D03*
X274490000Y-293160000D03*
X274490000Y-290620000D03*
X274490000Y-288080000D03*
X274490000Y-285540000D03*
%TD*%
D11*
%TO.C,C511*%
X149460000Y-74540000D03*
X149460000Y-69540000D03*
%TD*%
D14*
%TO.C,U403*%
X273730000Y-119240000D03*
D12*
X273730000Y-121780000D03*
X273730000Y-124320000D03*
X273730000Y-126860000D03*
X273730000Y-129400000D03*
X273730000Y-131940000D03*
X273730000Y-134480000D03*
X273730000Y-137020000D03*
X273730000Y-139560000D03*
X273730000Y-142100000D03*
X273730000Y-144640000D03*
X273730000Y-147180000D03*
X273730000Y-149720000D03*
X273730000Y-152260000D03*
X273730000Y-154800000D03*
X273730000Y-157340000D03*
X273730000Y-159880000D03*
X273730000Y-162420000D03*
X273730000Y-164960000D03*
X273730000Y-167500000D03*
X288970000Y-167500000D03*
X288970000Y-164960000D03*
X288970000Y-162420000D03*
X288970000Y-159880000D03*
X288970000Y-157340000D03*
X288970000Y-154800000D03*
X288970000Y-152260000D03*
X288970000Y-149720000D03*
X288970000Y-147180000D03*
X288970000Y-144640000D03*
X288970000Y-142100000D03*
X288970000Y-139560000D03*
X288970000Y-137020000D03*
X288970000Y-134480000D03*
X288970000Y-131940000D03*
X288970000Y-129400000D03*
X288970000Y-126860000D03*
X288970000Y-124320000D03*
X288970000Y-121780000D03*
X288970000Y-119240000D03*
%TD*%
D11*
%TO.C,FB101*%
X284510000Y-225460000D03*
D12*
X297210000Y-225460000D03*
%TD*%
D11*
%TO.C,C711*%
X355930000Y-275930000D03*
X350930000Y-275930000D03*
%TD*%
%TO.C,R624*%
X352630000Y-131920000D03*
D12*
X365330000Y-131920000D03*
%TD*%
D11*
%TO.C,C767*%
X372360000Y-151110000D03*
X372360000Y-156110000D03*
%TD*%
D15*
%TO.C,JMP614*%
X352110000Y-213455000D03*
D16*
X352110000Y-210915000D03*
%TD*%
D11*
%TO.C,FB601*%
X208260000Y-212180000D03*
D12*
X208260000Y-224880000D03*
%TD*%
D14*
%TO.C,CR401*%
X298020000Y-329310000D03*
D12*
X298020000Y-316610000D03*
%TD*%
D20*
%TO.C,*%
X428970000Y-124260000D03*
%TD*%
D14*
%TO.C,RP402*%
X267910000Y-144770000D03*
D12*
X267910000Y-142230000D03*
X267910000Y-139690000D03*
X267910000Y-137150000D03*
X267910000Y-134610000D03*
X267910000Y-132070000D03*
X267910000Y-129530000D03*
X267910000Y-126990000D03*
X260290000Y-126990000D03*
X260290000Y-129530000D03*
X260290000Y-132070000D03*
X260290000Y-134610000D03*
X260290000Y-137150000D03*
X260290000Y-139690000D03*
X260290000Y-142230000D03*
X260290000Y-144770000D03*
%TD*%
D11*
%TO.C,C732*%
X207550000Y-308520000D03*
X212550000Y-308520000D03*
%TD*%
D13*
%TO.C,*%
X444230000Y-313910000D03*
%TD*%
D14*
%TO.C,U404*%
X294080000Y-119230000D03*
D12*
X294080000Y-121770000D03*
X294080000Y-124310000D03*
X294080000Y-126850000D03*
X294080000Y-129390000D03*
X294080000Y-131930000D03*
X294080000Y-134470000D03*
X301700000Y-134470000D03*
X301700000Y-131930000D03*
X301700000Y-129390000D03*
X301700000Y-126850000D03*
X301700000Y-124310000D03*
X301700000Y-121770000D03*
X301700000Y-119230000D03*
%TD*%
D13*
%TO.C,*%
X231720000Y-185460000D03*
%TD*%
D14*
%TO.C,C546*%
X216425000Y-95585000D03*
D11*
X221425000Y-95585000D03*
%TD*%
D32*
%TO.C,SW501*%
X432910000Y-201280000D03*
D23*
X429620000Y-202450000D03*
D32*
X435360000Y-201280000D03*
D23*
X440930000Y-199020000D03*
D32*
X437820000Y-201280000D03*
%TD*%
D14*
%TO.C,RP504*%
X130450000Y-152940000D03*
D12*
X130450000Y-155480000D03*
X130450000Y-158020000D03*
X130450000Y-160560000D03*
X130450000Y-163100000D03*
X130450000Y-165640000D03*
X130450000Y-168180000D03*
X130450000Y-170720000D03*
%TD*%
D14*
%TO.C,U322*%
X154100000Y-256140000D03*
D12*
X154100000Y-258680000D03*
X154100000Y-261220000D03*
X154100000Y-263760000D03*
X154100000Y-266300000D03*
X154100000Y-268840000D03*
X154100000Y-271380000D03*
X154100000Y-273920000D03*
X154100000Y-276460000D03*
X161720000Y-276460000D03*
X161720000Y-273920000D03*
X161720000Y-271380000D03*
X161720000Y-268840000D03*
X161720000Y-266300000D03*
X161720000Y-263760000D03*
X161720000Y-261220000D03*
X161720000Y-258680000D03*
X161720000Y-256140000D03*
%TD*%
D14*
%TO.C,U203*%
X340670000Y-279800000D03*
D12*
X340670000Y-282340000D03*
X340670000Y-284880000D03*
X340670000Y-287420000D03*
X340670000Y-289960000D03*
X340670000Y-292500000D03*
X340670000Y-295040000D03*
X340670000Y-297580000D03*
X340670000Y-300120000D03*
X340670000Y-302660000D03*
X340670000Y-305200000D03*
X340670000Y-307740000D03*
X340670000Y-310280000D03*
X340670000Y-312820000D03*
X340670000Y-315360000D03*
X340670000Y-317900000D03*
X340670000Y-320440000D03*
X340670000Y-322980000D03*
X340670000Y-325520000D03*
X340670000Y-328060000D03*
X355910000Y-328060000D03*
X355910000Y-325520000D03*
X355910000Y-322980000D03*
X355910000Y-320440000D03*
X355910000Y-317900000D03*
X355910000Y-315360000D03*
X355910000Y-312820000D03*
X355910000Y-310280000D03*
X355910000Y-307740000D03*
X355910000Y-305200000D03*
X355910000Y-302660000D03*
X355910000Y-300120000D03*
X355910000Y-297580000D03*
X355910000Y-295040000D03*
X355910000Y-292500000D03*
X355910000Y-289960000D03*
X355910000Y-287420000D03*
X355910000Y-284880000D03*
X355910000Y-282340000D03*
X355910000Y-279800000D03*
%TD*%
D25*
%TO.C,Q401*%
X315570000Y-100140000D03*
D26*
X318110000Y-100140000D03*
X320650000Y-100140000D03*
%TD*%
D14*
%TO.C,U318*%
X205110000Y-285545000D03*
D12*
X205110000Y-288085000D03*
X205110000Y-290625000D03*
X205110000Y-293165000D03*
X205110000Y-295705000D03*
X205110000Y-298245000D03*
X205110000Y-300785000D03*
X205110000Y-303325000D03*
X212730000Y-303325000D03*
X212730000Y-300785000D03*
X212730000Y-298245000D03*
X212730000Y-295705000D03*
X212730000Y-293165000D03*
X212730000Y-290625000D03*
X212730000Y-288085000D03*
X212730000Y-285545000D03*
%TD*%
D14*
%TO.C,U314*%
X154230000Y-285680000D03*
D12*
X154230000Y-288220000D03*
X154230000Y-290760000D03*
X154230000Y-293300000D03*
X154230000Y-295840000D03*
X154230000Y-298380000D03*
X154230000Y-300920000D03*
X154230000Y-303460000D03*
X161850000Y-303460000D03*
X161850000Y-300920000D03*
X161850000Y-298380000D03*
X161850000Y-295840000D03*
X161850000Y-293300000D03*
X161850000Y-290760000D03*
X161850000Y-288220000D03*
X161850000Y-285680000D03*
%TD*%
D11*
%TO.C,C606*%
X432010000Y-96260000D03*
X432010000Y-101260000D03*
%TD*%
%TO.C,C746*%
X182260000Y-252250000D03*
X187260000Y-252250000D03*
%TD*%
%TO.C,R629*%
X423940000Y-147170000D03*
D12*
X411240000Y-147170000D03*
%TD*%
D14*
%TO.C,CR501*%
X268080000Y-201315000D03*
D12*
X280780000Y-201315000D03*
%TD*%
D11*
%TO.C,C734*%
X233110000Y-308490000D03*
X238110000Y-308490000D03*
%TD*%
%TO.C,R618*%
X399560000Y-117890000D03*
D12*
X399560000Y-105190000D03*
%TD*%
D11*
%TO.C,C710*%
X169400000Y-180280000D03*
X164400000Y-180280000D03*
%TD*%
%TO.C,C528*%
X134390000Y-148430000D03*
X139390000Y-148430000D03*
%TD*%
%TO.C,C421*%
X248200000Y-98660000D03*
X248200000Y-93660000D03*
%TD*%
D14*
%TO.C,RP201*%
X409950000Y-292550000D03*
D12*
X409950000Y-290010000D03*
X409950000Y-287470000D03*
X409950000Y-284930000D03*
X409950000Y-282390000D03*
X409950000Y-279850000D03*
%TD*%
D14*
%TO.C,PZ101*%
X425210000Y-322670000D03*
D11*
X432870000Y-322670000D03*
%TD*%
%TO.C,EMI609*%
X384205000Y-88490000D03*
X381785000Y-85970000D03*
X384205000Y-83490000D03*
%TD*%
%TO.C,EMI610*%
X378475000Y-88490000D03*
X376055000Y-85970000D03*
X378475000Y-83490000D03*
%TD*%
D20*
%TO.C,*%
X428320000Y-112130000D03*
%TD*%
D11*
%TO.C,R603*%
X404640000Y-81060000D03*
D12*
X404640000Y-93760000D03*
%TD*%
D11*
%TO.C,C534*%
X134350000Y-129280000D03*
X139350000Y-129280000D03*
%TD*%
%TO.C,EMI401*%
X297800000Y-87230000D03*
X297800000Y-84690000D03*
X297800000Y-82230000D03*
%TD*%
%TO.C,R641*%
X344530000Y-189790000D03*
D12*
X344530000Y-177090000D03*
%TD*%
D11*
%TO.C,C519*%
X168480000Y-74540000D03*
X168480000Y-69540000D03*
%TD*%
%TO.C,EMI402*%
X294000000Y-87270000D03*
X294000000Y-84730000D03*
X294000000Y-82270000D03*
%TD*%
%TO.C,R619*%
X402140000Y-117900000D03*
D12*
X402140000Y-105200000D03*
%TD*%
D11*
%TO.C,C540*%
X134300000Y-110120000D03*
X139300000Y-110120000D03*
%TD*%
%TO.C,R623*%
X352630000Y-134540000D03*
D12*
X365330000Y-134540000D03*
%TD*%
M02*
