%TF.GenerationSoftware,KiCad,Pcbnew,8.0.0*%
%TF.CreationDate,2024-03-10T15:29:53+00:00*%
%TF.ProjectId,Commodore PC10 III,436f6d6d-6f64-46f7-9265-205043313020,1.0*%
%TF.SameCoordinates,Original*%
%TF.FileFunction,Profile,NP*%
%FSLAX46Y46*%
G04 Gerber Fmt 4.6, Leading zero omitted, Abs format (unit mm)*
G04 Created by KiCad (PCBNEW 8.0.0) date 2024-03-10 15:29:53*
%MOMM*%
%LPD*%
G01*
G04 APERTURE LIST*
%TA.AperFunction,Profile*%
%ADD10C,1.560000*%
%TD*%
%TA.AperFunction,Profile*%
%ADD11C,2.040000*%
%TD*%
%TA.AperFunction,Profile*%
%ADD12C,0.100000*%
%TD*%
G04 APERTURE END LIST*
D10*
X324960000Y-240030000D02*
G75*
G02*
X323400000Y-240030000I-780000J0D01*
G01*
X323400000Y-240030000D02*
G75*
G02*
X324960000Y-240030000I780000J0D01*
G01*
D11*
X446580000Y-330900000D02*
G75*
G02*
X444540000Y-330900000I-1020000J0D01*
G01*
X444540000Y-330900000D02*
G75*
G02*
X446580000Y-330900000I1020000J0D01*
G01*
D10*
X314680000Y-250210000D02*
G75*
G02*
X313120000Y-250210000I-780000J0D01*
G01*
X313120000Y-250210000D02*
G75*
G02*
X314680000Y-250210000I780000J0D01*
G01*
D11*
X133200000Y-70620000D02*
G75*
G02*
X131160000Y-70620000I-1020000J0D01*
G01*
X131160000Y-70620000D02*
G75*
G02*
X133200000Y-70620000I1020000J0D01*
G01*
X133490000Y-331100000D02*
G75*
G02*
X131450000Y-331100000I-1020000J0D01*
G01*
X131450000Y-331100000D02*
G75*
G02*
X133490000Y-331100000I1020000J0D01*
G01*
D10*
X324960000Y-250190000D02*
G75*
G02*
X323400000Y-250190000I-780000J0D01*
G01*
X323400000Y-250190000D02*
G75*
G02*
X324960000Y-250190000I780000J0D01*
G01*
X256230000Y-237400000D02*
G75*
G02*
X254670000Y-237400000I-780000J0D01*
G01*
X254670000Y-237400000D02*
G75*
G02*
X256230000Y-237400000I780000J0D01*
G01*
X266370000Y-247690000D02*
G75*
G02*
X264810000Y-247690000I-780000J0D01*
G01*
X264810000Y-247690000D02*
G75*
G02*
X266370000Y-247690000I780000J0D01*
G01*
D12*
X127270000Y-66080000D02*
X450740000Y-66080000D01*
X450740000Y-335560000D01*
X127270000Y-335560000D01*
X127270000Y-66080000D01*
D10*
X314820000Y-240030000D02*
G75*
G02*
X313260000Y-240030000I-780000J0D01*
G01*
X313260000Y-240030000D02*
G75*
G02*
X314820000Y-240030000I780000J0D01*
G01*
M02*
