M48
; DRILL file {KiCad 8.0.0} date 2024-03-10T15:30:00+0000
; FORMAT={-:-/ absolute / metric / decimal}
; #@! TF.CreationDate,2024-03-10T15:30:00+00:00
; #@! TF.GenerationSoftware,Kicad,Pcbnew,8.0.0
; #@! TF.FileFunction,Plated,1,2,PTH
FMAT,2
METRIC
; #@! TA.AperFunction,Plated,PTH,ViaDrill
T1C0.400
; #@! TA.AperFunction,Plated,PTH,ComponentDrill
T2C0.400
; #@! TA.AperFunction,Plated,PTH,ViaDrill
T3C0.500
; #@! TA.AperFunction,Plated,PTH,ComponentDrill
T4C0.500
; #@! TA.AperFunction,Plated,PTH,ComponentDrill
T5C0.800
; #@! TA.AperFunction,Plated,PTH,ComponentDrill
T6C1.000
; #@! TA.AperFunction,Plated,PTH,ComponentDrill
T7C1.200
; #@! TA.AperFunction,Plated,PTH,ComponentDrill
T8C1.300
; #@! TA.AperFunction,Plated,PTH,ComponentDrill
T9C1.400
; #@! TA.AperFunction,Plated,PTH,ComponentDrill
T10C1.500
; #@! TA.AperFunction,Plated,PTH,ComponentDrill
T11C1.800
; #@! TA.AperFunction,Plated,PTH,ComponentDrill
T12C2.000
; #@! TA.AperFunction,Plated,PTH,ComponentDrill
T13C2.540
; #@! TA.AperFunction,Plated,PTH,ComponentDrill
T14C3.300
; #@! TA.AperFunction,Plated,PTH,ComponentDrill
T15C3.400
; #@! TA.AperFunction,Plated,PTH,ComponentDrill
T16C3.700
%
G90
G05
T1
X210.915Y-235.1
X215.725Y-235.225
T2
X129.82Y-191.69
X129.86Y-194.89
X135.64Y-194.89
X135.65Y-191.68
X135.71Y-215.97
X135.73Y-213.43
X135.74Y-210.88
X425.68Y-83.55
X428.32Y-112.13
X428.93Y-126.8
X428.97Y-124.26
X438.4Y-83.57
X446.07Y-104.51
X446.17Y-98.79
T3
X132.52Y-220.43
X133.07Y-252.26
X133.76Y-218.5
X135.86Y-175.35
X136.64Y-80.19
X138.59Y-82.12
X138.79Y-205.84
X139.47Y-177.73
X140.52Y-83.99
X140.71Y-212.13
X140.78Y-252.22
X140.83Y-215.9
X141.32Y-208.2
X141.35Y-210.24
X141.4Y-222.31
X142.2Y-307.13
X142.43Y-78.28
X142.46Y-85.86
X142.68Y-194.95
X143.12Y-112.01
X143.19Y-140.05
X143.92Y-174.49
X143.94Y-176.4
X144.11Y-278.41
X144.55Y-224.26
X144.6Y-201.94
X145.25Y-226.81
X146.55Y-334.17
X146.56Y-283.35
X146.6Y-247.09
X147.07Y-171.34
X147.74Y-175.8
X147.76Y-179.64
X147.79Y-207.05
X148.36Y-182.79
X148.41Y-210.8
X148.43Y-193.03
X149.03Y-174.52
X149.07Y-186.57
X149.67Y-202.57
X150.31Y-214.65
X150.97Y-231.87
X151.07Y-224.22
X151.5Y-164.33
X151.53Y-156.71
X152.65Y-104.41
X152.66Y-76.504
X152.74Y-179.63
X153.28Y-108.18
X153.4Y-154.11
X154.59Y-129.95
X154.65Y-147.73
X154.66Y-142.68
X154.72Y-159.32
X154.73Y-204.47
X154.97Y-76.8
X155.95Y-196.86
X155.956Y-249.74
X155.98Y-178.98
X156.57Y-143.92
X156.6Y-207.66
X156.66Y-217.24
X156.66Y-242.1
X156.68Y-230.63
X156.68Y-234.45
X156.69Y-244.63
X156.78Y-305.39
X156.81Y-278.43
X157.06Y-80.18
X157.07Y-106.9
X157.11Y-111.95
X157.23Y-212.11
X157.82Y-136.36
X157.83Y-174.53
X157.85Y-182.88
X158.52Y-201.96
X159.07Y-176.41
X159.09Y-173.3
X159.24Y-239.56
X159.3Y-256.13
X159.3Y-334.34
X159.31Y-283.51
X159.76Y-199.28
X159.8Y-197.49
X160.34Y-82.14
X160.84Y-83.95
X161.5Y-76.16
X161.66Y-171.35
X161.67Y-182.19
X161.7Y-220.38
X162.18Y-143.91
X162.19Y-133.81
X162.76Y-85.87
X163.54Y-131.21
X164.24Y-225.53
X164.27Y-204.52
X164.28Y-217.25
X164.36Y-280.96
X164.94Y-243.34
X166.12Y-189.21
X166.15Y-174.58
X166.81Y-208.34
X167.22Y-87.83
X167.35Y-170.77
X167.44Y-173.3
X167.46Y-225.52
X168.01Y-177.14
X168.62Y-171.9
X168.71Y-231.9
X169.43Y-278.43
X170.66Y-209.6
X170.67Y-215.98
X170.71Y-229.31
X171.15Y-186.65
X171.21Y-170.69
X171.23Y-175.2
X171.32Y-238.23
X171.84Y-180.34
X171.87Y-177.76
X171.87Y-204.38
X171.89Y-189.05
X171.92Y-194.3
X171.94Y-220.4
X171.95Y-334.2
X171.96Y-310.27
X173.57Y-99.3
X173.59Y-110.78
X173.65Y-76.98
X173.76Y-119.74
X173.8Y-160.47
X174.52Y-214.03
X174.89Y-104.4
X174.98Y-124.85
X175.02Y-196.75
X175.03Y-194.27
X175.54Y-80.18
X175.67Y-138.85
X175.77Y-223.55
X176.85Y-133.76
X176.92Y-127.4
X176.96Y-175.19
X177.07Y-180.27
X177.08Y-238.27
X177.12Y-305.36
X177.43Y-94.18
X177.59Y-172.7
X178.12Y-129.95
X178.12Y-137.65
X178.34Y-221.72
X178.36Y-233.15
X178.37Y-244.64
X178.87Y-226.05
X179.01Y-247.21
X179.4Y-82.18
X180.26Y-242.17
X180.72Y-77.47
X180.8Y-226.0
X180.88Y-189.3
X181.35Y-84.01
X181.5Y-175.23
X181.51Y-204.49
X181.54Y-220.39
X182.26Y-278.43
X182.65Y-150.36
X182.82Y-191.87
X183.24Y-85.89
X183.34Y-171.4
X183.48Y-235.71
X184.01Y-140.11
X184.06Y-231.89
X184.07Y-228.75
X184.08Y-215.98
X184.12Y-219.14
X184.69Y-177.08
X184.71Y-224.87
X184.78Y-334.1
X186.62Y-242.12
X187.29Y-233.81
X187.72Y-85.93
X187.83Y-179.69
X187.89Y-194.97
X188.52Y-191.7
X188.52Y-196.9
X188.57Y-219.76
X188.6Y-236.29
X188.97Y-119.68
X189.23Y-274.03
X189.79Y-207.0
X189.84Y-232.04
X189.87Y-280.36
X190.38Y-179.64
X190.4Y-186.65
X190.44Y-169.0
X190.49Y-217.23
X190.89Y-87.72
X191.06Y-247.01
X191.07Y-229.4
X191.13Y-241.41
X192.23Y-109.46
X192.24Y-72.65
X192.33Y-244.48
X192.35Y-233.16
X192.37Y-180.32
X192.37Y-212.13
X192.37Y-219.77
X192.79Y-121.82
X192.83Y-168.81
X192.87Y-123.58
X192.9Y-173.24
X193.38Y-92.84
X193.47Y-114.62
X193.55Y-215.4
X194.06Y-154.18
X194.08Y-102.5
X194.09Y-104.34
X194.1Y-94.86
X194.12Y-158.62
X194.72Y-127.99
X194.76Y-189.16
X194.8Y-191.67
X194.83Y-186.65
X194.91Y-231.19
X194.91Y-241.52
X194.92Y-238.26
X194.92Y-261.23
X195.35Y-129.87
X195.35Y-135.74
X195.37Y-93.51
X195.38Y-99.98
X195.38Y-108.3
X195.45Y-197.44
X195.5Y-176.57
X196.07Y-173.95
X196.14Y-212.21
X196.7Y-273.92
X196.78Y-215.33
X197.22Y-74.57
X197.23Y-112.05
X197.35Y-171.39
X197.39Y-247.18
X197.41Y-242.76
X197.43Y-263.76
X197.44Y-257.43
X197.49Y-308.52
X197.5Y-334.17
X197.51Y-283.46
X199.98Y-229.36
X200.55Y-220.44
X200.56Y-212.2
X201.66Y-101.25
X201.75Y-117.85
X201.78Y-121.63
X201.79Y-242.04
X201.82Y-165.02
X201.95Y-252.27
X202.31Y-85.77
X202.34Y-150.29
X202.35Y-133.07
X202.35Y-135.67
X202.39Y-159.96
X202.57Y-305.16
X203.0Y-95.54
X203.0Y-106.35
X203.01Y-97.44
X203.13Y-189.27
X203.15Y-270.78
X203.47Y-72.63
X203.71Y-199.43
X203.75Y-191.9
X203.76Y-194.46
X204.36Y-219.24
X204.37Y-234.54
X204.38Y-223.58
X204.38Y-280.37
X204.39Y-226.2
X204.45Y-237.12
X204.84Y-82.81
X204.84Y-162.46
X204.89Y-78.37
X204.9Y-146.03
X204.95Y-159.88
X204.99Y-212.15
X205.0Y-171.43
X205.05Y-202.57
X205.06Y-252.4
X205.13Y-243.99
X205.48Y-168.86
X205.68Y-186.68
X205.72Y-305.33
X206.84Y-142.14
X206.97Y-244.08
X206.98Y-236.33
X207.47Y-145.95
X207.51Y-272.74
X208.11Y-265.67
X208.26Y-247.18
X208.82Y-243.97
X208.9Y-258.65
X209.2Y-86.01
X209.43Y-264.41
X209.45Y-219.84
X209.47Y-175.22
X209.51Y-275.91
X209.57Y-266.98
X209.92Y-77.5
X210.07Y-136.96
X210.09Y-186.68
X210.14Y-261.88
X210.16Y-189.26
X210.17Y-281.68
X210.17Y-308.53
X210.17Y-334.19
X210.19Y-225.01
X210.76Y-228.09
X211.12Y-75.85
X211.13Y-79.0
X211.28Y-168.82
X211.31Y-147.74
X211.35Y-194.32
X211.42Y-196.87
X211.42Y-210.81
X211.43Y-191.76
X211.73Y-95.51
X211.99Y-205.78
X212.07Y-207.58
X212.43Y-99.34
X212.46Y-105.05
X212.5Y-116.42
X212.68Y-162.47
X212.71Y-202.55
X212.72Y-247.19
X212.73Y-226.77
X213.26Y-121.6
X213.26Y-126.76
X213.27Y-129.42
X213.68Y-95.52
X213.88Y-102.52
X213.93Y-152.94
X213.98Y-210.95
X214.0Y-228.17
X214.48Y-90.3
X214.49Y-143.33
X214.57Y-164.98
X214.58Y-154.86
X214.58Y-157.4
X214.58Y-159.25
X214.62Y-215.97
X214.95Y-99.35
X215.15Y-174.54
X215.17Y-140.83
X215.24Y-242.71
X215.26Y-222.45
X215.27Y-265.07
X215.3Y-231.84
X215.77Y-168.16
X215.88Y-210.81
X216.42Y-122.95
X216.44Y-111.39
X216.45Y-115.25
X216.53Y-246.69
X216.92Y-98.71
X217.19Y-306.55
X217.66Y-203.86
X217.71Y-192.43
X217.735Y-171.4
X217.85Y-281.64
X218.22Y-104.45
X218.36Y-107.02
X218.97Y-100.5
X219.0Y-175.18
X219.02Y-189.9
X219.03Y-180.39
X219.08Y-212.19
X219.09Y-194.94
X220.18Y-163.77
X220.26Y-231.87
X220.4Y-149.11
X220.46Y-278.43
X220.86Y-154.81
X220.91Y-219.15
X220.95Y-139.55
X220.97Y-146.5
X221.02Y-235.07
X221.5Y-100.67
X221.64Y-227.42
X221.69Y-239.49
X222.05Y-133.14
X222.09Y-121.65
X222.11Y-150.47
X222.13Y-142.0
X222.17Y-186.68
X222.2Y-272.07
X222.27Y-156.05
X222.3Y-273.97
X222.7Y-105.11
X222.83Y-130.58
X222.91Y-166.93
X222.92Y-334.18
X222.94Y-235.15
X222.96Y-281.6
X222.96Y-308.51
X223.4Y-135.66
X223.49Y-145.9
X223.52Y-194.28
X223.53Y-189.27
X223.55Y-184.14
X223.57Y-222.32
X223.59Y-267.48
X223.99Y-110.18
X224.02Y-92.18
X224.05Y-90.27
X224.05Y-94.06
X224.12Y-179.65
X224.18Y-210.21
X224.22Y-196.3
X224.78Y-201.39
X224.8Y-218.48
X224.83Y-203.94
X225.39Y-176.54
X225.39Y-240.15
X225.43Y-117.29
X225.43Y-137.02
X225.43Y-171.4
X225.45Y-234.39
X225.48Y-242.75
X226.12Y-210.28
X226.52Y-88.33
X226.53Y-95.55
X226.56Y-105.09
X226.65Y-231.89
X226.73Y-224.95
X226.75Y-218.57
X227.23Y-119.75
X227.28Y-129.3
X227.33Y-268.87
X227.35Y-258.73
X227.36Y-261.3
X227.95Y-220.39
X228.04Y-111.49
X228.48Y-125.5
X228.51Y-147.13
X228.55Y-142.06
X228.61Y-151.67
X228.66Y-232.39
X228.86Y-252.38
X229.14Y-306.37
X229.15Y-157.41
X229.18Y-155.51
X229.23Y-196.23
X229.23Y-281.59
X229.76Y-139.62
X229.92Y-217.26
X229.92Y-237.09
X229.94Y-275.26
X229.96Y-233.71
X230.41Y-144.62
X230.52Y-204.48
X230.59Y-131.89
X231.22Y-280.4
X231.76Y-240.89
X231.83Y-237.07
X232.48Y-225.44
X232.49Y-242.67
X232.97Y-109.01
X233.07Y-174.56
X233.07Y-203.25
X233.12Y-264.39
X233.13Y-278.45
X233.69Y-210.3
X233.74Y-216.63
X233.76Y-267.52
X234.19Y-98.61
X234.32Y-200.1
X234.35Y-222.32
X234.35Y-236.44
X234.83Y-156.15
X234.89Y-134.4
X234.89Y-136.98
X234.9Y-139.49
X234.91Y-147.22
X234.96Y-207.79
X235.58Y-195.69
X235.64Y-275.3
X235.64Y-281.64
X235.64Y-308.49
X235.64Y-333.96
X236.31Y-231.37
X236.87Y-254.94
X237.47Y-244.58
X237.49Y-238.26
X237.52Y-252.39
X238.05Y-179.65
X238.06Y-263.06
X238.09Y-171.39
X238.11Y-194.96
X238.13Y-235.18
X238.71Y-203.24
X238.76Y-258.71
X238.79Y-200.75
X238.81Y-255.5
X239.3Y-104.97
X239.4Y-191.84
X239.45Y-211.5
X239.87Y-80.37
X239.97Y-154.77
X240.02Y-217.99
X240.59Y-148.45
X240.59Y-165.6
X240.6Y-110.82
X240.64Y-253.0
X240.65Y-247.93
X240.66Y-168.26
X241.06Y-96.87
X241.12Y-119.11
X241.2Y-141.39
X241.31Y-219.28
X241.31Y-222.95
X241.34Y-216.7
X241.86Y-228.69
X241.93Y-237.65
X241.95Y-226.89
X241.97Y-244.59
X242.42Y-126.81
X242.47Y-142.67
X242.5Y-135.69
X242.52Y-280.83
X242.57Y-249.19
X242.64Y-269.5
X243.07Y-105.04
X243.24Y-240.3
X243.48Y-200.39
X243.51Y-193.26
X243.7Y-132.46
X243.81Y-130.59
X243.83Y-136.93
X243.87Y-333.2
X243.92Y-205.71
X245.1Y-165.68
X245.18Y-259.12
X245.48Y-204.49
X245.72Y-141.4
X245.75Y-261.85
X245.83Y-281.53
X246.28Y-157.41
X246.36Y-170.11
X246.38Y-302.69
X246.39Y-149.68
X246.41Y-294.36
X246.42Y-154.75
X246.77Y-96.85
X247.02Y-291.86
X247.05Y-207.19
X247.13Y-214.75
X247.55Y-185.36
X247.64Y-212.25
X247.77Y-221.06
X248.25Y-145.92
X248.27Y-288.05
X248.28Y-261.3
X248.76Y-138.25
X248.81Y-133.11
X248.83Y-172.62
X248.87Y-121.68
X249.58Y-293.2
X249.58Y-304.53
X249.67Y-207.8
X250.23Y-192.54
X250.86Y-195.6
X250.87Y-261.91
X250.87Y-271.98
X251.49Y-211.51
X251.5Y-179.07
X251.51Y-280.25
X251.54Y-224.88
X251.64Y-234.41
X252.08Y-200.13
X252.13Y-216.69
X252.15Y-185.39
X252.15Y-192.43
X252.15Y-246.56
X252.17Y-239.66
X252.74Y-208.97
X252.8Y-253.63
X253.18Y-105.11
X254.01Y-211.56
X254.06Y-233.25
X254.07Y-216.71
X254.1Y-196.31
X254.1Y-271.4
X254.11Y-256.79
X254.64Y-200.06
X254.71Y-267.02
X255.24Y-120.39
X255.31Y-224.27
X255.36Y-249.08
X256.63Y-163.75
X257.06Y-128.04
X257.08Y-123.59
X257.18Y-125.52
X257.21Y-210.23
X257.25Y-217.89
X257.82Y-160.54
X257.84Y-137.02
X257.92Y-247.82
X257.94Y-276.17
X258.37Y-134.41
X258.42Y-120.46
X258.48Y-202.58
X258.56Y-200.11
X259.0Y-192.4
X259.19Y-171.44
X259.19Y-252.27
X259.2Y-173.27
X259.28Y-195.59
X260.37Y-124.25
X260.43Y-249.84
X260.45Y-158.07
X260.47Y-236.24
X260.47Y-239.57
X260.49Y-221.06
X261.16Y-188.49
X261.16Y-201.99
X261.47Y-87.34
X261.61Y-156.7
X261.75Y-165.02
X262.35Y-138.31
X263.02Y-278.43
X263.05Y-243.35
X263.38Y-200.05
X263.51Y-150.33
X263.55Y-156.68
X263.56Y-154.22
X263.57Y-113.45
X263.62Y-148.48
X263.7Y-205.17
X264.13Y-169.49
X264.2Y-105.07
X264.23Y-263.72
X264.29Y-163.82
X264.29Y-167.57
X264.32Y-256.75
X264.34Y-218.48
X264.79Y-144.65
X264.8Y-151.62
X264.81Y-90.46
X264.84Y-175.18
X264.86Y-195.59
X264.87Y-131.93
X264.92Y-147.2
X264.93Y-243.99
X265.41Y-136.39
X265.53Y-134.44
X265.57Y-192.49
X265.91Y-271.7
X266.24Y-150.39
X267.46Y-163.82
X267.51Y-239.03
X267.91Y-114.67
X268.05Y-124.9
X268.05Y-236.35
X268.08Y-179.07
X268.11Y-233.15
X268.11Y-273.42
X268.14Y-245.26
X268.67Y-164.96
X268.73Y-159.89
X269.11Y-94.95
X269.36Y-219.14
X269.36Y-276.33
X269.43Y-237.7
X269.77Y-268.81
X270.67Y-251.62
X270.69Y-199.49
X271.28Y-291.9
X271.33Y-211.58
X271.87Y-254.25
X271.91Y-303.25
X271.95Y-285.53
X272.2Y-274.28
X273.15Y-267.59
X273.43Y-113.46
X273.84Y-211.54
X274.2Y-273.35
X274.39Y-278.43
X274.48Y-303.34
X275.39Y-270.11
X276.29Y-294.33
X276.32Y-121.72
X276.34Y-286.76
X276.34Y-289.28
X276.35Y-263.15
X276.41Y-283.56
X276.74Y-110.84
X276.76Y-107.09
X276.874Y-303.399
X276.94Y-210.9
X277.39Y-268.33
X277.52Y-157.42
X277.52Y-162.42
X277.58Y-217.22
X278.14Y-145.93
X278.87Y-210.87
X278.87Y-218.55
X278.87Y-306.55
X278.93Y-224.9
X280.25Y-242.69
X280.56Y-110.86
X280.65Y-164.47
X280.73Y-166.35
X281.3Y-100.77
X281.43Y-229.32
X281.76Y-278.42
X281.9Y-107.01
X282.57Y-117.3
X285.27Y-231.89
X286.38Y-161.16
X286.4Y-110.83
X286.46Y-221.06
X286.5Y-276.1
X286.55Y-237.62
X288.84Y-107.05
X289.59Y-261.19
X290.2Y-110.83
X290.22Y-257.87
X290.28Y-228.18
X291.38Y-95.67
X291.38Y-107.08
X291.53Y-232.43
X292.04Y-124.29
X292.17Y-140.9
X292.2Y-110.84
X292.26Y-260.51
X292.28Y-209.59
X292.76Y-166.24
X292.8Y-198.09
X292.86Y-264.36
X292.86Y-276.19
X292.87Y-168.87
X292.87Y-214.04
X292.87Y-270.12
X292.9Y-154.3
X293.42Y-301.43
X293.5Y-304.67
X293.55Y-203.23
X294.02Y-153.05
X294.03Y-100.79
X294.08Y-113.39
X294.09Y-184.74
X294.21Y-181.0
X294.57Y-160.59
X294.69Y-296.91
X294.75Y-209.56
X295.39Y-201.94
X295.48Y-233.16
X295.99Y-235.63
X296.11Y-313.63
X297.34Y-302.65
X297.95Y-305.17
X297.99Y-207.04
X298.06Y-259.95
X298.32Y-103.93
X298.62Y-256.79
X298.67Y-265.7
X299.16Y-161.84
X299.2Y-131.97
X299.22Y-138.37
X299.28Y-164.46
X299.32Y-200.12
X299.74Y-88.47
X299.83Y-264.42
X299.89Y-213.34
X299.92Y-224.87
X301.69Y-98.68
X301.81Y-162.57
X301.83Y-307.73
X301.85Y-260.05
X301.85Y-267.01
X302.37Y-289.18
X302.39Y-254.73
X302.43Y-226.16
X302.43Y-250.92
X302.46Y-256.74
X302.48Y-216.61
X302.5Y-280.22
X302.99Y-94.36
X303.0Y-113.33
X303.04Y-252.82
X303.07Y-305.31
X303.11Y-219.19
X303.11Y-270.86
X303.14Y-164.45
X303.15Y-210.95
X303.15Y-249.11
X303.63Y-286.64
X303.74Y-284.22
X303.79Y-200.13
X304.21Y-128.08
X304.33Y-123.0
X304.37Y-307.73
X304.4Y-261.21
X304.4Y-266.9
X304.41Y-209.69
X305.04Y-214.64
X305.04Y-246.56
X305.48Y-130.79
X305.54Y-133.13
X305.66Y-258.03
X306.19Y-203.21
X306.24Y-182.16
X306.26Y-144.73
X307.38Y-94.84
X307.4Y-100.77
X307.43Y-134.45
X307.58Y-254.32
X307.59Y-184.89
X307.59Y-238.99
X307.6Y-179.08
X308.06Y-115.41
X308.08Y-144.73
X308.08Y-152.35
X308.12Y-125.52
X308.12Y-156.78
X308.12Y-158.65
X308.18Y-147.23
X308.75Y-128.09
X308.82Y-210.21
X308.88Y-226.16
X309.49Y-276.07
X309.89Y-113.47
X309.97Y-131.9
X310.05Y-125.52
X310.11Y-177.08
X310.68Y-207.07
X310.7Y-180.93
X310.76Y-199.45
X311.35Y-219.18
X311.37Y-262.57
X311.37Y-266.37
X311.4Y-295.7
X311.4Y-301.32
X311.76Y-87.4
X312.0Y-196.22
X312.05Y-209.02
X312.05Y-214.14
X312.62Y-325.71
X312.65Y-268.27
X312.68Y-233.82
X312.69Y-217.89
X313.09Y-115.34
X313.27Y-265.72
X313.94Y-224.91
X314.15Y-125.47
X314.49Y-278.48
X314.57Y-268.8
X315.03Y-134.49
X315.05Y-128.1
X315.17Y-228.05
X315.22Y-236.37
X315.7Y-113.46
X316.32Y-129.39
X316.46Y-224.31
X316.56Y-219.26
X316.93Y-282.93
X317.07Y-260.67
X317.09Y-247.78
X317.54Y-110.28
X317.57Y-125.53
X317.67Y-278.46
X317.73Y-240.25
X317.76Y-200.69
X318.28Y-182.2
X318.37Y-213.45
X318.38Y-250.99
X318.88Y-108.91
X318.92Y-132.49
X318.95Y-198.1
X318.98Y-154.85
X318.98Y-157.51
X319.01Y-253.63
X319.04Y-243.38
X319.53Y-152.29
X319.63Y-207.1
X319.65Y-289.86
X319.68Y-214.8
X319.68Y-275.29
X320.06Y-121.75
X320.13Y-142.12
X320.15Y-124.25
X320.18Y-301.94
X320.22Y-212.24
X320.23Y-209.64
X320.24Y-305.81
X320.28Y-237.69
X320.73Y-146.53
X320.91Y-230.61
X320.95Y-247.76
X321.5Y-294.93
X321.52Y-224.96
X321.54Y-227.44
X321.57Y-288.7
X321.87Y-94.48
X322.61Y-121.78
X322.71Y-259.83
X323.37Y-145.96
X323.95Y-150.98
X324.05Y-275.24
X324.36Y-306.81
X324.54Y-93.58
X324.57Y-117.36
X324.65Y-286.05
X324.69Y-278.48
X324.72Y-200.66
X324.76Y-212.18
X324.78Y-195.0
X325.23Y-138.89
X325.34Y-236.46
X325.37Y-259.99
X325.39Y-221.1
X325.93Y-179.03
X325.95Y-180.94
X326.0Y-216.06
X326.64Y-185.49
X327.05Y-92.97
X327.21Y-309.18
X327.27Y-264.99
X327.72Y-91.04
X327.87Y-224.87
X328.47Y-291.28
X328.49Y-263.74
X329.16Y-321.48
X329.17Y-283.6
X329.55Y-100.77
X330.3Y-140.19
X330.33Y-152.93
X330.41Y-226.18
X330.43Y-224.25
X330.47Y-184.82
X331.61Y-96.13
X331.66Y-310.26
X331.7Y-231.27
X331.71Y-298.31
X331.73Y-217.33
X331.74Y-201.99
X332.28Y-157.33
X332.28Y-191.7
X332.29Y-171.4
X332.98Y-214.66
X332.99Y-210.87
X333.0Y-233.87
X333.03Y-198.2
X333.18Y-194.96
X333.43Y-307.9
X333.61Y-300.74
X334.15Y-250.31
X334.17Y-151.64
X334.21Y-138.95
X334.24Y-153.56
X334.8Y-106.5
X334.85Y-175.22
X334.85Y-255.47
X335.04Y-129.42
X335.16Y-92.1
X335.22Y-119.02
X335.36Y-134.46
X335.43Y-240.25
X335.45Y-201.96
X335.49Y-141.45
X335.5Y-298.15
X335.52Y-249.1
X335.54Y-305.27
X335.56Y-238.31
X335.59Y-253.54
X335.6Y-207.11
X335.98Y-121.76
X336.03Y-182.84
X336.19Y-148.45
X336.58Y-324.48
X336.79Y-136.42
X336.8Y-286.09
X336.8Y-299.42
X336.81Y-292.5
X336.83Y-265.01
X336.85Y-243.36
X336.86Y-262.49
X337.19Y-110.31
X338.06Y-143.37
X338.07Y-180.28
X338.07Y-182.84
X338.11Y-191.8
X338.76Y-246.56
X338.76Y-255.28
X338.76Y-262.54
X338.76Y-264.44
X339.3Y-138.83
X340.06Y-226.22
X340.6Y-137.0
X340.62Y-255.5
X340.62Y-270.94
X340.63Y-195.56
X340.65Y-244.02
X340.66Y-240.19
X340.67Y-186.69
X340.67Y-242.16
X340.68Y-222.32
X341.14Y-99.46
X341.3Y-224.84
X341.92Y-247.2
X341.96Y-232.63
X341.97Y-249.1
X342.19Y-192.18
X342.47Y-148.47
X342.55Y-151.64
X342.55Y-312.82
X342.96Y-111.57
X343.12Y-103.14
X343.16Y-283.6
X343.2Y-218.51
X343.21Y-207.66
X343.25Y-221.1
X343.64Y-126.84
X343.64Y-158.03
X343.69Y-140.15
X343.73Y-280.27
X343.75Y-300.13
X343.76Y-115.4
X343.78Y-318.11
X343.82Y-311.73
X343.85Y-212.8
X344.17Y-95.05
X344.28Y-98.82
X344.28Y-110.31
X344.49Y-278.4
X344.5Y-275.89
X345.0Y-254.15
X345.06Y-122.92
X345.52Y-195.25
X345.82Y-207.71
X345.86Y-252.27
X346.08Y-96.32
X346.25Y-101.99
X346.3Y-200.74
X346.37Y-294.98
X346.39Y-191.81
X346.43Y-203.3
X347.03Y-308.904
X347.05Y-179.02
X347.06Y-233.15
X347.07Y-214.03
X347.58Y-117.37
X347.58Y-134.55
X347.6Y-177.09
X347.61Y-286.02
X347.65Y-281.04
X347.72Y-236.37
X348.24Y-275.24
X348.29Y-291.27
X348.7Y-91.83
X348.78Y-98.67
X348.78Y-102.03
X348.95Y-278.55
X349.51Y-310.27
X349.55Y-302.71
X350.19Y-179.03
X350.27Y-215.98
X350.78Y-314.27
X350.81Y-270.94
X350.82Y-305.32
X351.25Y-106.49
X351.33Y-103.704
X351.35Y-109.69
X351.42Y-284.76
X351.45Y-278.45
X351.46Y-282.32
X351.47Y-307.71
X351.48Y-241.41
X352.08Y-321.07
X352.51Y-86.46
X352.65Y-116.59
X352.67Y-311.73
X353.0Y-202.39
X353.4Y-191.7
X353.4Y-196.88
X354.0Y-166.36
X354.0Y-291.27
X354.01Y-226.15
X354.87Y-129.44
X355.21Y-139.66
X355.28Y-194.96
X355.3Y-196.82
X355.77Y-98.76
X355.77Y-112.9
X355.78Y-121.13
X355.85Y-185.38
X356.48Y-179.74
X356.49Y-221.0
X356.56Y-218.37
X357.06Y-153.67
X357.09Y-136.43
X357.58Y-86.08
X357.63Y-102.03
X357.75Y-145.95
X357.75Y-151.05
X357.76Y-201.98
X357.78Y-207.02
X357.84Y-168.85
X358.34Y-140.77
X358.4Y-179.07
X358.51Y-185.34
X358.83Y-84.21
X358.95Y-148.47
X359.02Y-262.4
X359.03Y-233.78
X359.09Y-197.48
X359.09Y-249.08
X359.12Y-231.86
X359.65Y-298.94
X359.66Y-144.66
X359.66Y-293.82
X360.09Y-88.03
X360.16Y-114.73
X360.25Y-142.11
X360.26Y-131.92
X360.27Y-138.32
X360.32Y-276.47
X360.95Y-286.15
X360.96Y-259.29
X361.08Y-222.31
X361.56Y-293.71
X361.58Y-301.34
X361.6Y-256.78
X361.62Y-252.91
X362.14Y-136.41
X362.14Y-163.82
X362.15Y-126.73
X362.16Y-166.38
X362.2Y-208.95
X362.22Y-261.88
X362.27Y-182.19
X362.27Y-206.38
X362.8Y-168.97
X362.84Y-172.62
X362.85Y-197.45
X362.86Y-222.3
X362.86Y-250.35
X362.97Y-226.68
X363.32Y-121.16
X363.326Y-101.35
X363.55Y-219.82
X364.1Y-275.94
X364.11Y-266.37
X364.2Y-215.94
X365.21Y-107.1
X365.24Y-111.56
X365.36Y-196.91
X365.43Y-225.49
X365.8Y-103.88
X365.81Y-93.58
X365.86Y-95.45
X366.46Y-105.8
X366.52Y-110.15
X366.609Y-205.159
X366.61Y-271.06
X366.72Y-227.41
X367.16Y-127.49
X367.31Y-218.51
X367.33Y-221.04
X367.96Y-215.95
X367.99Y-224.26
X368.39Y-121.75
X368.5Y-132.53
X368.5Y-140.84
X368.53Y-138.28
X368.56Y-273.35
X368.71Y-234.39
X368.97Y-89.11
X368.99Y-96.9
X369.19Y-195.57
X369.26Y-229.33
X369.27Y-218.46
X369.62Y-93.12
X369.77Y-164.51
X369.79Y-168.29
X369.81Y-170.21
X369.84Y-172.74
X370.35Y-136.42
X370.5Y-225.49
X371.03Y-297.5
X371.08Y-266.36
X371.16Y-209.54
X371.74Y-206.98
X371.76Y-194.92
X372.33Y-121.72
X372.38Y-177.11
X372.45Y-219.0
X372.91Y-101.33
X372.98Y-297.5
X373.06Y-180.93
X373.51Y-128.77
X373.51Y-154.27
X373.531Y-106.371
X373.56Y-140.18
X373.59Y-142.73
X373.59Y-307.23
X373.62Y-308.96
X373.64Y-147.81
X373.65Y-287.45
X373.7Y-249.07
X374.25Y-166.89
X374.26Y-195.56
X374.27Y-262.46
X374.3Y-223.59
X374.31Y-156.11
X374.71Y-90.58
X374.86Y-145.3
X374.91Y-293.68
X374.94Y-141.5
X375.01Y-254.15
X375.37Y-119.18
X375.45Y-111.87
X375.5Y-154.79
X375.6Y-259.94
X376.05Y-123.02
X376.07Y-116.55
X376.18Y-275.28
X376.23Y-245.26
X376.77Y-333.35
X376.94Y-183.44
X377.45Y-299.62
X377.53Y-163.03
X377.54Y-180.9
X378.03Y-153.51
X378.13Y-146.51
X378.13Y-258.65
X378.18Y-217.15
X378.75Y-265.69
X378.82Y-231.24
X379.35Y-142.69
X379.38Y-228.06
X379.41Y-174.56
X379.45Y-165.59
X379.5Y-181.53
X379.89Y-97.48
X380.02Y-301.54
X380.07Y-183.45
X380.09Y-241.44
X380.57Y-131.25
X380.64Y-139.5
X380.7Y-234.34
X380.73Y-238.24
X381.13Y-93.68
X381.17Y-113.39
X381.22Y-115.92
X381.68Y-77.03
X381.78Y-119.18
X381.81Y-101.21
X381.84Y-121.68
X381.89Y-123.58
X381.9Y-134.61
X381.95Y-217.2
X381.98Y-261.81
X381.99Y-256.69
X382.05Y-186.63
X382.58Y-271.17
X382.63Y-259.93
X382.71Y-163.72
X383.25Y-208.29
X383.29Y-175.25
X383.29Y-196.16
X383.67Y-94.99
X383.74Y-103.87
X383.79Y-138.27
X383.94Y-217.2
X384.02Y-229.36
X384.2Y-85.97
X384.56Y-257.42
X385.15Y-314.32
X385.2Y-252.23
X385.68Y-133.43
X385.73Y-175.15
X385.75Y-173.24
X385.77Y-210.21
X385.8Y-224.22
X385.81Y-234.33
X385.86Y-217.17
X386.28Y-94.8
X386.37Y-144.88
X386.39Y-160.5
X386.97Y-130.62
X387.04Y-134.43
X387.11Y-240.18
X387.39Y-77.19
X387.68Y-154.8
X387.68Y-180.91
X388.16Y-105.2
X388.18Y-108.26
X388.24Y-131.86
X388.28Y-196.72
X388.36Y-217.13
X389.5Y-130.62
X389.6Y-157.31
X389.97Y-85.96
X390.17Y-143.32
X390.17Y-148.42
X390.18Y-303.82
X390.25Y-146.52
X390.27Y-209.47
X390.27Y-240.12
X390.65Y-114.11
X390.71Y-105.8
X390.77Y-126.82
X390.84Y-283.38
X390.86Y-221.05
X390.89Y-234.39
X390.96Y-185.27
X391.48Y-245.88
X391.49Y-296.46
X391.5Y-248.41
X391.5Y-252.23
X391.56Y-254.14
X392.13Y-136.31
X392.14Y-195.56
X392.15Y-160.51
X392.17Y-263.01
X392.18Y-238.19
X392.18Y-240.71
X392.19Y-231.28
X392.21Y-209.45
X392.68Y-314.07
X392.73Y-144.75
X392.74Y-181.55
X392.76Y-290.01
X393.3Y-130.56
X393.37Y-150.92
X393.38Y-206.97
X393.4Y-155.5
X393.42Y-173.89
X393.46Y-234.42
X393.89Y-92.91
X394.07Y-194.82
X394.09Y-231.26
X394.68Y-297.07
X395.86Y-136.49
X396.49Y-134.43
X397.05Y-92.43
X397.09Y-270.97
X397.15Y-152.9
X397.18Y-155.39
X397.19Y-150.92
X397.24Y-226.76
X397.26Y-180.16
X397.29Y-261.13
X397.82Y-159.8
X397.94Y-240.82
X398.49Y-222.16
X398.5Y-231.15
X399.11Y-305.31
X400.27Y-125.51
X400.37Y-194.79
X400.89Y-120.33
X401.04Y-226.76
X401.44Y-97.54
X401.5Y-131.88
X401.66Y-263.6
X402.21Y-137.5
X402.61Y-80.8
X402.9Y-264.93
X403.47Y-134.38
X403.55Y-209.55
X403.58Y-231.21
X403.59Y-221.52
X404.17Y-279.63
X404.21Y-284.88
X404.59Y-84.24
X404.86Y-229.27
X405.37Y-162.38
X405.38Y-303.36
X405.4Y-308.97
X405.41Y-291.3
X405.42Y-156.56
X406.07Y-194.9
X406.11Y-226.61
X406.13Y-276.55
X406.72Y-157.91
X406.76Y-297.07
X407.24Y-127.99
X407.26Y-155.34
X407.98Y-276.33
X408.0Y-233.01
X408.01Y-262.53
X408.02Y-254.2
X408.04Y-239.25
X408.48Y-108.17
X408.61Y-152.85
X409.27Y-261.54
X409.28Y-249.584
X409.32Y-244.0
X409.53Y-94.3
X409.56Y-92.34
X409.65Y-96.31
X409.94Y-265.06
X409.95Y-275.28
X410.63Y-242.12
X411.05Y-115.32
X411.09Y-79.95
X411.22Y-224.73
X411.24Y-231.25
X411.82Y-227.84
X412.21Y-77.4
X412.45Y-265.1
X412.45Y-273.36
X412.53Y-252.94
X412.67Y-79.0
X413.06Y-156.04
X413.64Y-152.27
X413.7Y-333.48
X413.72Y-220.41
X414.29Y-322.4
X414.33Y-320.72
X414.34Y-247.21
X414.38Y-234.34
X414.39Y-231.19
X414.46Y-142.08
X415.0Y-200.54
X415.0Y-298.33
X415.01Y-158.61
X415.07Y-198.63
X415.07Y-228.48
X415.56Y-145.86
X415.63Y-164.96
X415.7Y-163.06
X416.08Y-128.07
X416.38Y-275.08
X416.93Y-208.7
X416.93Y-314.09
X416.94Y-252.65
X417.33Y-87.33
X417.56Y-198.75
X417.58Y-276.59
X418.12Y-128.05
X418.16Y-154.14
X418.83Y-170.05
X418.84Y-203.14
X418.84Y-308.6
X419.15Y-266.31
X419.35Y-138.27
X420.15Y-295.79
X420.16Y-303.45
X420.52Y-223.02
X420.58Y-145.86
X420.79Y-194.89
X421.38Y-300.81
X421.42Y-307.29
X422.06Y-270.47
X422.07Y-169.99
X422.49Y-216.61
X422.67Y-197.95
X422.68Y-304.53
X423.26Y-210.85
X423.74Y-88.49
X423.85Y-126.11
X423.97Y-297.05
X424.48Y-121.63
X424.61Y-293.22
X424.69Y-215.29
X425.14Y-165.74
X425.14Y-213.45
X425.17Y-317.48
X425.2Y-128.06
X425.23Y-159.23
X425.92Y-199.18
X426.52Y-171.26
X426.86Y-211.91
X427.17Y-208.87
X427.78Y-300.15
X427.79Y-130.56
X428.42Y-119.8
X428.47Y-286.82
X429.03Y-151.74
X429.14Y-294.47
X429.69Y-143.97
X429.72Y-194.91
X430.85Y-126.67
X430.96Y-163.69
X430.97Y-161.14
X430.97Y-248.34
X431.0Y-233.77
X431.0Y-236.31
X431.03Y-255.45
X431.08Y-259.31
X431.5Y-270.23
X431.52Y-288.75
X431.54Y-149.64
X431.54Y-151.52
X431.54Y-157.23
X431.56Y-159.13
X431.6Y-166.23
X432.2Y-194.78
X432.23Y-133.12
X432.25Y-264.84
X432.76Y-141.39
X432.78Y-135.62
X433.45Y-138.21
X434.62Y-121.67
X435.98Y-150.86
X436.69Y-303.44
X439.75Y-124.24
X439.75Y-153.53
X439.84Y-162.32
X439.85Y-158.52
X439.89Y-170.0
X444.73Y-122.17
X444.77Y-135.55
X446.88Y-222.33
X446.88Y-288.73
T4
X386.98Y-203.19
X407.35Y-212.11
X409.84Y-200.65
T5
X284.02Y-237.61
X284.02Y-252.85
X291.64Y-237.61
X291.64Y-252.85
X296.64Y-153.58
X301.54Y-153.58
X315.57Y-100.14
X318.11Y-100.14
X320.65Y-100.14
X341.26Y-203.275
X343.76Y-200.685
X343.76Y-203.255
X353.97Y-68.02
X353.97Y-75.64
X356.51Y-68.02
X356.51Y-75.64
X359.05Y-68.02
X359.05Y-75.64
X360.96Y-310.55
X360.96Y-325.79
X361.59Y-68.02
X361.59Y-75.64
X368.58Y-310.55
X368.58Y-325.79
X404.64Y-98.74
X406.15Y-175.12
X406.15Y-190.36
X407.18Y-98.74
X409.72Y-98.74
X413.77Y-175.12
X413.77Y-190.36
X418.91Y-175.09
X418.91Y-190.33
X426.53Y-175.09
X426.53Y-190.33
X431.52Y-297.08
X434.06Y-297.08
X436.6Y-297.08
T6
X130.28Y-108.25
X130.28Y-110.79
X130.28Y-113.33
X130.28Y-115.87
X130.28Y-118.41
X130.28Y-120.95
X130.28Y-123.49
X130.28Y-126.03
X130.34Y-81.52
X130.34Y-84.06
X130.34Y-86.6
X130.34Y-89.14
X130.34Y-91.68
X130.34Y-94.22
X130.34Y-96.76
X130.34Y-99.3
X130.34Y-101.84
X130.34Y-104.38
X130.42Y-130.63
X130.42Y-133.17
X130.42Y-135.71
X130.42Y-138.25
X130.42Y-140.79
X130.42Y-143.33
X130.42Y-145.87
X130.42Y-148.41
X130.45Y-152.94
X130.45Y-155.48
X130.45Y-158.02
X130.45Y-160.56
X130.45Y-163.1
X130.45Y-165.64
X130.45Y-168.18
X130.45Y-170.72
X131.18Y-228.795
X131.18Y-231.335
X131.405Y-324.615
X131.87Y-235.78
X131.87Y-248.48
X132.38Y-210.745
X132.38Y-213.285
X132.38Y-215.825
X134.3Y-110.12
X134.3Y-113.32
X134.31Y-116.52
X134.32Y-119.73
X134.33Y-122.89
X134.34Y-126.07
X134.35Y-129.28
X134.35Y-132.46
X134.37Y-135.68
X134.37Y-142.04
X134.38Y-138.88
X134.38Y-154.8
X134.39Y-148.43
X134.4Y-145.26
X134.41Y-151.62
X134.42Y-161.15
X134.42Y-164.31
X134.43Y-157.96
X134.43Y-167.52
X134.48Y-170.74
X135.04Y-228.765
X135.04Y-231.305
X135.12Y-235.78
X135.12Y-248.48
X135.43Y-201.24
X135.43Y-203.78
X136.405Y-324.615
X139.3Y-110.12
X139.3Y-113.32
X139.31Y-116.52
X139.32Y-119.73
X139.33Y-122.89
X139.34Y-126.07
X139.35Y-129.28
X139.35Y-132.46
X139.37Y-135.68
X139.37Y-142.04
X139.38Y-138.88
X139.38Y-154.8
X139.39Y-148.43
X139.4Y-145.26
X139.41Y-151.62
X139.42Y-161.15
X139.42Y-164.31
X139.43Y-157.96
X139.43Y-167.52
X139.48Y-170.74
X141.46Y-256.13
X141.46Y-258.67
X141.46Y-261.21
X141.46Y-263.75
X141.46Y-266.29
X141.46Y-268.83
X141.46Y-271.37
X141.46Y-273.91
X141.46Y-276.45
X141.51Y-285.695
X141.51Y-288.235
X141.51Y-290.775
X141.51Y-293.315
X141.51Y-295.855
X141.51Y-298.395
X141.51Y-300.935
X141.51Y-303.475
X141.55Y-224.295
X141.55Y-226.835
X141.55Y-229.375
X141.55Y-231.915
X141.55Y-234.455
X141.55Y-236.995
X141.55Y-239.535
X141.55Y-242.075
X141.55Y-244.615
X141.55Y-247.155
X141.57Y-312.53
X141.57Y-315.07
X141.57Y-317.61
X141.57Y-320.15
X141.57Y-322.69
X141.57Y-325.23
X141.57Y-327.77
X141.57Y-330.31
X143.04Y-69.54
X143.04Y-74.54
X144.01Y-252.14
X144.09Y-308.4
X144.11Y-281.8
X144.15Y-220.38
X146.26Y-69.54
X146.26Y-74.54
X149.01Y-252.14
X149.08Y-256.13
X149.08Y-258.67
X149.08Y-261.21
X149.08Y-263.75
X149.08Y-266.29
X149.08Y-268.83
X149.08Y-271.37
X149.08Y-273.91
X149.08Y-276.45
X149.09Y-308.4
X149.11Y-281.8
X149.13Y-285.695
X149.13Y-288.235
X149.13Y-290.775
X149.13Y-293.315
X149.13Y-295.855
X149.13Y-298.395
X149.13Y-300.935
X149.13Y-303.475
X149.15Y-220.38
X149.17Y-224.295
X149.17Y-226.835
X149.17Y-229.375
X149.17Y-231.915
X149.17Y-234.455
X149.17Y-236.995
X149.17Y-239.535
X149.17Y-242.075
X149.17Y-244.615
X149.17Y-247.155
X149.19Y-312.53
X149.19Y-315.07
X149.19Y-317.61
X149.19Y-320.15
X149.19Y-322.69
X149.19Y-325.23
X149.19Y-327.77
X149.19Y-330.31
X149.46Y-69.54
X149.46Y-74.54
X152.6Y-69.54
X152.6Y-74.54
X152.94Y-184.2
X152.94Y-186.74
X152.94Y-189.28
X152.94Y-191.82
X152.94Y-194.36
X152.94Y-196.9
X152.94Y-199.44
X152.94Y-201.98
X152.94Y-204.52
X152.94Y-207.06
X152.94Y-209.6
X152.94Y-212.14
X152.94Y-214.68
X152.94Y-217.22
X154.1Y-256.14
X154.1Y-258.68
X154.1Y-261.22
X154.1Y-263.76
X154.1Y-266.3
X154.1Y-268.84
X154.1Y-271.38
X154.1Y-273.92
X154.1Y-276.46
X154.18Y-229.36
X154.18Y-231.9
X154.18Y-234.44
X154.18Y-236.98
X154.18Y-239.52
X154.18Y-242.06
X154.18Y-244.6
X154.18Y-247.14
X154.23Y-285.68
X154.23Y-288.22
X154.23Y-290.76
X154.23Y-293.3
X154.23Y-295.84
X154.23Y-298.38
X154.23Y-300.92
X154.23Y-303.46
X154.23Y-312.535
X154.23Y-315.075
X154.23Y-317.615
X154.23Y-320.155
X154.23Y-322.695
X154.23Y-325.235
X154.23Y-327.775
X154.23Y-330.315
X155.88Y-69.54
X155.88Y-74.54
X156.7Y-308.61
X156.77Y-252.33
X156.78Y-281.73
X156.84Y-225.54
X159.0Y-69.54
X159.0Y-74.54
X161.7Y-308.61
X161.72Y-256.14
X161.72Y-258.68
X161.72Y-261.22
X161.72Y-263.76
X161.72Y-266.3
X161.72Y-268.84
X161.72Y-271.38
X161.72Y-273.92
X161.72Y-276.46
X161.77Y-252.33
X161.78Y-281.73
X161.8Y-229.36
X161.8Y-231.9
X161.8Y-234.44
X161.8Y-236.98
X161.8Y-239.52
X161.8Y-242.06
X161.8Y-244.6
X161.8Y-247.14
X161.84Y-225.54
X161.85Y-285.68
X161.85Y-288.22
X161.85Y-290.76
X161.85Y-293.3
X161.85Y-295.84
X161.85Y-298.38
X161.85Y-300.92
X161.85Y-303.46
X161.85Y-312.535
X161.85Y-315.075
X161.85Y-317.615
X161.85Y-320.155
X161.85Y-322.695
X161.85Y-325.235
X161.85Y-327.775
X161.85Y-330.315
X162.13Y-69.54
X162.13Y-74.54
X164.4Y-180.28
X165.34Y-69.54
X165.34Y-74.54
X166.89Y-231.915
X166.89Y-234.455
X166.89Y-236.995
X166.89Y-239.535
X166.89Y-242.075
X166.89Y-244.615
X166.89Y-247.155
X166.9Y-256.22
X166.9Y-258.76
X166.9Y-261.3
X166.9Y-263.84
X166.9Y-266.38
X166.9Y-268.92
X166.9Y-271.46
X166.9Y-274.0
X166.9Y-276.54
X166.92Y-312.495
X166.92Y-315.035
X166.92Y-317.575
X166.92Y-320.115
X166.92Y-322.655
X166.92Y-325.195
X166.92Y-327.735
X166.92Y-330.275
X166.95Y-285.645
X166.95Y-288.185
X166.95Y-290.725
X166.95Y-293.265
X166.95Y-295.805
X166.95Y-298.345
X166.95Y-300.885
X166.95Y-303.425
X168.18Y-184.2
X168.18Y-186.74
X168.18Y-189.28
X168.18Y-191.82
X168.18Y-194.36
X168.18Y-196.9
X168.18Y-199.44
X168.18Y-201.98
X168.18Y-204.52
X168.18Y-207.06
X168.18Y-209.6
X168.18Y-212.14
X168.18Y-214.68
X168.18Y-217.22
X168.48Y-69.54
X168.48Y-74.54
X169.4Y-180.28
X169.43Y-308.56
X169.44Y-281.71
X169.45Y-252.32
X171.65Y-69.54
X171.65Y-74.54
X174.43Y-308.56
X174.44Y-281.71
X174.45Y-252.32
X174.51Y-231.915
X174.51Y-234.455
X174.51Y-236.995
X174.51Y-239.535
X174.51Y-242.075
X174.51Y-244.615
X174.51Y-247.155
X174.52Y-256.22
X174.52Y-258.76
X174.52Y-261.3
X174.52Y-263.84
X174.52Y-266.38
X174.52Y-268.92
X174.52Y-271.46
X174.52Y-274.0
X174.52Y-276.54
X174.54Y-312.495
X174.54Y-315.035
X174.54Y-317.575
X174.54Y-320.115
X174.54Y-322.655
X174.54Y-325.195
X174.54Y-327.735
X174.54Y-330.275
X174.57Y-285.645
X174.57Y-288.185
X174.57Y-290.725
X174.57Y-293.265
X174.57Y-295.805
X174.57Y-298.345
X174.57Y-300.885
X174.57Y-303.425
X177.07Y-184.13
X177.07Y-186.67
X177.07Y-189.21
X177.07Y-191.75
X177.07Y-194.29
X177.07Y-196.83
X177.07Y-199.37
X177.07Y-201.91
X177.07Y-204.45
X177.07Y-206.99
X179.425Y-69.555
X179.425Y-74.555
X179.68Y-256.21
X179.68Y-258.75
X179.68Y-261.29
X179.68Y-263.83
X179.68Y-266.37
X179.68Y-268.91
X179.68Y-271.45
X179.68Y-273.99
X179.68Y-276.53
X179.73Y-285.585
X179.73Y-288.125
X179.73Y-290.665
X179.73Y-293.205
X179.73Y-295.745
X179.73Y-298.285
X179.73Y-300.825
X179.73Y-303.365
X179.74Y-180.27
X179.74Y-312.445
X179.74Y-314.985
X179.74Y-317.525
X179.74Y-320.065
X179.74Y-322.605
X179.74Y-325.145
X179.74Y-327.685
X179.74Y-330.225
X182.24Y-281.7
X182.255Y-244.685
X182.26Y-252.25
X182.26Y-308.55
X184.69Y-184.13
X184.69Y-186.67
X184.69Y-189.21
X184.69Y-191.75
X184.69Y-194.29
X184.69Y-196.83
X184.69Y-199.37
X184.69Y-201.91
X184.69Y-204.45
X184.69Y-206.99
X184.74Y-180.27
X187.24Y-281.7
X187.255Y-244.685
X187.26Y-252.25
X187.26Y-308.55
X187.3Y-256.21
X187.3Y-258.75
X187.3Y-261.29
X187.3Y-263.83
X187.3Y-266.37
X187.3Y-268.91
X187.3Y-271.45
X187.3Y-273.99
X187.3Y-276.53
X187.35Y-285.585
X187.35Y-288.125
X187.35Y-290.665
X187.35Y-293.205
X187.35Y-295.745
X187.35Y-298.285
X187.35Y-300.825
X187.35Y-303.365
X187.36Y-312.445
X187.36Y-314.985
X187.36Y-317.525
X187.36Y-320.065
X187.36Y-322.605
X187.36Y-325.145
X187.36Y-327.685
X187.36Y-330.225
X192.34Y-184.14
X192.34Y-186.68
X192.34Y-189.22
X192.34Y-191.76
X192.34Y-194.3
X192.34Y-196.84
X192.34Y-199.38
X192.34Y-201.92
X192.34Y-204.46
X192.34Y-207.0
X192.4Y-312.365
X192.4Y-314.905
X192.4Y-317.445
X192.4Y-319.985
X192.4Y-322.525
X192.4Y-325.065
X192.4Y-327.605
X192.4Y-330.145
X192.42Y-258.685
X192.42Y-261.225
X192.42Y-263.765
X192.42Y-266.305
X192.42Y-268.845
X192.42Y-271.385
X192.42Y-273.925
X192.42Y-276.465
X192.45Y-285.595
X192.45Y-288.135
X192.45Y-290.675
X192.45Y-293.215
X192.45Y-295.755
X192.45Y-298.295
X192.45Y-300.835
X192.45Y-303.375
X194.92Y-180.32
X194.95Y-281.67
X194.97Y-308.51
X195.04Y-252.24
X195.4Y-137.8
X195.4Y-150.5
X199.76Y-84.75
X199.76Y-87.29
X199.76Y-89.83
X199.76Y-92.37
X199.76Y-94.91
X199.76Y-97.45
X199.76Y-99.99
X199.76Y-102.53
X199.76Y-105.07
X199.76Y-107.61
X199.82Y-116.58
X199.82Y-119.12
X199.82Y-121.66
X199.82Y-124.2
X199.82Y-126.74
X199.82Y-129.28
X199.82Y-131.82
X199.82Y-134.36
X199.82Y-136.9
X199.82Y-139.44
X199.85Y-111.45
X199.86Y-143.46
X199.88Y-148.54
X199.88Y-151.08
X199.88Y-153.62
X199.88Y-156.16
X199.88Y-158.7
X199.88Y-161.24
X199.88Y-163.78
X199.88Y-166.32
X199.88Y-168.86
X199.88Y-171.4
X199.91Y-175.24
X199.92Y-180.32
X199.95Y-281.67
X199.96Y-184.14
X199.96Y-186.68
X199.96Y-189.22
X199.96Y-191.76
X199.96Y-194.3
X199.96Y-196.84
X199.96Y-199.38
X199.96Y-201.92
X199.96Y-204.46
X199.96Y-207.0
X199.97Y-308.51
X200.02Y-312.365
X200.02Y-314.905
X200.02Y-317.445
X200.02Y-319.985
X200.02Y-322.525
X200.02Y-325.065
X200.02Y-327.605
X200.02Y-330.145
X200.04Y-252.24
X200.04Y-258.685
X200.04Y-261.225
X200.04Y-263.765
X200.04Y-266.305
X200.04Y-268.845
X200.04Y-271.385
X200.04Y-273.925
X200.04Y-276.465
X200.07Y-285.595
X200.07Y-288.135
X200.07Y-290.675
X200.07Y-293.215
X200.07Y-295.755
X200.07Y-298.295
X200.07Y-300.835
X200.07Y-303.375
X203.65Y-184.29
X203.65Y-196.99
X204.795Y-69.565
X204.795Y-74.565
X204.85Y-111.45
X204.86Y-143.46
X204.91Y-175.24
X205.07Y-260.635
X205.07Y-263.175
X205.07Y-265.715
X205.07Y-268.255
X205.07Y-270.795
X205.07Y-273.335
X205.07Y-275.875
X205.11Y-285.545
X205.11Y-288.085
X205.11Y-290.625
X205.11Y-293.165
X205.11Y-295.705
X205.11Y-298.245
X205.11Y-300.785
X205.11Y-303.325
X205.11Y-312.38
X205.11Y-314.92
X205.11Y-317.46
X205.11Y-320.0
X205.11Y-322.54
X205.11Y-325.08
X205.11Y-327.62
X205.11Y-330.16
X207.38Y-84.75
X207.38Y-87.29
X207.38Y-89.83
X207.38Y-92.37
X207.38Y-94.91
X207.38Y-97.45
X207.38Y-99.99
X207.38Y-102.53
X207.38Y-105.07
X207.38Y-107.61
X207.44Y-116.58
X207.44Y-119.12
X207.44Y-121.66
X207.44Y-124.2
X207.44Y-126.74
X207.44Y-129.28
X207.44Y-131.82
X207.44Y-134.36
X207.44Y-136.9
X207.44Y-139.44
X207.5Y-148.54
X207.5Y-151.08
X207.5Y-153.62
X207.5Y-156.16
X207.5Y-158.7
X207.5Y-161.24
X207.5Y-163.78
X207.5Y-166.32
X207.5Y-168.86
X207.5Y-171.4
X207.55Y-184.14
X207.55Y-186.68
X207.55Y-189.22
X207.55Y-191.76
X207.55Y-194.3
X207.55Y-196.84
X207.55Y-199.38
X207.55Y-201.92
X207.55Y-204.46
X207.55Y-207.0
X207.55Y-308.52
X207.63Y-281.68
X208.26Y-212.18
X208.26Y-224.88
X210.165Y-252.21
X210.26Y-180.21
X212.55Y-308.52
X212.63Y-281.68
X212.69Y-260.635
X212.69Y-263.175
X212.69Y-265.715
X212.69Y-268.255
X212.69Y-270.795
X212.69Y-273.335
X212.69Y-275.875
X212.705Y-252.21
X212.73Y-285.545
X212.73Y-288.085
X212.73Y-290.625
X212.73Y-293.165
X212.73Y-295.705
X212.73Y-298.245
X212.73Y-300.785
X212.73Y-303.325
X212.73Y-312.38
X212.73Y-314.92
X212.73Y-317.46
X212.73Y-320.0
X212.73Y-322.54
X212.73Y-325.08
X212.73Y-327.62
X212.73Y-330.16
X215.17Y-184.14
X215.17Y-186.68
X215.17Y-189.22
X215.17Y-191.76
X215.17Y-194.3
X215.17Y-196.84
X215.17Y-199.38
X215.17Y-201.92
X215.17Y-204.46
X215.17Y-207.0
X215.26Y-180.21
X216.425Y-95.585
X217.67Y-119.25
X217.67Y-121.79
X217.67Y-124.33
X217.67Y-126.87
X217.67Y-129.41
X217.67Y-131.95
X217.67Y-134.49
X217.67Y-137.03
X217.67Y-139.57
X217.67Y-142.11
X217.67Y-144.65
X217.67Y-147.19
X217.67Y-149.73
X217.67Y-152.27
X217.67Y-154.81
X217.67Y-157.35
X217.67Y-159.89
X217.67Y-162.43
X217.67Y-164.97
X217.67Y-167.51
X217.86Y-258.74
X217.86Y-261.28
X217.86Y-263.82
X217.86Y-266.36
X217.86Y-268.9
X217.86Y-271.44
X217.86Y-273.98
X217.86Y-276.52
X217.87Y-285.575
X217.87Y-288.115
X217.87Y-290.655
X217.87Y-293.195
X217.87Y-295.735
X217.87Y-298.275
X217.87Y-300.815
X217.87Y-303.355
X217.95Y-312.34
X217.95Y-314.88
X217.95Y-317.42
X217.95Y-319.96
X217.95Y-322.5
X217.95Y-325.04
X217.95Y-327.58
X217.95Y-330.12
X218.95Y-184.15
X218.95Y-196.85
X219.01Y-207.03
X220.4Y-308.5
X220.46Y-281.6
X220.48Y-252.25
X221.425Y-95.585
X224.01Y-207.03
X225.4Y-308.5
X225.46Y-281.6
X225.48Y-252.25
X225.48Y-258.74
X225.48Y-261.28
X225.48Y-263.82
X225.48Y-266.36
X225.48Y-268.9
X225.48Y-271.44
X225.48Y-273.98
X225.48Y-276.52
X225.49Y-285.575
X225.49Y-288.115
X225.49Y-290.655
X225.49Y-293.195
X225.49Y-295.735
X225.49Y-298.275
X225.49Y-300.815
X225.49Y-303.355
X225.57Y-312.34
X225.57Y-314.88
X225.57Y-317.42
X225.57Y-319.96
X225.57Y-322.5
X225.57Y-325.04
X225.57Y-327.58
X225.57Y-330.12
X227.91Y-177.76
X227.96Y-115.53
X229.65Y-109.02
X230.45Y-177.76
X230.62Y-285.585
X230.62Y-288.125
X230.62Y-290.665
X230.62Y-293.205
X230.62Y-295.745
X230.62Y-298.285
X230.62Y-300.825
X230.62Y-303.365
X230.62Y-312.36
X230.62Y-314.9
X230.62Y-317.44
X230.62Y-319.98
X230.62Y-322.52
X230.62Y-325.06
X230.62Y-327.6
X230.62Y-330.14
X232.49Y-250.32
X232.49Y-255.32
X232.91Y-119.25
X232.91Y-121.79
X232.91Y-124.33
X232.91Y-126.87
X232.91Y-129.41
X232.91Y-131.95
X232.91Y-134.49
X232.91Y-137.03
X232.91Y-139.57
X232.91Y-142.11
X232.91Y-144.65
X232.91Y-147.19
X232.91Y-149.73
X232.91Y-152.27
X232.91Y-154.81
X232.91Y-157.35
X232.91Y-159.89
X232.91Y-162.43
X232.91Y-164.97
X232.91Y-167.51
X232.96Y-115.53
X232.99Y-177.76
X233.04Y-195.58
X233.11Y-308.49
X233.17Y-281.64
X235.53Y-177.76
X236.73Y-82.25
X236.73Y-84.71
X236.73Y-87.25
X236.73Y-93.64
X236.73Y-98.64
X238.01Y-119.19
X238.01Y-121.73
X238.01Y-124.27
X238.01Y-126.81
X238.01Y-129.35
X238.01Y-131.89
X238.01Y-134.43
X238.01Y-136.97
X238.01Y-139.51
X238.01Y-142.05
X238.01Y-144.59
X238.01Y-147.13
X238.01Y-149.67
X238.01Y-152.21
X238.01Y-154.75
X238.01Y-157.29
X238.01Y-159.83
X238.01Y-162.37
X238.01Y-164.91
X238.01Y-167.45
X238.07Y-177.76
X238.11Y-308.49
X238.17Y-281.64
X238.24Y-285.585
X238.24Y-288.125
X238.24Y-290.665
X238.24Y-293.205
X238.24Y-295.745
X238.24Y-298.285
X238.24Y-300.825
X238.24Y-303.365
X238.24Y-312.36
X238.24Y-314.9
X238.24Y-317.44
X238.24Y-319.98
X238.24Y-322.52
X238.24Y-325.06
X238.24Y-327.6
X238.24Y-330.14
X240.52Y-82.26
X240.52Y-84.72
X240.52Y-87.26
X240.57Y-93.67
X240.57Y-98.67
X240.61Y-177.76
X242.35Y-109.02
X243.89Y-312.29
X243.89Y-314.83
X243.89Y-317.37
X243.89Y-319.91
X243.89Y-322.45
X243.89Y-324.99
X243.89Y-327.53
X244.03Y-285.56
X244.03Y-288.1
X244.03Y-290.64
X244.03Y-293.18
X244.03Y-295.72
X244.03Y-298.26
X244.03Y-300.8
X244.32Y-82.26
X244.32Y-84.72
X244.32Y-87.26
X244.4Y-93.66
X244.4Y-98.66
X244.57Y-202.59
X245.25Y-229.98
X245.25Y-232.52
X245.25Y-235.06
X245.25Y-237.6
X245.25Y-240.14
X245.25Y-242.68
X245.25Y-245.22
X245.25Y-247.76
X245.25Y-250.3
X245.25Y-252.84
X245.25Y-255.38
X245.74Y-195.58
X246.59Y-308.48
X247.79Y-227.44
X247.79Y-229.98
X247.79Y-232.52
X247.79Y-235.06
X247.79Y-237.6
X247.79Y-240.14
X247.79Y-242.68
X247.79Y-245.22
X247.79Y-247.76
X247.79Y-250.3
X247.79Y-252.84
X247.79Y-255.38
X247.79Y-257.92
X248.15Y-82.27
X248.15Y-84.73
X248.15Y-87.27
X248.17Y-103.89
X248.2Y-93.66
X248.2Y-98.66
X248.25Y-115.31
X248.38Y-204.94
X249.57Y-202.59
X250.33Y-227.44
X250.33Y-229.98
X250.33Y-255.38
X250.33Y-257.92
X250.66Y-110.86
X251.51Y-312.29
X251.51Y-314.83
X251.51Y-317.37
X251.51Y-319.91
X251.51Y-322.45
X251.51Y-324.99
X251.51Y-327.53
X251.59Y-308.48
X251.65Y-285.56
X251.65Y-288.1
X251.65Y-290.64
X251.65Y-293.18
X251.65Y-295.72
X251.65Y-298.26
X251.65Y-300.8
X252.02Y-82.24
X252.02Y-84.7
X252.02Y-87.24
X252.04Y-93.67
X252.04Y-98.67
X252.87Y-227.44
X252.87Y-229.98
X252.87Y-255.38
X252.87Y-257.92
X253.2Y-110.86
X253.25Y-115.31
X253.25Y-119.19
X253.25Y-121.73
X253.25Y-124.27
X253.25Y-126.81
X253.25Y-129.35
X253.25Y-131.89
X253.25Y-134.43
X253.25Y-136.97
X253.25Y-139.51
X253.25Y-142.05
X253.25Y-144.59
X253.25Y-147.13
X253.25Y-149.67
X253.25Y-152.21
X253.25Y-154.75
X253.25Y-157.29
X253.25Y-159.83
X253.25Y-162.37
X253.25Y-164.91
X253.25Y-167.45
X255.35Y-285.52
X255.35Y-288.06
X255.35Y-290.6
X255.35Y-293.14
X255.35Y-295.68
X255.35Y-298.22
X255.35Y-300.76
X255.41Y-227.44
X255.41Y-229.98
X255.41Y-255.38
X255.41Y-257.92
X255.74Y-110.86
X255.84Y-82.28
X255.84Y-84.74
X255.84Y-87.28
X255.9Y-93.73
X255.9Y-98.73
X257.95Y-227.44
X257.95Y-229.98
X257.95Y-255.38
X257.95Y-257.92
X258.0Y-281.56
X258.28Y-110.86
X259.68Y-82.21
X259.68Y-84.67
X259.68Y-87.21
X259.72Y-93.68
X259.72Y-98.68
X260.29Y-126.99
X260.29Y-129.53
X260.29Y-132.07
X260.29Y-134.61
X260.29Y-137.15
X260.29Y-139.69
X260.29Y-142.23
X260.29Y-144.77
X260.49Y-227.44
X260.49Y-229.98
X260.49Y-255.38
X260.49Y-257.92
X260.82Y-110.86
X260.87Y-103.89
X260.965Y-178.975
X260.965Y-183.975
X261.08Y-204.94
X262.97Y-285.52
X262.97Y-288.06
X262.97Y-290.6
X262.97Y-293.14
X262.97Y-295.68
X262.97Y-298.22
X262.97Y-300.76
X263.0Y-281.56
X263.03Y-227.44
X263.03Y-229.98
X263.03Y-255.38
X263.03Y-257.92
X263.36Y-110.86
X263.51Y-82.21
X263.51Y-84.67
X263.51Y-87.21
X263.54Y-93.71
X263.54Y-98.71
X263.68Y-214.16
X265.57Y-227.44
X265.57Y-229.98
X265.57Y-255.38
X265.57Y-257.92
X265.9Y-110.86
X266.22Y-214.16
X266.87Y-285.54
X266.87Y-288.08
X266.87Y-290.62
X266.87Y-293.16
X266.87Y-295.7
X266.87Y-298.24
X266.87Y-300.78
X267.29Y-82.23
X267.29Y-84.69
X267.29Y-87.23
X267.32Y-93.71
X267.32Y-98.71
X267.91Y-126.99
X267.91Y-129.53
X267.91Y-132.07
X267.91Y-134.61
X267.91Y-137.15
X267.91Y-139.69
X267.91Y-142.23
X267.91Y-144.77
X268.08Y-201.315
X268.11Y-227.44
X268.11Y-229.98
X268.11Y-255.38
X268.11Y-257.92
X268.22Y-205.17
X268.44Y-110.86
X268.76Y-214.16
X269.41Y-281.58
X270.65Y-227.44
X270.65Y-229.98
X270.65Y-255.38
X270.65Y-257.92
X271.11Y-82.23
X271.11Y-84.69
X271.11Y-87.23
X271.16Y-93.74
X271.16Y-98.74
X271.3Y-214.16
X273.19Y-227.44
X273.19Y-229.98
X273.19Y-232.52
X273.19Y-235.06
X273.19Y-237.6
X273.19Y-240.14
X273.19Y-242.68
X273.19Y-245.22
X273.19Y-247.76
X273.19Y-250.3
X273.19Y-252.84
X273.19Y-255.38
X273.19Y-257.92
X273.73Y-119.24
X273.73Y-121.78
X273.73Y-124.32
X273.73Y-126.86
X273.73Y-129.4
X273.73Y-131.94
X273.73Y-134.48
X273.73Y-137.02
X273.73Y-139.56
X273.73Y-142.1
X273.73Y-144.64
X273.73Y-147.18
X273.73Y-149.72
X273.73Y-152.26
X273.73Y-154.8
X273.73Y-157.34
X273.73Y-159.88
X273.73Y-162.42
X273.73Y-164.96
X273.73Y-167.5
X273.84Y-214.16
X274.41Y-281.58
X274.49Y-285.54
X274.49Y-288.08
X274.49Y-290.62
X274.49Y-293.16
X274.49Y-295.7
X274.49Y-298.24
X274.49Y-300.78
X274.89Y-82.24
X274.89Y-84.7
X274.89Y-87.24
X274.95Y-93.73
X274.95Y-98.73
X275.73Y-229.98
X275.73Y-232.52
X275.73Y-235.06
X275.73Y-237.6
X275.73Y-240.14
X275.73Y-242.68
X275.73Y-245.22
X275.73Y-247.76
X275.73Y-250.3
X275.73Y-252.84
X275.73Y-255.38
X276.38Y-214.16
X278.69Y-82.28
X278.69Y-84.74
X278.69Y-87.28
X278.73Y-93.75
X278.73Y-98.75
X278.9Y-302.68
X280.78Y-201.315
X280.92Y-205.17
X281.4Y-259.2
X282.5Y-82.27
X282.5Y-84.73
X282.5Y-87.27
X282.56Y-93.74
X282.56Y-98.74
X282.6Y-115.34
X283.9Y-302.68
X284.51Y-225.46
X285.33Y-217.22
X286.32Y-82.25
X286.32Y-84.71
X286.32Y-87.25
X286.37Y-93.74
X286.37Y-98.74
X286.4Y-259.2
X287.6Y-115.34
X288.97Y-119.24
X288.97Y-121.78
X288.97Y-124.32
X288.97Y-126.86
X288.97Y-129.4
X288.97Y-131.94
X288.97Y-134.48
X288.97Y-137.02
X288.97Y-139.56
X288.97Y-142.1
X288.97Y-144.64
X288.97Y-147.18
X288.97Y-149.72
X288.97Y-152.26
X288.97Y-154.8
X288.97Y-157.34
X288.97Y-159.88
X288.97Y-162.42
X288.97Y-164.96
X288.97Y-167.5
X290.16Y-82.25
X290.16Y-84.71
X290.16Y-87.25
X290.17Y-93.77
X290.17Y-98.77
X290.32Y-298.84
X290.33Y-217.22
X290.345Y-309.725
X290.36Y-316.61
X290.36Y-329.31
X290.42Y-302.76
X293.99Y-93.76
X293.99Y-98.76
X294.0Y-82.27
X294.0Y-84.73
X294.0Y-87.27
X294.08Y-119.23
X294.08Y-121.77
X294.08Y-124.31
X294.08Y-126.85
X294.08Y-129.39
X294.08Y-131.93
X294.08Y-134.47
X294.14Y-157.53
X294.14Y-162.53
X294.23Y-316.66
X294.23Y-329.36
X294.67Y-280.88
X294.67Y-293.58
X295.32Y-298.84
X295.345Y-309.725
X295.42Y-302.76
X296.55Y-157.58
X296.55Y-170.28
X296.64Y-111.56
X296.69Y-115.43
X297.21Y-225.46
X297.8Y-82.23
X297.8Y-84.69
X297.8Y-87.23
X297.85Y-93.72
X297.85Y-98.72
X297.87Y-280.89
X297.87Y-293.59
X298.02Y-316.61
X298.02Y-329.31
X299.16Y-157.58
X299.16Y-170.28
X299.25Y-174.05
X299.25Y-179.05
X299.28Y-191.99
X299.28Y-196.99
X299.31Y-183.06
X299.31Y-188.06
X301.64Y-82.26
X301.64Y-84.72
X301.64Y-87.26
X301.64Y-111.56
X301.69Y-115.43
X301.7Y-119.23
X301.7Y-121.77
X301.7Y-124.31
X301.7Y-126.85
X301.7Y-129.39
X301.7Y-131.93
X301.7Y-134.47
X301.76Y-157.56
X301.76Y-170.26
X301.83Y-300.92
X301.83Y-313.62
X301.83Y-316.64
X301.83Y-329.34
X304.34Y-162.56
X304.34Y-167.56
X305.42Y-82.26
X305.42Y-84.72
X305.42Y-87.26
X305.49Y-91.1
X305.49Y-103.8
X306.33Y-235.16
X306.33Y-237.7
X306.33Y-240.24
X306.33Y-242.78
X306.33Y-245.32
X306.33Y-247.86
X306.33Y-250.4
X306.33Y-252.94
X306.33Y-255.48
X306.89Y-285.51
X306.89Y-288.05
X306.89Y-290.59
X306.89Y-293.13
X306.89Y-295.67
X306.89Y-298.21
X306.89Y-300.75
X306.96Y-307.93
X306.96Y-310.47
X306.96Y-313.01
X306.96Y-315.55
X306.96Y-318.09
X306.96Y-320.63
X306.96Y-323.17
X306.96Y-325.71
X306.96Y-328.25
X308.02Y-91.09
X308.02Y-103.79
X308.04Y-119.2
X308.04Y-131.9
X308.13Y-137.08
X308.13Y-149.78
X308.87Y-232.62
X308.87Y-235.16
X308.87Y-237.7
X308.87Y-240.24
X308.87Y-242.78
X308.87Y-245.32
X308.87Y-247.86
X308.87Y-250.4
X308.87Y-252.94
X308.87Y-255.48
X308.87Y-258.02
X309.47Y-281.5
X310.52Y-91.09
X310.52Y-103.79
X311.41Y-232.62
X311.41Y-235.16
X311.41Y-255.48
X311.41Y-258.02
X311.9Y-119.25
X311.9Y-121.79
X311.9Y-124.33
X311.9Y-126.87
X311.9Y-129.41
X311.9Y-131.95
X311.9Y-134.49
X311.9Y-137.03
X311.9Y-139.57
X311.9Y-142.11
X311.9Y-144.65
X311.9Y-147.19
X311.9Y-149.73
X311.9Y-152.27
X311.9Y-154.81
X311.9Y-157.35
X311.9Y-159.89
X311.9Y-162.43
X311.9Y-164.97
X311.9Y-167.51
X312.31Y-82.15
X312.31Y-94.85
X313.95Y-232.62
X313.95Y-235.16
X313.95Y-255.48
X313.95Y-258.02
X314.47Y-281.5
X314.51Y-285.51
X314.51Y-288.05
X314.51Y-290.59
X314.51Y-293.13
X314.51Y-295.67
X314.51Y-298.21
X314.51Y-300.75
X314.58Y-307.93
X314.58Y-310.47
X314.58Y-313.01
X314.58Y-315.55
X314.58Y-318.09
X314.58Y-320.63
X314.58Y-323.17
X314.58Y-325.71
X314.58Y-328.25
X316.35Y-82.18
X316.35Y-94.88
X316.49Y-232.62
X316.49Y-235.16
X316.49Y-255.48
X316.49Y-258.02
X318.78Y-322.96
X318.78Y-327.96
X318.91Y-311.25
X319.01Y-266.3
X319.03Y-232.62
X319.03Y-235.16
X319.03Y-255.48
X319.03Y-258.02
X319.31Y-82.17
X319.31Y-94.87
X319.69Y-282.95
X320.89Y-218.51
X321.45Y-311.25
X321.57Y-232.62
X321.57Y-235.16
X321.57Y-255.48
X321.57Y-258.02
X321.93Y-82.37
X321.93Y-84.83
X321.93Y-87.37
X322.09Y-115.44
X324.01Y-266.3
X324.11Y-232.62
X324.11Y-235.16
X324.11Y-255.48
X324.11Y-258.02
X324.55Y-91.02
X324.55Y-103.72
X324.69Y-282.95
X325.74Y-82.37
X325.74Y-84.83
X325.74Y-87.37
X325.8Y-322.94
X325.8Y-327.94
X325.89Y-218.51
X326.65Y-232.62
X326.65Y-235.16
X326.65Y-255.48
X326.65Y-258.02
X327.09Y-115.44
X327.14Y-119.25
X327.14Y-121.79
X327.14Y-124.33
X327.14Y-126.87
X327.14Y-129.41
X327.14Y-131.95
X327.14Y-134.49
X327.14Y-137.03
X327.14Y-139.57
X327.14Y-142.11
X327.14Y-144.65
X327.14Y-147.19
X327.14Y-149.73
X327.14Y-152.27
X327.14Y-154.81
X327.14Y-157.35
X327.14Y-159.89
X327.14Y-162.43
X327.14Y-164.97
X327.14Y-167.51
X329.19Y-232.62
X329.19Y-235.16
X329.19Y-237.7
X329.19Y-240.24
X329.19Y-242.78
X329.19Y-245.32
X329.19Y-247.86
X329.19Y-250.4
X329.19Y-252.94
X329.19Y-255.48
X329.19Y-258.02
X329.57Y-82.37
X329.57Y-84.83
X329.57Y-87.37
X330.11Y-194.24
X330.11Y-206.94
X330.35Y-300.15
X330.35Y-312.85
X330.39Y-279.71
X330.39Y-292.41
X331.73Y-235.16
X331.73Y-237.7
X331.73Y-240.24
X331.73Y-242.78
X331.73Y-245.32
X331.73Y-247.86
X331.73Y-250.4
X331.73Y-252.94
X331.73Y-255.48
X332.28Y-119.17
X332.28Y-121.71
X332.28Y-124.25
X332.28Y-126.79
X332.28Y-129.33
X332.28Y-131.87
X332.28Y-134.41
X333.31Y-82.37
X333.31Y-84.83
X333.31Y-87.37
X334.87Y-115.45
X334.89Y-279.75
X334.89Y-282.29
X334.89Y-284.83
X334.89Y-287.37
X334.89Y-289.91
X334.89Y-292.45
X337.16Y-82.37
X337.16Y-84.83
X337.16Y-87.37
X338.01Y-145.35
X338.01Y-158.05
X338.02Y-162.18
X338.02Y-174.88
X339.87Y-115.45
X339.9Y-119.17
X339.9Y-121.71
X339.9Y-124.25
X339.9Y-126.79
X339.9Y-129.33
X339.9Y-131.87
X339.9Y-134.41
X340.67Y-279.8
X340.67Y-282.34
X340.67Y-284.88
X340.67Y-287.42
X340.67Y-289.96
X340.67Y-292.5
X340.67Y-295.04
X340.67Y-297.58
X340.67Y-300.12
X340.67Y-302.66
X340.67Y-305.2
X340.67Y-307.74
X340.67Y-310.28
X340.67Y-312.82
X340.67Y-315.36
X340.67Y-317.9
X340.67Y-320.44
X340.67Y-322.98
X340.67Y-325.52
X340.67Y-328.06
X341.02Y-82.37
X341.02Y-84.83
X341.02Y-87.37
X344.53Y-177.09
X344.53Y-189.79
X348.33Y-238.91
X348.33Y-241.45
X348.33Y-243.99
X348.33Y-246.53
X348.33Y-249.07
X348.33Y-251.61
X348.33Y-254.15
X348.33Y-256.69
X348.33Y-259.23
X348.33Y-261.77
X350.93Y-275.93
X350.95Y-234.43
X351.43Y-138.36
X351.43Y-140.9
X351.43Y-143.44
X351.43Y-145.98
X351.43Y-148.52
X351.43Y-151.06
X351.43Y-153.6
X351.43Y-156.14
X351.43Y-158.68
X351.43Y-161.22
X351.43Y-163.76
X351.43Y-166.3
X351.43Y-168.84
X351.43Y-171.38
X351.45Y-175.3
X352.11Y-210.915
X352.11Y-213.455
X352.49Y-81.26
X352.49Y-93.96
X352.58Y-114.78
X352.6Y-124.27
X352.63Y-131.92
X352.63Y-134.54
X352.66Y-128.06
X355.01Y-81.24
X355.01Y-93.94
X355.26Y-210.935
X355.26Y-213.475
X355.91Y-279.8
X355.91Y-282.34
X355.91Y-284.88
X355.91Y-287.42
X355.91Y-289.96
X355.91Y-292.5
X355.91Y-295.04
X355.91Y-297.58
X355.91Y-300.12
X355.91Y-302.66
X355.91Y-305.2
X355.91Y-307.74
X355.91Y-310.28
X355.91Y-312.82
X355.91Y-315.36
X355.91Y-317.9
X355.91Y-320.44
X355.91Y-322.98
X355.91Y-325.52
X355.91Y-328.06
X355.93Y-275.93
X355.95Y-234.43
X355.95Y-238.91
X355.95Y-241.45
X355.95Y-243.99
X355.95Y-246.53
X355.95Y-249.07
X355.95Y-251.61
X355.95Y-254.15
X355.95Y-256.69
X355.95Y-259.23
X355.95Y-261.77
X356.45Y-175.3
X357.56Y-81.24
X357.56Y-93.94
X357.82Y-210.935
X357.82Y-213.475
X360.06Y-81.24
X360.06Y-93.94
X360.22Y-117.95
X360.27Y-121.14
X361.62Y-210.9
X361.62Y-213.44
X361.62Y-215.98
X364.09Y-238.95
X364.09Y-241.49
X364.09Y-244.03
X364.09Y-246.57
X364.09Y-249.11
X364.09Y-251.65
X364.09Y-254.19
X364.09Y-256.73
X364.09Y-259.27
X364.09Y-261.81
X364.13Y-279.845
X364.13Y-282.385
X364.13Y-284.925
X364.13Y-287.465
X364.13Y-290.005
X364.13Y-292.545
X364.13Y-295.085
X364.595Y-85.97
X365.22Y-117.95
X365.27Y-121.14
X365.28Y-114.78
X365.3Y-124.27
X365.33Y-131.92
X365.33Y-134.54
X365.36Y-128.06
X366.67Y-138.36
X366.67Y-140.9
X366.67Y-143.44
X366.67Y-145.98
X366.67Y-148.52
X366.67Y-151.06
X366.67Y-153.6
X366.67Y-156.14
X366.67Y-158.68
X366.67Y-161.22
X366.67Y-163.76
X366.67Y-166.3
X366.67Y-168.84
X366.67Y-171.38
X366.79Y-275.93
X366.8Y-234.44
X367.015Y-83.49
X367.015Y-88.49
X370.31Y-101.33
X370.31Y-103.87
X370.31Y-106.41
X370.31Y-108.95
X370.31Y-111.49
X370.31Y-114.03
X370.31Y-116.57
X370.31Y-119.11
X370.31Y-121.65
X370.31Y-124.19
X370.345Y-85.97
X371.71Y-238.95
X371.71Y-241.49
X371.71Y-244.03
X371.71Y-246.57
X371.71Y-249.11
X371.71Y-251.65
X371.71Y-254.19
X371.71Y-256.73
X371.71Y-259.27
X371.71Y-261.81
X371.75Y-279.845
X371.75Y-282.385
X371.75Y-284.925
X371.75Y-287.465
X371.75Y-290.005
X371.75Y-292.545
X371.75Y-295.085
X371.79Y-275.93
X371.8Y-234.44
X372.36Y-151.11
X372.36Y-156.11
X372.765Y-83.49
X372.765Y-88.49
X372.92Y-313.15
X372.92Y-325.85
X372.94Y-97.56
X375.39Y-313.14
X375.39Y-325.84
X376.055Y-85.97
X377.93Y-101.33
X377.93Y-103.87
X377.93Y-106.41
X377.93Y-108.95
X377.93Y-111.49
X377.93Y-114.03
X377.93Y-116.57
X377.93Y-119.11
X377.93Y-121.65
X377.93Y-124.19
X377.94Y-97.56
X378.475Y-83.49
X378.475Y-88.49
X380.07Y-304.1
X380.07Y-306.64
X380.07Y-309.18
X380.07Y-311.72
X380.07Y-314.26
X380.07Y-316.8
X380.07Y-319.34
X380.12Y-279.805
X380.12Y-282.345
X380.12Y-284.885
X380.12Y-287.425
X380.12Y-289.965
X380.12Y-292.505
X380.12Y-295.045
X380.17Y-243.36
X380.17Y-245.9
X380.17Y-248.44
X380.17Y-250.98
X380.17Y-253.52
X380.17Y-256.06
X380.17Y-258.6
X380.17Y-261.14
X381.785Y-85.97
X382.71Y-300.25
X382.74Y-275.93
X382.77Y-267.0
X384.205Y-83.49
X384.205Y-88.49
X385.71Y-101.4
X385.71Y-103.94
X385.71Y-106.48
X385.71Y-109.02
X385.71Y-111.56
X385.71Y-114.1
X385.71Y-116.64
X385.71Y-119.18
X385.71Y-121.72
X385.71Y-124.26
X387.555Y-85.96
X387.69Y-304.1
X387.69Y-306.64
X387.69Y-309.18
X387.69Y-311.72
X387.69Y-314.26
X387.69Y-316.8
X387.69Y-319.34
X387.71Y-300.25
X387.74Y-275.93
X387.74Y-279.805
X387.74Y-282.345
X387.74Y-284.885
X387.74Y-287.425
X387.74Y-289.965
X387.74Y-292.505
X387.74Y-295.045
X387.77Y-267.0
X387.79Y-243.36
X387.79Y-245.9
X387.79Y-248.44
X387.79Y-250.98
X387.79Y-253.52
X387.79Y-256.06
X387.79Y-258.6
X387.79Y-261.14
X388.19Y-97.45
X389.975Y-83.48
X389.975Y-88.48
X390.96Y-175.17
X391.47Y-130.65
X393.19Y-97.45
X393.235Y-85.97
X393.33Y-101.4
X393.33Y-103.94
X393.33Y-106.48
X393.33Y-109.02
X393.33Y-111.56
X393.33Y-114.1
X393.33Y-116.64
X393.33Y-119.18
X393.33Y-121.72
X393.33Y-124.26
X394.61Y-304.08
X394.61Y-306.62
X394.61Y-309.16
X394.61Y-311.7
X394.61Y-314.24
X394.61Y-316.78
X394.61Y-319.32
X394.7Y-279.855
X394.7Y-282.395
X394.7Y-284.935
X394.7Y-287.475
X394.7Y-290.015
X394.7Y-292.555
X394.7Y-295.095
X394.72Y-238.28
X394.72Y-240.82
X394.72Y-243.36
X394.72Y-245.9
X394.72Y-248.44
X394.72Y-250.98
X394.72Y-253.52
X394.72Y-256.06
X394.72Y-258.6
X394.72Y-261.14
X395.655Y-83.49
X395.655Y-88.49
X395.96Y-175.17
X396.47Y-130.65
X397.03Y-105.17
X397.03Y-117.87
X397.29Y-234.4
X397.34Y-275.96
X397.34Y-300.29
X398.995Y-85.97
X399.56Y-105.19
X399.56Y-117.89
X400.99Y-175.14
X400.99Y-187.84
X401.415Y-83.49
X401.415Y-88.49
X402.14Y-105.2
X402.14Y-117.9
X402.23Y-304.08
X402.23Y-306.62
X402.23Y-309.16
X402.23Y-311.7
X402.23Y-314.24
X402.23Y-316.78
X402.23Y-319.32
X402.29Y-234.4
X402.32Y-279.855
X402.32Y-282.395
X402.32Y-284.935
X402.32Y-287.475
X402.32Y-290.015
X402.32Y-292.555
X402.32Y-295.095
X402.34Y-238.28
X402.34Y-240.82
X402.34Y-243.36
X402.34Y-245.9
X402.34Y-248.44
X402.34Y-250.98
X402.34Y-253.52
X402.34Y-256.06
X402.34Y-258.6
X402.34Y-261.14
X402.34Y-275.96
X402.34Y-300.29
X404.64Y-81.06
X404.64Y-93.76
X404.67Y-105.2
X404.67Y-117.9
X407.2Y-105.21
X407.2Y-117.91
X407.67Y-85.905
X408.7Y-247.18
X408.7Y-259.88
X409.78Y-105.23
X409.78Y-117.93
X409.9Y-304.11
X409.9Y-306.65
X409.9Y-309.19
X409.9Y-311.73
X409.9Y-314.27
X409.9Y-316.81
X409.9Y-319.35
X409.9Y-321.89
X409.9Y-324.43
X409.9Y-326.97
X409.95Y-279.85
X409.95Y-282.39
X409.95Y-284.93
X409.95Y-287.47
X409.95Y-290.01
X409.95Y-292.55
X410.09Y-83.425
X410.09Y-88.425
X411.17Y-159.99
X411.17Y-164.99
X411.24Y-144.64
X411.24Y-147.17
X411.24Y-149.7
X411.25Y-142.08
X411.25Y-152.25
X412.27Y-105.26
X412.27Y-117.96
X413.33Y-250.25
X413.68Y-121.73
X413.68Y-124.27
X413.68Y-126.81
X413.68Y-129.35
X413.68Y-131.89
X413.68Y-134.43
X413.68Y-136.97
X413.68Y-139.51
X414.11Y-81.76
X414.11Y-86.76
X414.14Y-89.22
X414.14Y-101.92
X414.8Y-105.26
X414.8Y-117.96
X416.865Y-244.63
X416.92Y-221.59
X416.94Y-219.07
X416.94Y-224.15
X416.98Y-265.1
X416.99Y-262.59
X417.21Y-239.55
X417.31Y-105.26
X417.31Y-117.96
X417.34Y-80.05
X417.34Y-92.75
X418.19Y-321.36
X418.19Y-323.9
X418.19Y-326.44
X418.88Y-200.65
X418.88Y-205.65
X420.06Y-105.26
X420.06Y-117.96
X420.48Y-95.01
X420.48Y-100.01
X420.58Y-83.66
X420.58Y-88.66
X420.8Y-252.76
X420.83Y-255.46
X420.89Y-259.35
X420.93Y-247.8
X420.94Y-236.31
X420.95Y-229.855
X421.3Y-121.73
X421.3Y-124.27
X421.3Y-126.81
X421.3Y-129.35
X421.3Y-131.89
X421.3Y-134.43
X421.3Y-136.97
X421.3Y-139.51
X421.945Y-244.63
X423.24Y-106.45
X423.46Y-233.89
X423.47Y-227.435
X423.74Y-79.96
X423.74Y-92.66
X423.94Y-144.64
X423.94Y-147.17
X423.94Y-149.7
X423.95Y-142.08
X423.95Y-152.25
X424.3Y-96.25
X424.3Y-101.25
X424.765Y-239.51
X425.21Y-322.67
X425.22Y-156.68
X425.22Y-169.38
X425.78Y-106.45
X425.8Y-252.76
X425.83Y-255.46
X425.89Y-259.35
X425.93Y-247.8
X425.94Y-236.31
X425.95Y-229.855
X426.03Y-250.25
X426.29Y-79.96
X426.29Y-92.66
X427.78Y-290.63
X427.83Y-305.43
X427.83Y-308.6
X428.12Y-96.27
X428.12Y-101.27
X428.32Y-106.45
X428.34Y-156.96
X428.34Y-169.66
X428.83Y-79.96
X428.83Y-92.66
X429.02Y-129.37
X429.02Y-131.91
X429.02Y-134.45
X429.02Y-136.99
X429.02Y-139.53
X429.02Y-142.07
X429.11Y-302.21
X429.62Y-221.59
X429.62Y-244.61
X429.64Y-219.07
X429.64Y-224.15
X429.68Y-265.1
X429.69Y-262.59
X429.845Y-239.51
X430.86Y-106.45
X431.41Y-79.96
X431.41Y-92.66
X431.79Y-282.99
X432.01Y-96.26
X432.01Y-101.26
X432.87Y-322.67
X432.885Y-212.805
X433.4Y-106.45
X433.9Y-79.96
X433.9Y-92.66
X434.11Y-302.21
X434.92Y-259.92
X435.34Y-124.24
X435.34Y-126.78
X435.34Y-129.32
X435.34Y-131.86
X435.34Y-134.4
X435.34Y-136.94
X435.34Y-139.48
X435.34Y-142.02
X435.34Y-144.56
X435.4Y-153.52
X435.4Y-156.06
X435.4Y-158.6
X435.4Y-161.14
X435.4Y-163.68
X435.4Y-166.22
X435.4Y-168.76
X435.4Y-171.3
X435.4Y-173.84
X435.76Y-96.27
X435.76Y-101.27
X435.94Y-106.45
X436.48Y-79.96
X436.48Y-92.66
X436.79Y-282.99
X437.34Y-257.44
X437.34Y-262.44
X437.83Y-113.41
X437.84Y-120.43
X437.885Y-212.805
X437.94Y-149.68
X438.48Y-106.45
X439.04Y-79.96
X439.04Y-92.66
X439.64Y-96.27
X439.64Y-101.27
X440.48Y-290.63
X440.53Y-305.43
X440.53Y-308.6
X441.02Y-106.45
X442.83Y-113.41
X442.84Y-120.43
X442.94Y-149.68
X442.96Y-124.24
X442.96Y-126.78
X442.96Y-129.32
X442.96Y-131.86
X442.96Y-134.4
X442.96Y-136.94
X442.96Y-139.48
X442.96Y-142.02
X442.96Y-144.56
X443.02Y-153.52
X443.02Y-156.06
X443.02Y-158.6
X443.02Y-161.14
X443.02Y-163.68
X443.02Y-166.22
X443.02Y-168.76
X443.02Y-171.3
X443.02Y-173.84
X446.75Y-122.97
X446.75Y-125.51
X446.75Y-128.05
X446.75Y-130.59
X446.75Y-133.13
X446.75Y-135.67
X446.75Y-138.21
X446.75Y-140.75
X446.75Y-143.29
X446.75Y-145.83
T7
X144.73Y-90.43
X144.73Y-92.97
X144.73Y-95.51
X144.73Y-98.05
X144.73Y-100.59
X144.73Y-103.13
X144.73Y-105.67
X144.73Y-108.21
X144.73Y-110.75
X144.73Y-113.29
X144.73Y-115.83
X144.73Y-118.37
X144.73Y-120.91
X144.73Y-123.45
X144.73Y-125.99
X144.73Y-128.53
X144.73Y-131.07
X144.73Y-133.61
X144.73Y-136.15
X144.73Y-138.69
X144.73Y-141.23
X144.73Y-143.77
X144.73Y-146.31
X144.73Y-148.85
X144.73Y-151.39
X144.73Y-153.93
X144.73Y-156.47
X144.73Y-159.01
X144.73Y-161.55
X144.73Y-164.09
X144.73Y-166.63
X149.86Y-90.43
X149.86Y-92.97
X149.86Y-95.51
X149.86Y-98.05
X149.86Y-100.59
X149.86Y-103.13
X149.86Y-105.67
X149.86Y-108.21
X149.86Y-110.75
X149.86Y-113.29
X149.86Y-115.83
X149.86Y-118.37
X149.86Y-120.91
X149.86Y-123.45
X149.86Y-125.99
X149.86Y-128.53
X149.86Y-131.07
X149.86Y-133.61
X149.86Y-136.15
X149.86Y-138.69
X149.86Y-141.23
X149.86Y-143.77
X149.86Y-146.31
X149.86Y-148.85
X149.86Y-151.39
X149.86Y-153.93
X149.86Y-156.47
X149.86Y-159.01
X149.86Y-161.55
X149.86Y-164.09
X149.86Y-166.63
X165.02Y-90.52
X165.02Y-93.06
X165.02Y-95.6
X165.02Y-98.14
X165.02Y-100.68
X165.02Y-103.22
X165.02Y-105.76
X165.02Y-108.3
X165.02Y-110.84
X165.02Y-113.38
X165.02Y-115.92
X165.02Y-118.46
X165.02Y-121.0
X165.02Y-123.54
X165.02Y-126.08
X165.02Y-128.62
X165.02Y-131.16
X165.02Y-133.7
X165.02Y-136.24
X165.02Y-138.78
X165.02Y-141.32
X165.02Y-143.86
X165.02Y-146.4
X165.02Y-148.94
X165.02Y-151.48
X165.02Y-154.02
X165.02Y-156.56
X165.02Y-159.1
X165.02Y-161.64
X165.02Y-164.18
X165.02Y-166.72
X170.15Y-90.52
X170.15Y-93.06
X170.15Y-95.6
X170.15Y-98.14
X170.15Y-100.68
X170.15Y-103.22
X170.15Y-105.76
X170.15Y-108.3
X170.15Y-110.84
X170.15Y-113.38
X170.15Y-115.92
X170.15Y-118.46
X170.15Y-121.0
X170.15Y-123.54
X170.15Y-126.08
X170.15Y-128.62
X170.15Y-131.16
X170.15Y-133.7
X170.15Y-136.24
X170.15Y-138.78
X170.15Y-141.32
X170.15Y-143.86
X170.15Y-146.4
X170.15Y-148.94
X170.15Y-151.48
X170.15Y-154.02
X170.15Y-156.56
X170.15Y-159.1
X170.15Y-161.64
X170.15Y-164.18
X170.15Y-166.72
X185.47Y-90.53
X185.47Y-93.07
X185.47Y-95.61
X185.47Y-98.15
X185.47Y-100.69
X185.47Y-103.23
X185.47Y-105.77
X185.47Y-108.31
X185.47Y-110.85
X185.47Y-113.39
X185.47Y-115.93
X185.47Y-118.47
X185.47Y-121.01
X185.47Y-123.55
X185.47Y-126.09
X185.47Y-128.63
X185.47Y-131.17
X185.47Y-133.71
X185.47Y-136.25
X185.47Y-138.79
X185.47Y-141.33
X185.47Y-143.87
X185.47Y-146.41
X185.47Y-148.95
X185.47Y-151.49
X185.47Y-154.03
X185.47Y-156.57
X185.47Y-159.11
X185.47Y-161.65
X185.47Y-164.19
X185.47Y-166.73
X190.6Y-90.53
X190.6Y-93.07
X190.6Y-95.61
X190.6Y-98.15
X190.6Y-100.69
X190.6Y-103.23
X190.6Y-105.77
X190.6Y-108.31
X190.6Y-110.85
X190.6Y-113.39
X190.6Y-115.93
X190.6Y-118.47
X190.6Y-121.01
X190.6Y-123.55
X190.6Y-126.09
X190.6Y-128.63
X190.6Y-131.17
X190.6Y-133.71
X190.6Y-136.25
X190.6Y-138.79
X190.6Y-141.33
X190.6Y-143.87
X190.6Y-146.41
X190.6Y-148.95
X190.6Y-151.49
X190.6Y-154.03
X190.6Y-156.57
X190.6Y-159.11
X190.6Y-161.65
X190.6Y-164.19
X190.6Y-166.73
X361.58Y-200.65
X361.58Y-203.19
X364.12Y-200.65
X364.12Y-203.19
X366.66Y-200.65
X366.66Y-203.19
X369.2Y-200.65
X369.2Y-203.19
X369.25Y-212.11
X369.25Y-214.65
X371.74Y-200.65
X371.74Y-203.19
X371.79Y-212.11
X371.79Y-214.65
X374.28Y-200.65
X374.28Y-203.19
X374.33Y-212.11
X374.33Y-214.65
X376.82Y-200.65
X376.82Y-203.19
X376.87Y-212.11
X376.87Y-214.65
X379.36Y-200.65
X379.36Y-203.19
X379.41Y-212.11
X379.41Y-214.65
X381.9Y-200.65
X381.9Y-203.19
X381.95Y-212.11
X381.95Y-214.65
X384.44Y-200.65
X384.44Y-203.19
X384.49Y-212.11
X384.49Y-214.65
X386.98Y-200.65
X387.03Y-212.11
X387.03Y-214.65
X389.52Y-200.65
X389.52Y-203.19
X389.57Y-212.11
X389.57Y-214.65
X392.06Y-200.65
X392.06Y-203.19
X392.11Y-212.11
X392.11Y-214.65
X394.6Y-200.65
X394.6Y-203.19
X394.65Y-212.11
X394.65Y-214.65
X397.14Y-200.65
X397.14Y-203.19
X397.19Y-212.11
X397.19Y-214.65
X399.68Y-200.65
X399.68Y-203.19
X399.73Y-212.11
X399.73Y-214.65
X402.22Y-200.65
X402.22Y-203.19
X402.27Y-212.11
X402.27Y-214.65
X404.76Y-200.65
X404.76Y-203.19
X404.81Y-212.11
X404.81Y-214.65
X407.3Y-200.65
X407.3Y-203.19
X407.35Y-214.65
X409.84Y-203.19
X409.89Y-212.11
X409.89Y-214.65
X432.91Y-201.28
X435.36Y-201.28
X437.82Y-201.28
T8
X216.39Y-88.41
X218.93Y-88.41
X221.39Y-88.41
X248.355Y-73.69
X249.79Y-71.16
X251.125Y-73.69
X252.56Y-71.16
X253.895Y-73.69
X255.33Y-71.16
X256.665Y-73.69
X258.1Y-71.16
X259.435Y-73.69
X260.87Y-71.16
X262.205Y-73.69
X263.64Y-71.16
X264.975Y-73.69
X266.41Y-71.16
X267.745Y-73.69
X269.18Y-71.16
X270.515Y-73.69
X271.95Y-71.16
X273.285Y-73.69
X274.72Y-71.16
X276.055Y-73.69
X277.49Y-71.16
X278.825Y-73.69
X280.26Y-71.16
X281.595Y-73.69
X306.84Y-73.87
X308.205Y-71.05
X309.61Y-73.87
X310.975Y-71.05
X312.38Y-73.87
X313.745Y-71.05
X315.15Y-73.87
X316.515Y-71.05
X317.92Y-73.87
X319.285Y-71.05
X320.69Y-73.87
X322.055Y-71.05
X323.46Y-73.87
X324.825Y-71.05
X326.23Y-73.87
X327.595Y-71.05
X329.0Y-73.87
X330.365Y-71.05
X331.77Y-73.87
X333.135Y-71.05
X334.54Y-73.87
X335.905Y-71.05
X337.31Y-73.87
X338.675Y-71.05
X340.08Y-73.87
X376.47Y-73.75
X377.78Y-71.22
X379.24Y-73.75
X380.55Y-71.22
X382.01Y-73.75
X383.32Y-71.22
X384.78Y-73.75
X386.09Y-71.22
X387.55Y-73.75
X427.46Y-73.96
X428.845Y-71.12
X429.62Y-202.45
X430.23Y-73.96
X431.615Y-71.12
X433.0Y-73.96
X434.385Y-71.12
X435.77Y-73.96
X436.14Y-238.6
X436.18Y-248.59
X437.155Y-71.12
X438.54Y-73.96
X438.63Y-251.12
X438.64Y-236.07
X438.69Y-243.63
X440.93Y-199.02
X446.08Y-243.6
X448.63Y-238.6
X448.63Y-241.07
X448.63Y-246.08
X448.63Y-248.55
T9
X272.58Y-329.835
X282.71Y-329.835
T10
X277.79Y-310.375
T11
X289.04Y-175.26
X289.04Y-178.94
X289.04Y-182.89
X289.04Y-186.82
X289.04Y-190.8
X289.04Y-198.78
T12
X275.67Y-177.77
X275.68Y-184.14
X275.68Y-190.52
X281.99Y-177.77
X281.99Y-184.14
X282.04Y-190.52
T13
X403.5Y-73.03
X407.19Y-69.02
X411.0Y-73.03
T14
X137.5Y-185.47
X231.53Y-83.12
X231.72Y-185.46
X369.43Y-72.57
X394.49Y-72.59
X420.37Y-72.69
X443.95Y-87.94
X444.2Y-185.39
X445.48Y-72.7
T15
X218.93Y-70.57
X241.475Y-72.58
X288.575Y-72.58
X299.86Y-72.76
X346.96Y-72.76
T16
X133.85Y-313.98
X137.3Y-72.68
X258.47Y-313.74
X444.23Y-313.91
X444.29Y-258.99
X444.33Y-228.83
M30
