M48
; DRILL file {KiCad 7.0.6} date Tue Aug 29 14:49:35 2023
; FORMAT={-:-/ absolute / inch / decimal}
; #@! TF.CreationDate,2023-08-29T14:49:35+01:00
; #@! TF.GenerationSoftware,Kicad,Pcbnew,7.0.6
; #@! TF.FileFunction,Plated,1,2,PTH
FMAT,2
INCH
; #@! TA.AperFunction,Plated,PTH,ViaDrill
T1C0.0157
; #@! TA.AperFunction,Plated,PTH,ComponentDrill
T2C0.0157
; #@! TA.AperFunction,Plated,PTH,ViaDrill
T3C0.0197
; #@! TA.AperFunction,Plated,PTH,ComponentDrill
T4C0.0197
; #@! TA.AperFunction,Plated,PTH,ComponentDrill
T5C0.0315
; #@! TA.AperFunction,Plated,PTH,ComponentDrill
T6C0.0394
; #@! TA.AperFunction,Plated,PTH,ComponentDrill
T7C0.0472
; #@! TA.AperFunction,Plated,PTH,ComponentDrill
T8C0.0512
; #@! TA.AperFunction,Plated,PTH,ComponentDrill
T9C0.0551
; #@! TA.AperFunction,Plated,PTH,ComponentDrill
T10C0.0591
; #@! TA.AperFunction,Plated,PTH,ComponentDrill
T11C0.0709
; #@! TA.AperFunction,Plated,PTH,ComponentDrill
T12C0.0787
; #@! TA.AperFunction,Plated,PTH,ComponentDrill
T13C0.0984
; #@! TA.AperFunction,Plated,PTH,ComponentDrill
T14C0.1000
; #@! TA.AperFunction,Plated,PTH,ComponentDrill
T15C0.1299
; #@! TA.AperFunction,Plated,PTH,ComponentDrill
T16C0.1339
; #@! TA.AperFunction,Plated,PTH,ComponentDrill
T17C0.1417
; #@! TA.AperFunction,Plated,PTH,ComponentDrill
T18C0.1457
; #@! TA.AperFunction,Plated,PTH,ComponentDrill
T19C0.1496
%
G90
G05
T1
X9.3866Y-3.3862
X9.387Y-3.3268
X12.19Y-7.637
T2
X4.5783Y-8.6846
X4.5787Y-8.5858
X4.5791Y-8.7846
T3
X4.4555Y-8.9654
X4.476Y-10.211
X4.4803Y-9.785
X4.5217Y-3.6752
X4.5217Y-7.1083
X4.522Y-4.528
X4.522Y-6.3331
X4.5224Y-5.4311
X4.5295Y-10.311
X4.5437Y-12.0
X4.5531Y-10.6161
X4.6165Y-11.8465
X4.6177Y-3.4394
X4.6189Y-10.4898
X4.648Y-7.1843
X4.6689Y-9.8146
X4.6957Y-3.5307
X4.7042Y-9.635
X4.7118Y-6.837
X4.7224Y-8.2882
X4.7232Y-5.0472
X4.7287Y-5.2047
X4.7327Y-8.6843
X4.7478Y-7.963
X4.7547Y-4.9528
X4.7563Y-7.3083
X4.7579Y-10.7398
X4.7579Y-12.1016
X4.7583Y-10.3374
X4.7598Y-7.2339
X4.7728Y-3.6035
X4.7786Y-11.9248
X4.7815Y-8.5378
X4.7984Y-8.4138
X4.7984Y-10.3925
X4.7992Y-7.1835
X4.8201Y-10.6697
X4.8205Y-12.3484
X4.8354Y-8.3083
X4.8472Y-3.6744
X4.8571Y-12.4492
X4.8764Y-3.2756
X4.8846Y-10.0114
X4.885Y-8.2327
X4.9075Y-8.1315
X4.9079Y-12.4992
X4.9079Y-13.1063
X4.9083Y-11.0398
X4.9217Y-10.7898
X4.9331Y-7.1835
X4.9339Y-8.0571
X4.9583Y-10.4378
X4.961Y-7.9819
X4.9724Y-9.9689
X4.9752Y-7.8831
X4.9815Y-10.1961
X5.002Y-7.7874
X5.0035Y-3.2772
X5.0083Y-8.0602
X5.0197Y-13.1976
X5.0268Y-7.6843
X5.0283Y-7.037
X5.0575Y-7.5815
X5.0764Y-10.1217
X5.0776Y-10.5866
X5.0835Y-11.1398
X5.0969Y-11.8008
X5.1102Y-7.6339
X5.1118Y-7.9343
X5.124Y-3.2126
X5.124Y-11.8728
X5.1591Y-10.8406
X5.1756Y-9.0398
X5.1976Y-10.4937
X5.2339Y-10.6634
X5.2472Y-3.239
X5.2571Y-10.8913
X5.2583Y-10.2634
X5.3Y-10.5657
X5.3024Y-3.9
X5.3039Y-4.0252
X5.3098Y-9.0343
X5.326Y-8.8909
X5.3465Y-13.0945
X5.3585Y-10.4352
X5.3752Y-4.3957
X5.4004Y-8.7835
X5.4004Y-9.1429
X5.4075Y-9.385
X5.4098Y-8.4335
X5.424Y-3.3516
X5.4335Y-8.2831
X5.4476Y-9.8429
X5.4504Y-9.2154
X5.4585Y-9.5323
X5.4589Y-9.9327
X5.4594Y-7.6087
X5.485Y-5.5539
X5.4992Y-3.5307
X5.5016Y-10.2665
X5.5051Y-5.3579
X5.5244Y-10.3925
X5.5244Y-10.4681
X5.5724Y-3.2425
X5.5732Y-3.6047
X5.5752Y-9.035
X5.5976Y-11.948
X5.5988Y-10.3933
X5.5996Y-10.2929
X5.6008Y-6.6547
X5.6008Y-7.0335
X5.6012Y-11.8531
X5.6055Y-12.1441
X5.6063Y-11.6437
X5.6071Y-10.837
X5.6098Y-7.485
X5.6264Y-8.2835
X5.6315Y-5.6579
X5.6453Y-13.122
X5.6488Y-3.6744
X5.6496Y-8.7917
X5.6551Y-11.5394
X5.6587Y-10.937
X5.6748Y-9.1409
X5.6756Y-8.8634
X5.6766Y-9.5902
X5.6823Y-11.039
X5.6843Y-10.463
X5.6902Y-7.3335
X5.7075Y-10.0114
X5.7098Y-9.2839
X5.7272Y-11.7217
X5.7346Y-9.9331
X5.752Y-8.0839
X5.7547Y-3.15
X5.774Y-9.115
X5.7839Y-7.8839
X5.7988Y-10.5626
X5.8236Y-3.7504
X5.824Y-9.2917
X5.8563Y-11.9689
X5.8583Y-13.0752
X5.8841Y-9.6854
X5.9081Y-11.6891
X5.9283Y-7.1102
X5.9295Y-7.2106
X5.9327Y-9.1362
X5.9469Y-3.1185
X5.9508Y-9.9933
X5.9543Y-7.835
X5.9579Y-9.2846
X5.9579Y-9.8343
X5.9583Y-8.6091
X5.9724Y-11.7189
X5.9736Y-11.8996
X5.9752Y-10.1157
X6.0Y-7.8878
X6.0024Y-8.0394
X6.0024Y-8.7134
X6.0039Y-9.4413
X6.0067Y-8.9591
X6.0079Y-12.9984
X6.0098Y-9.3339
X6.0256Y-10.6386
X6.026Y-11.8453
X6.0264Y-8.2374
X6.0319Y-11.7673
X6.0504Y-9.5421
X6.0535Y-7.661
X6.0543Y-7.1118
X6.0567Y-12.5976
X6.0752Y-8.5665
X6.0819Y-7.1839
X6.1028Y-8.1142
X6.1047Y-5.4079
X6.1067Y-6.5083
X6.1067Y-12.3961
X6.1075Y-12.5472
X6.1319Y-6.2063
X6.1323Y-6.3091
X6.1354Y-10.2594
X6.1528Y-3.3516
X6.1547Y-5.1543
X6.1551Y-7.2114
X6.1567Y-10.4362
X6.1571Y-7.1335
X6.1799Y-8.3094
X6.1823Y-7.3346
X6.1823Y-7.4835
X6.1823Y-7.6087
X6.1868Y-10.3106
X6.2047Y-7.7587
X6.2051Y-7.837
X6.2598Y-8.7346
X6.2598Y-10.3618
X6.2866Y-8.5343
X6.3035Y-10.2421
X6.3035Y-10.6386
X6.3039Y-3.5307
X6.3055Y-8.3382
X6.3067Y-7.2079
X6.3091Y-8.261
X6.3102Y-8.4094
X6.311Y-8.6083
X6.3315Y-7.7598
X6.3319Y-7.615
X6.3323Y-7.837
X6.376Y-11.7157
X6.3764Y-10.2866
X6.3768Y-9.5709
X6.3799Y-4.8587
X6.3803Y-3.6055
X6.3839Y-6.4563
X6.3843Y-7.4587
X6.3846Y-9.7587
X6.4035Y-10.2173
X6.4047Y-9.4898
X6.4051Y-5.3079
X6.4067Y-6.6563
X6.4067Y-7.0335
X6.4078Y-10.008
X6.4091Y-8.211
X6.4094Y-9.4091
X6.4102Y-7.1575
X6.4295Y-9.6681
X6.4394Y-12.2909
X6.4402Y-9.0874
X6.4528Y-9.8673
X6.4551Y-3.6744
X6.4559Y-8.3106
X6.4563Y-4.8071
X6.4583Y-5.1091
X6.4634Y-7.9079
X6.4783Y-10.6138
X6.4815Y-9.6142
X6.4819Y-8.5126
X6.4854Y-8.7339
X6.5055Y-10.1197
X6.5071Y-11.7902
X6.5087Y-13.0201
X6.5106Y-7.7591
X6.5307Y-8.3142
X6.5311Y-8.6374
X6.5331Y-7.4587
X6.5795Y-12.7476
X6.5882Y-12.5445
X6.5894Y-11.1374
X6.5894Y-11.2382
X6.6063Y-11.8933
X6.6072Y-9.8385
X6.6102Y-11.637
X6.6102Y-12.2409
X6.613Y-11.339
X6.628Y-12.1429
X6.6283Y-3.75
X6.6307Y-11.0181
X6.6354Y-7.685
X6.6362Y-6.1614
X6.639Y-7.8098
X6.6394Y-10.7122
X6.6488Y-8.4476
X6.6575Y-10.8201
X6.6598Y-4.8736
X6.6606Y-10.4854
X6.6618Y-11.9409
X6.6634Y-6.8087
X6.6634Y-6.9335
X6.6819Y-4.9744
X6.6823Y-8.5642
X6.6862Y-13.0909
X6.7091Y-9.0854
X6.7098Y-7.185
X6.7311Y-10.111
X6.7555Y-13.1201
X6.7575Y-10.6445
X6.7626Y-7.737
X6.763Y-7.8331
X6.7894Y-8.8106
X6.8055Y-11.9728
X6.8343Y-4.7496
X6.8358Y-5.5791
X6.8571Y-4.6488
X6.8591Y-6.5091
X6.8606Y-5.228
X6.861Y-6.087
X6.861Y-10.1217
X6.8618Y-6.4335
X6.8618Y-6.8606
X6.8618Y-11.4913
X6.8622Y-10.3614
X6.8626Y-5.3091
X6.8638Y-6.9587
X6.8866Y-6.6331
X6.8882Y-12.4654
X6.9063Y-11.5972
X6.9067Y-12.5465
X6.9075Y-3.5992
X6.9098Y-5.9075
X6.911Y-6.3354
X6.9331Y-8.713
X6.9339Y-4.826
X6.9362Y-9.4929
X6.9362Y-11.7142
X6.937Y-13.2429
X6.9378Y-7.5827
X6.9567Y-11.7949
X6.9594Y-13.3197
X6.9602Y-6.935
X6.961Y-6.085
X6.9614Y-9.0094
X6.9618Y-6.6835
X6.9807Y-12.8469
X6.9827Y-8.3331
X6.9882Y-8.8591
X7.0063Y-3.2276
X7.0067Y-4.6043
X7.0067Y-11.2461
X7.0075Y-10.0177
X7.0083Y-11.4386
X7.0087Y-8.1331
X7.011Y-10.611
X7.0118Y-10.311
X7.0311Y-10.3941
X7.0551Y-9.8906
X7.0815Y-12.2205
X7.1079Y-10.6929
X7.1083Y-10.9134
X7.1122Y-10.4114
X7.1315Y-13.0429
X7.1366Y-13.2697
X7.137Y-7.5102
X7.1567Y-8.839
X7.1579Y-5.1291
X7.1598Y-11.889
X7.1602Y-5.2323
X7.1787Y-11.287
X7.1827Y-4.3807
X7.1846Y-4.8776
X7.2047Y-12.5421
X7.2067Y-11.6898
X7.2091Y-11.1874
X7.2098Y-13.2689
X7.2319Y-12.3417
X7.2331Y-4.0315
X7.2331Y-4.9815
X7.2335Y-5.3591
X7.2339Y-9.6902
X7.235Y-10.4626
X7.237Y-10.311
X7.2567Y-10.9441
X7.2598Y-5.1815
X7.2598Y-5.6291
X7.2606Y-5.5535
X7.2614Y-8.563
X7.2626Y-5.7579
X7.2843Y-6.6854
X7.2882Y-5.9559
X7.3043Y-3.4071
X7.3055Y-4.2472
X7.3091Y-8.415
X7.3098Y-6.5815
X7.3114Y-7.4323
X7.3346Y-7.9366
X7.335Y-6.1579
X7.335Y-7.7173
X7.3354Y-8.0591
X7.3358Y-9.885
X7.363Y-9.6846
X7.3803Y-11.8937
X7.3862Y-7.1843
X7.3866Y-9.6098
X7.4087Y-5.8583
X7.4094Y-7.8114
X7.411Y-7.9362
X7.4114Y-7.5591
X7.4114Y-9.0606
X7.4299Y-3.0974
X7.4307Y-12.4437
X7.4331Y-13.2409
X7.4343Y-12.1665
X7.4362Y-8.2858
X7.439Y-9.4354
X7.4457Y-8.1453
X7.4555Y-12.0902
X7.4583Y-10.5925
X7.4807Y-3.2287
X7.4854Y-7.635
X7.4858Y-5.1339
X7.4858Y-6.0079
X7.4866Y-7.5626
X7.5041Y-11.5453
X7.5051Y-11.6445
X7.5075Y-3.0965
X7.5083Y-8.1362
X7.5087Y-9.2933
X7.5091Y-9.1909
X7.5091Y-10.8854
X7.5091Y-11.1878
X7.5118Y-6.5575
X7.5118Y-8.0339
X7.513Y-6.8854
X7.5362Y-7.8346
X7.537Y-8.7366
X7.5563Y-3.2063
X7.5567Y-3.3331
X7.5575Y-4.1496
X7.5591Y-8.3839
X7.5807Y-3.1069
X7.5807Y-13.3142
X7.5854Y-10.8866
X7.5866Y-7.4606
X7.5898Y-7.5331
X7.6122Y-7.1854
X7.6207Y-12.0463
X7.6343Y-3.9996
X7.6587Y-11.3685
X7.661Y-11.989
X7.6622Y-8.5906
X7.6622Y-12.789
X7.6803Y-4.0551
X7.6827Y-12.5917
X7.6839Y-4.1252
X7.6839Y-12.6937
X7.6858Y-12.2402
X7.687Y-11.6878
X7.6886Y-7.0343
X7.6902Y-9.3622
X7.7067Y-5.1591
X7.7083Y-12.8425
X7.7087Y-5.4843
X7.7114Y-11.1358
X7.7134Y-9.111
X7.7154Y-8.9339
X7.7319Y-11.8937
X7.7331Y-9.8665
X7.7335Y-5.0858
X7.7343Y-11.0409
X7.7366Y-4.602
X7.7563Y-11.5693
X7.7575Y-10.3685
X7.7591Y-5.9339
X7.7598Y-8.6146
X7.7606Y-8.3122
X7.7614Y-5.3823
X7.7614Y-8.2366
X7.7618Y-5.585
X7.7634Y-5.2531
X7.7638Y-8.985
X7.7642Y-9.9622
X7.7646Y-8.7118
X7.765Y-8.5354
X7.7831Y-11.4925
X7.7874Y-11.6902
X7.7886Y-9.5098
X7.8106Y-4.4327
X7.811Y-9.611
X7.8118Y-4.6008
X7.8122Y-6.1335
X7.8146Y-9.3091
X7.8157Y-6.0315
X7.8282Y-4.3427
X7.8339Y-10.9161
X7.8362Y-11.011
X7.839Y-6.2563
X7.8539Y-4.7939
X7.8591Y-12.2425
X7.863Y-11.2362
X7.8862Y-9.8898
X7.8866Y-5.1035
X7.8866Y-5.5827
X7.8894Y-10.3626
X7.9021Y-4.659
X7.9114Y-9.6146
X7.9114Y-11.0634
X7.9122Y-10.1449
X7.9138Y-4.3683
X7.9154Y-12.9898
X7.9327Y-12.8929
X7.9343Y-12.4421
X7.9366Y-5.3339
X7.9374Y-9.9929
X7.9378Y-9.3638
X7.9417Y-9.4339
X7.9587Y-4.2598
X7.9606Y-9.8646
X7.9638Y-4.7787
X7.9642Y-5.2087
X7.9642Y-9.5579
X7.9764Y-4.6581
X7.9862Y-5.6287
X7.987Y-7.0598
X7.987Y-9.7146
X7.9894Y-5.4319
X8.0102Y-4.3331
X8.0114Y-5.1594
X8.0114Y-10.7957
X8.0126Y-4.9551
X8.0126Y-9.6138
X8.013Y-8.2638
X8.0134Y-11.1417
X8.0142Y-7.9354
X8.0165Y-9.9874
X8.0339Y-12.0894
X8.0386Y-5.7339
X8.039Y-9.3331
X8.0417Y-5.4831
X8.0587Y-13.0398
X8.0626Y-4.0504
X8.065Y-5.8327
X8.0685Y-9.2098
X8.0843Y-3.9575
X8.0846Y-4.8102
X8.0862Y-11.0161
X8.087Y-8.8406
X8.087Y-8.9906
X8.089Y-7.4327
X8.0894Y-5.9327
X8.0902Y-10.8122
X8.0917Y-6.235
X8.0941Y-6.1083
X8.0969Y-4.6713
X8.1118Y-9.5685
X8.1134Y-9.8461
X8.1138Y-6.6079
X8.1146Y-6.0079
X8.1146Y-6.3075
X8.1146Y-8.6839
X8.1146Y-9.6366
X8.115Y-4.9587
X8.1181Y-8.5846
X8.1378Y-9.0642
X8.1386Y-12.2898
X8.1413Y-8.5094
X8.1425Y-7.6091
X8.1614Y-3.298
X8.1614Y-3.6339
X8.1642Y-6.7831
X8.1917Y-10.2118
X8.2102Y-3.2469
X8.2118Y-12.6921
X8.215Y-4.3776
X8.235Y-4.1858
X8.2394Y-7.1362
X8.2598Y-12.6433
X8.2606Y-12.5413
X8.2626Y-3.852
X8.2634Y-11.8413
X8.2858Y-11.0717
X8.2878Y-9.8394
X8.2886Y-10.2185
X8.289Y-8.2106
X8.2894Y-10.1165
X8.2906Y-8.8102
X8.2961Y-5.7409
X8.3114Y-3.8094
X8.3114Y-5.4283
X8.3118Y-11.7421
X8.3118Y-12.6925
X8.3138Y-12.8402
X8.3154Y-6.3331
X8.3154Y-13.2654
X8.3157Y-8.6102
X8.3169Y-9.3622
X8.3173Y-7.0071
X8.3319Y-6.8933
X8.335Y-4.3614
X8.339Y-5.1827
X8.3598Y-4.1346
X8.3618Y-3.926
X8.363Y-5.9102
X8.3654Y-13.0898
X8.3673Y-6.5091
X8.3862Y-11.9921
X8.387Y-12.0937
X8.387Y-12.5386
X8.3902Y-7.0591
X8.3906Y-9.1866
X8.3906Y-10.537
X8.4161Y-7.9374
X8.4181Y-6.8567
X8.437Y-3.9335
X8.4382Y-10.113
X8.4386Y-10.9917
X8.4406Y-7.8362
X8.465Y-9.5854
X8.4654Y-12.4421
X8.4894Y-10.2354
X8.4902Y-6.0079
X8.4909Y-9.9106
X8.515Y-5.8823
X8.5157Y-11.2362
X8.5189Y-8.3366
X8.5197Y-6.2654
X8.537Y-10.7165
X8.5398Y-4.6291
X8.5398Y-7.8874
X8.5398Y-11.7374
X8.548Y-6.6264
X8.5618Y-12.7657
X8.5638Y-5.6571
X8.5638Y-8.8382
X8.5642Y-9.1394
X8.5642Y-9.7654
X8.5654Y-9.2638
X8.5669Y-6.8343
X8.5669Y-7.6114
X8.5858Y-12.1685
X8.5878Y-5.7843
X8.589Y-9.9366
X8.5894Y-6.1327
X8.5902Y-8.6626
X8.5929Y-9.6878
X8.6114Y-5.987
X8.6122Y-5.8827
X8.613Y-11.1154
X8.6374Y-8.3882
X8.6382Y-5.0854
X8.6386Y-5.3354
X8.6394Y-10.1106
X8.6406Y-8.4587
X8.6409Y-9.9858
X8.6602Y-4.5854
X8.6642Y-10.6622
X8.6654Y-9.5618
X8.6654Y-9.8354
X8.6665Y-9.4118
X8.6673Y-8.835
X8.6681Y-7.1839
X8.6878Y-8.9882
X8.6882Y-9.0646
X8.7094Y-4.3346
X8.713Y-10.9606
X8.7335Y-9.5319
X8.7378Y-9.4421
X8.7378Y-11.6386
X8.7386Y-8.0835
X8.7398Y-7.3445
X8.7417Y-8.611
X8.7606Y-12.0685
X8.7642Y-6.6854
X8.7646Y-6.8366
X8.7665Y-7.5606
X8.7669Y-3.3713
X8.7854Y-3.4524
X8.7878Y-9.0669
X8.7894Y-9.3374
X8.8087Y-4.6098
X8.811Y-11.9413
X8.8114Y-12.1933
X8.8122Y-12.7374
X8.813Y-8.0894
X8.8138Y-10.9874
X8.815Y-6.7854
X8.8354Y-11.5413
X8.8398Y-8.5591
X8.8567Y-4.4126
X8.8591Y-12.3165
X8.8614Y-5.7094
X8.8614Y-13.1154
X8.8618Y-6.3831
X8.863Y-12.6118
X8.8634Y-7.2091
X8.8634Y-8.915
X8.8638Y-6.6362
X8.8642Y-8.6638
X8.8642Y-8.8122
X8.8642Y-11.6106
X8.8661Y-7.3134
X8.8665Y-5.4843
X8.8858Y-11.6913
X8.8862Y-10.9945
X8.887Y-8.463
X8.889Y-9.1134
X8.8906Y-8.3602
X8.8929Y-3.4472
X8.9106Y-11.3382
X8.9138Y-6.2358
X8.9157Y-7.9134
X8.9339Y-3.8843
X8.9378Y-8.9091
X8.9398Y-7.0102
X8.9421Y-9.1626
X8.9634Y-6.9087
X8.9661Y-8.163
X8.9862Y-8.9902
X9.0122Y-8.639
X9.0126Y-8.487
X9.0134Y-8.7642
X9.0382Y-7.9366
X9.0406Y-7.111
X9.0591Y-8.2618
X9.0602Y-5.513
X9.0614Y-5.0606
X9.0618Y-5.1587
X9.0618Y-9.5898
X9.0618Y-12.6098
X9.0626Y-5.7799
X9.0634Y-7.0118
X9.065Y-8.0843
X9.0669Y-3.4264
X9.0866Y-10.2181
X9.0866Y-13.0874
X9.0874Y-6.8858
X9.0878Y-6.085
X9.089Y-9.4374
X9.0913Y-6.463
X9.1098Y-11.1146
X9.1102Y-12.0874
X9.1114Y-12.9362
X9.1134Y-4.8866
X9.1138Y-8.6386
X9.1169Y-9.5358
X9.139Y-5.9843
X9.1402Y-4.9579
X9.1406Y-7.1366
X9.1409Y-9.1358
X9.1626Y-8.9146
X9.1634Y-6.7598
X9.1638Y-8.1634
X9.185Y-12.2402
X9.1866Y-5.0331
X9.1866Y-5.3583
X9.189Y-8.7374
X9.1917Y-8.6622
X9.2134Y-6.635
X9.2134Y-10.2106
X9.2161Y-7.1598
X9.2173Y-6.2134
X9.235Y-4.5638
X9.2354Y-5.2098
X9.2374Y-5.085
X9.2402Y-5.4575
X9.2402Y-7.0134
X9.2402Y-9.139
X9.2642Y-8.0622
X9.2646Y-7.915
X9.2646Y-10.8394
X9.2654Y-8.1827
X9.2898Y-11.6882
X9.2913Y-6.5846
X9.2917Y-6.3835
X9.3114Y-11.1106
X9.3114Y-11.3343
X9.3142Y-8.9122
X9.3154Y-4.8882
X9.3154Y-5.2866
X9.337Y-9.8402
X9.3378Y-12.1122
X9.3386Y-11.937
X9.3402Y-9.1858
X9.3661Y-6.0846
X9.3665Y-6.2843
X9.374Y-5.8913
X9.3858Y-11.5413
X9.389Y-8.5185
X9.3898Y-4.7362
X9.3902Y-5.387
X9.3902Y-5.687
X9.3941Y-9.1358
X9.4138Y-8.163
X9.4386Y-10.9161
X9.4654Y-6.6854
X9.4669Y-4.6063
X9.4882Y-6.4614
X9.4898Y-9.5154
X9.4898Y-10.163
X9.4909Y-11.1118
X9.4921Y-9.7114
X9.5114Y-11.2362
X9.5146Y-12.2606
X9.5157Y-10.0921
X9.5173Y-8.2614
X9.5177Y-7.8858
X9.539Y-4.0575
X9.5398Y-7.1063
X9.5441Y-6.9118
X9.5665Y-8.361
X9.5673Y-9.461
X9.5902Y-10.2638
X9.5902Y-10.6661
X9.5906Y-4.4079
X9.5906Y-8.0614
X9.5917Y-8.8661
X9.5921Y-9.9114
X9.6102Y-11.1118
X9.6134Y-5.0358
X9.6138Y-11.385
X9.6146Y-8.1634
X9.6161Y-8.587
X9.6406Y-8.2358
X9.6642Y-13.0157
X9.6669Y-7.887
X9.6673Y-8.0343
X9.6685Y-10.6358
X9.6902Y-13.2118
X9.6917Y-11.9878
X9.6925Y-9.5417
X9.7071Y-11.1098
X9.711Y-13.137
X9.7122Y-12.8622
X9.7138Y-12.1126
X9.7177Y-8.6118
X9.7398Y-12.7378
X9.7406Y-9.4406
X9.7421Y-8.8394
X9.7665Y-10.6366
X9.7673Y-4.4063
X9.7685Y-9.885
X9.7701Y-7.0594
X9.7913Y-3.9311
X9.7917Y-5.9087
X9.7945Y-5.535
X9.7945Y-9.537
X9.7949Y-7.3386
X9.7953Y-6.5602
X9.7953Y-9.635
X9.8165Y-12.2358
X9.8177Y-10.9102
X9.8177Y-11.8366
X9.8181Y-6.8831
X9.8413Y-11.4886
X9.8433Y-11.9634
X9.8437Y-8.811
X9.8461Y-7.0614
X9.865Y-3.9311
X9.8672Y-8.6628
X9.8673Y-5.785
X9.8677Y-6.7598
X9.8701Y-6.4902
X9.8913Y-5.6862
X9.8925Y-9.5398
X9.8925Y-9.911
X9.8933Y-10.1866
X9.8941Y-6.8626
X9.9173Y-4.3083
X9.9181Y-6.3378
X9.9185Y-8.7854
X9.9189Y-8.5634
X9.9413Y-3.9531
X9.9425Y-11.6634
X9.9437Y-8.0886
X9.9445Y-7.6618
X9.9646Y-4.6894
X9.9909Y-11.9402
X9.9921Y-10.563
X9.9921Y-10.7626
X9.9925Y-10.9866
X10.0154Y-5.0374
X10.0169Y-5.3362
X10.0185Y-8.1079
X10.0255Y-4.9393
X10.0362Y-12.1126
X10.0602Y-4.4386
X10.0654Y-4.5807
X10.0654Y-10.9886
X10.0705Y-4.8083
X10.0894Y-4.939
X10.0913Y-10.7657
X10.0929Y-10.6358
X10.1197Y-8.2094
X10.1394Y-4.4378
X10.1406Y-3.7783
X10.1409Y-4.3307
X10.1445Y-9.5909
X10.1457Y-9.2622
X10.1661Y-12.3346
X10.189Y-5.1142
X10.1898Y-5.8614
X10.1906Y-9.539
X10.1909Y-5.9886
X10.1913Y-6.1098
X10.1917Y-6.2358
X10.1925Y-5.561
X10.2146Y-10.189
X10.2189Y-6.4862
X10.2189Y-6.9094
X10.2189Y-10.2862
X10.2197Y-6.6378
X10.239Y-6.3854
X10.2409Y-10.0335
X10.2433Y-9.9354
X10.265Y-12.0409
X10.2654Y-11.8862
X10.2681Y-9.8354
X10.285Y-3.5402
X10.2874Y-9.3343
X10.3138Y-4.3618
X10.3709Y-5.6343
X10.3941Y-7.9366
X10.4126Y-5.1638
X10.4134Y-5.2866
X10.415Y-5.9618
X10.415Y-11.4126
X10.4177Y-6.0587
X10.4177Y-6.561
X10.4177Y-10.685
X10.4193Y-6.7114
X10.4622Y-5.3866
X10.4646Y-6.4331
X10.4697Y-9.4122
X10.4705Y-12.3346
X10.4866Y-4.739
X10.487Y-5.0886
X10.4906Y-4.3567
X10.5102Y-4.439
X10.5114Y-9.6413
X10.5154Y-11.1142
X10.5161Y-8.5358
X10.5173Y-8.4386
X10.5181Y-6.861
X10.5295Y-10.4917
X10.5654Y-12.4602
X10.5661Y-4.6146
X10.5693Y-8.6866
X10.5846Y-11.1134
X10.5886Y-3.6303
X10.5894Y-4.3362
X10.5902Y-11.315
X10.6142Y-5.2378
X10.6165Y-6.0366
X10.6425Y-8.6862
X10.6594Y-4.3374
X10.6618Y-4.6874
X10.6638Y-5.8346
X10.6642Y-4.0555
X10.6657Y-10.6642
X10.6681Y-8.6083
X10.689Y-5.5886
X10.6894Y-4.8366
X10.6917Y-5.2102
X10.6921Y-8.5366
X10.6921Y-10.9846
X10.7138Y-5.9839
X10.7154Y-10.5606
X10.7161Y-10.4087
X10.7185Y-8.4598
X10.7394Y-3.3827
X10.7402Y-6.1134
X10.7417Y-5.0846
X10.763Y-3.9799
X10.7661Y-8.885
X10.7661Y-11.113
X10.7677Y-6.5087
X10.7689Y-6.5846
X10.787Y-4.8638
X10.7886Y-5.2118
X10.7886Y-12.3378
X10.7906Y-4.7374
X10.7909Y-7.1087
X10.7913Y-8.1362
X10.7917Y-8.7409
X10.7917Y-10.6598
X10.7929Y-7.561
X10.8189Y-5.4906
X10.8394Y-10.563
X10.8406Y-4.3831
X10.8425Y-8.2894
X10.8425Y-11.4315
X10.8461Y-8.0858
X10.865Y-4.0358
X10.865Y-4.1594
X10.8673Y-8.4402
X10.8882Y-12.6091
X10.8886Y-3.3843
X10.8921Y-7.1091
X10.9177Y-7.5594
X10.9181Y-7.4106
X10.9189Y-8.3126
X10.9437Y-8.9083
X10.9642Y-12.0874
X10.9646Y-11.4299
X10.9646Y-12.1843
X10.9689Y-8.539
X10.9689Y-10.3598
X10.9913Y-10.2906
X10.9921Y-4.787
X10.9921Y-4.9882
X11.0157Y-6.1382
X11.0173Y-8.1618
X11.0185Y-10.1362
X11.0197Y-7.611
X11.0205Y-9.7854
X11.0346Y-3.7898
X11.0378Y-13.0346
X11.0402Y-3.3846
X11.0402Y-3.8594
X11.0421Y-9.8654
X11.0638Y-4.1102
X11.0677Y-10.0354
X11.0693Y-9.9346
X11.0917Y-9.589
X11.0929Y-10.3606
X11.0941Y-4.3831
X11.0941Y-8.915
X11.0945Y-9.6594
X11.1173Y-9.2642
X11.1177Y-10.9854
X11.1177Y-12.3846
X11.1197Y-9.4854
X11.139Y-5.3878
X11.1417Y-11.6618
X11.1417Y-12.4874
X11.1429Y-12.8839
X11.1457Y-8.4402
X11.1681Y-4.3819
X11.1689Y-7.7366
X11.1693Y-7.8354
X11.1693Y-8.2366
X11.1693Y-9.0882
X11.1697Y-8.0366
X11.1697Y-8.9142
X11.1701Y-10.661
X11.1839Y-5.8409
X11.1866Y-3.4441
X11.1882Y-4.1398
X11.2142Y-11.1126
X11.215Y-11.8362
X11.2429Y-7.411
X11.2429Y-10.985
X11.2689Y-7.6331
X11.2705Y-7.1118
X11.2933Y-4.8862
X11.2933Y-10.463
X11.2953Y-8.0626
X11.2961Y-6.9602
X11.2969Y-5.9618
X11.3181Y-11.3122
X11.3185Y-10.8606
X11.3189Y-11.5642
X11.3217Y-9.1094
X11.3394Y-3.4193
X11.3398Y-3.5319
X11.3457Y-7.8394
X11.3465Y-8.1094
X11.3622Y-4.1654
X11.3673Y-10.9146
X11.3701Y-8.3142
X11.3705Y-5.9094
X11.3705Y-7.6102
X11.372Y-7.1122
X11.3768Y-6.4846
X11.3898Y-4.8634
X11.3917Y-5.387
X11.3961Y-6.661
X11.4177Y-11.911
X11.4193Y-4.7618
X11.4213Y-8.515
X11.4217Y-5.487
X11.4217Y-6.337
X11.426Y-3.7504
X11.4382Y-3.5685
X11.4646Y-13.0343
X11.4669Y-3.5122
X11.4697Y-9.065
X11.4705Y-8.9866
X11.4713Y-9.1862
X11.4772Y-11.8362
X11.4929Y-12.211
X11.4929Y-13.1858
X11.4941Y-10.513
X11.4945Y-4.1358
X11.5146Y-4.6634
X11.5197Y-10.0098
X11.5378Y-3.8909
X11.5453Y-10.2358
X11.5465Y-7.5362
X11.5697Y-6.9839
X11.5697Y-8.2366
X11.5697Y-9.2122
X11.5713Y-6.685
X11.5732Y-8.1098
X11.5921Y-11.8091
X11.5941Y-10.0098
X11.5945Y-8.8134
X11.5961Y-11.311
X11.6201Y-9.1094
X11.6217Y-8.5094
X11.6429Y-10.7138
X11.6433Y-7.3374
X11.6433Y-7.7154
X11.6437Y-6.5402
X11.6484Y-9.2087
X11.6728Y-9.9854
X11.6925Y-10.7618
X11.6925Y-12.011
X11.6929Y-11.4622
X11.6933Y-12.1366
X11.6945Y-10.561
X11.6965Y-8.2374
X11.7165Y-5.8831
X11.7193Y-8.0874
X11.7205Y-11.7091
X11.7209Y-7.6378
X11.7213Y-8.5646
X11.7224Y-7.0094
X11.7437Y-11.2362
X11.7441Y-4.5118
X11.7685Y-10.1366
X11.7685Y-10.235
X11.7717Y-8.3339
X11.7909Y-3.3126
X11.7929Y-4.861
X11.7945Y-3.8398
X11.7953Y-6.5335
X11.7953Y-7.3362
X11.7957Y-5.711
X11.8169Y-11.1118
X11.8185Y-12.0114
X11.8201Y-8.0886
X11.8213Y-9.8327
X11.8429Y-11.5114
X11.8433Y-9.7358
X11.8445Y-7.6165
X11.8449Y-8.4094
X11.8646Y-13.1346
X11.8665Y-4.5909
X11.8665Y-4.8378
X11.8673Y-4.4071
X11.8693Y-7.3354
X11.8705Y-11.9366
X11.8925Y-10.985
X11.8929Y-10.8071
X11.8949Y-6.8874
X11.9181Y-7.135
X11.9189Y-11.8118
X11.9193Y-8.085
X11.9197Y-7.9854
X11.9205Y-6.1339
X11.9213Y-9.8614
X11.9421Y-3.9374
X11.9421Y-4.5122
X11.9421Y-9.5902
X11.9425Y-7.6327
X11.9453Y-6.7862
X11.9665Y-11.6343
X11.9669Y-4.687
X11.9677Y-9.3618
X11.9681Y-11.911
X11.9909Y-10.5862
X11.9921Y-10.9358
X11.9937Y-9.1382
X12.0134Y-4.115
X12.0154Y-4.9874
X12.0157Y-12.7843
X12.0165Y-4.5909
X12.0165Y-12.1339
X12.0177Y-5.6894
X12.0177Y-9.0638
X12.0181Y-11.2362
X12.0189Y-5.2094
X12.0209Y-7.2642
X12.0386Y-13.1839
X12.0425Y-10.811
X12.0441Y-8.7362
X12.0445Y-10.985
X12.0453Y-10.7094
X12.0465Y-8.4094
X12.0571Y-5.3984
X12.0685Y-9.1138
X12.0701Y-5.8094
X12.0902Y-12.3374
X12.0909Y-10.013
X12.0917Y-4.9862
X12.0929Y-6.6831
X12.0929Y-11.3142
X12.0949Y-6.437
X12.0953Y-8.8606
X12.0957Y-7.0343
X12.1157Y-3.9323
X12.1181Y-7.3354
X12.1185Y-5.3343
X12.1185Y-6.5866
X12.1197Y-8.4614
X12.1244Y-13.061
X12.1394Y-4.687
X12.1417Y-6.3087
X12.1669Y-4.189
X12.1669Y-9.1142
X12.1669Y-11.463
X12.1669Y-11.9157
X12.1937Y-10.585
X12.2185Y-11.5374
X12.2193Y-5.6843
X12.2409Y-10.8622
X12.2453Y-8.2122
X12.2646Y-9.0118
X12.265Y-5.2134
X12.2661Y-4.8894
X12.2673Y-9.1382
X12.2673Y-9.2638
X12.2677Y-5.285
X12.2677Y-5.385
X12.2705Y-7.4591
X12.289Y-11.489
X12.2921Y-12.8598
X12.2925Y-13.2854
X12.2953Y-7.1409
X12.3016Y-3.8756
X12.3413Y-11.7335
X12.3417Y-11.1362
X12.3421Y-11.063
X12.3429Y-12.3862
X12.3433Y-6.6602
X12.3433Y-10.7862
X12.3441Y-8.2386
X12.3441Y-10.5382
X12.3445Y-7.8417
X12.3449Y-10.6874
X12.3453Y-4.9874
X12.3453Y-5.2634
X12.3453Y-5.4878
X12.3453Y-9.7878
X12.3642Y-3.8335
X12.3642Y-12.8591
X12.3717Y-8.3634
X12.3945Y-12.087
X12.3969Y-8.5114
X12.4157Y-11.0362
X12.4189Y-6.8374
X12.4193Y-7.6374
X12.422Y-7.0091
X12.4224Y-7.0862
X12.4228Y-9.9094
X12.439Y-12.3835
X12.4433Y-11.8862
X12.4437Y-13.061
X12.4705Y-6.1626
X12.4717Y-8.6362
X12.4813Y-4.2234
X12.4913Y-5.5594
X12.4913Y-11.4882
X12.4933Y-5.8886
X12.4937Y-8.7925
X12.4949Y-10.0874
X12.4953Y-10.787
X12.5193Y-6.337
X12.5224Y-7.4902
X12.5445Y-5.9606
X12.563Y-3.8409
X12.5642Y-6.0846
X12.5673Y-10.9106
X12.5701Y-5.485
X12.5705Y-10.4398
X12.5822Y-11.3388
X12.5902Y-3.3838
X12.5933Y-4.863
X12.5961Y-5.3854
X12.5972Y-8.235
X12.5976Y-9.0122
X12.6177Y-9.5114
X12.6193Y-5.561
X12.6453Y-9.1638
X12.6642Y-3.4669
X12.6654Y-3.3579
X12.6693Y-10.3626
X12.6703Y-4.5374
X12.6941Y-13.1378
X12.6984Y-8.8354
X12.6988Y-6.2815
X12.7169Y-5.2634
X12.7173Y-3.9394
X12.7181Y-10.2402
X12.7205Y-5.5339
X12.7217Y-9.9126
X12.7217Y-10.0594
X12.7217Y-10.4835
X12.7417Y-3.8583
X12.7437Y-12.2886
X12.7465Y-8.4386
X12.748Y-9.2858
X12.7677Y-13.0142
X12.7681Y-12.889
X12.7697Y-10.7866
X12.7917Y-4.5882
X12.7929Y-9.9909
X12.7937Y-5.5354
X12.7965Y-8.5642
X12.7965Y-10.4354
X12.7969Y-9.7874
X12.798Y-10.585
X12.7984Y-6.5878
X12.8193Y-11.2417
X12.8217Y-7.9886
X12.8228Y-6.711
X12.8228Y-11.587
X12.8244Y-8.061
X12.8406Y-3.4937
X12.8429Y-4.9878
X12.8437Y-10.8642
X12.8449Y-5.2638
X12.8457Y-8.3622
X12.8461Y-8.6874
X12.8469Y-10.5358
X12.8484Y-9.137
X12.8488Y-7.1339
X12.8508Y-13.1626
X12.8689Y-12.089
X12.8732Y-7.0362
X12.8736Y-7.537
X12.8961Y-8.763
X12.8969Y-7.7965
X12.9Y-12.489
X12.9012Y-8.6362
X12.9185Y-11.2343
X12.9382Y-4.1492
X12.9465Y-8.5122
X12.9472Y-7.2642
X12.965Y-13.1071
X12.9681Y-3.9398
X12.9693Y-3.6421
X12.9693Y-9.3118
X12.9705Y-12.735
X12.9768Y-8.8843
X12.9894Y-3.4185
X12.9969Y-9.4126
X12.9976Y-5.4618
X13.0016Y-9.1358
X13.0185Y-12.602
X13.0213Y-12.3878
X13.0217Y-5.6118
X13.0417Y-3.565
X13.0425Y-13.0142
X13.0445Y-10.911
X13.0449Y-11.1394
X13.0476Y-9.5114
X13.0496Y-11.8882
X13.05Y-12.2886
X13.0524Y-12.889
X13.0539Y-12.1886
X13.0657Y-3.3858
X13.0677Y-3.2937
X13.0693Y-9.787
X13.0693Y-12.089
X13.0705Y-9.313
X13.0732Y-7.8354
X13.0732Y-8.0374
X13.0937Y-12.5323
X13.115Y-13.0602
X13.1193Y-12.4339
X13.1205Y-11.4886
X13.122Y-11.6906
X13.1472Y-5.8862
X13.1484Y-11.887
X13.1488Y-4.3972
X13.1677Y-3.8094
X13.1697Y-13.0146
X13.1705Y-11.9898
X13.1717Y-11.237
X13.1744Y-6.2843
X13.1744Y-7.1083
X13.1984Y-9.2358
X13.1992Y-9.0614
X13.2181Y-4.0638
X13.2185Y-5.735
X13.2209Y-10.787
X13.222Y-8.463
X13.2224Y-7.389
X13.224Y-8.789
X13.2268Y-7.1567
X13.2469Y-6.1354
X13.2469Y-9.389
X13.2472Y-5.837
X13.25Y-6.7598
X13.2665Y-3.8142
X13.2709Y-8.7379
X13.276Y-8.1106
X13.2953Y-5.485
X13.2965Y-5.6102
X13.3004Y-7.3843
X13.3008Y-7.9598
X13.3012Y-8.2339
X13.302Y-10.2362
X13.3201Y-10.7878
X13.3209Y-4.9622
X13.3217Y-11.4874
X13.322Y-8.5114
X13.3228Y-8.837
X13.3421Y-4.4114
X13.3441Y-11.6366
X13.3457Y-11.735
X13.3461Y-11.3366
X13.3508Y-9.335
X13.3575Y-5.4146
X13.3638Y-3.5386
X13.3689Y-4.6878
X13.3689Y-10.5874
X13.3709Y-6.9126
X13.372Y-12.5374
X13.3724Y-12.4134
X13.3736Y-6.535
X13.3762Y-9.4108
X13.3929Y-12.163
X13.3949Y-6.6366
X13.3992Y-9.6839
X13.4165Y-4.2146
X13.4181Y-4.7866
X13.4185Y-4.5118
X13.4201Y-6.2339
X13.422Y-5.6354
X13.422Y-6.1622
X13.4413Y-11.8886
X13.4417Y-4.337
X13.4425Y-4.8878
X13.4425Y-9.185
X13.4433Y-10.5839
X13.4433Y-10.9118
X13.4709Y-7.9118
X13.4949Y-8.4114
X13.4988Y-7.835
X13.5142Y-3.8386
X13.5181Y-5.387
X13.5185Y-6.335
X13.5185Y-6.535
X13.5201Y-10.7614
X13.5213Y-8.0602
X13.522Y-12.2134
X13.5402Y-3.4661
X13.5425Y-8.9622
X13.5445Y-3.5697
X13.5453Y-12.5382
X13.5685Y-9.113
X13.5689Y-11.1874
X13.5693Y-5.5862
X13.5694Y-12.089
X13.5697Y-7.8346
X13.5705Y-7.411
X13.5709Y-9.2882
X13.5933Y-9.4106
X13.5933Y-11.113
X13.5945Y-8.513
X13.5953Y-5.2606
X13.5957Y-4.387
X13.6126Y-3.5661
X13.6161Y-4.589
X13.6181Y-11.8378
X13.6205Y-8.0354
X13.622Y-10.7362
X13.6224Y-6.8839
X13.6449Y-5.0374
X13.6469Y-8.4598
X13.6646Y-12.1598
X13.6669Y-10.1874
X13.6701Y-8.3874
X13.6705Y-12.0366
X13.6764Y-8.6594
X13.6957Y-5.6358
X13.698Y-8.0343
X13.7146Y-4.4878
X13.7146Y-5.1894
X13.715Y-4.2878
X13.7185Y-9.1602
X13.7413Y-11.0346
X13.7425Y-9.5122
X13.7457Y-9.435
X13.748Y-5.7358
X13.7606Y-3.4925
X13.7665Y-9.0626
X13.7685Y-6.135
X13.7882Y-3.3433
X13.7937Y-6.239
X13.8138Y-5.387
X13.8142Y-12.011
X13.8193Y-6.3839
X13.8228Y-7.9591
X13.8228Y-9.0083
X13.8236Y-9.1083
X13.8382Y-3.3854
X13.8457Y-7.1594
X13.8634Y-12.2114
X13.8669Y-5.5154
X13.8756Y-8.5087
X13.8937Y-8.837
X13.8949Y-6.2358
X13.8965Y-7.4106
X13.8972Y-6.5343
X13.898Y-7.1055
X13.9157Y-4.537
X13.9161Y-4.7614
X13.9181Y-7.839
X13.928Y-5.8358
X13.9441Y-12.6374
X13.9445Y-12.063
X13.9618Y-3.4886
X13.9634Y-3.9413
X13.9673Y-9.2122
X13.9697Y-6.7618
X13.9705Y-8.0618
X13.9709Y-6.4575
X13.9713Y-5.7358
X13.972Y-9.8843
X13.9732Y-7.1343
X13.9882Y-3.7846
X13.989Y-4.1354
X13.9925Y-5.0201
X13.9941Y-6.189
X13.9961Y-9.4661
X14.0177Y-6.9134
X14.0189Y-6.0862
X14.0189Y-11.737
X14.0213Y-8.9587
X14.0213Y-11.4886
X14.0224Y-6.5087
X14.0394Y-4.0906
X14.0398Y-3.9886
X14.0417Y-5.0913
X14.0437Y-7.265
X14.0693Y-7.539
X14.0697Y-8.0894
X14.0705Y-6.3091
X14.0709Y-6.0354
X14.0717Y-6.7327
X14.0732Y-7.4343
X14.0902Y-11.8882
X14.0941Y-10.9122
X14.098Y-9.0362
X14.1154Y-3.9894
X14.1165Y-10.161
X14.1165Y-10.2614
X14.1193Y-6.437
X14.1193Y-10.5106
X14.1197Y-6.8583
X14.1205Y-5.987
X14.1437Y-5.5858
X14.1457Y-6.0862
X14.1465Y-5.8335
X14.1736Y-7.4583
X14.174Y-9.6591
X14.1909Y-4.4638
X14.1933Y-9.4882
X14.1949Y-5.5358
X14.1969Y-5.6378
X14.2185Y-4.2866
X14.2224Y-5.837
X14.2252Y-9.2114
X14.2413Y-10.763
X14.2421Y-4.7894
X14.2429Y-4.587
X14.2445Y-5.5886
X14.2642Y-12.9626
X14.265Y-11.1122
X14.2657Y-11.7398
X14.2689Y-5.1626
X14.2689Y-9.9634
X14.2705Y-5.3118
X14.287Y-13.0878
X14.2913Y-11.4374
X14.2933Y-9.5138
X14.2941Y-8.039
X14.2953Y-4.9358
X14.2957Y-11.5626
X14.2972Y-9.8354
X14.3201Y-12.5886
X14.324Y-9.3079
X14.324Y-10.2102
X14.3398Y-12.7374
X14.3413Y-4.389
X14.3421Y-5.387
X14.3441Y-5.8071
X14.3484Y-10.2823
X14.3693Y-8.9122
X14.3693Y-9.9602
X14.3701Y-9.2122
X14.3713Y-7.4106
X14.3732Y-10.785
X14.3913Y-12.2142
X14.3913Y-12.6358
X14.3937Y-10.4622
X14.3961Y-12.5146
X14.4154Y-13.0106
X14.4181Y-13.1154
X14.4189Y-9.0622
X14.4213Y-6.1627
X14.4394Y-3.835
X14.4449Y-5.563
X14.4453Y-6.2354
X14.4457Y-6.6377
X14.4457Y-7.4122
X14.4476Y-5.6339
X14.4728Y-7.0858
X14.5004Y-6.3587
X14.5004Y-9.3846
X14.5201Y-9.515
X14.5201Y-9.7374
X14.5228Y-5.985
X14.5268Y-9.0594
X14.5437Y-5.5638
X14.5465Y-6.6358
X14.5472Y-6.1874
X14.548Y-6.1091
X14.5488Y-6.5602
X14.576Y-9.3594
X14.5906Y-7.1858
X14.5941Y-9.6622
X14.598Y-5.5118
X14.5988Y-11.6413
X14.5996Y-6.2839
X14.6469Y-13.0425
X14.6472Y-5.4618
X14.6488Y-6.4831
X14.6492Y-5.3858
X14.6677Y-11.8894
X14.6677Y-12.9169
X14.672Y-9.6591
X14.672Y-10.5591
X14.6937Y-10.9138
X14.6965Y-7.9094
X14.7008Y-5.6366
X14.702Y-5.9831
X14.7075Y-6.3646
X14.7177Y-3.9386
X14.7232Y-8.0858
X14.7406Y-3.4374
X14.752Y-6.0587
X14.7693Y-5.5626
X14.7748Y-6.3575
X14.8008Y-7.9575
X14.8228Y-10.7614
X14.8248Y-7.2906
X14.8264Y-9.3331
X14.8433Y-11.7886
X14.8441Y-10.511
X14.8488Y-5.5134
X14.8685Y-6.0909
X14.8693Y-10.0618
X14.8732Y-5.5862
X14.8748Y-6.3579
X14.8748Y-9.9583
X14.8925Y-10.2606
X14.8949Y-6.6134
X14.8953Y-11.287
X14.8976Y-12.8909
X14.9Y-11.437
X14.9004Y-11.1138
X14.9142Y-3.5346
X14.9181Y-12.6346
X14.9213Y-7.9106
X14.922Y-12.4421
X14.9248Y-7.435
X14.928Y-7.1331
X14.9429Y-5.435
X14.9657Y-12.0913
X14.9685Y-10.2618
X14.9713Y-13.0398
X14.972Y-8.0138
X14.9724Y-6.8118
X14.9728Y-5.1118
X14.9756Y-10.1094
X14.9937Y-10.7854
X14.9957Y-7.3358
X14.9961Y-8.0886
X14.9984Y-5.0114
X14.9988Y-7.9091
X15.0189Y-8.9866
X15.024Y-4.6362
X15.0252Y-7.4094
X15.039Y-3.9882
X15.0394Y-4.1406
X15.0409Y-11.961
X15.0421Y-5.189
X15.0429Y-5.2626
X15.0449Y-7.9091
X15.0469Y-5.5098
X15.0488Y-5.5835
X15.0492Y-5.4339
X15.052Y-7.4827
X15.0732Y-10.7346
X15.0736Y-8.511
X15.0764Y-9.2339
X15.0925Y-5.113
X15.0929Y-3.4909
X15.0933Y-9.411
X15.1193Y-9.0366
X15.1193Y-9.135
X15.1264Y-5.8091
X15.1398Y-4.7114
X15.1472Y-11.3366
X15.1476Y-5.7335
X15.1728Y-6.4335
X15.1756Y-6.7339
X15.2012Y-8.0327
X15.2161Y-5.0831
X15.2213Y-4.7091
X15.2256Y-9.0827
X15.2398Y-4.6362
X15.2469Y-6.4575
X15.2681Y-9.4102
X15.2752Y-6.5563
X15.2752Y-9.2567
X15.2925Y-9.5106
X15.3169Y-7.9646
X15.3169Y-10.3122
X15.3205Y-4.6614
X15.3425Y-6.8382
X15.3445Y-5.4587
X15.3665Y-10.6874
X15.3677Y-3.9882
X15.3705Y-5.3602
X15.3744Y-9.9358
X15.3748Y-6.3079
X15.3902Y-11.8866
X15.3921Y-9.6083
X15.3929Y-9.3358
X15.4146Y-4.713
X15.4157Y-5.1622
X15.4169Y-10.2138
X15.4189Y-6.4898
X15.4228Y-5.0598
X15.424Y-6.5583
X15.4417Y-8.5362
X15.4476Y-4.5854
X15.4681Y-11.0354
X15.4748Y-9.1843
X15.4768Y-10.711
X15.485Y-3.4606
X15.5197Y-6.3874
X15.5197Y-7.4894
X15.5382Y-12.339
X15.5406Y-10.0043
X15.5469Y-11.8665
X15.5669Y-8.4866
X15.5681Y-10.3854
X15.5949Y-6.839
X15.602Y-6.5102
X15.6146Y-3.8583
X15.6185Y-8.4382
X15.624Y-10.0079
X15.6264Y-6.6087
X15.6364Y-5.1126
X15.6465Y-5.2118
X15.6465Y-6.235
X15.6488Y-12.8433
X15.6504Y-6.3835
X15.6512Y-8.5327
X15.6638Y-4.5622
X15.6717Y-12.7413
X15.6764Y-6.8343
X15.678Y-10.2591
X15.7138Y-12.3618
X15.7185Y-6.5913
X15.728Y-6.8835
X15.7287Y-8.3854
X15.739Y-10.9146
X15.7394Y-4.0323
X15.7413Y-11.6299
X15.7425Y-6.0406
X15.7433Y-6.7138
X15.7508Y-6.1106
X15.7508Y-6.3831
X15.7575Y-9.087
X15.7642Y-5.4134
X15.774Y-5.9354
X15.7902Y-11.9366
X15.7984Y-7.9594
X15.8236Y-4.9354
X15.8538Y-6.7835
X15.8665Y-13.0614
X15.8689Y-10.9382
X15.8736Y-8.9106
X15.878Y-9.0083
X15.8913Y-11.4094
X15.8921Y-10.0343
X15.8945Y-5.3378
X15.8949Y-9.1114
X15.8996Y-12.0681
X15.9197Y-5.813
X15.9272Y-6.2583
X15.928Y-11.2854
X15.9453Y-6.7638
X15.9469Y-10.3862
X15.9508Y-5.5579
X15.9681Y-11.4102
X15.9709Y-8.2886
X15.9752Y-12.7705
X15.9921Y-11.2094
X16.0177Y-5.6862
X16.0181Y-5.137
X16.0181Y-5.9402
X16.0228Y-5.2362
X16.026Y-5.4339
X16.0272Y-8.1323
X16.039Y-3.6622
X16.0453Y-6.0846
X16.0453Y-6.9902
X16.0484Y-4.0354
X16.0512Y-11.287
X16.0539Y-6.635
X16.0657Y-11.4902
X16.0685Y-6.3693
X16.0774Y-5.4862
X16.0795Y-8.1846
X16.1457Y-6.7913
X16.1538Y-6.6587
X16.1539Y-7.9598
X16.1705Y-7.1154
X16.1772Y-5.2098
X16.2157Y-11.6299
X16.2157Y-12.161
X16.2161Y-10.913
X16.2193Y-10.2598
X16.2303Y-7.0579
X16.2312Y-6.0252
X16.2469Y-7.9602
X16.2555Y-6.2331
X16.2559Y-6.9583
X16.2669Y-10.3831
X16.2685Y-6.1409
X16.2772Y-10.785
X16.2778Y-9.1843
X16.2992Y-3.9331
X16.3181Y-6.7882
X16.3657Y-4.6854
X16.3673Y-5.213
X16.3756Y-12.9748
X16.3772Y-9.0102
X16.3811Y-7.9831
X16.3933Y-6.163
X16.4016Y-11.5669
X16.4193Y-10.7839
X16.4248Y-3.711
X16.4669Y-5.1362
X16.4669Y-6.085
X16.5127Y-3.7358
X16.5508Y-5.0854
X16.5538Y-7.2083
X16.5673Y-6.4343
X16.5685Y-5.4898
X16.5685Y-6.0839
X16.5689Y-5.8654
X16.628Y-7.0854
X16.6425Y-6.3622
X16.6433Y-6.1567
X16.698Y-4.0319
X16.7437Y-6.9886
X16.8039Y-6.5839
X16.8043Y-6.7339
T4
X14.4768Y-8.2854
X15.2732Y-8.6339
X15.3768Y-8.1854
T5
X4.4291Y-9.6685
X4.4291Y-10.0685
X4.4299Y-5.2535
X4.4299Y-5.5028
X4.4299Y-5.6299
X4.4299Y-5.7567
X4.4303Y-5.1256
X4.4303Y-5.3783
X4.4303Y-5.8803
X4.4303Y-6.0071
X4.4303Y-6.1307
X4.4303Y-6.2571
X4.4307Y-5.0012
X4.4311Y-4.6252
X4.4311Y-4.7504
X4.4311Y-4.878
X4.4311Y-6.3827
X4.4315Y-6.5063
X4.4315Y-6.6307
X4.4323Y-6.7575
X4.4327Y-6.8843
X4.4327Y-7.0087
X4.5531Y-9.6685
X4.5531Y-10.0685
X4.7102Y-8.9382
X4.8299Y-5.2535
X4.8299Y-5.5028
X4.8299Y-5.6299
X4.8299Y-5.7567
X4.8303Y-5.1256
X4.8303Y-5.3783
X4.8303Y-5.8803
X4.8303Y-6.0071
X4.8303Y-6.1307
X4.8303Y-6.2571
X4.8307Y-5.0012
X4.8311Y-4.6252
X4.8311Y-4.7504
X4.8311Y-4.878
X4.8311Y-6.3827
X4.8315Y-6.5063
X4.8315Y-6.6307
X4.8323Y-6.7575
X4.8327Y-6.8843
X4.8327Y-7.0087
X4.8728Y-3.026
X4.8728Y-3.426
X4.9024Y-11.8461
X4.9059Y-13.0303
X4.9992Y-3.026
X4.9992Y-3.426
X5.1098Y-8.2642
X5.1098Y-8.6642
X5.1102Y-8.9382
X5.126Y-3.026
X5.126Y-3.426
X5.2075Y-9.135
X5.252Y-3.026
X5.252Y-3.426
X5.3024Y-11.8461
X5.3059Y-13.0303
X5.3768Y-3.026
X5.3768Y-3.426
X5.4039Y-13.0256
X5.4059Y-11.8465
X5.4618Y-7.3335
X5.502Y-3.026
X5.502Y-3.426
X5.6075Y-9.135
X5.6248Y-3.026
X5.6248Y-3.426
X5.75Y-3.026
X5.75Y-3.426
X5.8039Y-13.0256
X5.8059Y-11.8465
X5.8618Y-7.3335
X5.876Y-3.026
X5.876Y-3.426
X5.9016Y-13.0197
X5.9067Y-11.8469
X6.0008Y-3.026
X6.0008Y-3.426
X6.1079Y-8.2346
X6.1106Y-8.035
X6.113Y-8.4094
X6.1606Y-8.9346
X6.3016Y-13.0197
X6.3067Y-11.8469
X6.4031Y-11.8469
X6.4051Y-13.0189
X6.5016Y-8.2346
X6.5067Y-8.4094
X6.5106Y-8.035
X6.5606Y-8.9346
X6.7598Y-8.9358
X6.7618Y-7.6331
X6.8031Y-11.8469
X6.8051Y-13.0189
X6.9335Y-5.8138
X6.9335Y-6.2075
X6.9587Y-10.9374
X6.9614Y-6.8386
X6.9614Y-7.2386
X6.9646Y-12.3413
X7.102Y-5.9339
X7.1039Y-4.6831
X7.1094Y-7.1843
X7.1598Y-8.9358
X7.1618Y-7.6331
X7.3118Y-7.8331
X7.3118Y-8.2268
X7.3587Y-10.9374
X7.3646Y-12.3413
X7.4626Y-11.339
X7.502Y-5.9339
X7.5039Y-4.6831
X7.5094Y-7.1843
X7.7134Y-10.2134
X7.7449Y-4.2858
X7.7449Y-4.6858
X7.813Y-4.9587
X7.8626Y-11.339
X8.0654Y-12.3417
X8.0677Y-11.339
X8.1134Y-10.2134
X8.213Y-4.9587
X8.3606Y-5.2831
X8.3606Y-5.6831
X8.3642Y-6.239
X8.3642Y-6.6327
X8.4654Y-12.3417
X8.4677Y-11.339
X8.5134Y-6.1327
X8.5134Y-6.5327
X8.5583Y-3.839
X8.5583Y-4.239
X8.5866Y-12.3354
X8.6654Y-9.2732
X8.6654Y-9.6732
X8.7063Y-3.839
X8.7063Y-4.239
X8.8583Y-3.8394
X8.8583Y-4.2394
X8.9866Y-12.3354
X9.0059Y-3.839
X9.0059Y-4.239
X9.0417Y-4.4358
X9.1114Y-11.337
X9.1134Y-4.7358
X9.1551Y-3.839
X9.1551Y-4.239
X9.3063Y-3.839
X9.3063Y-4.239
X9.4354Y-4.4358
X9.4594Y-3.8386
X9.4594Y-4.2386
X9.5114Y-11.337
X9.5134Y-4.7358
X9.6098Y-3.8386
X9.6098Y-4.2386
X9.7598Y-3.8386
X9.7598Y-4.2386
X9.8992Y-8.2122
X9.8992Y-8.3606
X9.9098Y-3.8386
X9.9098Y-4.2386
X9.9165Y-4.4386
X10.0598Y-3.8386
X10.0598Y-4.2386
X10.0705Y-8.8354
X10.211Y-3.8386
X10.211Y-4.2386
X10.2929Y-8.2122
X10.2929Y-8.3606
X10.3154Y-12.6366
X10.3154Y-13.0303
X10.3165Y-4.4386
X10.3165Y-10.4854
X10.3591Y-3.8386
X10.3591Y-4.2386
X10.4157Y-9.6382
X10.4157Y-10.2382
X10.4417Y-9.161
X10.4705Y-8.8354
X10.4705Y-12.1878
X10.5098Y-3.8386
X10.5098Y-4.2386
X10.615Y-12.7358
X10.615Y-13.1358
X10.6587Y-3.8386
X10.6587Y-4.2386
X10.6638Y-5.3433
X10.6638Y-5.737
X10.6646Y-6.4138
X10.6646Y-6.8138
X10.6902Y-11.3354
X10.6902Y-11.7354
X10.7154Y-12.7362
X10.7154Y-13.1362
X10.7157Y-9.6382
X10.7157Y-10.2382
X10.7165Y-10.4854
X10.7618Y-4.9429
X10.7618Y-5.3366
X10.7657Y-6.3094
X10.7657Y-6.7094
X10.8091Y-4.6374
X10.8118Y-3.8386
X10.8118Y-4.2386
X10.8146Y-12.7362
X10.8146Y-13.1299
X10.8224Y-6.9335
X10.8354Y-9.161
X10.8425Y-11.3354
X10.8425Y-11.7291
X10.8705Y-12.1878
X10.9209Y-6.2354
X10.922Y-5.5346
X10.9579Y-3.8386
X10.9579Y-4.2386
X10.9626Y-12.7366
X10.9626Y-13.1303
X10.9724Y-11.3358
X10.9724Y-11.7295
X11.0209Y-7.337
X11.1138Y-6.2354
X11.115Y-5.5346
X11.1189Y-12.2154
X11.1189Y-12.6091
X11.2091Y-4.6374
X11.2224Y-6.9335
X11.263Y-3.8894
X11.263Y-4.2894
X11.315Y-5.237
X11.315Y-5.637
X11.3154Y-4.7425
X11.3154Y-5.1425
X11.3161Y-5.8409
X11.3161Y-6.2409
X11.3173Y-6.4394
X11.3173Y-6.8394
X11.3654Y-3.8894
X11.3654Y-4.2894
X11.4157Y-5.2362
X11.4157Y-5.6362
X11.4165Y-4.6378
X11.4165Y-5.0315
X11.4185Y-5.7291
X11.4185Y-6.1291
X11.4209Y-7.337
X11.4598Y-3.8894
X11.4598Y-4.2831
X11.4921Y-6.5335
X11.4925Y-6.685
X11.563Y-3.6461
X11.563Y-4.0398
X11.5634Y-4.8378
X11.6622Y-3.5413
X11.6622Y-3.935
X11.6638Y-4.2346
X11.7622Y-3.5413
X11.7622Y-3.935
X11.7638Y-4.2346
X11.7705Y-12.3382
X11.7705Y-12.7382
X11.7949Y-10.7614
X11.8638Y-4.2346
X11.8646Y-8.8862
X11.8921Y-6.5335
X11.8925Y-6.685
X11.9634Y-4.8378
X12.013Y-3.8902
X12.013Y-4.2902
X12.0154Y-5.0843
X12.0154Y-5.478
X12.0197Y-6.1421
X12.0197Y-6.5358
X12.1142Y-5.0843
X12.1142Y-5.478
X12.1669Y-4.0409
X12.1709Y-7.1398
X12.1949Y-10.7614
X12.222Y-4.9874
X12.222Y-5.087
X12.2406Y-11.3902
X12.2406Y-11.7902
X12.2413Y-12.0886
X12.2413Y-12.4823
X12.2646Y-8.8862
X12.2681Y-6.2843
X12.2681Y-6.3843
X12.2681Y-6.4843
X12.2681Y-6.5843
X12.2681Y-6.6843
X12.2681Y-6.7843
X12.2681Y-6.8843
X12.2681Y-6.9843
X12.2693Y-5.785
X12.2693Y-5.8854
X12.2693Y-5.9854
X12.2693Y-6.085
X12.3189Y-8.0902
X12.3189Y-8.4839
X12.3197Y-5.685
X12.4173Y-12.1705
X12.4173Y-12.5642
X12.4843Y-9.9862
X12.4843Y-10.3862
X12.5669Y-4.0409
X12.5681Y-6.2843
X12.5681Y-6.3843
X12.5681Y-6.4843
X12.5681Y-6.5843
X12.5681Y-6.6843
X12.5681Y-6.7843
X12.5681Y-6.8843
X12.5681Y-6.9843
X12.5709Y-7.1398
X12.6157Y-4.9874
X12.6157Y-5.087
X12.663Y-5.785
X12.663Y-5.8854
X12.663Y-5.9854
X12.663Y-6.085
X12.7177Y-4.088
X12.7177Y-4.188
X12.7177Y-4.288
X12.7177Y-4.388
X12.7177Y-4.488
X12.7177Y-4.588
X12.7177Y-4.688
X12.7177Y-4.788
X12.7177Y-4.888
X12.7177Y-4.988
X12.7177Y-5.088
X12.7177Y-5.188
X12.7197Y-5.685
X12.7244Y-5.3866
X12.8472Y-11.1394
X12.848Y-9.511
X13.0177Y-4.088
X13.0177Y-4.188
X13.0177Y-4.288
X13.0177Y-4.388
X13.0177Y-4.488
X13.0177Y-4.588
X13.0177Y-4.688
X13.0177Y-4.788
X13.0177Y-4.888
X13.0177Y-4.988
X13.0177Y-5.088
X13.0177Y-5.188
X13.0705Y-7.1874
X13.1106Y-4.1409
X13.1161Y-3.5972
X13.1161Y-3.9909
X13.1244Y-5.3866
X13.1752Y-2.9843
X13.1752Y-3.2843
X13.2138Y-5.3866
X13.215Y-3.5972
X13.215Y-3.9909
X13.2472Y-11.1394
X13.248Y-9.511
X13.2752Y-2.9843
X13.2752Y-3.2843
X13.315Y-3.5972
X13.315Y-3.9909
X13.3752Y-2.9843
X13.3752Y-3.2843
X13.4134Y-3.5972
X13.4134Y-3.9909
X13.4209Y-12.7898
X13.4209Y-13.0898
X13.4705Y-7.1874
X13.472Y-9.5126
X13.4752Y-2.9843
X13.4752Y-3.2843
X13.476Y-11.1382
X13.5106Y-4.1409
X13.5909Y-12.437
X13.6138Y-5.3866
X13.7138Y-4.1402
X13.872Y-9.5126
X13.876Y-11.1382
X13.8961Y-6.035
X13.8961Y-6.435
X13.9909Y-12.437
X14.0209Y-12.7898
X14.0209Y-13.0898
X14.0945Y-11.1366
X14.1Y-12.0882
X14.102Y-10.787
X14.1138Y-4.1402
X14.3709Y-4.1409
X14.426Y-7.1858
X14.4496Y-5.4358
X14.4945Y-11.1366
X14.5Y-12.0882
X14.502Y-10.787
X14.6744Y-11.139
X14.6752Y-9.5094
X14.6791Y-12.0913
X14.7709Y-4.1409
X14.826Y-7.1858
X14.8496Y-5.4358
X14.8638Y-4.5417
X14.8638Y-4.9354
X14.8693Y-3.9386
X14.8693Y-4.3386
X14.963Y-4.4374
X14.963Y-4.8311
X15.026Y-7.1791
X15.026Y-7.5791
X15.063Y-4.4374
X15.063Y-4.8311
X15.0744Y-11.139
X15.0752Y-9.5094
X15.0791Y-12.0913
X15.16Y-3.5945
X15.16Y-3.9882
X15.165Y-4.4374
X15.165Y-4.8311
X15.1677Y-4.1862
X15.218Y-7.183
X15.218Y-7.783
X15.2677Y-4.1862
X15.2681Y-4.5417
X15.2681Y-4.9354
X15.3673Y-4.5417
X15.3673Y-4.9354
X15.3677Y-4.1862
X15.4244Y-10.1161
X15.4244Y-10.5098
X15.4256Y-6.3874
X15.4256Y-6.7874
X15.4681Y-4.4366
X15.4681Y-4.8303
X15.518Y-7.183
X15.518Y-7.783
X15.5315Y-5.885
X15.5315Y-5.9848
X15.5315Y-6.0837
X15.5315Y-6.185
X15.5413Y-3.5921
X15.5413Y-3.9921
X15.5689Y-4.4366
X15.5689Y-4.8303
X15.6528Y-8.9106
X15.6528Y-9.0098
X15.6528Y-9.1094
X15.6539Y-10.6114
X15.6539Y-10.711
X15.6673Y-3.5445
X15.6673Y-3.9382
X15.6701Y-4.4366
X15.6701Y-4.8303
X15.7256Y-7.1831
X15.7256Y-7.7831
X15.7264Y-8.1835
X15.7264Y-8.5835
X15.7291Y-10.1862
X15.7291Y-10.4862
X15.7295Y-10.0343
X15.7299Y-10.3354
X15.7646Y-4.4366
X15.7646Y-4.8303
X15.7937Y-3.4878
X15.7937Y-3.8878
X15.9252Y-5.885
X15.9252Y-5.9848
X15.9252Y-6.0837
X15.9252Y-6.185
X15.9697Y-3.9413
X15.9697Y-4.335
X15.9728Y-4.4398
X15.9728Y-4.8335
X15.9768Y-6.4843
X15.9768Y-6.878
X16.0256Y-7.1831
X16.0256Y-7.7831
X16.0465Y-8.9106
X16.0465Y-9.0098
X16.0465Y-9.1094
X16.0476Y-10.6114
X16.0476Y-10.711
X16.0709Y-3.4421
X16.0709Y-3.8358
X16.1031Y-6.4906
X16.1031Y-6.8843
X16.1122Y-12.2949
X16.1122Y-12.4197
X16.1252Y-4.4398
X16.1252Y-4.8335
X16.1256Y-12.1693
X16.1291Y-10.1862
X16.1291Y-10.4862
X16.1295Y-10.0343
X16.1299Y-10.3354
X16.1724Y-3.9417
X16.1724Y-4.3354
X16.178Y-7.7854
X16.1843Y-11.7189
X16.226Y-11.9692
X16.272Y-3.4409
X16.272Y-3.8346
X16.2732Y-5.1366
X16.276Y-4.4398
X16.276Y-4.8335
X16.326Y-11.9692
X16.372Y-3.9406
X16.372Y-4.3343
X16.4248Y-4.4398
X16.4248Y-4.8335
X16.426Y-11.9692
X16.4276Y-6.2339
X16.472Y-3.4409
X16.472Y-3.8346
X16.5059Y-12.2949
X16.5059Y-12.4197
X16.5256Y-12.1693
X16.5724Y-3.9406
X16.5724Y-4.3343
X16.5748Y-4.4398
X16.5748Y-4.8335
X16.578Y-7.7854
X16.578Y-11.7189
X16.6732Y-5.1366
X16.7268Y-4.4398
X16.7268Y-4.8335
X16.8276Y-6.2339
T6
X4.3508Y-3.524
X4.3508Y-3.624
X4.3508Y-3.724
X4.3508Y-3.824
X4.3508Y-3.924
X4.3508Y-4.024
X4.3508Y-4.124
X4.3508Y-4.224
X4.3508Y-4.324
X4.3508Y-4.424
X4.3508Y-4.528
X4.3508Y-4.628
X4.3508Y-4.728
X4.3508Y-4.828
X4.3508Y-4.928
X4.3508Y-5.028
X4.3508Y-5.128
X4.3508Y-5.228
X4.3524Y-5.4303
X4.3524Y-5.5303
X4.3524Y-5.6303
X4.3524Y-5.7303
X4.3524Y-5.8303
X4.3524Y-5.9303
X4.3524Y-6.0303
X4.3524Y-6.1303
X4.3547Y-6.3331
X4.3547Y-6.4331
X4.3547Y-6.5331
X4.3547Y-6.6331
X4.3547Y-6.7331
X4.3547Y-6.8331
X4.3547Y-6.9331
X4.3547Y-7.0331
X4.4075Y-9.187
X4.4075Y-9.287
X4.4075Y-9.387
X4.4551Y-8.5882
X4.4551Y-8.6882
X4.4551Y-8.7882
X4.5128Y-13.0616
X4.5555Y-9.1866
X4.5555Y-9.2866
X4.5555Y-9.3866
X4.5843Y-8.2116
X4.5843Y-8.3116
X4.7096Y-13.0616
X4.8083Y-9.0846
X4.8083Y-9.1846
X4.8083Y-9.2846
X4.8083Y-9.3846
X4.8083Y-9.4846
X4.8083Y-9.5846
X4.8083Y-9.6846
X4.8083Y-9.7846
X4.8083Y-9.8846
X4.8083Y-9.9846
X4.8852Y-10.4675
X5.0091Y-8.1864
X5.0091Y-8.2864
X5.0091Y-8.3864
X5.0094Y-12.05
X5.0094Y-12.15
X5.0094Y-12.25
X5.0094Y-12.35
X5.0094Y-12.45
X5.0094Y-12.55
X5.0094Y-12.65
X5.0094Y-12.75
X5.0094Y-12.85
X5.0098Y-10.739
X5.0098Y-10.839
X5.0098Y-10.939
X5.0098Y-11.039
X5.0098Y-11.139
X5.0098Y-11.239
X5.0098Y-11.339
X5.0098Y-11.439
X5.0098Y-11.539
X5.0098Y-11.639
X5.0821Y-10.4675
X5.1083Y-9.0846
X5.1083Y-9.1846
X5.1083Y-9.2846
X5.1083Y-9.3846
X5.1083Y-9.4846
X5.1083Y-9.5846
X5.1083Y-9.6846
X5.1083Y-9.7846
X5.1083Y-9.8846
X5.1083Y-9.9846
X5.2567Y-7.4835
X5.2567Y-7.5835
X5.2567Y-7.6835
X5.2567Y-7.7835
X5.2567Y-7.8835
X5.2567Y-7.9835
X5.2567Y-8.0835
X5.2567Y-8.1835
X5.2567Y-8.2835
X5.2567Y-8.3835
X5.2567Y-8.4835
X5.2567Y-8.5835
X5.2567Y-8.6835
X5.2567Y-8.7835
X5.3094Y-12.05
X5.3094Y-12.15
X5.3094Y-12.25
X5.3094Y-12.35
X5.3094Y-12.45
X5.3094Y-12.55
X5.3094Y-12.65
X5.3094Y-12.75
X5.3094Y-12.85
X5.3098Y-9.285
X5.3098Y-9.385
X5.3098Y-9.485
X5.3098Y-9.585
X5.3098Y-9.685
X5.3098Y-9.785
X5.3098Y-9.885
X5.3098Y-9.985
X5.3098Y-10.739
X5.3098Y-10.839
X5.3098Y-10.939
X5.3098Y-11.039
X5.3098Y-11.139
X5.3098Y-11.239
X5.3098Y-11.339
X5.3098Y-11.439
X5.3098Y-11.539
X5.3098Y-11.639
X5.5067Y-10.739
X5.5067Y-10.839
X5.5067Y-10.939
X5.5067Y-11.039
X5.5067Y-11.139
X5.5067Y-11.239
X5.5067Y-11.339
X5.5067Y-11.439
X5.5067Y-11.539
X5.5067Y-11.639
X5.5087Y-12.0465
X5.5087Y-12.1465
X5.5087Y-12.2465
X5.5087Y-12.3465
X5.5087Y-12.4465
X5.5087Y-12.5465
X5.5087Y-12.6465
X5.5087Y-12.7465
X5.5087Y-12.8465
X5.6098Y-9.285
X5.6098Y-9.385
X5.6098Y-9.485
X5.6098Y-9.585
X5.6098Y-9.685
X5.6098Y-9.785
X5.6098Y-9.885
X5.6098Y-9.985
X5.7553Y-10.386
X5.8067Y-10.739
X5.8067Y-10.839
X5.8067Y-10.939
X5.8067Y-11.039
X5.8067Y-11.139
X5.8067Y-11.239
X5.8067Y-11.339
X5.8067Y-11.439
X5.8067Y-11.539
X5.8067Y-11.639
X5.8087Y-9.3854
X5.8087Y-9.4854
X5.8087Y-9.5854
X5.8087Y-9.6854
X5.8087Y-9.7854
X5.8087Y-9.8854
X5.8087Y-9.9854
X5.8087Y-12.0465
X5.8087Y-12.1465
X5.8087Y-12.2465
X5.8087Y-12.3465
X5.8087Y-12.4465
X5.8087Y-12.5465
X5.8087Y-12.6465
X5.8087Y-12.7465
X5.8087Y-12.8465
X5.8567Y-7.4835
X5.8567Y-7.5835
X5.8567Y-7.6835
X5.8567Y-7.7835
X5.8567Y-7.8835
X5.8567Y-7.9835
X5.8567Y-8.0835
X5.8567Y-8.1835
X5.8567Y-8.2835
X5.8567Y-8.3835
X5.8567Y-8.4835
X5.8567Y-8.5835
X5.8567Y-8.6835
X5.8567Y-8.7835
X5.9522Y-10.386
X6.0039Y-10.7382
X6.0039Y-10.8382
X6.0039Y-10.9382
X6.0039Y-11.0382
X6.0039Y-11.1382
X6.0039Y-11.2382
X6.0039Y-11.3382
X6.0039Y-11.4382
X6.0039Y-11.5382
X6.0039Y-11.6382
X6.0067Y-12.0453
X6.0067Y-12.1453
X6.0067Y-12.2453
X6.0067Y-12.3453
X6.0067Y-12.4453
X6.0067Y-12.5453
X6.0067Y-12.6453
X6.0067Y-12.7453
X6.0067Y-12.8453
X6.1087Y-9.3854
X6.1087Y-9.4854
X6.1087Y-9.5854
X6.1087Y-9.6854
X6.1087Y-9.7854
X6.1087Y-9.8854
X6.1087Y-9.9854
X6.2079Y-13.2252
X6.2594Y-9.0854
X6.2594Y-9.1854
X6.2594Y-9.2854
X6.2594Y-9.3854
X6.2594Y-9.4854
X6.2594Y-9.5854
X6.2594Y-9.6854
X6.2594Y-9.7854
X6.2594Y-9.8854
X6.2594Y-9.9854
X6.302Y-3.0307
X6.302Y-3.2276
X6.3039Y-10.7382
X6.3039Y-10.8382
X6.3039Y-10.9382
X6.3039Y-11.0382
X6.3039Y-11.1382
X6.3039Y-11.2382
X6.3039Y-11.3382
X6.3039Y-11.4382
X6.3039Y-11.5382
X6.3039Y-11.6382
X6.3067Y-12.0453
X6.3067Y-12.1453
X6.3067Y-12.2453
X6.3067Y-12.3453
X6.3067Y-12.4453
X6.3067Y-12.5453
X6.3067Y-12.6453
X6.3067Y-12.7453
X6.3067Y-12.8453
X6.4047Y-13.2252
X6.5102Y-12.0429
X6.5102Y-12.1429
X6.5102Y-12.2429
X6.5102Y-12.3429
X6.5102Y-12.4429
X6.5102Y-12.5429
X6.5102Y-12.6429
X6.5102Y-12.7429
X6.5102Y-12.8429
X6.5114Y-10.7386
X6.5114Y-10.8386
X6.5114Y-10.9386
X6.5114Y-11.0386
X6.5114Y-11.1386
X6.5114Y-11.2386
X6.5114Y-11.3386
X6.5114Y-11.4386
X6.5114Y-11.5386
X6.5114Y-11.6386
X6.5594Y-9.0854
X6.5594Y-9.1854
X6.5594Y-9.2854
X6.5594Y-9.3854
X6.5594Y-9.4854
X6.5594Y-9.5854
X6.5594Y-9.6854
X6.5594Y-9.7854
X6.5594Y-9.8854
X6.5594Y-9.9854
X6.71Y-7.3144
X6.71Y-7.5112
X6.8102Y-12.0429
X6.8102Y-12.1429
X6.8102Y-12.2429
X6.8102Y-12.3429
X6.8102Y-12.4429
X6.8102Y-12.5429
X6.8102Y-12.6429
X6.8102Y-12.7429
X6.8102Y-12.8429
X6.8114Y-10.7386
X6.8114Y-10.8386
X6.8114Y-10.9386
X6.8114Y-11.0386
X6.8114Y-11.1386
X6.8114Y-11.2386
X6.8114Y-11.3386
X6.8114Y-11.4386
X6.8114Y-11.5386
X6.8114Y-11.6386
X6.861Y-7.833
X6.861Y-7.933
X6.861Y-8.033
X6.861Y-8.133
X6.861Y-8.233
X6.861Y-8.333
X6.861Y-8.433
X6.861Y-8.533
X6.861Y-8.633
X6.861Y-8.733
X6.8618Y-9.0854
X6.8618Y-9.1854
X6.8618Y-9.2854
X6.8618Y-9.3854
X6.8618Y-9.4854
X6.8618Y-9.5854
X6.8618Y-9.6854
X6.8618Y-9.7854
X6.8618Y-9.8854
X6.8618Y-9.9854
X7.0362Y-12.0169
X7.0587Y-12.5421
X7.0587Y-12.6421
X7.0587Y-12.7421
X7.0587Y-12.8421
X7.0587Y-12.9421
X7.0587Y-13.0421
X7.0587Y-13.1421
X7.0587Y-13.2421
X7.0606Y-11.0898
X7.0606Y-11.1898
X7.0606Y-11.2898
X7.0606Y-11.3898
X7.0606Y-11.4898
X7.0606Y-11.5898
X7.0606Y-11.6898
X7.0606Y-11.7898
X7.1067Y-4.8835
X7.1067Y-4.9835
X7.1067Y-5.0835
X7.1067Y-5.1835
X7.1067Y-5.2835
X7.1067Y-5.3835
X7.1067Y-5.4835
X7.1067Y-5.5835
X7.1067Y-5.6835
X7.1067Y-5.7835
X7.1079Y-3.6339
X7.1079Y-3.7339
X7.1079Y-3.8339
X7.1079Y-3.9339
X7.1079Y-4.0339
X7.1079Y-4.1339
X7.1079Y-4.2339
X7.1079Y-4.3339
X7.1079Y-4.4339
X7.1079Y-4.5339
X7.1087Y-6.135
X7.1087Y-6.235
X7.1087Y-6.335
X7.1087Y-6.435
X7.1087Y-6.535
X7.1087Y-6.635
X7.1087Y-6.735
X7.1087Y-6.835
X7.1087Y-6.935
X7.1087Y-7.035
X7.161Y-7.833
X7.161Y-7.933
X7.161Y-8.033
X7.161Y-8.133
X7.161Y-8.233
X7.161Y-8.333
X7.161Y-8.433
X7.161Y-8.533
X7.161Y-8.633
X7.161Y-8.733
X7.1618Y-9.0854
X7.1618Y-9.1854
X7.1618Y-9.2854
X7.1618Y-9.3854
X7.1618Y-9.4854
X7.1618Y-9.5854
X7.1618Y-9.6854
X7.1618Y-9.7854
X7.1618Y-9.8854
X7.1618Y-9.9854
X7.2331Y-12.0169
X7.3039Y-3.0343
X7.3039Y-3.2311
X7.3587Y-12.5421
X7.3587Y-12.6421
X7.3587Y-12.7421
X7.3587Y-12.8421
X7.3587Y-12.9421
X7.3587Y-13.0421
X7.3587Y-13.1421
X7.3587Y-13.2421
X7.3606Y-11.0898
X7.3606Y-11.1898
X7.3606Y-11.2898
X7.3606Y-11.3898
X7.3606Y-11.4898
X7.3606Y-11.5898
X7.3606Y-11.6898
X7.3606Y-11.7898
X7.4067Y-4.8835
X7.4067Y-4.9835
X7.4067Y-5.0835
X7.4067Y-5.1835
X7.4067Y-5.2835
X7.4067Y-5.3835
X7.4067Y-5.4835
X7.4067Y-5.5835
X7.4067Y-5.6835
X7.4067Y-5.7835
X7.4079Y-3.6339
X7.4079Y-3.7339
X7.4079Y-3.8339
X7.4079Y-3.9339
X7.4079Y-4.0339
X7.4079Y-4.1339
X7.4079Y-4.2339
X7.4079Y-4.3339
X7.4079Y-4.4339
X7.4079Y-4.5339
X7.4087Y-6.135
X7.4087Y-6.235
X7.4087Y-6.335
X7.4087Y-6.435
X7.4087Y-6.535
X7.4087Y-6.635
X7.4087Y-6.735
X7.4087Y-6.835
X7.4087Y-6.935
X7.4087Y-7.035
X7.4114Y-8.4366
X7.4114Y-8.5366
X7.4114Y-8.6366
X7.4114Y-8.7366
X7.4114Y-8.8366
X7.4114Y-8.9366
X7.5591Y-12.5433
X7.5591Y-12.6433
X7.5591Y-12.7433
X7.5591Y-12.8433
X7.5591Y-12.9433
X7.5591Y-13.0433
X7.5591Y-13.1433
X7.5626Y-11.4896
X7.5626Y-11.5896
X7.5626Y-11.6896
X7.5626Y-11.7896
X7.5626Y-11.8896
X7.5626Y-11.9896
X7.5626Y-12.0896
X7.6106Y-7.9362
X7.6106Y-8.0362
X7.6106Y-8.1362
X7.6106Y-8.2362
X7.6106Y-8.3362
X7.6106Y-8.4362
X7.6106Y-8.5362
X7.6106Y-8.6362
X7.6106Y-8.7362
X7.6106Y-8.8362
X7.6106Y-8.9362
X7.6106Y-9.0362
X7.6106Y-9.1362
X7.6106Y-9.2362
X7.6106Y-9.3362
X7.6106Y-9.4362
X7.6106Y-9.5362
X7.6106Y-9.6362
X7.6106Y-9.7362
X7.6106Y-9.8362
X7.6146Y-5.1339
X7.6146Y-5.2339
X7.6146Y-5.3339
X7.6146Y-5.4339
X7.6146Y-5.5339
X7.6146Y-5.6339
X7.6146Y-5.7339
X7.6146Y-5.8339
X7.6146Y-5.9339
X7.6146Y-6.0339
X7.6146Y-6.1339
X7.6146Y-6.2339
X7.6146Y-6.3339
X7.6146Y-6.4339
X7.6146Y-6.5339
X7.6146Y-6.6339
X7.6146Y-6.7339
X7.6146Y-6.8339
X7.6146Y-6.9339
X7.6146Y-7.0339
X7.7567Y-4.0579
X7.8591Y-12.5433
X7.8591Y-12.6433
X7.8591Y-12.7433
X7.8591Y-12.8433
X7.8591Y-12.9433
X7.8591Y-13.0433
X7.8591Y-13.1433
X7.8626Y-11.4896
X7.8626Y-11.5896
X7.8626Y-11.6896
X7.8626Y-11.7896
X7.8626Y-11.8896
X7.8626Y-11.9896
X7.8626Y-12.0896
X7.9535Y-4.0579
X8.1606Y-12.5402
X8.1606Y-12.6402
X8.1606Y-12.7402
X8.1606Y-12.8402
X8.1606Y-12.9402
X8.1606Y-13.0402
X8.1606Y-13.1402
X8.163Y-11.4898
X8.163Y-11.5898
X8.163Y-11.6898
X8.163Y-11.7898
X8.163Y-11.8898
X8.163Y-11.9898
X8.163Y-12.0898
X8.2106Y-7.9362
X8.2106Y-8.0362
X8.2106Y-8.1362
X8.2106Y-8.2362
X8.2106Y-8.3362
X8.2106Y-8.4362
X8.2106Y-8.5362
X8.2106Y-8.6362
X8.2106Y-8.7362
X8.2106Y-8.8362
X8.2106Y-8.9362
X8.2106Y-9.0362
X8.2106Y-9.1362
X8.2106Y-9.2362
X8.2106Y-9.3362
X8.2106Y-9.4362
X8.2106Y-9.5362
X8.2106Y-9.6362
X8.2106Y-9.7362
X8.2106Y-9.8362
X8.2146Y-5.1339
X8.2146Y-5.2339
X8.2146Y-5.3339
X8.2146Y-5.4339
X8.2146Y-5.5339
X8.2146Y-5.6339
X8.2146Y-5.7339
X8.2146Y-5.8339
X8.2146Y-5.9339
X8.2146Y-6.0339
X8.2146Y-6.1339
X8.2146Y-6.2339
X8.2146Y-6.3339
X8.2146Y-6.4339
X8.2146Y-6.5339
X8.2146Y-6.6339
X8.2146Y-6.7339
X8.2146Y-6.8339
X8.2146Y-6.9339
X8.2146Y-7.0339
X8.3089Y-4.6344
X8.3089Y-4.8313
X8.4606Y-12.5402
X8.4606Y-12.6402
X8.4606Y-12.7402
X8.4606Y-12.8402
X8.4606Y-12.9402
X8.4606Y-13.0402
X8.4606Y-13.1402
X8.4622Y-4.9835
X8.4622Y-5.0835
X8.4622Y-5.1835
X8.4622Y-5.2835
X8.4622Y-5.3835
X8.4622Y-5.4835
X8.4622Y-5.5835
X8.4622Y-5.6835
X8.463Y-11.4898
X8.463Y-11.5898
X8.463Y-11.6898
X8.463Y-11.7898
X8.463Y-11.8898
X8.463Y-11.9898
X8.463Y-12.0898
X8.5598Y-3.5346
X8.5598Y-3.6315
X8.5598Y-3.7315
X8.6858Y-12.5374
X8.6858Y-12.6374
X8.6858Y-12.7374
X8.6858Y-12.8374
X8.6858Y-12.9374
X8.6858Y-13.0374
X8.6858Y-13.1374
X8.688Y-11.4886
X8.688Y-11.5886
X8.688Y-11.6886
X8.688Y-11.7886
X8.688Y-11.8886
X8.688Y-11.9886
X8.688Y-12.0886
X8.7106Y-3.5346
X8.7106Y-3.6315
X8.7106Y-3.7315
X8.7122Y-5.8846
X8.7122Y-5.9846
X8.7122Y-6.0846
X8.7122Y-6.1846
X8.7122Y-6.2846
X8.7122Y-6.3846
X8.7122Y-6.4846
X8.7122Y-6.5846
X8.7622Y-4.9835
X8.7622Y-5.0835
X8.7622Y-5.1835
X8.7622Y-5.2835
X8.7622Y-5.3835
X8.7622Y-5.4835
X8.7622Y-5.5835
X8.7622Y-5.6835
X8.8567Y-3.5346
X8.8567Y-3.6315
X8.8567Y-3.7315
X8.8917Y-9.3354
X8.8917Y-9.4354
X8.8917Y-9.5354
X8.8917Y-9.6354
X8.8917Y-9.7354
X8.8917Y-9.8354
X8.8917Y-9.9354
X8.8917Y-10.0354
X8.8917Y-10.1354
X8.8917Y-10.2354
X8.8917Y-10.3354
X8.961Y-4.887
X8.961Y-4.987
X8.961Y-5.087
X8.961Y-5.187
X8.961Y-5.287
X8.961Y-5.387
X8.961Y-5.487
X8.961Y-5.587
X8.961Y-5.687
X8.961Y-5.787
X8.961Y-5.887
X8.961Y-5.987
X8.961Y-6.087
X8.961Y-6.187
X8.961Y-6.287
X8.961Y-6.387
X8.961Y-6.487
X8.961Y-6.587
X8.961Y-6.687
X8.961Y-6.787
X8.9858Y-12.5374
X8.9858Y-12.6374
X8.9858Y-12.7374
X8.9858Y-12.8374
X8.9858Y-12.9374
X8.9858Y-13.0374
X8.9858Y-13.1374
X8.988Y-11.4886
X8.988Y-11.5886
X8.988Y-11.6886
X8.988Y-11.7886
X8.988Y-11.8886
X8.988Y-11.9886
X8.988Y-12.0886
X8.9917Y-9.2354
X8.9917Y-9.3354
X8.9917Y-9.4354
X8.9917Y-9.5354
X8.9917Y-9.6354
X8.9917Y-9.7354
X8.9917Y-9.8354
X8.9917Y-9.9354
X8.9917Y-10.0354
X8.9917Y-10.1354
X8.9917Y-10.2354
X8.9917Y-10.3354
X8.9917Y-10.4354
X9.0094Y-3.5346
X9.0094Y-3.6315
X9.0094Y-3.7315
X9.0917Y-9.2354
X9.0917Y-9.3354
X9.0917Y-10.3354
X9.0917Y-10.4354
X9.1567Y-3.5346
X9.1567Y-3.6315
X9.1567Y-3.7315
X9.1917Y-9.2354
X9.1917Y-9.3354
X9.1917Y-10.3354
X9.1917Y-10.4354
X9.2146Y-11.487
X9.2146Y-11.587
X9.2146Y-11.687
X9.2146Y-11.787
X9.2146Y-11.887
X9.2146Y-11.987
X9.2146Y-12.087
X9.2917Y-9.2354
X9.2917Y-9.3354
X9.2917Y-10.3354
X9.2917Y-10.4354
X9.3079Y-3.5346
X9.3079Y-3.6315
X9.3079Y-3.7315
X9.3917Y-9.2354
X9.3917Y-9.3354
X9.3917Y-10.3354
X9.3917Y-10.4354
X9.4587Y-3.5346
X9.4587Y-3.6315
X9.4587Y-3.7315
X9.4917Y-9.2354
X9.4917Y-9.3354
X9.4917Y-10.3354
X9.4917Y-10.4354
X9.5146Y-11.487
X9.5146Y-11.587
X9.5146Y-11.687
X9.5146Y-11.787
X9.5146Y-11.887
X9.5146Y-11.987
X9.5146Y-12.087
X9.5171Y-7.3372
X9.5171Y-7.5341
X9.561Y-4.887
X9.561Y-4.987
X9.561Y-5.087
X9.561Y-5.187
X9.561Y-5.287
X9.561Y-5.387
X9.561Y-5.487
X9.561Y-5.587
X9.561Y-5.687
X9.561Y-5.787
X9.561Y-5.887
X9.561Y-5.987
X9.561Y-6.087
X9.561Y-6.187
X9.561Y-6.287
X9.561Y-6.387
X9.561Y-6.487
X9.561Y-6.587
X9.561Y-6.687
X9.561Y-6.787
X9.5917Y-9.2354
X9.5917Y-9.3354
X9.5917Y-10.3354
X9.5917Y-10.4354
X9.6091Y-3.5346
X9.6091Y-3.6315
X9.6091Y-3.7315
X9.6185Y-8.7087
X9.6917Y-9.2354
X9.6917Y-9.3354
X9.6917Y-10.3354
X9.6917Y-10.4354
X9.7126Y-4.5866
X9.7126Y-4.6866
X9.7126Y-4.7866
X9.7126Y-4.8866
X9.7126Y-4.9866
X9.7126Y-5.0866
X9.7126Y-5.1866
X9.7126Y-5.2866
X9.7126Y-5.3866
X9.7126Y-5.4866
X9.7126Y-5.5866
X9.7126Y-5.6866
X9.7126Y-5.7866
X9.7126Y-5.8866
X9.7126Y-5.9866
X9.7126Y-6.0866
X9.7126Y-6.1866
X9.7126Y-6.2866
X9.7126Y-6.3866
X9.7126Y-6.4866
X9.7126Y-6.5866
X9.7126Y-6.6866
X9.7126Y-6.7866
X9.7126Y-6.8866
X9.7185Y-8.7087
X9.761Y-3.5346
X9.761Y-3.6315
X9.761Y-3.7315
X9.7917Y-9.2354
X9.7917Y-9.3354
X9.7917Y-10.3354
X9.7917Y-10.4354
X9.8185Y-8.7087
X9.8917Y-9.2354
X9.8917Y-9.3354
X9.8917Y-10.3354
X9.8917Y-10.4354
X9.9122Y-3.5346
X9.9122Y-3.6315
X9.9122Y-3.7315
X9.9185Y-8.7087
X9.9654Y-4.887
X9.9654Y-4.987
X9.9654Y-5.087
X9.9654Y-5.187
X9.9654Y-5.287
X9.9654Y-5.387
X9.9654Y-5.487
X9.9654Y-5.587
X9.9654Y-5.687
X9.9654Y-5.787
X9.9654Y-5.887
X9.9654Y-5.987
X9.9654Y-6.087
X9.9654Y-6.187
X9.9654Y-6.287
X9.9654Y-6.387
X9.9654Y-6.487
X9.9654Y-6.587
X9.9654Y-6.687
X9.9654Y-6.787
X9.9917Y-9.2354
X9.9917Y-9.3354
X9.9917Y-9.4354
X9.9917Y-9.5354
X9.9917Y-9.6354
X9.9917Y-9.7354
X9.9917Y-9.8354
X9.9917Y-9.9354
X9.9917Y-10.0354
X9.9917Y-10.1354
X9.9917Y-10.2354
X9.9917Y-10.3354
X9.9917Y-10.4354
X10.0185Y-8.7087
X10.0215Y-12.9713
X10.0598Y-3.5346
X10.0598Y-3.6315
X10.0598Y-3.7315
X10.0917Y-9.3354
X10.0917Y-9.4354
X10.0917Y-9.5354
X10.0917Y-9.6354
X10.0917Y-9.7354
X10.0917Y-9.8354
X10.0917Y-9.9354
X10.0917Y-10.0354
X10.0917Y-10.1354
X10.0917Y-10.2354
X10.0917Y-10.3354
X10.1185Y-8.7087
X10.1215Y-12.9713
X10.1661Y-12.1858
X10.2098Y-3.5346
X10.2098Y-3.6315
X10.2098Y-3.7315
X10.3126Y-4.5866
X10.3126Y-4.6866
X10.3126Y-4.7866
X10.3126Y-4.8866
X10.3126Y-4.9866
X10.3126Y-5.0866
X10.3126Y-5.1866
X10.3126Y-5.2866
X10.3126Y-5.3866
X10.3126Y-5.4866
X10.3126Y-5.5866
X10.3126Y-5.6866
X10.3126Y-5.7866
X10.3126Y-5.8866
X10.3126Y-5.9866
X10.3126Y-6.0866
X10.3126Y-6.1866
X10.3126Y-6.2866
X10.3126Y-6.3866
X10.3126Y-6.4866
X10.3126Y-6.5866
X10.3126Y-6.6866
X10.3126Y-6.7866
X10.3126Y-6.8866
X10.3583Y-3.5346
X10.3583Y-3.6315
X10.3583Y-3.7315
X10.363Y-12.1858
X10.5083Y-3.5346
X10.5083Y-3.6315
X10.5083Y-3.7315
X10.5654Y-4.887
X10.5654Y-4.987
X10.5654Y-5.087
X10.5654Y-5.187
X10.5654Y-5.287
X10.5654Y-5.387
X10.5654Y-5.487
X10.5654Y-5.587
X10.5654Y-5.687
X10.5654Y-5.787
X10.5654Y-5.887
X10.5654Y-5.987
X10.5654Y-6.087
X10.5654Y-6.187
X10.5654Y-6.287
X10.5654Y-6.387
X10.5654Y-6.487
X10.5654Y-6.587
X10.5654Y-6.687
X10.5654Y-6.787
X10.6575Y-3.5346
X10.6575Y-3.6315
X10.6575Y-3.7315
X10.6644Y-12.4604
X10.8079Y-3.5346
X10.8079Y-3.6315
X10.8079Y-3.7315
X10.8612Y-12.4604
X10.9082Y-4.7884
X10.9082Y-4.8884
X10.9082Y-4.9884
X10.9082Y-5.0884
X10.9082Y-5.1884
X10.9082Y-5.2884
X10.9082Y-5.3884
X10.9583Y-3.5346
X10.9583Y-3.6315
X10.9583Y-3.7315
X11.0179Y-7.4876
X11.0179Y-7.6844
X11.0183Y-7.8321
X11.0183Y-8.0289
X11.1173Y-3.5343
X11.1173Y-3.6311
X11.1173Y-3.7311
X11.2082Y-4.7884
X11.2082Y-4.8884
X11.2082Y-4.9884
X11.2082Y-5.0884
X11.2082Y-5.1884
X11.2082Y-5.2884
X11.2082Y-5.3884
X11.2614Y-3.5346
X11.2614Y-3.6315
X11.2614Y-3.7315
X11.2921Y-9.5366
X11.2921Y-9.6366
X11.2921Y-9.7366
X11.2921Y-9.8366
X11.2921Y-9.9366
X11.2921Y-10.0366
X11.2921Y-10.1366
X11.2921Y-10.2366
X11.2921Y-10.3366
X11.3177Y-12.3862
X11.3177Y-12.4862
X11.3177Y-12.5862
X11.3177Y-12.6862
X11.3177Y-12.7862
X11.3177Y-12.8862
X11.3177Y-12.9862
X11.3177Y-13.0862
X11.3177Y-13.1862
X11.3921Y-9.4366
X11.3921Y-9.5366
X11.3921Y-9.6366
X11.3921Y-9.7366
X11.3921Y-9.8366
X11.3921Y-9.9366
X11.3921Y-10.0366
X11.3921Y-10.1366
X11.3921Y-10.2366
X11.3921Y-10.3366
X11.3921Y-10.4366
X11.4921Y-9.4366
X11.4921Y-9.5366
X11.4921Y-10.3366
X11.4921Y-10.4366
X11.5646Y-4.9872
X11.5646Y-5.0872
X11.5646Y-5.1872
X11.5646Y-5.2872
X11.5646Y-5.3872
X11.5646Y-5.4872
X11.5646Y-5.5872
X11.5665Y-5.7858
X11.5665Y-5.8858
X11.5665Y-5.9858
X11.5665Y-6.0858
X11.5665Y-6.1858
X11.5665Y-6.2858
X11.5665Y-6.3858
X11.5921Y-9.4366
X11.5921Y-9.5366
X11.5921Y-10.3366
X11.5921Y-10.4366
X11.6177Y-12.3862
X11.6177Y-12.4862
X11.6177Y-12.5862
X11.6177Y-12.6862
X11.6177Y-12.7862
X11.6177Y-12.8862
X11.6177Y-12.9862
X11.6177Y-13.0862
X11.6177Y-13.1862
X11.6921Y-9.4366
X11.6921Y-9.5366
X11.6921Y-10.3366
X11.6921Y-10.4366
X11.7673Y-12.8374
X11.7921Y-9.4366
X11.7921Y-9.5366
X11.7921Y-10.3366
X11.7921Y-10.4366
X11.8222Y-11.4116
X11.8646Y-4.9872
X11.8646Y-5.0872
X11.8646Y-5.1872
X11.8646Y-5.2872
X11.8646Y-5.3872
X11.8646Y-5.4872
X11.8646Y-5.5872
X11.8665Y-5.7858
X11.8665Y-5.8858
X11.8665Y-5.9858
X11.8665Y-6.0858
X11.8665Y-6.1858
X11.8665Y-6.2858
X11.8665Y-6.3858
X11.8673Y-12.8374
X11.8921Y-9.4366
X11.8921Y-9.5366
X11.8921Y-10.3366
X11.8921Y-10.4366
X11.9114Y-3.5433
X11.9114Y-3.6402
X11.9114Y-3.7402
X11.9673Y-12.3417
X11.9673Y-12.5386
X11.9921Y-9.4366
X11.9921Y-9.5366
X11.9921Y-10.3366
X11.9921Y-10.4366
X12.0191Y-11.4116
X12.0614Y-3.5433
X12.0614Y-3.6402
X12.0614Y-3.7402
X12.0921Y-9.4366
X12.0921Y-9.5366
X12.0921Y-10.3366
X12.0921Y-10.4366
X12.1921Y-9.4366
X12.1921Y-9.5366
X12.1921Y-9.6366
X12.1921Y-9.7366
X12.1921Y-9.8366
X12.1921Y-9.9366
X12.1921Y-10.0366
X12.1921Y-10.1366
X12.1921Y-10.2366
X12.1921Y-10.3366
X12.1921Y-10.4366
X12.211Y-3.5433
X12.211Y-3.6402
X12.211Y-3.7402
X12.2654Y-4.1886
X12.2654Y-4.2886
X12.2654Y-4.3886
X12.2654Y-4.4886
X12.2654Y-4.5886
X12.2654Y-4.6886
X12.2654Y-4.7886
X12.2921Y-9.5366
X12.2921Y-9.6366
X12.2921Y-9.7366
X12.2921Y-9.8366
X12.2921Y-9.9366
X12.2921Y-10.0366
X12.2921Y-10.1366
X12.2921Y-10.2366
X12.2921Y-10.3366
X12.3598Y-3.5433
X12.3598Y-3.6402
X12.3598Y-3.7402
X12.4181Y-11.289
X12.4181Y-11.389
X12.4181Y-11.489
X12.4181Y-11.589
X12.4181Y-11.689
X12.4181Y-11.789
X12.5114Y-3.5433
X12.5114Y-3.6402
X12.5114Y-3.7402
X12.5654Y-4.1886
X12.5654Y-4.2886
X12.5654Y-4.3886
X12.5654Y-4.4886
X12.5654Y-4.5886
X12.5654Y-4.6886
X12.5654Y-4.7886
X12.644Y-11.289
X12.644Y-11.389
X12.644Y-11.489
X12.644Y-11.589
X12.644Y-11.689
X12.644Y-11.789
X12.644Y-11.889
X12.644Y-11.989
X12.644Y-12.089
X12.644Y-12.189
X12.644Y-12.289
X12.644Y-12.389
X12.644Y-12.489
X12.644Y-12.589
X12.644Y-12.689
X12.644Y-12.789
X12.644Y-12.889
X12.644Y-12.989
X12.644Y-13.089
X12.644Y-13.189
X12.6622Y-3.5433
X12.6622Y-3.6402
X12.6622Y-3.7402
X12.8969Y-8.187
X12.8969Y-8.287
X12.948Y-9.687
X12.948Y-9.787
X12.948Y-9.887
X12.948Y-9.987
X12.948Y-10.087
X12.948Y-10.187
X12.948Y-10.287
X12.948Y-10.387
X12.948Y-10.487
X12.948Y-10.587
X13.068Y-5.735
X13.068Y-5.835
X13.068Y-5.935
X13.068Y-6.035
X13.068Y-6.135
X13.068Y-6.235
X13.068Y-6.335
X13.068Y-6.435
X13.068Y-6.535
X13.068Y-6.635
X13.068Y-6.735
X13.068Y-6.835
X13.068Y-6.935
X13.068Y-7.035
X13.0996Y-8.5874
X13.0996Y-8.6874
X13.2161Y-4.2878
X13.2161Y-4.3878
X13.2161Y-4.4878
X13.2161Y-4.5878
X13.2161Y-4.6878
X13.2161Y-4.7878
X13.2161Y-4.8878
X13.2161Y-4.9878
X13.2161Y-5.0878
X13.2161Y-5.1878
X13.224Y-8.5874
X13.224Y-8.6874
X13.244Y-11.289
X13.244Y-11.389
X13.244Y-11.489
X13.244Y-11.589
X13.244Y-11.689
X13.244Y-11.789
X13.244Y-11.889
X13.244Y-11.989
X13.244Y-12.089
X13.244Y-12.189
X13.244Y-12.289
X13.244Y-12.389
X13.244Y-12.489
X13.244Y-12.589
X13.244Y-12.689
X13.244Y-12.789
X13.244Y-12.889
X13.244Y-12.989
X13.244Y-13.089
X13.244Y-13.189
X13.248Y-9.687
X13.248Y-9.787
X13.248Y-9.887
X13.248Y-9.987
X13.248Y-10.087
X13.248Y-10.187
X13.248Y-10.287
X13.248Y-10.387
X13.248Y-10.487
X13.248Y-10.587
X13.3232Y-8.5874
X13.3232Y-8.6874
X13.4744Y-8.5882
X13.4744Y-8.6882
X13.4744Y-8.7882
X13.5161Y-4.2878
X13.5161Y-4.3878
X13.5161Y-4.4878
X13.5161Y-4.5878
X13.5161Y-4.6878
X13.5161Y-4.7878
X13.5161Y-4.8878
X13.5161Y-4.9878
X13.5161Y-5.0878
X13.5161Y-5.1878
X13.5694Y-11.289
X13.5694Y-11.389
X13.5694Y-11.489
X13.5694Y-11.589
X13.5694Y-11.689
X13.5694Y-11.789
X13.5694Y-11.889
X13.5709Y-9.685
X13.5709Y-9.785
X13.5709Y-9.885
X13.5709Y-9.985
X13.5709Y-10.085
X13.5709Y-10.185
X13.5709Y-10.285
X13.5709Y-10.385
X13.5709Y-10.485
X13.5709Y-10.585
X13.5909Y-3.6894
X13.668Y-5.735
X13.668Y-5.835
X13.668Y-5.935
X13.668Y-6.035
X13.668Y-6.135
X13.668Y-6.235
X13.668Y-6.335
X13.668Y-6.435
X13.668Y-6.535
X13.668Y-6.635
X13.668Y-6.735
X13.668Y-6.835
X13.668Y-6.935
X13.668Y-7.035
X13.6862Y-3.5917
X13.6862Y-3.7886
X13.8138Y-4.2894
X13.8138Y-4.3894
X13.8138Y-4.4894
X13.8138Y-4.5894
X13.8138Y-4.6894
X13.8138Y-4.7894
X13.8138Y-4.8894
X13.8138Y-4.9894
X13.8138Y-5.0894
X13.8138Y-5.1894
X13.8139Y-3.6894
X13.8694Y-11.289
X13.8694Y-11.389
X13.8694Y-11.489
X13.8694Y-11.589
X13.8694Y-11.689
X13.8694Y-11.789
X13.8694Y-11.889
X13.8709Y-9.685
X13.8709Y-9.785
X13.8709Y-9.885
X13.8709Y-9.985
X13.8709Y-10.085
X13.8709Y-10.185
X13.8709Y-10.285
X13.8709Y-10.385
X13.8709Y-10.485
X13.8709Y-10.585
X13.9092Y-3.5917
X13.9092Y-3.7886
X14.0409Y-3.6894
X14.1138Y-4.2894
X14.1138Y-4.3894
X14.1138Y-4.4894
X14.1138Y-4.5894
X14.1138Y-4.6894
X14.1138Y-4.7894
X14.1138Y-4.8894
X14.1138Y-4.9894
X14.1138Y-5.0894
X14.1138Y-5.1894
X14.1362Y-3.5917
X14.1362Y-3.7886
X14.1961Y-12.2413
X14.1961Y-12.3413
X14.1961Y-12.4413
X14.1961Y-12.5413
X14.1961Y-12.6413
X14.1961Y-12.7413
X14.1961Y-12.8413
X14.1965Y-9.8598
X14.1965Y-9.9598
X14.1965Y-10.0598
X14.1965Y-10.1598
X14.1965Y-10.2598
X14.1965Y-10.3598
X14.1965Y-10.4598
X14.1965Y-10.5598
X14.1965Y-11.2886
X14.1965Y-11.3886
X14.1965Y-11.4886
X14.1965Y-11.5886
X14.1965Y-11.6886
X14.1965Y-11.7886
X14.1965Y-11.8886
X14.2679Y-3.6894
X14.3632Y-3.5917
X14.3632Y-3.6917
X14.3632Y-3.7886
X14.4177Y-4.2874
X14.4177Y-4.3874
X14.4177Y-4.4874
X14.4177Y-4.5874
X14.4177Y-4.6874
X14.4177Y-4.7874
X14.4177Y-4.8874
X14.4177Y-4.9874
X14.4177Y-5.0874
X14.4177Y-5.1874
X14.4949Y-3.6894
X14.4961Y-12.2413
X14.4961Y-12.3413
X14.4961Y-12.4413
X14.4961Y-12.5413
X14.4961Y-12.6413
X14.4961Y-12.7413
X14.4961Y-12.8413
X14.4965Y-9.8598
X14.4965Y-9.9598
X14.4965Y-10.0598
X14.4965Y-10.1598
X14.4965Y-10.2598
X14.4965Y-10.3598
X14.4965Y-10.4598
X14.4965Y-10.5598
X14.4965Y-11.2886
X14.4965Y-11.3886
X14.4965Y-11.4886
X14.4965Y-11.5886
X14.4965Y-11.6886
X14.4965Y-11.7886
X14.4965Y-11.8886
X14.5902Y-3.5917
X14.5902Y-3.6917
X14.5902Y-3.7886
X14.7177Y-4.2874
X14.7177Y-4.3874
X14.7177Y-4.4874
X14.7177Y-4.5874
X14.7177Y-4.6874
X14.7177Y-4.7874
X14.7177Y-4.8874
X14.7177Y-4.9874
X14.7177Y-5.0874
X14.7177Y-5.1874
X14.7179Y-3.6894
X14.7732Y-11.2886
X14.7732Y-11.3886
X14.7732Y-11.4886
X14.7732Y-11.5886
X14.7732Y-11.6886
X14.7732Y-11.7886
X14.7732Y-11.8886
X14.7732Y-12.2421
X14.7732Y-12.3421
X14.7732Y-12.4421
X14.7732Y-12.5421
X14.7732Y-12.6421
X14.7732Y-12.7421
X14.7732Y-12.8421
X14.7748Y-9.659
X14.7748Y-9.759
X14.7748Y-9.859
X14.7748Y-9.959
X14.7748Y-10.059
X14.7748Y-10.159
X14.7748Y-10.259
X14.7748Y-10.359
X14.7748Y-10.459
X14.7748Y-10.559
X14.8132Y-3.5917
X14.8132Y-3.7886
X14.9429Y-3.6894
X15.0382Y-3.5917
X15.0382Y-3.7886
X15.0732Y-11.2886
X15.0732Y-11.3886
X15.0732Y-11.4886
X15.0732Y-11.5886
X15.0732Y-11.6886
X15.0732Y-11.7886
X15.0732Y-11.8886
X15.0732Y-12.2421
X15.0732Y-12.3421
X15.0732Y-12.4421
X15.0732Y-12.5421
X15.0732Y-12.6421
X15.0732Y-12.7421
X15.0732Y-12.8421
X15.0748Y-9.659
X15.0748Y-9.759
X15.0748Y-9.859
X15.0748Y-9.959
X15.0748Y-10.059
X15.0748Y-10.159
X15.0748Y-10.259
X15.0748Y-10.359
X15.0748Y-10.459
X15.0748Y-10.559
X15.2724Y-3.6874
X15.3228Y-10.0039
X15.3228Y-10.5039
X15.3677Y-3.5898
X15.3677Y-3.6898
X15.3677Y-3.7866
X15.372Y-12.2433
X15.372Y-12.3433
X15.372Y-12.4433
X15.372Y-12.5433
X15.372Y-12.6433
X15.372Y-12.7433
X15.372Y-12.8433
X15.372Y-12.9433
X15.372Y-13.0433
X15.372Y-13.1433
X15.3744Y-11.289
X15.3744Y-11.389
X15.3744Y-11.489
X15.3744Y-11.589
X15.3744Y-11.689
X15.3744Y-11.789
X15.5217Y-5.0606
X15.5217Y-5.1606
X15.5217Y-5.2606
X15.5217Y-5.3606
X15.5217Y-5.4606
X15.5217Y-5.5606
X15.5217Y-5.6606
X15.5217Y-5.7606
X15.6965Y-12.9209
X15.6965Y-13.0209
X15.6965Y-13.1209
X15.726Y-9.7866
X15.8039Y-9.3341
X15.8039Y-9.585
X15.8217Y-5.0606
X15.8217Y-5.1606
X15.8217Y-5.2606
X15.8217Y-5.3606
X15.8217Y-5.4606
X15.8217Y-5.5606
X15.8217Y-5.6606
X15.8217Y-5.7606
X15.826Y-9.7866
X15.8737Y-3.9412
X15.8737Y-4.4412
X15.9031Y-9.2388
X15.9031Y-9.4898
X15.9764Y-12.9744
X16.0008Y-9.3341
X16.0008Y-9.585
X16.0248Y-4.9854
X16.0283Y-9.7839
X16.1248Y-4.9854
X16.1283Y-9.7839
X16.178Y-5.3846
X16.178Y-5.4846
X16.178Y-5.5846
X16.178Y-5.6846
X16.178Y-5.7846
X16.178Y-5.8846
X16.178Y-5.9846
X16.178Y-6.0846
X16.2248Y-4.9854
X16.2333Y-11.4152
X16.278Y-12.9744
X16.2852Y-8.6608
X16.3248Y-4.9854
X16.3563Y-10.5118
X16.374Y-6.434
X16.374Y-6.534
X16.374Y-6.634
X16.374Y-6.734
X16.374Y-6.834
X16.374Y-6.934
X16.374Y-7.034
X16.374Y-7.134
X16.374Y-7.234
X16.3772Y-5.285
X16.3772Y-5.385
X16.3772Y-5.485
X16.3772Y-5.585
X16.3772Y-5.685
X16.3772Y-5.785
X16.3772Y-5.885
X16.3772Y-5.985
X16.3772Y-6.085
X16.4248Y-4.9854
X16.4301Y-11.4152
X16.4516Y-10.4142
X16.4516Y-10.611
X16.4821Y-8.6608
X16.5248Y-4.9854
X16.6248Y-4.9854
X16.674Y-6.434
X16.674Y-6.534
X16.674Y-6.634
X16.674Y-6.734
X16.674Y-6.834
X16.674Y-6.934
X16.674Y-7.034
X16.674Y-7.134
X16.674Y-7.234
X16.6772Y-5.285
X16.6772Y-5.385
X16.6772Y-5.485
X16.6772Y-5.585
X16.6772Y-5.685
X16.6772Y-5.785
X16.6772Y-5.885
X16.6772Y-5.985
X16.6772Y-6.085
X16.7248Y-4.9854
X16.7996Y-4.111
X16.7996Y-4.3078
X16.822Y-5.1874
X16.822Y-5.2874
X16.822Y-5.3874
X16.822Y-5.4874
X16.822Y-5.5874
X16.822Y-5.6874
X16.822Y-5.7874
X16.822Y-5.8874
X16.822Y-5.9874
X16.822Y-6.0874
T7
X4.9417Y-3.8512
X4.9417Y-3.9512
X4.9417Y-4.0512
X4.9417Y-4.1512
X4.9417Y-4.2512
X4.9417Y-4.3512
X4.9417Y-4.4512
X4.9417Y-4.5512
X4.9417Y-4.6512
X4.9417Y-4.7512
X4.9417Y-4.8512
X4.9417Y-4.9512
X4.9417Y-5.0512
X4.9417Y-5.1512
X4.9417Y-5.2512
X4.9417Y-5.3512
X4.9417Y-5.4512
X4.9417Y-5.5512
X4.9417Y-5.6512
X4.9417Y-5.7512
X4.9417Y-5.8512
X4.9417Y-5.9512
X4.9417Y-6.0512
X4.9417Y-6.1512
X4.9417Y-6.2512
X4.9417Y-6.3512
X4.9417Y-6.4512
X4.9417Y-6.5512
X4.9417Y-6.6512
X4.9417Y-6.7512
X4.9417Y-6.8512
X5.1437Y-3.8512
X5.1437Y-3.9512
X5.1437Y-4.0512
X5.1437Y-4.1512
X5.1437Y-4.2512
X5.1437Y-4.3512
X5.1437Y-4.4512
X5.1437Y-4.5512
X5.1437Y-4.6512
X5.1437Y-4.7512
X5.1437Y-4.8512
X5.1437Y-4.9512
X5.1437Y-5.0512
X5.1437Y-5.1512
X5.1437Y-5.2512
X5.1437Y-5.3512
X5.1437Y-5.4512
X5.1437Y-5.5512
X5.1437Y-5.6512
X5.1437Y-5.7512
X5.1437Y-5.8512
X5.1437Y-5.9512
X5.1437Y-6.0512
X5.1437Y-6.1512
X5.1437Y-6.2512
X5.1437Y-6.3512
X5.1437Y-6.4512
X5.1437Y-6.5512
X5.1437Y-6.6512
X5.1437Y-6.7512
X5.1437Y-6.8512
X5.7417Y-3.8543
X5.7417Y-3.9543
X5.7417Y-4.0543
X5.7417Y-4.1543
X5.7417Y-4.2543
X5.7417Y-4.3543
X5.7417Y-4.4543
X5.7417Y-4.5543
X5.7417Y-4.6543
X5.7417Y-4.7543
X5.7417Y-4.8543
X5.7417Y-4.9543
X5.7417Y-5.0543
X5.7417Y-5.1543
X5.7417Y-5.2543
X5.7417Y-5.3543
X5.7417Y-5.4543
X5.7417Y-5.5543
X5.7417Y-5.6543
X5.7417Y-5.7543
X5.7417Y-5.8543
X5.7417Y-5.9543
X5.7417Y-6.0543
X5.7417Y-6.1543
X5.7417Y-6.2543
X5.7417Y-6.3543
X5.7417Y-6.4543
X5.7417Y-6.5543
X5.7417Y-6.6543
X5.7417Y-6.7543
X5.7417Y-6.8543
X5.9437Y-3.8543
X5.9437Y-3.9543
X5.9437Y-4.0543
X5.9437Y-4.1543
X5.9437Y-4.2543
X5.9437Y-4.3543
X5.9437Y-4.4543
X5.9437Y-4.5543
X5.9437Y-4.6543
X5.9437Y-4.7543
X5.9437Y-4.8543
X5.9437Y-4.9543
X5.9437Y-5.0543
X5.9437Y-5.1543
X5.9437Y-5.2543
X5.9437Y-5.3543
X5.9437Y-5.4543
X5.9437Y-5.5543
X5.9437Y-5.6543
X5.9437Y-5.7543
X5.9437Y-5.8543
X5.9437Y-5.9543
X5.9437Y-6.0543
X5.9437Y-6.1543
X5.9437Y-6.2543
X5.9437Y-6.3543
X5.9437Y-6.4543
X5.9437Y-6.5543
X5.9437Y-6.6543
X5.9437Y-6.7543
X5.9437Y-6.8543
X6.5429Y-3.8563
X6.5429Y-3.9563
X6.5429Y-4.0563
X6.5429Y-4.1563
X6.5429Y-4.2563
X6.5429Y-4.3563
X6.5429Y-4.4563
X6.5429Y-4.5563
X6.5429Y-4.6563
X6.5429Y-4.7563
X6.5429Y-4.8563
X6.5429Y-4.9563
X6.5429Y-5.0563
X6.5429Y-5.1563
X6.5429Y-5.2563
X6.5429Y-5.3563
X6.5429Y-5.4563
X6.5429Y-5.5563
X6.5429Y-5.6563
X6.5429Y-5.7563
X6.5429Y-5.8563
X6.5429Y-5.9563
X6.5429Y-6.0563
X6.5429Y-6.1563
X6.5429Y-6.2563
X6.5429Y-6.3563
X6.5429Y-6.4563
X6.5429Y-6.5563
X6.5429Y-6.6563
X6.5429Y-6.7563
X6.5429Y-6.8563
X6.7449Y-3.8563
X6.7449Y-3.9563
X6.7449Y-4.0563
X6.7449Y-4.1563
X6.7449Y-4.2563
X6.7449Y-4.3563
X6.7449Y-4.4563
X6.7449Y-4.5563
X6.7449Y-4.6563
X6.7449Y-4.7563
X6.7449Y-4.8563
X6.7449Y-4.9563
X6.7449Y-5.0563
X6.7449Y-5.1563
X6.7449Y-5.2563
X6.7449Y-5.3563
X6.7449Y-5.4563
X6.7449Y-5.5563
X6.7449Y-5.6563
X6.7449Y-5.7563
X6.7449Y-5.8563
X6.7449Y-5.9563
X6.7449Y-6.0563
X6.7449Y-6.1563
X6.7449Y-6.2563
X6.7449Y-6.3563
X6.7449Y-6.4563
X6.7449Y-6.5563
X6.7449Y-6.6563
X6.7449Y-6.7563
X6.7449Y-6.8563
X13.4768Y-8.1854
X13.4768Y-8.2854
X13.5768Y-8.1854
X13.5768Y-8.2854
X13.6768Y-8.1854
X13.6768Y-8.2854
X13.7732Y-8.6339
X13.7732Y-8.7339
X13.7768Y-8.1854
X13.7768Y-8.2854
X13.8732Y-8.6339
X13.8732Y-8.7339
X13.8768Y-8.1854
X13.8768Y-8.2854
X13.9732Y-8.6339
X13.9732Y-8.7339
X13.9768Y-8.1854
X13.9768Y-8.2854
X14.0732Y-8.6339
X14.0732Y-8.7339
X14.0768Y-8.1854
X14.0768Y-8.2854
X14.1732Y-8.6339
X14.1732Y-8.7339
X14.1768Y-8.1854
X14.1768Y-8.2854
X14.2732Y-8.6339
X14.2732Y-8.7339
X14.2768Y-8.1854
X14.2768Y-8.2854
X14.3732Y-8.6339
X14.3732Y-8.7339
X14.3768Y-8.1854
X14.3768Y-8.2854
X14.4732Y-8.6339
X14.4732Y-8.7339
X14.4768Y-8.1854
X14.5732Y-8.6339
X14.5732Y-8.7339
X14.5768Y-8.1854
X14.5768Y-8.2854
X14.6732Y-8.6339
X14.6732Y-8.7339
X14.6768Y-8.1854
X14.6768Y-8.2854
X14.7732Y-8.6339
X14.7732Y-8.7339
X14.7768Y-8.1854
X14.7768Y-8.2854
X14.8732Y-8.6339
X14.8732Y-8.7339
X14.8768Y-8.1854
X14.8768Y-8.2854
X14.9732Y-8.6339
X14.9732Y-8.7339
X14.9768Y-8.1854
X14.9768Y-8.2854
X15.0732Y-8.6339
X15.0732Y-8.7339
X15.0768Y-8.1854
X15.0768Y-8.2854
X15.1732Y-8.6339
X15.1732Y-8.7339
X15.1768Y-8.1854
X15.1768Y-8.2854
X15.2732Y-8.7339
X15.2768Y-8.1854
X15.2768Y-8.2854
X15.3732Y-8.6339
X15.3732Y-8.7339
X15.3768Y-8.2854
X16.2835Y-8.2122
X16.3799Y-8.2122
X16.4768Y-8.2122
T8
X7.7571Y-3.7874
X7.8571Y-3.7874
X7.9539Y-3.7874
X9.0128Y-3.2039
X9.0693Y-3.1043
X9.1219Y-3.2039
X9.1783Y-3.1043
X9.2309Y-3.2039
X9.2874Y-3.1043
X9.34Y-3.2039
X9.3965Y-3.1043
X9.449Y-3.2039
X9.5055Y-3.1043
X9.5581Y-3.2039
X9.6146Y-3.1043
X9.6671Y-3.2039
X9.7236Y-3.1043
X9.7762Y-3.2039
X9.8327Y-3.1043
X9.8852Y-3.2039
X9.9417Y-3.1043
X9.9943Y-3.2039
X10.0508Y-3.1043
X10.1033Y-3.2039
X10.1598Y-3.1043
X10.2124Y-3.2039
X10.2689Y-3.1043
X10.3215Y-3.2039
X11.3179Y-3.214
X11.3717Y-3.103
X11.427Y-3.214
X11.4807Y-3.103
X11.5361Y-3.214
X11.5898Y-3.103
X11.6451Y-3.214
X11.6989Y-3.103
X11.7542Y-3.214
X11.8079Y-3.103
X11.8632Y-3.214
X11.917Y-3.103
X11.9723Y-3.214
X12.026Y-3.103
X12.0813Y-3.214
X12.1351Y-3.103
X12.1904Y-3.214
X12.2441Y-3.103
X12.2994Y-3.214
X12.3532Y-3.103
X12.4085Y-3.214
X12.4622Y-3.103
X12.5176Y-3.214
X12.5713Y-3.103
X12.6266Y-3.214
X14.0591Y-3.2071
X14.1106Y-3.1075
X14.1681Y-3.2071
X14.2197Y-3.1075
X14.2772Y-3.2071
X14.3287Y-3.1075
X14.3862Y-3.2071
X14.4378Y-3.1075
X14.4953Y-3.2071
X16.0654Y-3.2079
X16.1199Y-3.0961
X16.1539Y-8.2583
X16.1744Y-3.2079
X16.2289Y-3.0961
X16.2835Y-3.2079
X16.338Y-3.0961
X16.3925Y-3.2079
X16.4055Y-9.6803
X16.4071Y-10.0736
X16.447Y-3.0961
X16.5016Y-3.2079
X16.5035Y-10.1732
X16.5039Y-9.5807
X16.5059Y-9.8783
X16.5992Y-8.1232
X16.7969Y-9.8772
X16.8972Y-9.6803
X16.8972Y-9.7776
X16.8972Y-9.9748
X16.8972Y-10.072
T9
X9.9657Y-13.2374
X10.3646Y-13.2374
T10
X10.1709Y-12.4713
T11
X10.6118Y-7.189
X10.6118Y-7.3339
X10.6118Y-7.4894
X10.6118Y-7.6441
X10.6118Y-7.8008
X10.6118Y-8.115
T12
X10.0925Y-7.2831
X10.0929Y-7.5339
X10.0929Y-7.785
X10.3413Y-7.2831
X10.3413Y-7.5339
X10.3433Y-7.785
T13
X9.2787Y-9.6374
X9.6909Y-10.0358
X11.5953Y-10.1354
X11.5957Y-9.7358
X11.9941Y-9.7358
X11.9949Y-10.1358
T14
X15.1169Y-3.1736
X15.2622Y-3.0157
X15.4122Y-3.1736
T15
X8.3606Y-3.5598
X13.7819Y-3.1606
X14.7685Y-3.1614
X15.7862Y-3.1579
X16.7193Y-3.7571
X16.7276Y-7.5823
X16.7748Y-3.1583
T16
X4.5012Y-12.6378
X4.6413Y-7.5882
X7.8571Y-3.085
X8.3618Y-7.5846
X8.7419Y-3.1602
X10.5963Y-3.1602
X11.0431Y-3.1703
X12.8975Y-3.1703
T17
X16.7236Y-12.6346
X16.728Y-9.2933
X16.7291Y-10.4768
T18
X4.6449Y-3.1587
T19
X9.4094Y-12.622
T0
M30
