%TF.GenerationSoftware,KiCad,Pcbnew,8.0.0*%
%TF.CreationDate,2024-03-10T17:08:53+00:00*%
%TF.ProjectId,Commodore PC10 III,436f6d6d-6f64-46f7-9265-205043313020,1.0*%
%TF.SameCoordinates,Original*%
%TF.FileFunction,Paste,Top*%
%TF.FilePolarity,Positive*%
%FSLAX46Y46*%
G04 Gerber Fmt 4.6, Leading zero omitted, Abs format (unit mm)*
G04 Created by KiCad (PCBNEW 8.0.0) date 2024-03-10 17:08:53*
%MOMM*%
%LPD*%
G01*
G04 APERTURE LIST*
G04 Aperture macros list*
%AMRoundRect*
0 Rectangle with rounded corners*
0 $1 Rounding radius*
0 $2 $3 $4 $5 $6 $7 $8 $9 X,Y pos of 4 corners*
0 Add a 4 corners polygon primitive as box body*
4,1,4,$2,$3,$4,$5,$6,$7,$8,$9,$2,$3,0*
0 Add four circle primitives for the rounded corners*
1,1,$1+$1,$2,$3*
1,1,$1+$1,$4,$5*
1,1,$1+$1,$6,$7*
1,1,$1+$1,$8,$9*
0 Add four rect primitives between the rounded corners*
20,1,$1+$1,$2,$3,$4,$5,0*
20,1,$1+$1,$4,$5,$6,$7,0*
20,1,$1+$1,$6,$7,$8,$9,0*
20,1,$1+$1,$8,$9,$2,$3,0*%
G04 Aperture macros list end*
%ADD10O,1.600000X1.600000*%
%ADD11RoundRect,0.100000X1.512500X0.100000X-1.512500X0.100000X-1.512500X-0.100000X1.512500X-0.100000X0*%
%ADD12RoundRect,0.100000X-0.100000X1.512500X-0.100000X-1.512500X0.100000X-1.512500X0.100000X1.512500X0*%
G04 APERTURE END LIST*
D10*
%TO.C,*%
X401960000Y-165370000D03*
%TD*%
%TO.C,*%
X401960000Y-163420000D03*
%TD*%
D11*
%TO.C,U601*%
X381440000Y-168540000D03*
X381440000Y-167890000D03*
X381440000Y-167240000D03*
X381440000Y-166590000D03*
X381440000Y-165940000D03*
X381440000Y-165290000D03*
X381440000Y-164640000D03*
X381440000Y-163990000D03*
X381440000Y-163340000D03*
X381440000Y-162690000D03*
X381440000Y-162040000D03*
X381440000Y-161390000D03*
X381440000Y-160740000D03*
X381440000Y-160090000D03*
X381440000Y-159440000D03*
X381440000Y-158790000D03*
X381440000Y-158140000D03*
X381440000Y-157490000D03*
X381440000Y-156840000D03*
X381440000Y-156190000D03*
X381440000Y-155540000D03*
X381440000Y-154890000D03*
X381440000Y-154240000D03*
X381440000Y-153590000D03*
X381440000Y-152940000D03*
X381440000Y-152290000D03*
X381440000Y-151640000D03*
X381440000Y-150990000D03*
X381440000Y-150340000D03*
X381440000Y-149690000D03*
D12*
X378710000Y-147340000D03*
X378060000Y-147340000D03*
X377410000Y-147340000D03*
X376760000Y-147340000D03*
X376110000Y-147340000D03*
X375460000Y-147340000D03*
X374810000Y-147340000D03*
X374160000Y-147340000D03*
X373510000Y-147340000D03*
X372860000Y-147340000D03*
X372210000Y-147340000D03*
X371560000Y-147340000D03*
X370910000Y-147340000D03*
X370260000Y-147340000D03*
X369610000Y-147340000D03*
X368960000Y-147340000D03*
X368310000Y-147340000D03*
X367660000Y-147340000D03*
X367010000Y-147340000D03*
X366360000Y-147340000D03*
D11*
X363810000Y-149690000D03*
X363810000Y-150340000D03*
X363810000Y-150990000D03*
X363810000Y-151640000D03*
X363810000Y-152290000D03*
X363810000Y-152940000D03*
X363810000Y-153590000D03*
X363810000Y-154240000D03*
X363810000Y-154890000D03*
X363810000Y-155540000D03*
X363810000Y-156190000D03*
X363810000Y-156840000D03*
X363810000Y-157490000D03*
X363810000Y-158140000D03*
X363810000Y-158790000D03*
X363810000Y-159440000D03*
X363810000Y-160090000D03*
X363810000Y-160740000D03*
X363810000Y-161390000D03*
X363810000Y-162040000D03*
X363810000Y-162690000D03*
X363810000Y-163340000D03*
X363810000Y-163990000D03*
X363810000Y-164640000D03*
X363810000Y-165290000D03*
X363810000Y-165940000D03*
X363810000Y-166590000D03*
X363810000Y-167240000D03*
X363810000Y-167890000D03*
X363810000Y-168540000D03*
D12*
X366360000Y-171110000D03*
X367010000Y-171110000D03*
X367660000Y-171110000D03*
X368310000Y-171110000D03*
X368960000Y-171110000D03*
X369610000Y-171110000D03*
X370260000Y-171110000D03*
X370910000Y-171110000D03*
X371560000Y-171110000D03*
X372210000Y-171110000D03*
X372860000Y-171110000D03*
X373510000Y-171110000D03*
X374160000Y-171110000D03*
X374810000Y-171110000D03*
X375460000Y-171110000D03*
X376110000Y-171110000D03*
X376760000Y-171110000D03*
X377410000Y-171110000D03*
X378060000Y-171110000D03*
X378710000Y-171110000D03*
%TD*%
M02*
