%TF.GenerationSoftware,KiCad,Pcbnew,7.0.6*%
%TF.CreationDate,2023-08-29T14:49:30+01:00*%
%TF.ProjectId,Commodore PC10 III,436f6d6d-6f64-46f7-9265-205043313020,rev?*%
%TF.SameCoordinates,Original*%
%TF.FileFunction,Soldermask,Top*%
%TF.FilePolarity,Negative*%
%FSLAX46Y46*%
G04 Gerber Fmt 4.6, Leading zero omitted, Abs format (unit mm)*
G04 Created by KiCad (PCBNEW 7.0.6) date 2023-08-29 14:49:30*
%MOMM*%
%LPD*%
G01*
G04 APERTURE LIST*
G04 Aperture macros list*
%AMRoundRect*
0 Rectangle with rounded corners*
0 $1 Rounding radius*
0 $2 $3 $4 $5 $6 $7 $8 $9 X,Y pos of 4 corners*
0 Add a 4 corners polygon primitive as box body*
4,1,4,$2,$3,$4,$5,$6,$7,$8,$9,$2,$3,0*
0 Add four circle primitives for the rounded corners*
1,1,$1+$1,$2,$3*
1,1,$1+$1,$4,$5*
1,1,$1+$1,$6,$7*
1,1,$1+$1,$8,$9*
0 Add four rect primitives between the rounded corners*
20,1,$1+$1,$2,$3,$4,$5,0*
20,1,$1+$1,$4,$5,$6,$7,0*
20,1,$1+$1,$6,$7,$8,$9,0*
20,1,$1+$1,$8,$9,$2,$3,0*%
G04 Aperture macros list end*
%ADD10C,0.150000*%
%ADD11C,1.600000*%
%ADD12O,1.600000X1.600000*%
%ADD13R,1.600000X1.600000*%
%ADD14C,1.700000*%
%ADD15O,1.700000X1.700000*%
%ADD16C,2.000000*%
%ADD17C,5.500000*%
%ADD18R,2.000000X2.000000*%
%ADD19O,2.000000X2.000000*%
%ADD20O,2.500000X2.500000*%
%ADD21C,1.500000*%
%ADD22C,5.000000*%
%ADD23R,1.800000X1.800000*%
%ADD24C,1.800000*%
%ADD25C,1.200000*%
%ADD26R,1.700000X1.700000*%
%ADD27C,3.500000*%
%ADD28C,5.200000*%
%ADD29C,1.400000*%
%ADD30R,1.500000X1.500000*%
%ADD31C,2.500000*%
%ADD32C,4.500000*%
%ADD33C,3.000000*%
%ADD34RoundRect,0.100000X1.512500X0.100000X-1.512500X0.100000X-1.512500X-0.100000X1.512500X-0.100000X0*%
%ADD35RoundRect,0.100000X-0.100000X1.512500X-0.100000X-1.512500X0.100000X-1.512500X0.100000X1.512500X0*%
G04 APERTURE END LIST*
D10*
X397170000Y-179970000D02*
X401850000Y-179970000D01*
X401850000Y-180560000D01*
X397170000Y-180560000D01*
X397170000Y-179970000D01*
G36*
X397170000Y-179970000D02*
G01*
X401850000Y-179970000D01*
X401850000Y-180560000D01*
X397170000Y-180560000D01*
X397170000Y-179970000D01*
G37*
X274880000Y-143790000D02*
X284840000Y-143790000D01*
X284840000Y-155870000D01*
X274880000Y-155870000D01*
X274880000Y-143790000D01*
G36*
X274880000Y-143790000D02*
G01*
X284840000Y-143790000D01*
X284840000Y-155870000D01*
X274880000Y-155870000D01*
X274880000Y-143790000D01*
G37*
X262270000Y-242360000D02*
X274450000Y-242360000D01*
X274450000Y-262480000D01*
X262270000Y-262480000D01*
X262270000Y-242360000D01*
G36*
X262270000Y-242360000D02*
G01*
X274450000Y-242360000D01*
X274450000Y-262480000D01*
X262270000Y-262480000D01*
X262270000Y-242360000D01*
G37*
X384260000Y-183825000D02*
X387920000Y-183825000D01*
X387920000Y-200155000D01*
X384260000Y-200155000D01*
X384260000Y-183825000D01*
G36*
X384260000Y-183825000D02*
G01*
X387920000Y-183825000D01*
X387920000Y-200155000D01*
X384260000Y-200155000D01*
X384260000Y-183825000D01*
G37*
X338420000Y-322530000D02*
X358590000Y-322530000D01*
X358590000Y-334770000D01*
X338420000Y-334770000D01*
X338420000Y-322530000D01*
G36*
X338420000Y-322530000D02*
G01*
X358590000Y-322530000D01*
X358590000Y-334770000D01*
X338420000Y-334770000D01*
X338420000Y-322530000D01*
G37*
X387870000Y-181190000D02*
X396430000Y-181190000D01*
X396430000Y-200155000D01*
X387870000Y-200155000D01*
X387870000Y-181190000D01*
G36*
X387870000Y-181190000D02*
G01*
X396430000Y-181190000D01*
X396430000Y-200155000D01*
X387870000Y-200155000D01*
X387870000Y-181190000D01*
G37*
X397170000Y-180560000D02*
X409380000Y-180560000D01*
X409380000Y-200170000D01*
X397170000Y-200170000D01*
X397170000Y-180560000D01*
G36*
X397170000Y-180560000D02*
G01*
X409380000Y-180560000D01*
X409380000Y-200170000D01*
X397170000Y-200170000D01*
X397170000Y-180560000D01*
G37*
X274960000Y-161130000D02*
X284990000Y-161130000D01*
X284990000Y-173620000D01*
X274960000Y-173620000D01*
X274960000Y-161130000D01*
G36*
X274960000Y-161130000D02*
G01*
X284990000Y-161130000D01*
X284990000Y-173620000D01*
X274960000Y-173620000D01*
X274960000Y-161130000D01*
G37*
X297960000Y-327310000D02*
X302350000Y-327310000D01*
X302350000Y-334990000D01*
X297960000Y-334990000D01*
X297960000Y-327310000D01*
G36*
X297960000Y-327310000D02*
G01*
X302350000Y-327310000D01*
X302350000Y-334990000D01*
X297960000Y-334990000D01*
X297960000Y-327310000D01*
G37*
X384270000Y-179970000D02*
X396430000Y-179970000D01*
X396430000Y-181190000D01*
X384270000Y-181190000D01*
X384270000Y-179970000D01*
G36*
X384270000Y-179970000D02*
G01*
X396430000Y-179970000D01*
X396430000Y-181190000D01*
X384270000Y-181190000D01*
X384270000Y-179970000D01*
G37*
D11*
%TO.C,C744*%
X137260000Y-330850000D03*
D12*
X147420000Y-330850000D03*
%TD*%
D11*
%TO.C,R504*%
X397580000Y-226330000D03*
D12*
X407580000Y-226330000D03*
%TD*%
D11*
%TO.C,R690*%
X196720000Y-108860000D03*
D12*
X196720000Y-119020000D03*
%TD*%
D11*
%TO.C,C701*%
X220100000Y-245700000D03*
D12*
X220100000Y-235540000D03*
%TD*%
D11*
%TO.C,R105*%
X409250000Y-312290000D03*
D12*
X419250000Y-312290000D03*
%TD*%
D11*
%TO.C,FB605*%
X418390000Y-97400000D03*
D12*
X418390000Y-87400000D03*
%TD*%
D11*
%TO.C,R605*%
X398020000Y-122690000D03*
D12*
X398020000Y-112690000D03*
%TD*%
D11*
%TO.C,EMI425*%
X282380000Y-94770000D03*
X282380000Y-92230000D03*
X282380000Y-89770000D03*
%TD*%
%TO.C,R402*%
X269620000Y-333650000D03*
D12*
X269620000Y-323490000D03*
%TD*%
D11*
%TO.C,C725*%
X187060000Y-313470000D03*
D12*
X176900000Y-313470000D03*
%TD*%
D11*
%TO.C,C534*%
X112530000Y-136610000D03*
D12*
X122690000Y-136610000D03*
%TD*%
D13*
%TO.C,U109*%
X174290000Y-230770000D03*
D12*
X174290000Y-233310000D03*
X174290000Y-235850000D03*
X174290000Y-238390000D03*
X174290000Y-240930000D03*
X174290000Y-243470000D03*
X174290000Y-246010000D03*
X174290000Y-248550000D03*
X174290000Y-251090000D03*
X174290000Y-253630000D03*
X181910000Y-253630000D03*
X181910000Y-251090000D03*
X181910000Y-248550000D03*
X181910000Y-246010000D03*
X181910000Y-243470000D03*
X181910000Y-240930000D03*
X181910000Y-238390000D03*
X181910000Y-235850000D03*
X181910000Y-233310000D03*
X181910000Y-230770000D03*
%TD*%
D11*
%TO.C,EMI403*%
X270700000Y-94780000D03*
X270700000Y-92240000D03*
X270700000Y-89780000D03*
%TD*%
%TO.C,C412*%
X263120000Y-107660000D03*
D12*
X263120000Y-97500000D03*
%TD*%
D11*
%TO.C,C427*%
X270860000Y-145720000D03*
D12*
X270860000Y-135720000D03*
%TD*%
D11*
%TO.C,R603*%
X385064000Y-91300000D03*
D12*
X385064000Y-101300000D03*
%TD*%
D14*
%TO.C,JMP206*%
X335890000Y-220660000D03*
D15*
X335890000Y-218120000D03*
%TD*%
D11*
%TO.C,R604*%
X395450000Y-122690000D03*
D12*
X395450000Y-112690000D03*
%TD*%
D16*
%TO.C,CN601*%
X419140000Y-81480000D03*
X416370000Y-81480000D03*
X413600000Y-81480000D03*
X410830000Y-81480000D03*
X408060000Y-81480000D03*
X417755000Y-78640000D03*
X414985000Y-78640000D03*
D17*
X426080000Y-80220000D03*
D16*
X412215000Y-78640000D03*
D17*
X400970000Y-80210000D03*
D16*
X409445000Y-78640000D03*
%TD*%
D11*
%TO.C,R601*%
X387810000Y-115360000D03*
D12*
X387810000Y-125360000D03*
%TD*%
D11*
%TO.C,C533*%
X112520000Y-139770000D03*
D12*
X122680000Y-139770000D03*
%TD*%
D11*
%TO.C,C743*%
X124610000Y-330970000D03*
D12*
X134770000Y-330970000D03*
%TD*%
D18*
%TO.C,CN102*%
X419190000Y-258400000D03*
D19*
X419250000Y-250910000D03*
X419200000Y-243350000D03*
X416740000Y-255870000D03*
X416700000Y-245880000D03*
D20*
X426640000Y-250880000D03*
X429190000Y-245880000D03*
X429190000Y-248350000D03*
X429190000Y-253360000D03*
X429190000Y-255830000D03*
%TD*%
D11*
%TO.C,C104*%
X409690000Y-254870000D03*
D12*
X399530000Y-254870000D03*
%TD*%
D11*
%TO.C,C111*%
X216240000Y-155770000D03*
D12*
X216240000Y-165930000D03*
%TD*%
D13*
%TO.C,U111*%
X311540000Y-106390000D03*
D12*
X311540000Y-108930000D03*
X311540000Y-111470000D03*
X311540000Y-114010000D03*
X311540000Y-116550000D03*
X311540000Y-119090000D03*
X311540000Y-121630000D03*
X319160000Y-121630000D03*
X319160000Y-119090000D03*
X319160000Y-116550000D03*
X319160000Y-114010000D03*
X319160000Y-111470000D03*
X319160000Y-108930000D03*
X319160000Y-106390000D03*
%TD*%
D11*
%TO.C,C520*%
X152420000Y-87020000D03*
D12*
X152420000Y-76860000D03*
%TD*%
D11*
%TO.C,C525*%
X112560000Y-165260000D03*
D12*
X122720000Y-165260000D03*
%TD*%
D11*
%TO.C,FB601*%
X165270000Y-213600000D03*
D12*
X155270000Y-213600000D03*
%TD*%
D11*
%TO.C,C723*%
X142430000Y-232030000D03*
D12*
X132270000Y-232030000D03*
%TD*%
D21*
%TO.C,*%
X218740000Y-305140000D03*
%TD*%
D11*
%TO.C,C518*%
X146050000Y-87020000D03*
D12*
X146050000Y-76860000D03*
%TD*%
D11*
%TO.C,C539*%
X112550000Y-120660000D03*
D12*
X122710000Y-120660000D03*
%TD*%
D11*
%TO.C,C604*%
X421000000Y-112770000D03*
D12*
X421000000Y-122770000D03*
%TD*%
D11*
%TO.C,C745*%
X149900000Y-330700000D03*
D12*
X160060000Y-330700000D03*
%TD*%
D11*
%TO.C,C521*%
X112590000Y-178020000D03*
D12*
X122750000Y-178020000D03*
%TD*%
D11*
%TO.C,R202*%
X310910000Y-299470000D03*
D12*
X310910000Y-289310000D03*
%TD*%
D13*
%TO.C,OSC601*%
X407050000Y-197690000D03*
D11*
X407050000Y-182450000D03*
X399430000Y-182450000D03*
X399430000Y-197690000D03*
%TD*%
D13*
%TO.C,U204*%
X344700000Y-246000000D03*
D12*
X344700000Y-248540000D03*
X344700000Y-251080000D03*
X344700000Y-253620000D03*
X344700000Y-256160000D03*
X344700000Y-258700000D03*
X344700000Y-261240000D03*
X344700000Y-263780000D03*
X344700000Y-266320000D03*
X344700000Y-268860000D03*
X352320000Y-268860000D03*
X352320000Y-266320000D03*
X352320000Y-263780000D03*
X352320000Y-261240000D03*
X352320000Y-258700000D03*
X352320000Y-256160000D03*
X352320000Y-253620000D03*
X352320000Y-251080000D03*
X352320000Y-248540000D03*
X352320000Y-246000000D03*
%TD*%
D11*
%TO.C,C519*%
X149250000Y-87020000D03*
D12*
X149250000Y-76860000D03*
%TD*%
D11*
%TO.C,CB407*%
X274550000Y-117790000D03*
D12*
X284710000Y-117790000D03*
%TD*%
D11*
%TO.C,C110*%
X255790000Y-224420000D03*
D12*
X265950000Y-224420000D03*
%TD*%
D11*
%TO.C,C800*%
X228260000Y-313320000D03*
D12*
X218100000Y-313320000D03*
%TD*%
D11*
%TO.C,C507*%
X160070000Y-81980000D03*
X160070000Y-76980000D03*
%TD*%
D13*
%TO.C,U304*%
X122130000Y-230750000D03*
D12*
X122130000Y-233290000D03*
X122130000Y-235830000D03*
X122130000Y-238370000D03*
X122130000Y-240910000D03*
X122130000Y-243450000D03*
X122130000Y-245990000D03*
X122130000Y-248530000D03*
X122130000Y-251070000D03*
X122130000Y-253610000D03*
X129750000Y-253610000D03*
X129750000Y-251070000D03*
X129750000Y-248530000D03*
X129750000Y-245990000D03*
X129750000Y-243450000D03*
X129750000Y-240910000D03*
X129750000Y-238370000D03*
X129750000Y-235830000D03*
X129750000Y-233290000D03*
X129750000Y-230750000D03*
%TD*%
D11*
%TO.C,C415*%
X251710000Y-107660000D03*
D12*
X251710000Y-97500000D03*
%TD*%
D11*
%TO.C,C768*%
X367020000Y-138070000D03*
D12*
X377180000Y-138070000D03*
%TD*%
D11*
%TO.C,R103*%
X397610000Y-272060000D03*
D12*
X407610000Y-272060000D03*
%TD*%
D11*
%TO.C,R108*%
X212360000Y-134190000D03*
D12*
X212360000Y-144350000D03*
%TD*%
D22*
%TO.C,*%
X304650000Y-247290000D03*
%TD*%
D11*
%TO.C,R413*%
X305300000Y-166010000D03*
D12*
X305300000Y-156010000D03*
%TD*%
D21*
%TO.C,XTAL4*%
X282320000Y-140580000D03*
X277420000Y-140580000D03*
%TD*%
D11*
%TO.C,C776*%
X231480000Y-120290000D03*
D12*
X241640000Y-120290000D03*
%TD*%
D13*
%TO.C,U310*%
X139920000Y-305980000D03*
D12*
X139920000Y-308520000D03*
X139920000Y-311060000D03*
X139920000Y-313600000D03*
X139920000Y-316140000D03*
X139920000Y-318680000D03*
X139920000Y-321220000D03*
X139920000Y-323760000D03*
X139920000Y-326300000D03*
X147540000Y-326300000D03*
X147540000Y-323760000D03*
X147540000Y-321220000D03*
X147540000Y-318680000D03*
X147540000Y-316140000D03*
X147540000Y-313600000D03*
X147540000Y-311060000D03*
X147540000Y-308520000D03*
X147540000Y-305980000D03*
%TD*%
D11*
%TO.C,R109*%
X185720000Y-198960000D03*
D12*
X185720000Y-208960000D03*
%TD*%
D11*
%TO.C,CB608*%
X333360000Y-136820000D03*
D12*
X323200000Y-136820000D03*
%TD*%
D11*
%TO.C,C202*%
X271530000Y-287920000D03*
D12*
X271530000Y-298080000D03*
%TD*%
D11*
%TO.C,FB606*%
X420940000Y-110090000D03*
D12*
X420940000Y-100090000D03*
%TD*%
D11*
%TO.C,R645*%
X403191600Y-112806200D03*
D12*
X403191600Y-100106200D03*
%TD*%
D11*
%TO.C,C535*%
X112520000Y-133440000D03*
D12*
X122680000Y-133440000D03*
%TD*%
D11*
%TO.C,C761*%
X291910000Y-169800000D03*
D12*
X302070000Y-169800000D03*
%TD*%
D17*
%TO.C,*%
X117980000Y-80230000D03*
%TD*%
D11*
%TO.C,R407*%
X290030000Y-145520000D03*
D12*
X290030000Y-155680000D03*
%TD*%
D11*
%TO.C,C524*%
X112560000Y-168420000D03*
D12*
X122720000Y-168420000D03*
%TD*%
D11*
%TO.C,R626*%
X321640000Y-146940000D03*
D12*
X311640000Y-146940000D03*
%TD*%
D11*
%TO.C,EMI408*%
X251770000Y-94780000D03*
X251770000Y-92240000D03*
X251770000Y-89780000D03*
%TD*%
%TO.C,C770*%
X331990000Y-182560000D03*
D12*
X342150000Y-182560000D03*
%TD*%
D13*
%TO.C,RP502*%
X110510000Y-115010000D03*
D12*
X110510000Y-117550000D03*
X110510000Y-120090000D03*
X110510000Y-122630000D03*
X110510000Y-125170000D03*
X110510000Y-127710000D03*
X110510000Y-130250000D03*
X110510000Y-132790000D03*
%TD*%
D11*
%TO.C,C543*%
X258220000Y-309520000D03*
X263220000Y-309520000D03*
%TD*%
D21*
%TO.C,*%
X216850000Y-305130000D03*
%TD*%
D11*
%TO.C,R206*%
X275400000Y-287920000D03*
D12*
X275400000Y-297920000D03*
%TD*%
D11*
%TO.C,R204*%
X397580000Y-228850000D03*
D12*
X407580000Y-228850000D03*
%TD*%
D13*
%TO.C,U104*%
X188160000Y-115160000D03*
D12*
X188160000Y-112620000D03*
X188160000Y-110080000D03*
X188160000Y-107540000D03*
X188160000Y-105000000D03*
X188160000Y-102460000D03*
X188160000Y-99920000D03*
X188160000Y-97380000D03*
X188160000Y-94840000D03*
X188160000Y-92300000D03*
X180540000Y-92300000D03*
X180540000Y-94840000D03*
X180540000Y-97380000D03*
X180540000Y-99920000D03*
X180540000Y-102460000D03*
X180540000Y-105000000D03*
X180540000Y-107540000D03*
X180540000Y-110080000D03*
X180540000Y-112620000D03*
X180540000Y-115160000D03*
%TD*%
D13*
%TO.C,RP604*%
X427278800Y-131760000D03*
D12*
X427278800Y-134300000D03*
X427278800Y-136840000D03*
X427278800Y-139380000D03*
X427278800Y-141920000D03*
X427278800Y-144460000D03*
X427278800Y-147000000D03*
X427278800Y-149540000D03*
X427278800Y-152080000D03*
X427278800Y-154620000D03*
%TD*%
D11*
%TO.C,C608*%
X409580000Y-112770000D03*
D12*
X409580000Y-122770000D03*
%TD*%
D11*
%TO.C,F401*%
X293700000Y-102610000D03*
D12*
X293700000Y-92610000D03*
%TD*%
D23*
%TO.C,CN201*%
X390480000Y-219300000D03*
D24*
X390480000Y-221840000D03*
X387940000Y-221840000D03*
X385400000Y-219300000D03*
X385400000Y-221840000D03*
X382860000Y-219300000D03*
X382860000Y-221840000D03*
X380320000Y-219300000D03*
X380320000Y-221840000D03*
X377780000Y-219300000D03*
X377780000Y-221840000D03*
X375240000Y-219300000D03*
X375240000Y-221840000D03*
X372700000Y-219300000D03*
X372700000Y-221840000D03*
X370160000Y-219300000D03*
X370160000Y-221840000D03*
X367620000Y-219300000D03*
X367620000Y-221840000D03*
X365080000Y-219300000D03*
X365080000Y-221840000D03*
X362540000Y-219300000D03*
X362540000Y-221840000D03*
X360000000Y-219300000D03*
X360000000Y-221840000D03*
X357460000Y-219300000D03*
X357460000Y-221840000D03*
X354920000Y-219300000D03*
X354920000Y-221840000D03*
X352380000Y-219300000D03*
X352380000Y-221840000D03*
X349840000Y-219300000D03*
X349840000Y-221840000D03*
%TD*%
D11*
%TO.C,R602*%
X390330000Y-115360000D03*
D12*
X390330000Y-125360000D03*
%TD*%
D11*
%TO.C,EMI411*%
X240250000Y-94780000D03*
X240250000Y-92240000D03*
X240250000Y-89780000D03*
%TD*%
%TO.C,C426*%
X273350000Y-135550000D03*
D12*
X273350000Y-125550000D03*
%TD*%
D11*
%TO.C,CR405*%
X291080000Y-108790000D03*
D12*
X291080000Y-98790000D03*
%TD*%
D11*
%TO.C,C552*%
X170435000Y-185785000D03*
X170435000Y-190785000D03*
%TD*%
D21*
%TO.C,Q101*%
X412140000Y-304017308D03*
X414680000Y-304017308D03*
X417220000Y-304017308D03*
%TD*%
D11*
%TO.C,R620*%
X385191000Y-122710000D03*
D12*
X385191000Y-112710000D03*
%TD*%
D11*
%TO.C,C710*%
X148890000Y-186270000D03*
D12*
X138730000Y-186270000D03*
%TD*%
D11*
%TO.C,C611*%
X310440000Y-126680000D03*
D12*
X320440000Y-126680000D03*
%TD*%
D13*
%TO.C,U312*%
X165360000Y-305890000D03*
D12*
X165360000Y-308430000D03*
X165360000Y-310970000D03*
X165360000Y-313510000D03*
X165360000Y-316050000D03*
X165360000Y-318590000D03*
X165360000Y-321130000D03*
X165360000Y-323670000D03*
X165360000Y-326210000D03*
X172980000Y-326210000D03*
X172980000Y-323670000D03*
X172980000Y-321130000D03*
X172980000Y-318590000D03*
X172980000Y-316050000D03*
X172980000Y-313510000D03*
X172980000Y-310970000D03*
X172980000Y-308430000D03*
X172980000Y-305890000D03*
%TD*%
D11*
%TO.C,C508*%
X279930000Y-186360000D03*
D12*
X290090000Y-186360000D03*
%TD*%
D15*
%TO.C,CN504*%
X115710000Y-233340000D03*
X115710000Y-235880000D03*
D14*
X115710000Y-238420000D03*
%TD*%
D11*
%TO.C,R414*%
X305190000Y-129140000D03*
D12*
X305190000Y-139140000D03*
%TD*%
%TO.C,*%
X401960000Y-165370000D03*
%TD*%
D11*
%TO.C,FB105*%
X212450000Y-168470000D03*
D12*
X212450000Y-158470000D03*
%TD*%
D11*
%TO.C,FB603*%
X381660000Y-182350000D03*
D12*
X381660000Y-192510000D03*
%TD*%
D13*
%TO.C,RP203*%
X390450000Y-333840000D03*
D12*
X390450000Y-331300000D03*
X390450000Y-328760000D03*
X390450000Y-326220000D03*
X390450000Y-323680000D03*
X390450000Y-321140000D03*
X390450000Y-318600000D03*
X390450000Y-316060000D03*
X390450000Y-313520000D03*
X390450000Y-310980000D03*
%TD*%
D11*
%TO.C,C612*%
X310440000Y-129210000D03*
D12*
X320440000Y-129210000D03*
%TD*%
D11*
%TO.C,C422*%
X225000000Y-107680000D03*
D12*
X225000000Y-97520000D03*
%TD*%
D13*
%TO.C,U605*%
X415980000Y-134240000D03*
D12*
X415980000Y-136780000D03*
X415980000Y-139320000D03*
X415980000Y-141860000D03*
X415980000Y-144400000D03*
X415980000Y-146940000D03*
X415980000Y-149480000D03*
X415980000Y-152020000D03*
X415980000Y-154560000D03*
X423600000Y-154560000D03*
X423600000Y-152020000D03*
X423600000Y-149480000D03*
X423600000Y-146940000D03*
X423600000Y-144400000D03*
X423600000Y-141860000D03*
X423600000Y-139320000D03*
X423600000Y-136780000D03*
X423600000Y-134240000D03*
%TD*%
D11*
%TO.C,R501*%
X251440000Y-212360000D03*
D12*
X261440000Y-212360000D03*
%TD*%
D11*
%TO.C,C402*%
X303970000Y-313480000D03*
X303970000Y-318480000D03*
%TD*%
%TO.C,EMI410*%
X244070000Y-94780000D03*
X244070000Y-92240000D03*
X244070000Y-89780000D03*
%TD*%
%TO.C,R410*%
X305130000Y-98810000D03*
D12*
X305130000Y-108970000D03*
%TD*%
D11*
%TO.C,R625*%
X394500000Y-157100000D03*
D12*
X404500000Y-157100000D03*
%TD*%
D13*
%TO.C,RP504*%
X110610000Y-160860000D03*
D12*
X110610000Y-163400000D03*
X110610000Y-165940000D03*
X110610000Y-168480000D03*
X110610000Y-171020000D03*
X110610000Y-173560000D03*
X110610000Y-176100000D03*
X110610000Y-178640000D03*
%TD*%
D13*
%TO.C,RP303*%
X220675000Y-291810000D03*
D12*
X220675000Y-294350000D03*
X220675000Y-296890000D03*
X220675000Y-299430000D03*
X220675000Y-301970000D03*
X220675000Y-304510000D03*
X220675000Y-307050000D03*
X228295000Y-307050000D03*
X228295000Y-304510000D03*
X228295000Y-301970000D03*
X228295000Y-299430000D03*
X228295000Y-296890000D03*
X228295000Y-294350000D03*
X228295000Y-291810000D03*
%TD*%
D11*
%TO.C,R502*%
X176110000Y-157670000D03*
D12*
X176110000Y-147670000D03*
%TD*%
D11*
%TO.C,C411*%
X266950000Y-107660000D03*
D12*
X266950000Y-97500000D03*
%TD*%
D11*
%TO.C,R622*%
X400420000Y-112690000D03*
D12*
X400420000Y-122690000D03*
%TD*%
D11*
%TO.C,R403*%
X287460000Y-173720000D03*
D12*
X287460000Y-163560000D03*
%TD*%
%TO.C,RP201*%
X390510000Y-299440000D03*
X390510000Y-296900000D03*
X390510000Y-294360000D03*
X390510000Y-291820000D03*
X390510000Y-289280000D03*
D13*
X390510000Y-286740000D03*
%TD*%
D11*
%TO.C,C767*%
X352960000Y-153290000D03*
D12*
X352960000Y-163450000D03*
%TD*%
D22*
%TO.C,*%
X246150000Y-254910000D03*
%TD*%
D11*
%TO.C,FB607*%
X415850000Y-110090000D03*
D12*
X415850000Y-100090000D03*
%TD*%
D11*
%TO.C,EMI607*%
X347630000Y-96230000D03*
X345210000Y-93710000D03*
X347630000Y-91230000D03*
%TD*%
%TO.C,C540*%
X112550000Y-117480000D03*
D12*
X122710000Y-117480000D03*
%TD*%
D13*
%TO.C,RP301*%
X147540000Y-238390000D03*
D12*
X147540000Y-240930000D03*
X147540000Y-243470000D03*
X147540000Y-246010000D03*
X147540000Y-248550000D03*
X147540000Y-251090000D03*
X147540000Y-253630000D03*
X155160000Y-253630000D03*
X155160000Y-251090000D03*
X155160000Y-248550000D03*
X155160000Y-246010000D03*
X155160000Y-243470000D03*
X155160000Y-240930000D03*
X155160000Y-238390000D03*
%TD*%
D13*
%TO.C,U316*%
X220620000Y-318450000D03*
D12*
X220620000Y-320990000D03*
X220620000Y-323530000D03*
X220620000Y-326070000D03*
X220620000Y-328610000D03*
X220620000Y-331150000D03*
X220620000Y-333690000D03*
X228240000Y-333690000D03*
X228240000Y-331150000D03*
X228240000Y-328610000D03*
X228240000Y-326070000D03*
X228240000Y-323530000D03*
X228240000Y-320990000D03*
X228240000Y-318450000D03*
%TD*%
D15*
%TO.C,CN101*%
X398690000Y-328190000D03*
X398690000Y-330730000D03*
D14*
X398690000Y-333270000D03*
%TD*%
D11*
%TO.C,C714*%
X336500000Y-241580000D03*
D12*
X326340000Y-241580000D03*
%TD*%
D11*
%TO.C,C530*%
X112530000Y-149360000D03*
D12*
X122690000Y-149360000D03*
%TD*%
D11*
%TO.C,C603*%
X405710000Y-112770000D03*
D12*
X405710000Y-122770000D03*
%TD*%
D15*
%TO.C,JMP301*%
X127230000Y-207935000D03*
X127230000Y-210475000D03*
D14*
X127230000Y-213015000D03*
%TD*%
D11*
%TO.C,C601*%
X307700000Y-129140000D03*
D12*
X307700000Y-139140000D03*
%TD*%
D11*
%TO.C,R629*%
X404500000Y-154525600D03*
D12*
X394500000Y-154525600D03*
%TD*%
D11*
%TO.C,R422*%
X287410000Y-120460000D03*
D12*
X287410000Y-130620000D03*
%TD*%
D25*
%TO.C,PAD202*%
X333330000Y-211710000D03*
X333330000Y-209840000D03*
X333330000Y-207910000D03*
%TD*%
D11*
%TO.C,C717*%
X368160000Y-282870000D03*
D12*
X358000000Y-282870000D03*
%TD*%
D15*
%TO.C,CN501*%
X166190000Y-97950000D03*
X166190000Y-100490000D03*
X166190000Y-103030000D03*
X166190000Y-105570000D03*
X166190000Y-108110000D03*
X166190000Y-110650000D03*
X166190000Y-113190000D03*
X166190000Y-115730000D03*
X166190000Y-118270000D03*
X166190000Y-120810000D03*
X166190000Y-123350000D03*
X166190000Y-125890000D03*
X166190000Y-128430000D03*
X166190000Y-130970000D03*
X166190000Y-133510000D03*
X166190000Y-136050000D03*
X166190000Y-138590000D03*
X166190000Y-141130000D03*
X166190000Y-143670000D03*
X166190000Y-146210000D03*
X166190000Y-148750000D03*
X166190000Y-151290000D03*
X166190000Y-153830000D03*
X166190000Y-156370000D03*
X166190000Y-158910000D03*
X166190000Y-161450000D03*
X166190000Y-163990000D03*
X166190000Y-166530000D03*
X166190000Y-169070000D03*
X166190000Y-171610000D03*
X166190000Y-174150000D03*
D26*
X171320000Y-97950000D03*
D15*
X171320000Y-100490000D03*
X171320000Y-103030000D03*
X171320000Y-105570000D03*
X171320000Y-108110000D03*
X171320000Y-110650000D03*
X171320000Y-113190000D03*
X171320000Y-115730000D03*
X171320000Y-118270000D03*
X171320000Y-120810000D03*
X171320000Y-123350000D03*
X171320000Y-125890000D03*
X171320000Y-128430000D03*
X171320000Y-130970000D03*
X171320000Y-133510000D03*
X171320000Y-136050000D03*
X171320000Y-138590000D03*
X171320000Y-141130000D03*
X171320000Y-143670000D03*
X171320000Y-146210000D03*
X171320000Y-148750000D03*
X171320000Y-151290000D03*
X171320000Y-153830000D03*
X171320000Y-156370000D03*
X171320000Y-158910000D03*
X171320000Y-161450000D03*
X171320000Y-163990000D03*
X171320000Y-166530000D03*
X171320000Y-169070000D03*
X171320000Y-171610000D03*
X171320000Y-174150000D03*
%TD*%
D11*
%TO.C,C706*%
X180390000Y-150720000D03*
D12*
X190550000Y-150720000D03*
%TD*%
D11*
%TO.C,R641*%
X312900000Y-205490000D03*
D12*
X312900000Y-215490000D03*
%TD*%
D11*
%TO.C,EMI614*%
X390340000Y-96180000D03*
X387920000Y-93660000D03*
X390340000Y-93720000D03*
X390340000Y-91180000D03*
%TD*%
%TO.C,C777*%
X319300000Y-181350000D03*
D12*
X309140000Y-181350000D03*
%TD*%
D11*
%TO.C,FB608*%
X413310000Y-97400000D03*
D12*
X413310000Y-87400000D03*
%TD*%
D11*
%TO.C,CB111*%
X319200000Y-102640000D03*
D12*
X309040000Y-102640000D03*
%TD*%
D11*
%TO.C,R411*%
X282420000Y-320270000D03*
D12*
X282420000Y-310270000D03*
%TD*%
D11*
%TO.C,C769*%
X391810000Y-162240000D03*
D12*
X391810000Y-172400000D03*
%TD*%
D11*
%TO.C,C712*%
X382910000Y-241540000D03*
D12*
X372750000Y-241540000D03*
%TD*%
D13*
%TO.C,SWTCH601*%
X342270000Y-75800000D03*
D12*
X339730000Y-75800000D03*
X337190000Y-75800000D03*
X334650000Y-75800000D03*
X334650000Y-83420000D03*
X337190000Y-83420000D03*
X339730000Y-83420000D03*
X342270000Y-83420000D03*
%TD*%
D11*
%TO.C,C772*%
X375180000Y-105180000D03*
D12*
X365020000Y-105180000D03*
%TD*%
D11*
%TO.C,C420*%
X232540000Y-107670000D03*
D12*
X232540000Y-97510000D03*
%TD*%
D11*
%TO.C,C529*%
X112530000Y-152580000D03*
D12*
X122690000Y-152580000D03*
%TD*%
D11*
%TO.C,CR403*%
X298760000Y-99950000D03*
D12*
X298760000Y-89950000D03*
%TD*%
D11*
%TO.C,C401*%
X298970000Y-313390000D03*
D12*
X298970000Y-323550000D03*
%TD*%
D11*
%TO.C,R624*%
X311640000Y-152030000D03*
D12*
X321640000Y-152030000D03*
%TD*%
D11*
%TO.C,C526*%
X112550000Y-162120000D03*
D12*
X122710000Y-162120000D03*
%TD*%
D13*
%TO.C,U308*%
X127250000Y-272770000D03*
D12*
X127250000Y-275310000D03*
X127250000Y-277850000D03*
X127250000Y-280390000D03*
X127250000Y-282930000D03*
X127250000Y-285470000D03*
X127250000Y-288010000D03*
X127250000Y-290550000D03*
X127250000Y-293090000D03*
X127250000Y-295630000D03*
X134870000Y-295630000D03*
X134870000Y-293090000D03*
X134870000Y-290550000D03*
X134870000Y-288010000D03*
X134870000Y-285470000D03*
X134870000Y-282930000D03*
X134870000Y-280390000D03*
X134870000Y-277850000D03*
X134870000Y-275310000D03*
X134870000Y-272770000D03*
%TD*%
D11*
%TO.C,C542*%
X146185000Y-263805000D03*
X151185000Y-263805000D03*
%TD*%
%TO.C,C505*%
X185520000Y-77070000D03*
X185520000Y-82070000D03*
%TD*%
%TO.C,R616*%
X340700000Y-101370000D03*
D12*
X340700000Y-91370000D03*
%TD*%
D13*
%TO.C,U205*%
X328880000Y-246050000D03*
D12*
X328880000Y-248590000D03*
X328880000Y-251130000D03*
X328880000Y-253670000D03*
X328880000Y-256210000D03*
X328880000Y-258750000D03*
X328880000Y-261290000D03*
X328880000Y-263830000D03*
X328880000Y-266370000D03*
X328880000Y-268910000D03*
X336500000Y-268910000D03*
X336500000Y-266370000D03*
X336500000Y-263830000D03*
X336500000Y-261290000D03*
X336500000Y-258750000D03*
X336500000Y-256210000D03*
X336500000Y-253670000D03*
X336500000Y-251130000D03*
X336500000Y-248590000D03*
X336500000Y-246050000D03*
%TD*%
D11*
%TO.C,EMI412*%
X236420000Y-94780000D03*
X236420000Y-92240000D03*
X236420000Y-89780000D03*
%TD*%
D27*
%TO.C,*%
X294520000Y-257440000D03*
%TD*%
D11*
%TO.C,CR501*%
X251440000Y-208590000D03*
D12*
X261440000Y-208590000D03*
%TD*%
D11*
%TO.C,C548*%
X124085000Y-265875000D03*
X129085000Y-265875000D03*
%TD*%
%TO.C,C760*%
X291900000Y-165950000D03*
D12*
X302060000Y-165950000D03*
%TD*%
D11*
%TO.C,EMI402*%
X274520000Y-94780000D03*
X274520000Y-92240000D03*
X274520000Y-89780000D03*
%TD*%
D13*
%TO.C,RP302*%
X192000000Y-318600000D03*
D12*
X192000000Y-321140000D03*
X192000000Y-323680000D03*
X192000000Y-326220000D03*
X192000000Y-328760000D03*
X192000000Y-331300000D03*
X192000000Y-333840000D03*
X199620000Y-333840000D03*
X199620000Y-331300000D03*
X199620000Y-328760000D03*
X199620000Y-326220000D03*
X199620000Y-323680000D03*
X199620000Y-321140000D03*
X199620000Y-318600000D03*
%TD*%
D11*
%TO.C,CR201*%
X278700000Y-297930000D03*
D12*
X278700000Y-287930000D03*
%TD*%
D11*
%TO.C,R619*%
X382600200Y-122710000D03*
D12*
X382600200Y-112710000D03*
%TD*%
D11*
%TO.C,R101*%
X411080000Y-297660000D03*
D12*
X421080000Y-297660000D03*
%TD*%
D11*
%TO.C,C416*%
X247900000Y-107660000D03*
D12*
X247900000Y-97500000D03*
%TD*%
D18*
%TO.C,CN401*%
X228925000Y-81380000D03*
D16*
X231695000Y-81380000D03*
X234465000Y-81380000D03*
X237235000Y-81380000D03*
X240005000Y-81380000D03*
X242775000Y-81380000D03*
X245545000Y-81380000D03*
X248315000Y-81380000D03*
X251085000Y-81380000D03*
X253855000Y-81380000D03*
X256625000Y-81380000D03*
X259395000Y-81380000D03*
X262165000Y-81380000D03*
X230360000Y-78850000D03*
X233130000Y-78850000D03*
X235900000Y-78850000D03*
X238670000Y-78850000D03*
X241440000Y-78850000D03*
X244210000Y-78850000D03*
X246980000Y-78850000D03*
X249750000Y-78850000D03*
X252520000Y-78850000D03*
X255290000Y-78850000D03*
X258060000Y-78850000D03*
D28*
X222045000Y-80270000D03*
D16*
X260830000Y-78850000D03*
D28*
X269145000Y-80270000D03*
%TD*%
D17*
%TO.C,*%
X239000000Y-320600000D03*
%TD*%
D13*
%TO.C,U606*%
X415899600Y-163423600D03*
D12*
X415899600Y-165963600D03*
X415899600Y-168503600D03*
X415899600Y-171043600D03*
X415899600Y-173583600D03*
X415899600Y-176123600D03*
X415899600Y-178663600D03*
X415899600Y-181203600D03*
X415899600Y-183743600D03*
X423519600Y-183743600D03*
X423519600Y-181203600D03*
X423519600Y-178663600D03*
X423519600Y-176123600D03*
X423519600Y-173583600D03*
X423519600Y-171043600D03*
X423519600Y-168503600D03*
X423519600Y-165963600D03*
X423519600Y-163423600D03*
%TD*%
D11*
%TO.C,C538*%
X112550000Y-123900000D03*
D12*
X122710000Y-123900000D03*
%TD*%
D13*
%TO.C,RP602*%
X401870000Y-146320000D03*
D12*
X401870000Y-143780000D03*
X401870000Y-141240000D03*
X401870000Y-138700000D03*
X401870000Y-136160000D03*
X401870000Y-133620000D03*
X401870000Y-131080000D03*
X401870000Y-128540000D03*
X394250000Y-128540000D03*
X394250000Y-131080000D03*
X394250000Y-133620000D03*
X394250000Y-136160000D03*
X394250000Y-138700000D03*
X394250000Y-141240000D03*
X394250000Y-143780000D03*
X394250000Y-146320000D03*
%TD*%
D11*
%TO.C,C551*%
X211045000Y-117715000D03*
X211045000Y-122715000D03*
%TD*%
D17*
%TO.C,*%
X424880000Y-192590000D03*
%TD*%
D11*
%TO.C,EMI419*%
X302550000Y-95000000D03*
X302550000Y-92460000D03*
X302550000Y-90000000D03*
%TD*%
%TO.C,R607*%
X335660800Y-91370000D03*
D12*
X335660800Y-101370000D03*
%TD*%
D13*
%TO.C,U206*%
X375240000Y-310950000D03*
D12*
X375240000Y-313490000D03*
X375240000Y-316030000D03*
X375240000Y-318570000D03*
X375240000Y-321110000D03*
X375240000Y-323650000D03*
X375240000Y-326190000D03*
X382860000Y-326190000D03*
X382860000Y-323650000D03*
X382860000Y-321110000D03*
X382860000Y-318570000D03*
X382860000Y-316030000D03*
X382860000Y-313490000D03*
X382860000Y-310950000D03*
%TD*%
D11*
%TO.C,C405*%
X287430000Y-158520000D03*
D12*
X287430000Y-148360000D03*
%TD*%
D11*
%TO.C,C537*%
X112540000Y-127030000D03*
D12*
X122700000Y-127030000D03*
%TD*%
D11*
%TO.C,R412*%
X287400000Y-133020000D03*
D12*
X287400000Y-143180000D03*
%TD*%
D13*
%TO.C,U107*%
X158990000Y-230770000D03*
D12*
X158990000Y-233310000D03*
X158990000Y-235850000D03*
X158990000Y-238390000D03*
X158990000Y-240930000D03*
X158990000Y-243470000D03*
X158990000Y-246010000D03*
X158990000Y-248550000D03*
X158990000Y-251090000D03*
X158990000Y-253630000D03*
X166610000Y-253630000D03*
X166610000Y-251090000D03*
X166610000Y-248550000D03*
X166610000Y-246010000D03*
X166610000Y-243470000D03*
X166610000Y-240930000D03*
X166610000Y-238390000D03*
X166610000Y-235850000D03*
X166610000Y-233310000D03*
X166610000Y-230770000D03*
%TD*%
D11*
%TO.C,C425*%
X289980000Y-117800000D03*
D12*
X289980000Y-127800000D03*
%TD*%
D11*
%TO.C,C418*%
X240270000Y-107660000D03*
D12*
X240270000Y-97500000D03*
%TD*%
D11*
%TO.C,FB604*%
X408200000Y-97430000D03*
D12*
X408200000Y-87430000D03*
%TD*%
D11*
%TO.C,EMI407*%
X255520000Y-94780000D03*
X255520000Y-92240000D03*
X255520000Y-89780000D03*
%TD*%
%TO.C,C512*%
X126980000Y-87020000D03*
D12*
X126980000Y-76860000D03*
%TD*%
D11*
%TO.C,R408*%
X286080000Y-98790000D03*
D12*
X286080000Y-108950000D03*
%TD*%
D11*
%TO.C,C713*%
X352350000Y-241620000D03*
D12*
X342190000Y-241620000D03*
%TD*%
D11*
%TO.C,EMI102*%
X401420000Y-243460000D03*
X403940000Y-241040000D03*
X406420000Y-243460000D03*
%TD*%
D13*
%TO.C,U406*%
X246700000Y-116500000D03*
D12*
X246700000Y-119040000D03*
X246700000Y-121580000D03*
X246700000Y-124120000D03*
X246700000Y-126660000D03*
X246700000Y-129200000D03*
X246700000Y-131740000D03*
X246700000Y-134280000D03*
X246700000Y-136820000D03*
X246700000Y-139360000D03*
X246700000Y-141900000D03*
X246700000Y-144440000D03*
X246700000Y-146980000D03*
X246700000Y-149520000D03*
X246700000Y-152060000D03*
X246700000Y-154600000D03*
X246700000Y-157140000D03*
X246700000Y-159680000D03*
X246700000Y-162220000D03*
X246700000Y-164760000D03*
X246700000Y-167300000D03*
X246700000Y-169840000D03*
X246700000Y-172380000D03*
X246700000Y-174920000D03*
X261940000Y-174920000D03*
X261940000Y-172380000D03*
X261940000Y-169840000D03*
X261940000Y-167300000D03*
X261940000Y-164760000D03*
X261940000Y-162220000D03*
X261940000Y-159680000D03*
X261940000Y-157140000D03*
X261940000Y-154600000D03*
X261940000Y-152060000D03*
X261940000Y-149520000D03*
X261940000Y-146980000D03*
X261940000Y-144440000D03*
X261940000Y-141900000D03*
X261940000Y-139360000D03*
X261940000Y-136820000D03*
X261940000Y-134280000D03*
X261940000Y-131740000D03*
X261940000Y-129200000D03*
X261940000Y-126660000D03*
X261940000Y-124120000D03*
X261940000Y-121580000D03*
X261940000Y-119040000D03*
X261940000Y-116500000D03*
%TD*%
D14*
%TO.C,JMP690*%
X254545000Y-329470000D03*
D15*
X257085000Y-329470000D03*
%TD*%
D11*
%TO.C,EMI610*%
X359060000Y-96230000D03*
X356640000Y-93710000D03*
X359060000Y-91230000D03*
%TD*%
D21*
%TO.C,PAD101*%
X241785000Y-214460000D03*
X243725000Y-214460000D03*
%TD*%
D11*
%TO.C,C417*%
X244090000Y-107660000D03*
D12*
X244090000Y-97500000D03*
%TD*%
D11*
%TO.C,EMI423*%
X321620000Y-95000000D03*
X321620000Y-92460000D03*
X321620000Y-90000000D03*
%TD*%
D13*
%TO.C,U103*%
X208550000Y-249840000D03*
D12*
X208550000Y-247300000D03*
X208550000Y-244760000D03*
X208550000Y-242220000D03*
X208550000Y-239680000D03*
X208550000Y-237140000D03*
X208550000Y-234600000D03*
X208550000Y-232060000D03*
X208550000Y-229520000D03*
X208550000Y-226980000D03*
X208550000Y-224440000D03*
X208550000Y-221900000D03*
X208550000Y-219360000D03*
X208550000Y-216820000D03*
X208550000Y-214280000D03*
X208550000Y-211740000D03*
X208550000Y-209200000D03*
X208550000Y-206660000D03*
X208550000Y-204120000D03*
X208550000Y-201580000D03*
X193310000Y-201580000D03*
X193310000Y-204120000D03*
X193310000Y-206660000D03*
X193310000Y-209200000D03*
X193310000Y-211740000D03*
X193310000Y-214280000D03*
X193310000Y-216820000D03*
X193310000Y-219360000D03*
X193310000Y-221900000D03*
X193310000Y-224440000D03*
X193310000Y-226980000D03*
X193310000Y-229520000D03*
X193310000Y-232060000D03*
X193310000Y-234600000D03*
X193310000Y-237140000D03*
X193310000Y-239680000D03*
X193310000Y-242220000D03*
X193310000Y-244760000D03*
X193310000Y-247300000D03*
X193310000Y-249840000D03*
%TD*%
D13*
%TO.C,RP603*%
X407030000Y-126630000D03*
D12*
X409570000Y-126630000D03*
X412110000Y-126630000D03*
X414650000Y-126630000D03*
X417190000Y-126630000D03*
X419730000Y-126630000D03*
X422270000Y-126630000D03*
X424810000Y-126630000D03*
%TD*%
D11*
%TO.C,C201*%
X399450000Y-207860000D03*
D12*
X399450000Y-218020000D03*
%TD*%
D24*
%TO.C,SW501*%
X413600000Y-208590000D03*
D16*
X410310000Y-209760000D03*
D24*
X416050000Y-208590000D03*
D16*
X421620000Y-206330000D03*
D24*
X418510000Y-208590000D03*
%TD*%
D13*
%TO.C,U1*%
X360590000Y-286730000D03*
D12*
X360590000Y-289270000D03*
X360590000Y-291810000D03*
X360590000Y-294350000D03*
X360590000Y-296890000D03*
X360590000Y-299430000D03*
X360590000Y-301970000D03*
X368210000Y-301970000D03*
X368210000Y-299430000D03*
X368210000Y-296890000D03*
X368210000Y-294350000D03*
X368210000Y-291810000D03*
X368210000Y-289270000D03*
X368210000Y-286730000D03*
%TD*%
D22*
%TO.C,CN506*%
X262720000Y-197740000D03*
X262670000Y-191360000D03*
X262670000Y-184990000D03*
X256360000Y-197740000D03*
X256360000Y-191360000D03*
X256350000Y-184990000D03*
%TD*%
D11*
%TO.C,C778*%
X335630000Y-136820000D03*
D12*
X345790000Y-136820000D03*
%TD*%
D15*
%TO.C,CN502*%
X145840000Y-97900000D03*
X145840000Y-100440000D03*
X145840000Y-102980000D03*
X145840000Y-105520000D03*
X145840000Y-108060000D03*
X145840000Y-110600000D03*
X145840000Y-113140000D03*
X145840000Y-115680000D03*
X145840000Y-118220000D03*
X145840000Y-120760000D03*
X145840000Y-123300000D03*
X145840000Y-125840000D03*
X145840000Y-128380000D03*
X145840000Y-130920000D03*
X145840000Y-133460000D03*
X145840000Y-136000000D03*
X145840000Y-138540000D03*
X145840000Y-141080000D03*
X145840000Y-143620000D03*
X145840000Y-146160000D03*
X145840000Y-148700000D03*
X145840000Y-151240000D03*
X145840000Y-153780000D03*
X145840000Y-156320000D03*
X145840000Y-158860000D03*
X145840000Y-161400000D03*
X145840000Y-163940000D03*
X145840000Y-166480000D03*
X145840000Y-169020000D03*
X145840000Y-171560000D03*
X145840000Y-174100000D03*
D26*
X150970000Y-97900000D03*
D15*
X150970000Y-100440000D03*
X150970000Y-102980000D03*
X150970000Y-105520000D03*
X150970000Y-108060000D03*
X150970000Y-110600000D03*
X150970000Y-113140000D03*
X150970000Y-115680000D03*
X150970000Y-118220000D03*
X150970000Y-120760000D03*
X150970000Y-123300000D03*
X150970000Y-125840000D03*
X150970000Y-128380000D03*
X150970000Y-130920000D03*
X150970000Y-133460000D03*
X150970000Y-136000000D03*
X150970000Y-138540000D03*
X150970000Y-141080000D03*
X150970000Y-143620000D03*
X150970000Y-146160000D03*
X150970000Y-148700000D03*
X150970000Y-151240000D03*
X150970000Y-153780000D03*
X150970000Y-156320000D03*
X150970000Y-158860000D03*
X150970000Y-161400000D03*
X150970000Y-163940000D03*
X150970000Y-166480000D03*
X150970000Y-169020000D03*
X150970000Y-171560000D03*
X150970000Y-174100000D03*
%TD*%
D11*
%TO.C,C109*%
X409680000Y-266350000D03*
D12*
X399520000Y-266350000D03*
%TD*%
D11*
%TO.C,CR404*%
X296220000Y-99950000D03*
D12*
X296220000Y-89950000D03*
%TD*%
D11*
%TO.C,FB101*%
X265220000Y-232690000D03*
D12*
X275220000Y-232690000D03*
%TD*%
D11*
%TO.C,R691*%
X343170000Y-105180000D03*
D12*
X333010000Y-105180000D03*
%TD*%
D11*
%TO.C,R205*%
X112500000Y-255740000D03*
D12*
X112500000Y-245580000D03*
%TD*%
D25*
%TO.C,PAD602*%
X321780000Y-163480000D03*
X321780000Y-165350000D03*
X321780000Y-167280000D03*
%TD*%
D11*
%TO.C,FB201*%
X315400000Y-319130000D03*
D12*
X315400000Y-309130000D03*
%TD*%
D11*
%TO.C,C550*%
X183720000Y-305230000D03*
X178720000Y-305230000D03*
%TD*%
%TO.C,R106*%
X389200000Y-254100000D03*
D12*
X389200000Y-266800000D03*
%TD*%
D11*
%TO.C,EMI101*%
X401420000Y-237085000D03*
X403940000Y-234665000D03*
X406420000Y-237085000D03*
%TD*%
D13*
%TO.C,U106*%
X188130000Y-146900000D03*
D12*
X188130000Y-144360000D03*
X188130000Y-141820000D03*
X188130000Y-139280000D03*
X188130000Y-136740000D03*
X188130000Y-134200000D03*
X188130000Y-131660000D03*
X188130000Y-129120000D03*
X188130000Y-126580000D03*
X188130000Y-124040000D03*
X180510000Y-124040000D03*
X180510000Y-126580000D03*
X180510000Y-129120000D03*
X180510000Y-131660000D03*
X180510000Y-134200000D03*
X180510000Y-136740000D03*
X180510000Y-139280000D03*
X180510000Y-141820000D03*
X180510000Y-144360000D03*
X180510000Y-146900000D03*
%TD*%
D11*
%TO.C,C762*%
X251880000Y-112740000D03*
D12*
X262040000Y-112740000D03*
%TD*%
D21*
%TO.C,PAD204*%
X403220000Y-208590000D03*
X403220000Y-210530000D03*
%TD*%
D11*
%TO.C,C107*%
X368350000Y-273990000D03*
D12*
X358190000Y-273990000D03*
%TD*%
D11*
%TO.C,C711*%
X336480000Y-282940000D03*
D12*
X326320000Y-282940000D03*
%TD*%
D25*
%TO.C,PAD203*%
X330790000Y-211700000D03*
X330790000Y-209830000D03*
X330790000Y-207900000D03*
%TD*%
D11*
%TO.C,EMI421*%
X310160000Y-95000000D03*
X310160000Y-92460000D03*
X310160000Y-90000000D03*
%TD*%
D13*
%TO.C,RP101*%
X188250000Y-226990000D03*
D12*
X188250000Y-224450000D03*
X188250000Y-221910000D03*
X188250000Y-219370000D03*
X188250000Y-216830000D03*
X188250000Y-214290000D03*
%TD*%
D11*
%TO.C,C536*%
X112530000Y-130190000D03*
D12*
X122690000Y-130190000D03*
%TD*%
D22*
%TO.C,*%
X114330000Y-321000000D03*
%TD*%
D11*
%TO.C,C803*%
X311520000Y-225710000D03*
D12*
X301360000Y-225710000D03*
%TD*%
D11*
%TO.C,C715*%
X383010000Y-307120000D03*
D12*
X372850000Y-307120000D03*
%TD*%
D11*
%TO.C,CR401*%
X278450000Y-333510000D03*
D12*
X278450000Y-323510000D03*
%TD*%
D13*
%TO.C,U604*%
X366210000Y-108900000D03*
D12*
X366210000Y-111440000D03*
X366210000Y-113980000D03*
X366210000Y-116520000D03*
X366210000Y-119060000D03*
X366210000Y-121600000D03*
X366210000Y-124140000D03*
X366210000Y-126680000D03*
X366210000Y-129220000D03*
X366210000Y-131760000D03*
X373830000Y-131760000D03*
X373830000Y-129220000D03*
X373830000Y-126680000D03*
X373830000Y-124140000D03*
X373830000Y-121600000D03*
X373830000Y-119060000D03*
X373830000Y-116520000D03*
X373830000Y-113980000D03*
X373830000Y-111440000D03*
X373830000Y-108900000D03*
%TD*%
D17*
%TO.C,*%
X424920000Y-266110000D03*
%TD*%
D11*
%TO.C,C522*%
X112590000Y-174860000D03*
D12*
X122750000Y-174860000D03*
%TD*%
D17*
%TO.C,*%
X424890000Y-236050000D03*
%TD*%
D11*
%TO.C,C774*%
X417260000Y-158340000D03*
D12*
X427420000Y-158340000D03*
%TD*%
D29*
%TO.C,TP3*%
X116300000Y-218080000D03*
%TD*%
D11*
%TO.C,C409*%
X274620000Y-107660000D03*
D12*
X274620000Y-97500000D03*
%TD*%
D13*
%TO.C,U407*%
X284688600Y-136865200D03*
D12*
X284688600Y-134325200D03*
X284688600Y-131785200D03*
X284688600Y-129245200D03*
X284688600Y-126705200D03*
X284688600Y-124165200D03*
X284688600Y-121625200D03*
X277068600Y-121625200D03*
X277068600Y-124165200D03*
X277068600Y-126705200D03*
X277068600Y-129245200D03*
X277068600Y-131785200D03*
X277068600Y-134325200D03*
X277068600Y-136865200D03*
%TD*%
D13*
%TO.C,U405*%
X293740000Y-126675000D03*
D12*
X293740000Y-129215000D03*
X293740000Y-131755000D03*
X293740000Y-134295000D03*
X293740000Y-136835000D03*
X293740000Y-139375000D03*
X293740000Y-141915000D03*
X301360000Y-141915000D03*
X301360000Y-139375000D03*
X301360000Y-136835000D03*
X301360000Y-134295000D03*
X301360000Y-131755000D03*
X301360000Y-129215000D03*
X301360000Y-126675000D03*
%TD*%
D11*
%TO.C,R102*%
X419250000Y-315460000D03*
D12*
X409250000Y-315460000D03*
%TD*%
D11*
%TO.C,C546*%
X197020000Y-103070000D03*
X202020000Y-103070000D03*
%TD*%
%TO.C,C408*%
X278330000Y-107660000D03*
D12*
X278330000Y-97500000D03*
%TD*%
D13*
%TO.C,U401*%
X287470000Y-314610000D03*
D12*
X287470000Y-317150000D03*
X287470000Y-319690000D03*
X287470000Y-322230000D03*
X287470000Y-324770000D03*
X287470000Y-327310000D03*
X287470000Y-329850000D03*
X287470000Y-332390000D03*
X287470000Y-334930000D03*
X295090000Y-334930000D03*
X295090000Y-332390000D03*
X295090000Y-329850000D03*
X295090000Y-327310000D03*
X295090000Y-324770000D03*
X295090000Y-322230000D03*
X295090000Y-319690000D03*
X295090000Y-317150000D03*
X295090000Y-314610000D03*
%TD*%
D13*
%TO.C,RP401*%
X221290000Y-167250000D03*
D12*
X221290000Y-164710000D03*
X221290000Y-162170000D03*
X221290000Y-159630000D03*
X221290000Y-157090000D03*
X221290000Y-154550000D03*
X221290000Y-152010000D03*
X221290000Y-149470000D03*
%TD*%
D13*
%TO.C,U608*%
X330650000Y-131775200D03*
D12*
X330650000Y-129235200D03*
X330650000Y-126695200D03*
X330650000Y-124155200D03*
X330650000Y-121615200D03*
X330650000Y-119075200D03*
X330650000Y-116535200D03*
X330650000Y-113995200D03*
X330650000Y-111455200D03*
X330650000Y-108915200D03*
X330650000Y-106375200D03*
X330650000Y-103835200D03*
X323030000Y-103835200D03*
X323030000Y-106375200D03*
X323030000Y-108915200D03*
X323030000Y-111455200D03*
X323030000Y-113995200D03*
X323030000Y-116535200D03*
X323030000Y-119075200D03*
X323030000Y-121615200D03*
X323030000Y-124155200D03*
X323030000Y-126695200D03*
X323030000Y-129235200D03*
X323030000Y-131775200D03*
%TD*%
D11*
%TO.C,C515*%
X136570000Y-87020000D03*
D12*
X136570000Y-76860000D03*
%TD*%
D11*
%TO.C,C423*%
X221140000Y-107670000D03*
D12*
X221140000Y-97510000D03*
%TD*%
D11*
%TO.C,FB103*%
X401980000Y-248580000D03*
D12*
X399440000Y-248580000D03*
%TD*%
D11*
%TO.C,C108*%
X165370000Y-204090000D03*
D12*
X155210000Y-204090000D03*
%TD*%
D11*
%TO.C,EMI404*%
X266910000Y-94780000D03*
X266910000Y-92240000D03*
X266910000Y-89780000D03*
%TD*%
D21*
%TO.C,*%
X218760000Y-307050000D03*
%TD*%
D11*
%TO.C,C549*%
X162680000Y-335920000D03*
X157680000Y-335920000D03*
%TD*%
%TO.C,C404*%
X276110000Y-309570000D03*
D12*
X265950000Y-309570000D03*
%TD*%
D11*
%TO.C,C610*%
X394750000Y-91240000D03*
D12*
X394750000Y-101400000D03*
%TD*%
D11*
%TO.C,R401*%
X272170000Y-323500000D03*
D12*
X272170000Y-333660000D03*
%TD*%
D11*
%TO.C,R639*%
X377541000Y-115360000D03*
D12*
X377541000Y-125360000D03*
%TD*%
D11*
%TO.C,FB602*%
X409020000Y-174860000D03*
D12*
X409020000Y-164860000D03*
%TD*%
D11*
%TO.C,C613*%
X377680000Y-100040000D03*
D12*
X377680000Y-110200000D03*
%TD*%
D11*
%TO.C,R201*%
X397580000Y-231380000D03*
D12*
X407580000Y-231380000D03*
%TD*%
D13*
%TO.C,RP102*%
X244310000Y-221200000D03*
D12*
X246850000Y-221200000D03*
X249390000Y-221200000D03*
X251930000Y-221200000D03*
X254470000Y-221200000D03*
X257010000Y-221200000D03*
%TD*%
D13*
%TO.C,U402*%
X253120000Y-124129800D03*
D12*
X253120000Y-126669800D03*
X253120000Y-129209800D03*
X253120000Y-131749800D03*
X253120000Y-134289800D03*
X253120000Y-136829800D03*
X253120000Y-139369800D03*
X253120000Y-141909800D03*
X253120000Y-144449800D03*
X253120000Y-146989800D03*
X253120000Y-149529800D03*
X253120000Y-152069800D03*
X253120000Y-154609800D03*
X253120000Y-157149800D03*
X253120000Y-159689800D03*
X253120000Y-162229800D03*
X253120000Y-164769800D03*
X253120000Y-167309800D03*
X253120000Y-169849800D03*
X253120000Y-172389800D03*
X268360000Y-172389800D03*
X268360000Y-169849800D03*
X268360000Y-167309800D03*
X268360000Y-164769800D03*
X268360000Y-162229800D03*
X268360000Y-159689800D03*
X268360000Y-157149800D03*
X268360000Y-154609800D03*
X268360000Y-152069800D03*
X268360000Y-149529800D03*
X268360000Y-146989800D03*
X268360000Y-144449800D03*
X268360000Y-141909800D03*
X268360000Y-139369800D03*
X268360000Y-136829800D03*
X268360000Y-134289800D03*
X268360000Y-131749800D03*
X268360000Y-129209800D03*
X268360000Y-126669800D03*
X268360000Y-124129800D03*
%TD*%
D11*
%TO.C,C718*%
X352450000Y-282910000D03*
D12*
X342290000Y-282910000D03*
%TD*%
D11*
%TO.C,CR402*%
X274690000Y-333500000D03*
D12*
X274690000Y-323500000D03*
%TD*%
D13*
%TO.C,U306*%
X152500000Y-272750000D03*
D12*
X152500000Y-275290000D03*
X152500000Y-277830000D03*
X152500000Y-280370000D03*
X152500000Y-282910000D03*
X152500000Y-285450000D03*
X152500000Y-287990000D03*
X152500000Y-290530000D03*
X152500000Y-293070000D03*
X152500000Y-295610000D03*
X160120000Y-295610000D03*
X160120000Y-293070000D03*
X160120000Y-290530000D03*
X160120000Y-287990000D03*
X160120000Y-285450000D03*
X160120000Y-282910000D03*
X160120000Y-280370000D03*
X160120000Y-277830000D03*
X160120000Y-275290000D03*
X160120000Y-272750000D03*
%TD*%
D11*
%TO.C,C414*%
X255520000Y-107660000D03*
D12*
X255520000Y-97500000D03*
%TD*%
D11*
%TO.C,EMI422*%
X317790000Y-95000000D03*
X317790000Y-92460000D03*
X317790000Y-90000000D03*
%TD*%
%TO.C,FB102*%
X409660000Y-248510000D03*
D12*
X407120000Y-248510000D03*
%TD*%
D11*
%TO.C,C106*%
X409700000Y-262520000D03*
D12*
X399540000Y-262520000D03*
%TD*%
D11*
%TO.C,C747*%
X241590000Y-287960000D03*
D12*
X231430000Y-287960000D03*
%TD*%
D11*
%TO.C,FB611*%
X397950000Y-100030000D03*
D12*
X397950000Y-90030000D03*
%TD*%
D11*
%TO.C,R608*%
X338200800Y-91370000D03*
D12*
X338200800Y-101370000D03*
%TD*%
D13*
%TO.C,RP402*%
X222560000Y-144360000D03*
D12*
X222560000Y-141820000D03*
X222560000Y-139280000D03*
X222560000Y-136740000D03*
X222560000Y-134200000D03*
X222560000Y-131660000D03*
X222560000Y-129120000D03*
X222560000Y-126580000D03*
X214940000Y-126580000D03*
X214940000Y-129120000D03*
X214940000Y-131660000D03*
X214940000Y-134200000D03*
X214940000Y-136740000D03*
X214940000Y-139280000D03*
X214940000Y-141820000D03*
X214940000Y-144360000D03*
%TD*%
D30*
%TO.C,U602*%
X299520000Y-265090000D03*
D21*
X299520000Y-262550000D03*
X302060000Y-265090000D03*
X302060000Y-262550000D03*
X304600000Y-265090000D03*
X304600000Y-262550000D03*
X307140000Y-265090000D03*
X307140000Y-262550000D03*
X309680000Y-265090000D03*
X312220000Y-262550000D03*
X309680000Y-262550000D03*
X312220000Y-260010000D03*
X309680000Y-260010000D03*
X312220000Y-257470000D03*
X309680000Y-257470000D03*
X312220000Y-254930000D03*
X309680000Y-254930000D03*
X312220000Y-252390000D03*
X309680000Y-252390000D03*
X312220000Y-249850000D03*
X309680000Y-249850000D03*
X312220000Y-247310000D03*
X309680000Y-247310000D03*
X312220000Y-244770000D03*
X309680000Y-244770000D03*
X312220000Y-242230000D03*
X309680000Y-239690000D03*
X309680000Y-242230000D03*
X307140000Y-239690000D03*
X307140000Y-242230000D03*
X304600000Y-239690000D03*
X304600000Y-242230000D03*
X302060000Y-239690000D03*
X302060000Y-242230000D03*
X299520000Y-239690000D03*
X299520000Y-242230000D03*
X296980000Y-239690000D03*
X296980000Y-242230000D03*
X294440000Y-239690000D03*
X294440000Y-242230000D03*
X291900000Y-239690000D03*
X291900000Y-242230000D03*
X289360000Y-239690000D03*
X286820000Y-242230000D03*
X289360000Y-242230000D03*
X286820000Y-244770000D03*
X289360000Y-244770000D03*
X286820000Y-247310000D03*
X289360000Y-247310000D03*
X286820000Y-249850000D03*
X289360000Y-249850000D03*
X286820000Y-252390000D03*
X289360000Y-252390000D03*
X286820000Y-254930000D03*
X289360000Y-254930000D03*
X286820000Y-257470000D03*
X289360000Y-257470000D03*
X286820000Y-260010000D03*
X289360000Y-260010000D03*
X286820000Y-262550000D03*
X289360000Y-265090000D03*
X289360000Y-262550000D03*
X291900000Y-265090000D03*
X291900000Y-262550000D03*
X294440000Y-265090000D03*
X294440000Y-262550000D03*
X296980000Y-265090000D03*
X296980000Y-262550000D03*
%TD*%
D11*
%TO.C,C503*%
X279865000Y-203935000D03*
X279865000Y-198935000D03*
%TD*%
%TO.C,C413*%
X259360000Y-107660000D03*
D12*
X259360000Y-97500000D03*
%TD*%
D13*
%TO.C,U309*%
X127240000Y-306070000D03*
D12*
X127240000Y-308610000D03*
X127240000Y-311150000D03*
X127240000Y-313690000D03*
X127240000Y-316230000D03*
X127240000Y-318770000D03*
X127240000Y-321310000D03*
X127240000Y-323850000D03*
X127240000Y-326390000D03*
X134860000Y-326390000D03*
X134860000Y-323850000D03*
X134860000Y-321310000D03*
X134860000Y-318770000D03*
X134860000Y-316230000D03*
X134860000Y-313690000D03*
X134860000Y-311150000D03*
X134860000Y-308610000D03*
X134860000Y-306070000D03*
%TD*%
D13*
%TO.C,OSC602*%
X394157200Y-197688200D03*
D11*
X394157200Y-182448200D03*
X386537200Y-182448200D03*
X386537200Y-197688200D03*
%TD*%
%TO.C,C501*%
X241735000Y-186365000D03*
X241735000Y-191365000D03*
%TD*%
%TO.C,C105*%
X409680000Y-258730000D03*
D12*
X399520000Y-258730000D03*
%TD*%
D13*
%TO.C,U404*%
X293790000Y-146960000D03*
D12*
X293790000Y-149500000D03*
X293790000Y-152040000D03*
X293790000Y-154580000D03*
X293790000Y-157120000D03*
X293790000Y-159660000D03*
X293790000Y-162200000D03*
X301410000Y-162200000D03*
X301410000Y-159660000D03*
X301410000Y-157120000D03*
X301410000Y-154580000D03*
X301410000Y-152040000D03*
X301410000Y-149500000D03*
X301410000Y-146960000D03*
%TD*%
D11*
%TO.C,C716*%
X368300000Y-307040000D03*
D12*
X358140000Y-307040000D03*
%TD*%
D11*
%TO.C,EMI406*%
X259330000Y-94780000D03*
X259330000Y-92240000D03*
X259330000Y-89780000D03*
%TD*%
%TO.C,EMI417*%
X217420000Y-94780000D03*
X217420000Y-92240000D03*
X217420000Y-89780000D03*
%TD*%
%TO.C,EMI424*%
X313940000Y-95000000D03*
X313940000Y-92460000D03*
X313940000Y-90000000D03*
%TD*%
%TO.C,C775*%
X262040000Y-266330000D03*
D12*
X272200000Y-266330000D03*
%TD*%
D30*
%TO.C,Q601*%
X385260000Y-106330000D03*
D21*
X387800000Y-106330000D03*
X390340000Y-106330000D03*
%TD*%
D31*
%TO.C,CN505*%
X269540000Y-206120000D03*
X269540000Y-198140000D03*
X269540000Y-194160000D03*
X269540000Y-190230000D03*
X269540000Y-186280000D03*
X269540000Y-182600000D03*
%TD*%
D15*
%TO.C,JMP208*%
X342250000Y-218140000D03*
X342250000Y-220680000D03*
D14*
X342250000Y-223220000D03*
%TD*%
D11*
%TO.C,C748*%
X215080000Y-288010000D03*
D12*
X204920000Y-288010000D03*
%TD*%
D27*
%TO.C,CN603*%
X391470000Y-80610000D03*
X387660000Y-76600000D03*
X383970000Y-80610000D03*
%TD*%
D11*
%TO.C,C410*%
X270730000Y-107660000D03*
D12*
X270730000Y-97500000D03*
%TD*%
D11*
%TO.C,C746*%
X162690000Y-330680000D03*
D12*
X172850000Y-330680000D03*
%TD*%
D11*
%TO.C,C502*%
X119625000Y-331765000D03*
X114625000Y-331765000D03*
%TD*%
D22*
%TO.C,*%
X235680000Y-244790000D03*
%TD*%
D17*
%TO.C,*%
X424670000Y-95430000D03*
%TD*%
D11*
%TO.C,R623*%
X311640000Y-154560000D03*
D12*
X321640000Y-154560000D03*
%TD*%
D11*
%TO.C,C510*%
X410920000Y-197750000D03*
D12*
X421080000Y-197750000D03*
%TD*%
D13*
%TO.C,U105*%
X188180000Y-178690000D03*
D12*
X188180000Y-176150000D03*
X188180000Y-173610000D03*
X188180000Y-171070000D03*
X188180000Y-168530000D03*
X188180000Y-165990000D03*
X188180000Y-163450000D03*
X188180000Y-160910000D03*
X188180000Y-158370000D03*
X188180000Y-155830000D03*
X180560000Y-155830000D03*
X180560000Y-158370000D03*
X180560000Y-160910000D03*
X180560000Y-163450000D03*
X180560000Y-165990000D03*
X180560000Y-168530000D03*
X180560000Y-171070000D03*
X180560000Y-173610000D03*
X180560000Y-176150000D03*
X180560000Y-178690000D03*
%TD*%
D11*
%TO.C,C766*%
X366420000Y-182520000D03*
D12*
X376580000Y-182520000D03*
%TD*%
D11*
%TO.C,C724*%
X186910000Y-277810000D03*
D12*
X176750000Y-277810000D03*
%TD*%
D11*
%TO.C,EMI613*%
X376255800Y-96230000D03*
X373835800Y-93710000D03*
X376255800Y-91230000D03*
%TD*%
%TO.C,EMI405*%
X263100000Y-94780000D03*
X263100000Y-92240000D03*
X263100000Y-89780000D03*
%TD*%
D17*
%TO.C,*%
X424780000Y-320920000D03*
%TD*%
D12*
%TO.C,*%
X401960000Y-163420000D03*
%TD*%
D14*
%TO.C,JMP205*%
X116440000Y-208575000D03*
D15*
X116440000Y-211115000D03*
%TD*%
D13*
%TO.C,U108*%
X174269400Y-198958200D03*
D12*
X174269400Y-201498200D03*
X174269400Y-204038200D03*
X174269400Y-206578200D03*
X174269400Y-209118200D03*
X174269400Y-211658200D03*
X174269400Y-214198200D03*
X174269400Y-216738200D03*
X174269400Y-219278200D03*
X174269400Y-221818200D03*
X181889400Y-221818200D03*
X181889400Y-219278200D03*
X181889400Y-216738200D03*
X181889400Y-214198200D03*
X181889400Y-211658200D03*
X181889400Y-209118200D03*
X181889400Y-206578200D03*
X181889400Y-204038200D03*
X181889400Y-201498200D03*
X181889400Y-198958200D03*
%TD*%
D30*
%TO.C,U101*%
X256330000Y-249820000D03*
D21*
X253790000Y-249820000D03*
X256330000Y-247280000D03*
X253790000Y-247280000D03*
X256330000Y-244740000D03*
X253790000Y-244740000D03*
X256330000Y-242200000D03*
X253790000Y-242200000D03*
X256330000Y-239660000D03*
X253790000Y-239660000D03*
X256330000Y-237120000D03*
X253790000Y-234580000D03*
X253790000Y-237120000D03*
X251250000Y-234580000D03*
X251250000Y-237120000D03*
X248710000Y-234580000D03*
X248710000Y-237120000D03*
X246170000Y-234580000D03*
X246170000Y-237120000D03*
X243630000Y-234580000D03*
X243630000Y-237120000D03*
X241090000Y-234580000D03*
X241090000Y-237120000D03*
X238550000Y-234580000D03*
X238550000Y-237120000D03*
X236010000Y-234580000D03*
X236010000Y-237120000D03*
X233470000Y-234580000D03*
X233470000Y-237120000D03*
X230930000Y-234580000D03*
X230930000Y-237120000D03*
X228390000Y-234580000D03*
X225850000Y-237120000D03*
X228390000Y-237120000D03*
X225850000Y-239660000D03*
X228390000Y-239660000D03*
X225850000Y-242200000D03*
X228390000Y-242200000D03*
X225850000Y-244740000D03*
X228390000Y-244740000D03*
X225850000Y-247280000D03*
X228390000Y-247280000D03*
X225850000Y-249820000D03*
X228390000Y-249820000D03*
X225850000Y-252360000D03*
X228390000Y-252360000D03*
X225850000Y-254900000D03*
X228390000Y-254900000D03*
X225850000Y-257440000D03*
X228390000Y-257440000D03*
X225850000Y-259980000D03*
X228390000Y-259980000D03*
X225850000Y-262520000D03*
X228390000Y-265060000D03*
X228390000Y-262520000D03*
X230930000Y-265060000D03*
X230930000Y-262520000D03*
X233470000Y-265060000D03*
X233470000Y-262520000D03*
X236010000Y-265060000D03*
X236010000Y-262520000D03*
X238550000Y-265060000D03*
X238550000Y-262520000D03*
X241090000Y-265060000D03*
X241090000Y-262520000D03*
X243630000Y-265060000D03*
X243630000Y-262520000D03*
X246170000Y-265060000D03*
X246170000Y-262520000D03*
X248710000Y-265060000D03*
X248710000Y-262520000D03*
X251250000Y-265060000D03*
X251250000Y-262520000D03*
X253790000Y-265060000D03*
X256330000Y-262520000D03*
X253790000Y-262520000D03*
X256330000Y-259980000D03*
X253790000Y-259980000D03*
X256330000Y-257440000D03*
X253790000Y-257440000D03*
X256330000Y-254900000D03*
X253790000Y-254900000D03*
X256330000Y-252360000D03*
X253790000Y-252360000D03*
%TD*%
D11*
%TO.C,EMI612*%
X381970800Y-96230000D03*
X379550800Y-93710000D03*
X381970800Y-91230000D03*
%TD*%
%TO.C,EMI414*%
X228840000Y-94780000D03*
X228840000Y-92240000D03*
X228840000Y-89780000D03*
%TD*%
D32*
%TO.C,*%
X304670000Y-257450000D03*
%TD*%
D11*
%TO.C,C541*%
X413645000Y-219985000D03*
X418645000Y-219985000D03*
%TD*%
%TO.C,C528*%
X112530000Y-155720000D03*
D12*
X122690000Y-155720000D03*
%TD*%
D13*
%TO.C,U315*%
X207280000Y-318520000D03*
D12*
X207280000Y-321060000D03*
X207280000Y-323600000D03*
X207280000Y-326140000D03*
X207280000Y-328680000D03*
X207280000Y-331220000D03*
X207280000Y-333760000D03*
X214900000Y-333760000D03*
X214900000Y-331220000D03*
X214900000Y-328680000D03*
X214900000Y-326140000D03*
X214900000Y-323600000D03*
X214900000Y-321060000D03*
X214900000Y-318520000D03*
%TD*%
D11*
%TO.C,C702*%
X208610000Y-125950000D03*
D12*
X198450000Y-125950000D03*
%TD*%
D11*
%TO.C,EMI418*%
X286040000Y-94780000D03*
X286040000Y-92240000D03*
X286040000Y-89780000D03*
%TD*%
D15*
%TO.C,CN503*%
X125520000Y-97820000D03*
X125520000Y-100360000D03*
X125520000Y-102900000D03*
X125520000Y-105440000D03*
X125520000Y-107980000D03*
X125520000Y-110520000D03*
X125520000Y-113060000D03*
X125520000Y-115600000D03*
X125520000Y-118140000D03*
X125520000Y-120680000D03*
X125520000Y-123220000D03*
X125520000Y-125760000D03*
X125520000Y-128300000D03*
X125520000Y-130840000D03*
X125520000Y-133380000D03*
X125520000Y-135920000D03*
X125520000Y-138460000D03*
X125520000Y-141000000D03*
X125520000Y-143540000D03*
X125520000Y-146080000D03*
X125520000Y-148620000D03*
X125520000Y-151160000D03*
X125520000Y-153700000D03*
X125520000Y-156240000D03*
X125520000Y-158780000D03*
X125520000Y-161320000D03*
X125520000Y-163860000D03*
X125520000Y-166400000D03*
X125520000Y-168940000D03*
X125520000Y-171480000D03*
X125520000Y-174020000D03*
D26*
X130650000Y-97820000D03*
D15*
X130650000Y-100360000D03*
X130650000Y-102900000D03*
X130650000Y-105440000D03*
X130650000Y-107980000D03*
X130650000Y-110520000D03*
X130650000Y-113060000D03*
X130650000Y-115600000D03*
X130650000Y-118140000D03*
X130650000Y-120680000D03*
X130650000Y-123220000D03*
X130650000Y-125760000D03*
X130650000Y-128300000D03*
X130650000Y-130840000D03*
X130650000Y-133380000D03*
X130650000Y-135920000D03*
X130650000Y-138460000D03*
X130650000Y-141000000D03*
X130650000Y-143540000D03*
X130650000Y-146080000D03*
X130650000Y-148620000D03*
X130650000Y-151160000D03*
X130650000Y-153700000D03*
X130650000Y-156240000D03*
X130650000Y-158780000D03*
X130650000Y-161320000D03*
X130650000Y-163860000D03*
X130650000Y-166400000D03*
X130650000Y-168940000D03*
X130650000Y-171480000D03*
X130650000Y-174020000D03*
%TD*%
D13*
%TO.C,PZ101*%
X405800000Y-329550000D03*
D11*
X413460000Y-329550000D03*
%TD*%
%TO.C,FB609*%
X410780000Y-110120000D03*
D12*
X410780000Y-100120000D03*
%TD*%
D14*
%TO.C,JMP612*%
X327580000Y-207950000D03*
D15*
X327580000Y-210490000D03*
%TD*%
D11*
%TO.C,EMI608*%
X370591600Y-96230000D03*
X368171600Y-93710000D03*
X370591600Y-93770000D03*
X370591600Y-91230000D03*
%TD*%
%TO.C,R409*%
X288680000Y-98790000D03*
D12*
X288680000Y-108950000D03*
%TD*%
D11*
%TO.C,C726*%
X129800000Y-227030000D03*
D12*
X119640000Y-227030000D03*
%TD*%
D11*
%TO.C,EMI420*%
X306360000Y-95000000D03*
X306360000Y-92460000D03*
X306360000Y-90000000D03*
%TD*%
%TO.C,EMI415*%
X224960000Y-94780000D03*
X224960000Y-92240000D03*
X224960000Y-89780000D03*
%TD*%
%TO.C,C547*%
X426710000Y-109419000D03*
X426710000Y-104419000D03*
%TD*%
D15*
%TO.C,CN203*%
X111950000Y-233350000D03*
X111950000Y-235890000D03*
D14*
X111950000Y-238430000D03*
%TD*%
D11*
%TO.C,C753*%
X215020000Y-313480000D03*
D12*
X204860000Y-313480000D03*
%TD*%
D11*
%TO.C,FB610*%
X405630000Y-110110000D03*
D12*
X405630000Y-100110000D03*
%TD*%
D11*
%TO.C,C607*%
X413410000Y-112770000D03*
D12*
X413410000Y-122770000D03*
%TD*%
D11*
%TO.C,D690*%
X262010000Y-330970000D03*
D12*
X262010000Y-320970000D03*
%TD*%
D11*
%TO.C,R617*%
X392890000Y-122690000D03*
D12*
X392890000Y-112690000D03*
%TD*%
D11*
%TO.C,EMI611*%
X353294200Y-96230000D03*
X350874200Y-93710000D03*
X353294200Y-91230000D03*
%TD*%
%TO.C,C705*%
X180580000Y-182480000D03*
D12*
X190740000Y-182480000D03*
%TD*%
D11*
%TO.C,R203*%
X310930000Y-307050000D03*
D12*
X310930000Y-317050000D03*
%TD*%
D11*
%TO.C,C708*%
X181910000Y-193880000D03*
D12*
X171750000Y-193880000D03*
%TD*%
D31*
%TO.C,BT601*%
X253130000Y-336230000D03*
X263260000Y-336230000D03*
D33*
X258340000Y-316770000D03*
%TD*%
D11*
%TO.C,C602*%
X323080000Y-144400000D03*
D12*
X312920000Y-144400000D03*
%TD*%
D11*
%TO.C,R301*%
X129790000Y-220070000D03*
D12*
X129790000Y-209910000D03*
%TD*%
D11*
%TO.C,C709*%
X181860000Y-226970000D03*
D12*
X171700000Y-226970000D03*
%TD*%
D13*
%TO.C,OSC101*%
X272180000Y-260050000D03*
D11*
X272180000Y-244810000D03*
X264560000Y-244810000D03*
X264560000Y-260050000D03*
%TD*%
D13*
%TO.C,RP503*%
X110550000Y-137930000D03*
D12*
X110550000Y-140470000D03*
X110550000Y-143010000D03*
X110550000Y-145550000D03*
X110550000Y-148090000D03*
X110550000Y-150630000D03*
X110550000Y-153170000D03*
X110550000Y-155710000D03*
%TD*%
D15*
%TO.C,JMP204*%
X113160000Y-218140000D03*
X113160000Y-220680000D03*
D14*
X113160000Y-223220000D03*
%TD*%
D11*
%TO.C,C513*%
X123770000Y-87020000D03*
D12*
X123770000Y-76860000D03*
%TD*%
D11*
%TO.C,C531*%
X112520000Y-146220000D03*
D12*
X122680000Y-146220000D03*
%TD*%
D14*
%TO.C,JMP207*%
X338410000Y-220660000D03*
D15*
X338410000Y-218120000D03*
%TD*%
D13*
%TO.C,U313*%
X234050000Y-291770000D03*
D12*
X234050000Y-294310000D03*
X234050000Y-296850000D03*
X234050000Y-299390000D03*
X234050000Y-301930000D03*
X234050000Y-304470000D03*
X234050000Y-307010000D03*
X241670000Y-307010000D03*
X241670000Y-304470000D03*
X241670000Y-301930000D03*
X241670000Y-299390000D03*
X241670000Y-296850000D03*
X241670000Y-294310000D03*
X241670000Y-291770000D03*
%TD*%
D11*
%TO.C,C504*%
X279855000Y-195185000D03*
X279855000Y-190185000D03*
%TD*%
%TO.C,C421*%
X228750000Y-107670000D03*
D12*
X228750000Y-97510000D03*
%TD*%
D11*
%TO.C,C609*%
X401160000Y-88590000D03*
D12*
X401160000Y-98750000D03*
%TD*%
D11*
%TO.C,XTAL2*%
X298890000Y-326070000D03*
X301430000Y-326070000D03*
%TD*%
D13*
%TO.C,U607*%
X331927200Y-145669000D03*
D12*
X331927200Y-148209000D03*
X331927200Y-150749000D03*
X331927200Y-153289000D03*
X331927200Y-155829000D03*
X331927200Y-158369000D03*
X331927200Y-160909000D03*
X331927200Y-163449000D03*
X331927200Y-165989000D03*
X331927200Y-168529000D03*
X331927200Y-171069000D03*
X331927200Y-173609000D03*
X331927200Y-176149000D03*
X331927200Y-178689000D03*
X347167200Y-178689000D03*
X347167200Y-176149000D03*
X347167200Y-173609000D03*
X347167200Y-171069000D03*
X347167200Y-168529000D03*
X347167200Y-165989000D03*
X347167200Y-163449000D03*
X347167200Y-160909000D03*
X347167200Y-158369000D03*
X347167200Y-155829000D03*
X347167200Y-153289000D03*
X347167200Y-150749000D03*
X347167200Y-148209000D03*
X347167200Y-145669000D03*
%TD*%
D11*
%TO.C,C773*%
X413340000Y-130470000D03*
D12*
X423500000Y-130470000D03*
%TD*%
D13*
%TO.C,U2*%
X344662600Y-286740600D03*
D12*
X344662600Y-289280600D03*
X344662600Y-291820600D03*
X344662600Y-294360600D03*
X344662600Y-296900600D03*
X344662600Y-299440600D03*
X344662600Y-301980600D03*
X352282600Y-301980600D03*
X352282600Y-299440600D03*
X352282600Y-296900600D03*
X352282600Y-294360600D03*
X352282600Y-291820600D03*
X352282600Y-289280600D03*
X352282600Y-286740600D03*
%TD*%
D22*
%TO.C,*%
X212390000Y-192650000D03*
%TD*%
D11*
%TO.C,R630*%
X404500000Y-149480000D03*
D12*
X394500000Y-149480000D03*
%TD*%
D11*
%TO.C,R404*%
X270880000Y-173070000D03*
D12*
X270880000Y-162910000D03*
%TD*%
D11*
%TO.C,R405*%
X273450000Y-160260000D03*
D12*
X273450000Y-170420000D03*
%TD*%
D24*
%TO.C,CN202*%
X390570000Y-210450000D03*
X388030000Y-207910000D03*
X388030000Y-210450000D03*
X385490000Y-207910000D03*
X385490000Y-210450000D03*
X382950000Y-207910000D03*
X382950000Y-210450000D03*
X380410000Y-207910000D03*
X380410000Y-210450000D03*
X377870000Y-207910000D03*
X377870000Y-210450000D03*
X375330000Y-207910000D03*
X375330000Y-210450000D03*
X372790000Y-207910000D03*
X372790000Y-210450000D03*
X370250000Y-207910000D03*
X370250000Y-210450000D03*
X367710000Y-207910000D03*
X365170000Y-207910000D03*
X365170000Y-210450000D03*
X362630000Y-207910000D03*
X362630000Y-210450000D03*
X360090000Y-207910000D03*
X360090000Y-210450000D03*
X357550000Y-207910000D03*
X357550000Y-210450000D03*
X355010000Y-207910000D03*
X355010000Y-210450000D03*
X352470000Y-207910000D03*
X352470000Y-210450000D03*
X349930000Y-207910000D03*
X349930000Y-210450000D03*
X347390000Y-207910000D03*
X347390000Y-210450000D03*
X344850000Y-207910000D03*
X344850000Y-210450000D03*
X342310000Y-207910000D03*
X342310000Y-210450000D03*
%TD*%
D11*
%TO.C,C703*%
X206080000Y-259420000D03*
D12*
X195920000Y-259420000D03*
%TD*%
D11*
%TO.C,R505*%
X115650000Y-255740000D03*
D12*
X115650000Y-245580000D03*
%TD*%
D11*
%TO.C,R628*%
X404500000Y-152013600D03*
D12*
X394500000Y-152013600D03*
%TD*%
D13*
%TO.C,U202*%
X375280000Y-245338600D03*
D12*
X375280000Y-247878600D03*
X375280000Y-250418600D03*
X375280000Y-252958600D03*
X375280000Y-255498600D03*
X375280000Y-258038600D03*
X375280000Y-260578600D03*
X375280000Y-263118600D03*
X375280000Y-265658600D03*
X375280000Y-268198600D03*
X382900000Y-268198600D03*
X382900000Y-265658600D03*
X382900000Y-263118600D03*
X382900000Y-260578600D03*
X382900000Y-258038600D03*
X382900000Y-255498600D03*
X382900000Y-252958600D03*
X382900000Y-250418600D03*
X382900000Y-247878600D03*
X382900000Y-245338600D03*
%TD*%
D13*
%TO.C,U314*%
X207340000Y-291840000D03*
D12*
X207340000Y-294380000D03*
X207340000Y-296920000D03*
X207340000Y-299460000D03*
X207340000Y-302000000D03*
X207340000Y-304540000D03*
X207340000Y-307080000D03*
X214960000Y-307080000D03*
X214960000Y-304540000D03*
X214960000Y-302000000D03*
X214960000Y-299460000D03*
X214960000Y-296920000D03*
X214960000Y-294380000D03*
X214960000Y-291840000D03*
%TD*%
D17*
%TO.C,CN602*%
X375120000Y-80300000D03*
D16*
X357100000Y-81460000D03*
D17*
X350060000Y-80280000D03*
D16*
X359870000Y-81460000D03*
X362640000Y-81460000D03*
X365410000Y-81460000D03*
X368180000Y-81460000D03*
X358410000Y-78930000D03*
X361180000Y-78930000D03*
X363950000Y-78930000D03*
X366720000Y-78930000D03*
%TD*%
D11*
%TO.C,C605*%
X424860000Y-112770000D03*
D12*
X424860000Y-122770000D03*
%TD*%
D13*
%TO.C,U311*%
X152570000Y-305950000D03*
D12*
X152570000Y-308490000D03*
X152570000Y-311030000D03*
X152570000Y-313570000D03*
X152570000Y-316110000D03*
X152570000Y-318650000D03*
X152570000Y-321190000D03*
X152570000Y-323730000D03*
X152570000Y-326270000D03*
X160190000Y-326270000D03*
X160190000Y-323730000D03*
X160190000Y-321190000D03*
X160190000Y-318650000D03*
X160190000Y-316110000D03*
X160190000Y-313570000D03*
X160190000Y-311030000D03*
X160190000Y-308490000D03*
X160190000Y-305950000D03*
%TD*%
D11*
%TO.C,C506*%
X317100000Y-263810000D03*
D12*
X317100000Y-253650000D03*
%TD*%
D11*
%TO.C,C719*%
X382890000Y-282930000D03*
D12*
X372730000Y-282930000D03*
%TD*%
D13*
%TO.C,U303*%
X179290000Y-318570000D03*
D12*
X179290000Y-321110000D03*
X179290000Y-323650000D03*
X179290000Y-326190000D03*
X179290000Y-328730000D03*
X179290000Y-331270000D03*
X179290000Y-333810000D03*
X179290000Y-336350000D03*
X186910000Y-336350000D03*
X186910000Y-333810000D03*
X186910000Y-331270000D03*
X186910000Y-328730000D03*
X186910000Y-326190000D03*
X186910000Y-323650000D03*
X186910000Y-321110000D03*
X186910000Y-318570000D03*
%TD*%
D11*
%TO.C,EMI609*%
X364825800Y-96230000D03*
X362405800Y-93710000D03*
X364825800Y-93770000D03*
X364825800Y-91230000D03*
%TD*%
%TO.C,C729*%
X137310000Y-300900000D03*
D12*
X147470000Y-300900000D03*
%TD*%
D11*
%TO.C,FB104*%
X397610000Y-269530000D03*
D12*
X407610000Y-269530000D03*
%TD*%
D11*
%TO.C,C757*%
X293710000Y-122880000D03*
D12*
X303870000Y-122880000D03*
%TD*%
D11*
%TO.C,EMI105*%
X417870000Y-269520000D03*
X415450000Y-267000000D03*
X417870000Y-264520000D03*
%TD*%
%TO.C,C511*%
X130200000Y-87020000D03*
D12*
X130200000Y-76860000D03*
%TD*%
D13*
%TO.C,U3*%
X375240000Y-286730000D03*
D12*
X375240000Y-289270000D03*
X375240000Y-291810000D03*
X375240000Y-294350000D03*
X375240000Y-296890000D03*
X375240000Y-299430000D03*
X375240000Y-301970000D03*
X382860000Y-301970000D03*
X382860000Y-299430000D03*
X382860000Y-296890000D03*
X382860000Y-294350000D03*
X382860000Y-291810000D03*
X382860000Y-289270000D03*
X382860000Y-286730000D03*
%TD*%
D28*
%TO.C,CN402*%
X280495800Y-80525600D03*
D18*
X320715800Y-81635600D03*
D28*
X327595800Y-80525600D03*
D16*
X317945800Y-81635600D03*
X315175800Y-81635600D03*
X312405800Y-81635600D03*
X309635800Y-81635600D03*
X306865800Y-81635600D03*
X304095800Y-81635600D03*
X301325800Y-81635600D03*
X298555800Y-81635600D03*
X295785800Y-81635600D03*
X293015800Y-81635600D03*
X290245800Y-81635600D03*
X287475800Y-81635600D03*
X319310800Y-78815600D03*
X316540800Y-78815600D03*
X313770800Y-78815600D03*
X311000800Y-78815600D03*
X308230800Y-78815600D03*
X305460800Y-78815600D03*
X302690800Y-78815600D03*
X299920800Y-78815600D03*
X297150800Y-78815600D03*
X294380800Y-78815600D03*
X291610800Y-78815600D03*
X288840800Y-78815600D03*
%TD*%
D11*
%TO.C,C704*%
X180440000Y-118950000D03*
D12*
X190600000Y-118950000D03*
%TD*%
D11*
%TO.C,R104*%
X391780000Y-266950000D03*
D12*
X391780000Y-256950000D03*
%TD*%
D21*
%TO.C,XTAL3*%
X282290000Y-158380000D03*
X277390000Y-158380000D03*
%TD*%
D13*
%TO.C,U403*%
X227610000Y-124129800D03*
D12*
X227610000Y-126669800D03*
X227610000Y-129209800D03*
X227610000Y-131749800D03*
X227610000Y-134289800D03*
X227610000Y-136829800D03*
X227610000Y-139369800D03*
X227610000Y-141909800D03*
X227610000Y-144449800D03*
X227610000Y-146989800D03*
X227610000Y-149529800D03*
X227610000Y-152069800D03*
X227610000Y-154609800D03*
X227610000Y-157149800D03*
X227610000Y-159689800D03*
X227610000Y-162229800D03*
X227610000Y-164769800D03*
X227610000Y-167309800D03*
X227610000Y-169849800D03*
X227610000Y-172389800D03*
X242850000Y-172389800D03*
X242850000Y-169849800D03*
X242850000Y-167309800D03*
X242850000Y-164769800D03*
X242850000Y-162229800D03*
X242850000Y-159689800D03*
X242850000Y-157149800D03*
X242850000Y-154609800D03*
X242850000Y-152069800D03*
X242850000Y-149529800D03*
X242850000Y-146989800D03*
X242850000Y-144449800D03*
X242850000Y-141909800D03*
X242850000Y-139369800D03*
X242850000Y-136829800D03*
X242850000Y-134289800D03*
X242850000Y-131749800D03*
X242850000Y-129209800D03*
X242850000Y-126669800D03*
X242850000Y-124129800D03*
%TD*%
D13*
%TO.C,RP505*%
X110510000Y-89510000D03*
D12*
X110510000Y-92050000D03*
X110510000Y-94590000D03*
X110510000Y-97130000D03*
X110510000Y-99670000D03*
X110510000Y-102210000D03*
X110510000Y-104750000D03*
X110510000Y-107290000D03*
X110510000Y-109830000D03*
X110510000Y-112370000D03*
%TD*%
D14*
%TO.C,JMP614*%
X332730000Y-220660000D03*
D15*
X332730000Y-218120000D03*
%TD*%
D11*
%TO.C,EMI401*%
X278340000Y-94780000D03*
X278340000Y-92240000D03*
X278340000Y-89780000D03*
%TD*%
D13*
%TO.C,U609*%
X311610000Y-159620000D03*
D12*
X311610000Y-162160000D03*
X311610000Y-164700000D03*
X311610000Y-167240000D03*
X311610000Y-169780000D03*
X311610000Y-172320000D03*
X311610000Y-174860000D03*
X311610000Y-177400000D03*
X319230000Y-177400000D03*
X319230000Y-174860000D03*
X319230000Y-172320000D03*
X319230000Y-169780000D03*
X319230000Y-167240000D03*
X319230000Y-164700000D03*
X319230000Y-162160000D03*
X319230000Y-159620000D03*
%TD*%
D22*
%TO.C,*%
X294530000Y-247290000D03*
%TD*%
D11*
%TO.C,C523*%
X112580000Y-171640000D03*
D12*
X122740000Y-171640000D03*
%TD*%
D11*
%TO.C,C406*%
X285050000Y-176110000D03*
D12*
X274890000Y-176110000D03*
%TD*%
D13*
%TO.C,U603*%
X350870000Y-108950000D03*
D12*
X350870000Y-111490000D03*
X350870000Y-114030000D03*
X350870000Y-116570000D03*
X350870000Y-119110000D03*
X350870000Y-121650000D03*
X350870000Y-124190000D03*
X350870000Y-126730000D03*
X350870000Y-129270000D03*
X350870000Y-131810000D03*
X358490000Y-131810000D03*
X358490000Y-129270000D03*
X358490000Y-126730000D03*
X358490000Y-124190000D03*
X358490000Y-121650000D03*
X358490000Y-119110000D03*
X358490000Y-116570000D03*
X358490000Y-114030000D03*
X358490000Y-111490000D03*
X358490000Y-108950000D03*
%TD*%
D11*
%TO.C,R606*%
X333150000Y-101370000D03*
D12*
X333150000Y-91370000D03*
%TD*%
D11*
%TO.C,R618*%
X380060200Y-122710000D03*
D12*
X380060200Y-112710000D03*
%TD*%
D22*
%TO.C,*%
X117890000Y-192740000D03*
%TD*%
D11*
%TO.C,C517*%
X142870000Y-87020000D03*
D12*
X142870000Y-76860000D03*
%TD*%
D11*
%TO.C,C419*%
X236380000Y-107670000D03*
D12*
X236380000Y-97510000D03*
%TD*%
D11*
%TO.C,C403*%
X270875000Y-316495000D03*
X275875000Y-316495000D03*
%TD*%
%TO.C,C771*%
X358490000Y-105160000D03*
D12*
X348330000Y-105160000D03*
%TD*%
D11*
%TO.C,C802*%
X309750000Y-273340000D03*
D12*
X299590000Y-273340000D03*
%TD*%
D11*
%TO.C,EMI416*%
X221250000Y-94780000D03*
X221250000Y-92240000D03*
X221250000Y-89780000D03*
%TD*%
%TO.C,C103*%
X409590000Y-309100000D03*
D12*
X419750000Y-309100000D03*
%TD*%
D11*
%TO.C,CR601*%
X321640000Y-149490000D03*
D12*
X311640000Y-149490000D03*
%TD*%
D11*
%TO.C,C728*%
X150030000Y-300910000D03*
D12*
X160190000Y-300910000D03*
%TD*%
D11*
%TO.C,R503*%
X176820000Y-183860000D03*
D12*
X176820000Y-173700000D03*
%TD*%
D30*
%TO.C,Q401*%
X296260000Y-107560000D03*
D21*
X298800000Y-107560000D03*
X301340000Y-107560000D03*
%TD*%
D29*
%TO.C,TP1*%
X116310000Y-223130000D03*
%TD*%
D11*
%TO.C,C707*%
X166640000Y-226940000D03*
D12*
X156480000Y-226940000D03*
%TD*%
D13*
%TO.C,U207*%
X360580000Y-310930000D03*
D12*
X360580000Y-313470000D03*
X360580000Y-316010000D03*
X360580000Y-318550000D03*
X360580000Y-321090000D03*
X360580000Y-323630000D03*
X360580000Y-326170000D03*
X368200000Y-326170000D03*
X368200000Y-323630000D03*
X368200000Y-321090000D03*
X368200000Y-318550000D03*
X368200000Y-316010000D03*
X368200000Y-313470000D03*
X368200000Y-310930000D03*
%TD*%
D11*
%TO.C,R640*%
X405810000Y-174700000D03*
D12*
X405810000Y-164700000D03*
%TD*%
D13*
%TO.C,U110*%
X192090000Y-291836000D03*
D12*
X192090000Y-294376000D03*
X192090000Y-296916000D03*
X192090000Y-299456000D03*
X192090000Y-301996000D03*
X192090000Y-304536000D03*
X192090000Y-307076000D03*
X199710000Y-307076000D03*
X199710000Y-304536000D03*
X199710000Y-301996000D03*
X199710000Y-299456000D03*
X199710000Y-296916000D03*
X199710000Y-294376000D03*
X199710000Y-291836000D03*
%TD*%
D13*
%TO.C,U301*%
X134870000Y-235840000D03*
D12*
X134870000Y-238380000D03*
X134870000Y-240920000D03*
X134870000Y-243460000D03*
X134870000Y-246000000D03*
X134870000Y-248540000D03*
X134870000Y-251080000D03*
X134870000Y-253620000D03*
X142490000Y-253620000D03*
X142490000Y-251080000D03*
X142490000Y-248540000D03*
X142490000Y-246000000D03*
X142490000Y-243460000D03*
X142490000Y-240920000D03*
X142490000Y-238380000D03*
X142490000Y-235840000D03*
%TD*%
D11*
%TO.C,C514*%
X133400000Y-87020000D03*
D12*
X133400000Y-76860000D03*
%TD*%
D13*
%TO.C,U302*%
X179340000Y-281680000D03*
D12*
X179340000Y-284220000D03*
X179340000Y-286760000D03*
X179340000Y-289300000D03*
X179340000Y-291840000D03*
X179340000Y-294380000D03*
X179340000Y-296920000D03*
X179340000Y-299460000D03*
X186960000Y-299460000D03*
X186960000Y-296920000D03*
X186960000Y-294380000D03*
X186960000Y-291840000D03*
X186960000Y-289300000D03*
X186960000Y-286760000D03*
X186960000Y-284220000D03*
X186960000Y-281680000D03*
%TD*%
D11*
%TO.C,C544*%
X305285000Y-289855000D03*
X300285000Y-289855000D03*
%TD*%
%TO.C,C606*%
X417190000Y-112770000D03*
D12*
X417190000Y-122770000D03*
%TD*%
D11*
%TO.C,R107*%
X165140000Y-209160000D03*
D12*
X155140000Y-209160000D03*
%TD*%
D13*
%TO.C,U201*%
X133520000Y-190080000D03*
D12*
X133520000Y-192620000D03*
X133520000Y-195160000D03*
X133520000Y-197700000D03*
X133520000Y-200240000D03*
X133520000Y-202780000D03*
X133520000Y-205320000D03*
X133520000Y-207860000D03*
X133520000Y-210400000D03*
X133520000Y-212940000D03*
X133520000Y-215480000D03*
X133520000Y-218020000D03*
X133520000Y-220560000D03*
X133520000Y-223100000D03*
X148760000Y-223100000D03*
X148760000Y-220560000D03*
X148760000Y-218020000D03*
X148760000Y-215480000D03*
X148760000Y-212940000D03*
X148760000Y-210400000D03*
X148760000Y-207860000D03*
X148760000Y-205320000D03*
X148760000Y-202780000D03*
X148760000Y-200240000D03*
X148760000Y-197700000D03*
X148760000Y-195160000D03*
X148760000Y-192620000D03*
X148760000Y-190080000D03*
%TD*%
D21*
%TO.C,*%
X216870000Y-307040000D03*
%TD*%
D11*
%TO.C,C509*%
X355370000Y-315900000D03*
D12*
X345210000Y-315900000D03*
%TD*%
D11*
%TO.C,EMI413*%
X232580000Y-94780000D03*
X232580000Y-92240000D03*
X232580000Y-89780000D03*
%TD*%
D13*
%TO.C,RP605*%
X410920000Y-154550000D03*
D12*
X410920000Y-152010000D03*
X410920000Y-149470000D03*
X410920000Y-146930000D03*
X410920000Y-144390000D03*
X410920000Y-141850000D03*
X410920000Y-139310000D03*
X410920000Y-136770000D03*
%TD*%
D18*
%TO.C,VR501*%
X197030000Y-96200000D03*
D28*
X199570000Y-78360000D03*
D16*
X199570000Y-96200000D03*
X202030000Y-96200000D03*
%TD*%
D13*
%TO.C,U610*%
X343310000Y-131770000D03*
D12*
X343310000Y-129230000D03*
X343310000Y-126690000D03*
X343310000Y-124150000D03*
X343310000Y-121610000D03*
X343310000Y-119070000D03*
X343310000Y-116530000D03*
X343310000Y-113990000D03*
X343310000Y-111450000D03*
X343310000Y-108910000D03*
X335690000Y-108910000D03*
X335690000Y-111450000D03*
X335690000Y-113990000D03*
X335690000Y-116530000D03*
X335690000Y-119070000D03*
X335690000Y-121610000D03*
X335690000Y-124150000D03*
X335690000Y-126690000D03*
X335690000Y-129230000D03*
X335690000Y-131770000D03*
%TD*%
D13*
%TO.C,U307*%
X139870000Y-272770000D03*
D12*
X139870000Y-275310000D03*
X139870000Y-277850000D03*
X139870000Y-280390000D03*
X139870000Y-282930000D03*
X139870000Y-285470000D03*
X139870000Y-288010000D03*
X139870000Y-290550000D03*
X139870000Y-293090000D03*
X139870000Y-295630000D03*
X147490000Y-295630000D03*
X147490000Y-293090000D03*
X147490000Y-290550000D03*
X147490000Y-288010000D03*
X147490000Y-285470000D03*
X147490000Y-282930000D03*
X147490000Y-280390000D03*
X147490000Y-277850000D03*
X147490000Y-275310000D03*
X147490000Y-272770000D03*
%TD*%
D11*
%TO.C,C527*%
X112530000Y-158930000D03*
D12*
X122690000Y-158930000D03*
%TD*%
D11*
%TO.C,EMI409*%
X247930000Y-94780000D03*
X247930000Y-92240000D03*
X247930000Y-89780000D03*
%TD*%
D25*
%TO.C,PAD201*%
X335870000Y-211720000D03*
X335870000Y-209850000D03*
X335870000Y-207920000D03*
%TD*%
D11*
%TO.C,C727*%
X162640000Y-300910000D03*
D12*
X172800000Y-300910000D03*
%TD*%
D13*
%TO.C,U305*%
X165390000Y-272760000D03*
D12*
X165390000Y-275300000D03*
X165390000Y-277840000D03*
X165390000Y-280380000D03*
X165390000Y-282920000D03*
X165390000Y-285460000D03*
X165390000Y-288000000D03*
X165390000Y-290540000D03*
X165390000Y-293080000D03*
X165390000Y-295620000D03*
X173010000Y-295620000D03*
X173010000Y-293080000D03*
X173010000Y-290540000D03*
X173010000Y-288000000D03*
X173010000Y-285460000D03*
X173010000Y-282920000D03*
X173010000Y-280380000D03*
X173010000Y-277840000D03*
X173010000Y-275300000D03*
X173010000Y-272760000D03*
%TD*%
D13*
%TO.C,RP501*%
X315420000Y-286740000D03*
D12*
X315420000Y-289280000D03*
X315420000Y-291820000D03*
X315420000Y-294360000D03*
X315420000Y-296900000D03*
X315420000Y-299440000D03*
%TD*%
D13*
%TO.C,OSC201*%
X356130000Y-324860000D03*
D11*
X340890000Y-324860000D03*
X340890000Y-332480000D03*
X356130000Y-332480000D03*
%TD*%
%TO.C,CB110*%
X199710000Y-288010000D03*
D12*
X189550000Y-288010000D03*
%TD*%
D13*
%TO.C,U102*%
X193410000Y-130400000D03*
D12*
X193410000Y-132940000D03*
X193410000Y-135480000D03*
X193410000Y-138020000D03*
X193410000Y-140560000D03*
X193410000Y-143100000D03*
X193410000Y-145640000D03*
X193410000Y-148180000D03*
X193410000Y-150720000D03*
X193410000Y-153260000D03*
X193410000Y-155800000D03*
X193410000Y-158340000D03*
X193410000Y-160880000D03*
X193410000Y-163420000D03*
X193410000Y-165960000D03*
X193410000Y-168500000D03*
X193410000Y-171040000D03*
X193410000Y-173580000D03*
X193410000Y-176120000D03*
X193410000Y-178660000D03*
X208650000Y-178660000D03*
X208650000Y-176120000D03*
X208650000Y-173580000D03*
X208650000Y-171040000D03*
X208650000Y-168500000D03*
X208650000Y-165960000D03*
X208650000Y-163420000D03*
X208650000Y-160880000D03*
X208650000Y-158340000D03*
X208650000Y-155800000D03*
X208650000Y-153260000D03*
X208650000Y-150720000D03*
X208650000Y-148180000D03*
X208650000Y-145640000D03*
X208650000Y-143100000D03*
X208650000Y-140560000D03*
X208650000Y-138020000D03*
X208650000Y-135480000D03*
X208650000Y-132940000D03*
X208650000Y-130400000D03*
%TD*%
D11*
%TO.C,C424*%
X217380000Y-107670000D03*
D12*
X217380000Y-97510000D03*
%TD*%
D11*
%TO.C,C545*%
X417325000Y-289945000D03*
X412325000Y-289945000D03*
%TD*%
%TO.C,C516*%
X139750000Y-87020000D03*
D12*
X139750000Y-76860000D03*
%TD*%
D13*
%TO.C,RP202*%
X360590000Y-250440000D03*
D12*
X360590000Y-252980000D03*
X360590000Y-255520000D03*
X360590000Y-258060000D03*
X360590000Y-260600000D03*
X360590000Y-263140000D03*
X360590000Y-265680000D03*
X360590000Y-268220000D03*
X368210000Y-268220000D03*
X368210000Y-265680000D03*
X368210000Y-263140000D03*
X368210000Y-260600000D03*
X368210000Y-258060000D03*
X368210000Y-255520000D03*
X368210000Y-252980000D03*
X368210000Y-250440000D03*
%TD*%
D13*
%TO.C,U203*%
X321157600Y-286740600D03*
D12*
X321157600Y-289280600D03*
X321157600Y-291820600D03*
X321157600Y-294360600D03*
X321157600Y-296900600D03*
X321157600Y-299440600D03*
X321157600Y-301980600D03*
X321157600Y-304520600D03*
X321157600Y-307060600D03*
X321157600Y-309600600D03*
X321157600Y-312140600D03*
X321157600Y-314680600D03*
X321157600Y-317220600D03*
X321157600Y-319760600D03*
X321157600Y-322300600D03*
X321157600Y-324840600D03*
X321157600Y-327380600D03*
X321157600Y-329920600D03*
X321157600Y-332460600D03*
X321157600Y-335000600D03*
X336397600Y-335000600D03*
X336397600Y-332460600D03*
X336397600Y-329920600D03*
X336397600Y-327380600D03*
X336397600Y-324840600D03*
X336397600Y-322300600D03*
X336397600Y-319760600D03*
X336397600Y-317220600D03*
X336397600Y-314680600D03*
X336397600Y-312140600D03*
X336397600Y-309600600D03*
X336397600Y-307060600D03*
X336397600Y-304520600D03*
X336397600Y-301980600D03*
X336397600Y-299440600D03*
X336397600Y-296900600D03*
X336397600Y-294360600D03*
X336397600Y-291820600D03*
X336397600Y-289280600D03*
X336397600Y-286740600D03*
%TD*%
D29*
%TO.C,TP2*%
X116290000Y-220590000D03*
%TD*%
D17*
%TO.C,*%
X212360000Y-90420000D03*
%TD*%
D11*
%TO.C,C730*%
X124520000Y-300890000D03*
D12*
X134680000Y-300890000D03*
%TD*%
D11*
%TO.C,R627*%
X289960000Y-133000000D03*
D12*
X289960000Y-143160000D03*
%TD*%
D34*
%TO.C,U601*%
X381440000Y-168540000D03*
X381440000Y-167890000D03*
X381440000Y-167240000D03*
X381440000Y-166590000D03*
X381440000Y-165940000D03*
X381440000Y-165290000D03*
X381440000Y-164640000D03*
X381440000Y-163990000D03*
X381440000Y-163340000D03*
X381440000Y-162690000D03*
X381440000Y-162040000D03*
X381440000Y-161390000D03*
X381440000Y-160740000D03*
X381440000Y-160090000D03*
X381440000Y-159440000D03*
X381440000Y-158790000D03*
X381440000Y-158140000D03*
X381440000Y-157490000D03*
X381440000Y-156840000D03*
X381440000Y-156190000D03*
X381440000Y-155540000D03*
X381440000Y-154890000D03*
X381440000Y-154240000D03*
X381440000Y-153590000D03*
X381440000Y-152940000D03*
X381440000Y-152290000D03*
X381440000Y-151640000D03*
X381440000Y-150990000D03*
X381440000Y-150340000D03*
X381440000Y-149690000D03*
D35*
X378710000Y-147340000D03*
X378060000Y-147340000D03*
X377410000Y-147340000D03*
X376760000Y-147340000D03*
X376110000Y-147340000D03*
X375460000Y-147340000D03*
X374810000Y-147340000D03*
X374160000Y-147340000D03*
X373510000Y-147340000D03*
X372860000Y-147340000D03*
X372210000Y-147340000D03*
X371560000Y-147340000D03*
X370910000Y-147340000D03*
X370260000Y-147340000D03*
X369610000Y-147340000D03*
X368960000Y-147340000D03*
X368310000Y-147340000D03*
X367660000Y-147340000D03*
X367010000Y-147340000D03*
X366360000Y-147340000D03*
D34*
X363810000Y-149690000D03*
X363810000Y-150340000D03*
X363810000Y-150990000D03*
X363810000Y-151640000D03*
X363810000Y-152290000D03*
X363810000Y-152940000D03*
X363810000Y-153590000D03*
X363810000Y-154240000D03*
X363810000Y-154890000D03*
X363810000Y-155540000D03*
X363810000Y-156190000D03*
X363810000Y-156840000D03*
X363810000Y-157490000D03*
X363810000Y-158140000D03*
X363810000Y-158790000D03*
X363810000Y-159440000D03*
X363810000Y-160090000D03*
X363810000Y-160740000D03*
X363810000Y-161390000D03*
X363810000Y-162040000D03*
X363810000Y-162690000D03*
X363810000Y-163340000D03*
X363810000Y-163990000D03*
X363810000Y-164640000D03*
X363810000Y-165290000D03*
X363810000Y-165940000D03*
X363810000Y-166590000D03*
X363810000Y-167240000D03*
X363810000Y-167890000D03*
X363810000Y-168540000D03*
D35*
X366360000Y-171110000D03*
X367010000Y-171110000D03*
X367660000Y-171110000D03*
X368310000Y-171110000D03*
X368960000Y-171110000D03*
X369610000Y-171110000D03*
X370260000Y-171110000D03*
X370910000Y-171110000D03*
X371560000Y-171110000D03*
X372210000Y-171110000D03*
X372860000Y-171110000D03*
X373510000Y-171110000D03*
X374160000Y-171110000D03*
X374810000Y-171110000D03*
X375460000Y-171110000D03*
X376110000Y-171110000D03*
X376760000Y-171110000D03*
X377410000Y-171110000D03*
X378060000Y-171110000D03*
X378710000Y-171110000D03*
%TD*%
D11*
%TO.C,R421*%
X239660000Y-112670000D03*
D12*
X229660000Y-112670000D03*
%TD*%
D11*
%TO.C,C532*%
X112520000Y-143000000D03*
D12*
X122680000Y-143000000D03*
%TD*%
M02*
