M48
; DRILL file {KiCad 8.0.0} date 2024-03-10T17:08:57+0000
; FORMAT={-:-/ absolute / metric / decimal}
; #@! TF.CreationDate,2024-03-10T17:08:57+00:00
; #@! TF.GenerationSoftware,Kicad,Pcbnew,8.0.0
; #@! TF.FileFunction,Plated,1,2,PTH
FMAT,2
METRIC
; #@! TA.AperFunction,Plated,PTH,ViaDrill
T1C0.400
; #@! TA.AperFunction,Plated,PTH,ComponentDrill
T2C0.400
; #@! TA.AperFunction,Plated,PTH,ViaDrill
T3C0.500
; #@! TA.AperFunction,Plated,PTH,ComponentDrill
T4C0.500
; #@! TA.AperFunction,Plated,PTH,ComponentDrill
T5C0.800
; #@! TA.AperFunction,Plated,PTH,ComponentDrill
T6C1.000
; #@! TA.AperFunction,Plated,PTH,ComponentDrill
T7C1.200
; #@! TA.AperFunction,Plated,PTH,ComponentDrill
T8C1.300
; #@! TA.AperFunction,Plated,PTH,ComponentDrill
T9C1.400
; #@! TA.AperFunction,Plated,PTH,ComponentDrill
T10C1.500
; #@! TA.AperFunction,Plated,PTH,ComponentDrill
T11C1.800
; #@! TA.AperFunction,Plated,PTH,ComponentDrill
T12C2.000
; #@! TA.AperFunction,Plated,PTH,ComponentDrill
T13C2.500
; #@! TA.AperFunction,Plated,PTH,ComponentDrill
T14C2.540
; #@! TA.AperFunction,Plated,PTH,ComponentDrill
T15C3.300
; #@! TA.AperFunction,Plated,PTH,ComponentDrill
T16C3.400
; #@! TA.AperFunction,Plated,PTH,ComponentDrill
T17C3.600
; #@! TA.AperFunction,Plated,PTH,ComponentDrill
T18C3.700
; #@! TA.AperFunction,Plated,PTH,ComponentDrill
T19C3.800
%
G90
G05
T1
X238.42Y-86.01
X238.43Y-84.5
X309.626Y-193.98
T2
X116.29Y-220.59
X116.3Y-218.08
X116.31Y-223.13
T3
X113.17Y-227.72
X113.69Y-259.36
X113.8Y-248.54
X114.85Y-93.35
X114.85Y-180.55
X114.86Y-115.01
X114.86Y-160.86
X114.87Y-137.95
X115.05Y-261.9
X115.41Y-304.8
X115.65Y-269.65
X117.26Y-300.9
X117.29Y-87.36
X117.32Y-266.44
X118.06Y-182.48
X118.59Y-249.29
X119.27Y-89.68
X119.485Y-244.73
X119.68Y-173.66
X119.95Y-210.52
X119.97Y-128.2
X120.11Y-132.2
X120.21Y-220.58
X120.594Y-202.26
X120.77Y-125.8
X120.81Y-185.63
X120.85Y-272.79
X120.85Y-307.38
X120.86Y-262.57
X120.9Y-183.74
X121.23Y-91.53
X121.375Y-302.89
X121.45Y-216.86
X121.88Y-213.71
X121.88Y-263.97
X121.9Y-182.46
X122.43Y-271.01
X122.44Y-313.65
X122.82Y-211.03
X123.12Y-93.33
X123.37Y-316.21
X123.86Y-83.2
X124.07Y-254.29
X124.08Y-209.11
X124.65Y-206.54
X124.66Y-317.48
X124.66Y-332.9
X124.67Y-280.41
X125.01Y-274.06
X125.3Y-182.46
X125.32Y-204.65
X125.94Y-265.12
X126.01Y-202.74
X126.3Y-253.21
X126.37Y-200.23
X126.53Y-258.98
X127.05Y-197.8
X127.09Y-83.24
X127.21Y-204.73
X127.5Y-335.22
X127.68Y-195.18
X127.72Y-178.74
X128.46Y-192.57
X128.94Y-257.09
X128.97Y-268.9
X129.12Y-282.95
X129.46Y-299.74
X129.8Y-193.9
X129.84Y-201.53
X130.15Y-81.6
X130.15Y-301.57
X131.04Y-275.35
X131.46Y-229.61
X132.02Y-266.54
X132.94Y-270.85
X133.28Y-82.27
X133.53Y-276.64
X133.56Y-260.69
X134.62Y-268.37
X134.68Y-99.06
X134.72Y-102.24
X134.87Y-229.47
X135.28Y-225.83
X135.8Y-332.6
X136.106Y-265.054
X136.53Y-111.65
X137.17Y-223.1
X137.17Y-232.23
X137.35Y-238.38
X137.41Y-214.21
X137.77Y-85.13
X138.01Y-210.39
X138.37Y-250.01
X138.44Y-234.07
X138.645Y-242.12
X138.655Y-252.29
X138.67Y-193.26
X139.32Y-141.07
X139.68Y-89.68
X139.74Y-260.77
X139.83Y-136.09
X140.32Y-263.97
X140.32Y-265.89
X141.54Y-82.36
X141.56Y-91.56
X141.61Y-229.49
X142.18Y-303.48
X142.21Y-263.99
X142.23Y-261.44
X142.26Y-169.03
X142.26Y-178.65
X142.27Y-301.07
X142.38Y-308.46
X142.4Y-295.75
X142.42Y-275.26
X142.49Y-190.12
X142.91Y-210.4
X143.04Y-143.71
X143.39Y-333.3
X143.48Y-93.33
X143.5Y-223.31
X143.64Y-293.1
X143.73Y-277.8
X144.14Y-232.18
X144.16Y-225.13
X144.184Y-243.591
X144.33Y-280.39
X144.38Y-265.76
X144.53Y-186.27
X144.97Y-254.29
X145.03Y-235.81
X145.47Y-297.73
X145.66Y-252.3
X146.1Y-205.33
X146.17Y-80.01
X146.66Y-231.52
X146.91Y-200.25
X147.29Y-268.29
X147.92Y-95.26
X147.93Y-236.01
X148.75Y-304.01
X148.8Y-332.11
X149.456Y-246.01
X150.065Y-296.904
X150.58Y-180.6
X150.61Y-183.15
X150.69Y-232.06
X151.05Y-79.21
X151.15Y-253.83
X151.24Y-199.01
X151.33Y-235.83
X151.33Y-249.79
X151.34Y-218.67
X151.7Y-297.66
X151.73Y-302.25
X151.77Y-256.94
X152.4Y-200.35
X152.46Y-204.2
X152.46Y-221.32
X152.5Y-239.81
X152.57Y-227.56
X152.6Y-330.16
X152.65Y-237.08
X153.05Y-270.22
X153.06Y-300.87
X153.07Y-209.23
X153.21Y-298.89
X153.68Y-242.37
X153.76Y-194.59
X153.78Y-180.64
X153.84Y-319.98
X154.31Y-217.59
X154.48Y-182.47
X155.01Y-206.1
X155.06Y-137.36
X155.11Y-165.31
X155.11Y-314.86
X155.13Y-318.7
X155.75Y-157.64
X155.76Y-160.25
X155.84Y-260.59
X156.28Y-85.13
X156.33Y-130.92
X156.34Y-183.17
X156.38Y-265.08
X156.39Y-181.19
X156.97Y-211.06
X157.03Y-186.3
X157.03Y-190.08
X157.03Y-193.26
X157.145Y-261.89
X157.6Y-197.07
X157.61Y-199.06
X159.0Y-221.86
X159.0Y-263.19
X159.68Y-216.77
X160.11Y-260.15
X160.11Y-270.22
X160.12Y-89.68
X160.16Y-211.79
X160.19Y-183.08
X160.25Y-209.83
X160.28Y-213.6
X160.3Y-218.65
X160.82Y-197.1
X160.83Y-193.42
X160.84Y-199.06
X161.95Y-297.58
X161.96Y-261.28
X161.97Y-243.1
X162.05Y-123.41
X162.06Y-91.58
X162.15Y-163.99
X162.16Y-189.45
X162.17Y-247.87
X162.65Y-259.52
X162.68Y-241.04
X162.69Y-134.82
X162.73Y-169.07
X162.73Y-178.65
X162.758Y-254.204
X162.79Y-208.56
X162.8Y-238.99
X162.82Y-181.8
X163.31Y-245.57
X163.56Y-312.19
X163.58Y-230.82
X163.9Y-250.63
X163.96Y-93.33
X163.98Y-211.09
X163.99Y-122.1
X164.04Y-129.77
X164.17Y-200.86
X164.55Y-269.59
X164.63Y-244.2
X164.64Y-216.22
X164.73Y-221.84
X165.24Y-257.04
X165.28Y-299.47
X165.32Y-330.71
X165.37Y-197.08
X165.88Y-211.18
X165.89Y-219.39
X165.94Y-189.45
X167.12Y-323.79
X167.34Y-318.63
X167.37Y-282.89
X167.37Y-285.45
X167.8Y-302.09
X167.822Y-249.898
X167.9Y-295.58
X167.9Y-310.92
X167.97Y-288.01
X168.35Y-308.43
X168.36Y-95.25
X168.42Y-279.86
X168.54Y-195.2
X168.56Y-156.5
X168.63Y-198.37
X168.64Y-272.09
X168.88Y-214.57
X169.1Y-274.83
X169.16Y-123.79
X169.18Y-266.33
X169.21Y-303.3
X169.25Y-172.94
X169.25Y-176.11
X169.72Y-126.35
X169.73Y-217.53
X169.83Y-332.51
X170.41Y-230.77
X170.43Y-182.5
X170.97Y-256.82
X171.59Y-333.25
X171.64Y-270.37
X171.77Y-196.52
X171.78Y-198.96
X172.45Y-223.79
X172.86Y-304.11
X173.59Y-120.64
X173.63Y-141.71
X174.17Y-118.08
X174.22Y-165.33
X174.26Y-132.79
X174.27Y-154.61
X174.27Y-257.09
X174.29Y-163.41
X174.29Y-174.26
X174.29Y-291.88
X174.3Y-263.18
X174.31Y-134.85
X174.34Y-176.75
X174.92Y-168.48
X174.96Y-316.62
X175.42Y-294.57
X175.43Y-318.68
X175.45Y-91.42
X175.51Y-150.05
X175.54Y-160.92
X176.1Y-221.31
X176.12Y-122.58
X176.18Y-241.12
X176.18Y-297.54
X176.2Y-336.37
X176.22Y-192.6
X176.7Y-299.59
X176.77Y-338.32
X176.79Y-176.15
X176.81Y-154.56
X176.82Y-228.84
X176.83Y-169.76
X177.31Y-326.31
X177.36Y-211.66
X177.5Y-225.02
X177.96Y-81.98
X177.97Y-116.95
X177.97Y-285.65
X177.99Y-254.45
X178.01Y-290.54
X178.02Y-206.58
X178.08Y-269.52
X178.1Y-261.9
X178.59Y-264.01
X179.2Y-251.22
X179.87Y-310.4
X180.54Y-271.6
X180.55Y-277.2
X180.65Y-264.45
X181.14Y-331.29
X181.27Y-337.05
X181.28Y-190.76
X181.78Y-224.51
X181.81Y-130.28
X181.86Y-301.98
X181.87Y-132.9
X182.34Y-286.69
X182.44Y-111.27
X182.49Y-123.89
X183.0Y-318.57
X183.05Y-296.92
X183.11Y-284.16
X183.13Y-337.03
X183.69Y-313.48
X183.72Y-102.4
X183.72Y-126.53
X183.73Y-136.12
X183.74Y-246.13
X183.77Y-265.75
X183.82Y-261.9
X184.32Y-277.98
X184.4Y-131.61
X184.4Y-142.98
X184.42Y-141.06
X184.44Y-217.5
X184.47Y-146.25
X185.02Y-169.81
X185.12Y-151.28
X185.53Y-86.54
X185.56Y-107.88
X185.65Y-213.74
X185.67Y-167.17
X185.71Y-188.78
X186.3Y-201.59
X186.31Y-156.41
X186.31Y-196.02
X186.32Y-204.7
X186.33Y-251.08
X187.02Y-245.99
X187.46Y-302.1
X187.61Y-182.48
X187.62Y-244.09
X188.18Y-148.8
X188.2Y-198.41
X188.24Y-201.58
X188.25Y-192.0
X188.25Y-230.14
X188.72Y-78.674
X188.74Y-316.07
X188.8Y-336.32
X188.83Y-309.03
X188.88Y-210.46
X188.95Y-239.66
X189.12Y-206.89
X189.37Y-307.09
X189.44Y-269.05
X190.01Y-82.01
X190.13Y-193.93
X190.14Y-130.4
X190.14Y-152.6
X190.16Y-192.09
X190.604Y-293.25
X190.63Y-295.77
X190.69Y-78.65
X190.71Y-206.66
X190.72Y-236.05
X190.73Y-233.45
X190.73Y-276.49
X190.73Y-284.17
X190.8Y-166.56
X190.8Y-204.06
X190.83Y-174.89
X191.42Y-199.0
X191.44Y-221.91
X191.93Y-81.44
X191.94Y-84.66
X191.96Y-105.4
X192.0Y-212.95
X192.55Y-78.915
X192.55Y-338.18
X192.67Y-276.52
X192.7Y-189.5
X192.78Y-191.34
X193.35Y-182.51
X193.565Y-305.976
X193.91Y-101.59
X194.53Y-288.76
X194.59Y-304.52
X194.62Y-218.2
X194.62Y-324.84
X195.08Y-103.0
X195.14Y-319.83
X195.17Y-104.78
X195.17Y-322.42
X195.22Y-310.9
X195.25Y-296.87
X195.29Y-178.67
X195.33Y-237.8
X195.75Y-131.04
X195.79Y-326.2
X195.8Y-139.3
X195.87Y-282.85
X195.92Y-231.42
X195.97Y-226.92
X196.39Y-302.1
X196.42Y-250.61
X196.43Y-129.18
X196.45Y-280.44
X196.51Y-116.89
X197.01Y-293.86
X197.04Y-263.36
X197.08Y-150.72
X197.1Y-218.81
X197.12Y-211.13
X197.14Y-136.71
X197.14Y-209.21
X197.15Y-141.86
X197.19Y-133.43
X197.2Y-228.22
X197.21Y-253.04
X197.22Y-221.28
X197.23Y-216.8
X197.69Y-291.91
X197.8Y-296.93
X197.83Y-241.55
X198.39Y-112.59
X198.4Y-244.12
X198.42Y-116.86
X198.43Y-155.79
X198.49Y-236.45
X198.52Y-153.2
X198.835Y-110.305
X198.98Y-277.27
X199.04Y-279.68
X199.11Y-158.91
X199.49Y-121.765
X199.62Y-310.96
X199.72Y-285.4
X200.31Y-251.2
X200.32Y-129.63
X200.32Y-141.8
X200.39Y-263.21
X200.714Y-118.339
X200.95Y-244.21
X200.95Y-281.01
X200.97Y-257.68
X201.01Y-110.956
X201.05Y-329.94
X201.49Y-327.48
X201.53Y-316.03
X201.59Y-135.48
X201.61Y-253.82
X201.62Y-237.84
X201.72Y-239.62
X202.15Y-108.2
X202.2Y-250.56
X202.28Y-121.38
X202.29Y-132.3
X202.29Y-242.77
X202.6Y-118.316
X202.85Y-142.97
X202.87Y-179.32
X202.87Y-246.75
X202.93Y-137.97
X203.46Y-110.06
X203.49Y-131.05
X203.49Y-274.21
X203.52Y-125.86
X203.52Y-244.19
X203.53Y-209.9
X203.54Y-283.0
X203.56Y-201.56
X203.62Y-253.68
X204.06Y-307.07
X204.18Y-145.64
X204.19Y-237.06
X204.26Y-139.27
X204.69Y-331.21
X204.79Y-102.88
X204.85Y-148.15
X204.94Y-233.93
X205.34Y-100.52
X205.35Y-122.18
X205.39Y-279.81
X205.41Y-224.55
X205.41Y-228.36
X205.46Y-188.79
X205.47Y-150.69
X205.49Y-274.63
X205.53Y-158.37
X205.59Y-155.15
X205.66Y-118.65
X206.04Y-243.04
X206.08Y-250.09
X206.09Y-167.84
X206.11Y-152.6
X206.11Y-160.21
X206.11Y-220.57
X206.11Y-244.77
X206.12Y-125.95
X206.2Y-218.05
X206.7Y-230.23
X206.72Y-312.16
X206.79Y-216.14
X206.82Y-193.27
X207.3Y-83.77
X207.3Y-92.3
X207.37Y-172.29
X208.07Y-259.38
X208.54Y-82.47
X208.58Y-322.38
X208.66Y-111.19
X209.17Y-106.32
X209.28Y-181.26
X209.8Y-321.14
X209.82Y-318.55
X209.87Y-97.84
X209.89Y-300.77
X210.46Y-281.22
X210.51Y-249.92
X210.53Y-259.55
X210.54Y-208.55
X210.55Y-256.96
X210.58Y-223.78
X210.72Y-145.82
X211.11Y-96.76
X211.11Y-137.88
X211.12Y-298.25
X211.12Y-322.39
X211.17Y-326.14
X211.21Y-160.86
X211.21Y-336.94
X211.22Y-218.7
X211.25Y-237.8
X211.26Y-177.98
X211.63Y-175.09
X211.71Y-110.78
X211.81Y-131.64
X212.34Y-105.02
X212.39Y-99.72
X212.42Y-150.12
X212.48Y-332.48
X212.53Y-165.33
X213.01Y-304.6
X213.03Y-307.18
X213.03Y-318.48
X213.11Y-179.3
X213.12Y-233.34
X213.12Y-267.64
X213.77Y-201.61
X213.82Y-174.16
X214.3Y-99.91
X214.33Y-256.87
X214.34Y-279.19
X214.39Y-199.04
X215.01Y-243.47
X215.02Y-316.03
X215.63Y-259.98
X215.65Y-152.6
X215.67Y-251.73
X216.28Y-149.41
X216.3Y-285.4
X216.38Y-211.75
X216.4Y-159.14
X216.84Y-272.2
X216.91Y-117.58
X216.91Y-200.34
X216.91Y-298.13
X217.12Y-168.31
X217.47Y-324.25
X217.52Y-143.69
X217.52Y-224.49
X217.53Y-232.14
X217.53Y-248.04
X217.56Y-235.3
X217.6Y-173.59
X217.6Y-193.33
X218.08Y-309.08
X218.13Y-146.92
X218.16Y-252.39
X218.17Y-155.77
X218.19Y-220.03
X218.26Y-246.07
X218.73Y-152.07
X218.75Y-149.42
X218.77Y-282.33
X219.39Y-213.06
X219.41Y-129.17
X219.42Y-135.52
X219.44Y-256.81
X219.47Y-214.85
X219.48Y-253.64
X219.97Y-116.47
X220.07Y-270.82
X220.1Y-242.87
X220.1Y-249.82
X220.13Y-239.06
X220.15Y-224.41
X220.17Y-182.47
X220.67Y-228.3
X220.68Y-230.24
X221.22Y-110.1
X221.31Y-278.4
X221.83Y-242.11
X221.94Y-239.83
X221.94Y-295.62
X221.96Y-205.32
X221.99Y-186.55
X222.04Y-218.72
X222.52Y-306.54
X222.61Y-169.81
X222.62Y-173.65
X222.67Y-192.04
X222.68Y-85.63
X223.15Y-87.69
X223.21Y-230.3
X223.25Y-237.17
X223.74Y-117.09
X223.8Y-303.31
X223.81Y-309.71
X223.83Y-323.53
X223.85Y-205.47
X223.87Y-279.08
X223.9Y-172.35
X224.42Y-293.15
X224.53Y-217.4
X224.96Y-112.08
X225.02Y-312.84
X225.08Y-145.02
X225.08Y-333.13
X225.09Y-162.13
X225.12Y-320.34
X225.13Y-183.11
X225.13Y-226.44
X225.14Y-168.56
X225.15Y-220.06
X225.15Y-223.83
X225.15Y-294.91
X225.2Y-185.76
X225.21Y-139.3
X225.7Y-296.96
X225.71Y-279.26
X225.73Y-214.96
X225.78Y-231.48
X225.82Y-212.35
X225.88Y-87.56
X226.33Y-287.99
X226.41Y-158.39
X226.46Y-201.0
X226.92Y-98.66
X227.02Y-226.29
X227.07Y-178.06
X227.13Y-232.73
X227.67Y-175.48
X227.74Y-207.34
X228.25Y-228.35
X228.91Y-219.43
X228.92Y-215.57
X228.94Y-222.61
X229.57Y-201.59
X229.63Y-180.62
X230.1Y-209.85
X230.13Y-140.03
X230.16Y-128.54
X230.17Y-131.03
X230.17Y-243.58
X230.17Y-320.29
X230.19Y-146.81
X230.21Y-178.1
X230.25Y-205.34
X230.3Y-87.03
X230.8Y-259.54
X230.8Y-332.42
X230.82Y-174.9
X230.83Y-154.56
X230.86Y-239.71
X230.92Y-164.16
X231.39Y-282.31
X231.4Y-307.02
X231.43Y-328.58
X231.48Y-124.12
X231.49Y-219.42
X231.57Y-242.21
X232.13Y-152.0
X232.16Y-125.93
X232.17Y-181.27
X232.18Y-232.05
X232.73Y-226.43
X232.75Y-171.7
X232.76Y-207.35
X233.3Y-310.9
X233.34Y-127.84
X233.34Y-136.1
X233.4Y-221.93
X233.47Y-220.02
X234.02Y-168.53
X234.02Y-259.35
X234.09Y-181.86
X234.12Y-157.82
X234.57Y-115.92
X234.58Y-132.33
X234.63Y-129.16
X234.7Y-138.62
X234.7Y-178.14
X234.7Y-232.13
X235.31Y-204.78
X235.32Y-201.04
X235.32Y-275.32
X235.34Y-207.84
X235.96Y-296.88
X236.0Y-167.25
X236.01Y-162.14
X236.51Y-282.21
X236.51Y-287.89
X236.58Y-226.37
X236.61Y-124.16
X236.61Y-134.28
X237.16Y-249.94
X237.18Y-307.65
X237.2Y-303.2
X237.24Y-233.32
X237.9Y-154.55
X237.91Y-159.62
X238.1Y-149.64
X238.4Y-293.15
X238.48Y-216.37
X238.5Y-120.3
X238.51Y-136.83
X238.51Y-144.45
X238.61Y-232.05
X239.11Y-207.34
X239.74Y-277.27
X240.42Y-169.81
X240.46Y-117.0
X241.0Y-164.12
X241.04Y-241.69
X241.04Y-258.14
X241.07Y-282.24
X241.1Y-246.67
X241.59Y-285.4
X241.67Y-311.42
X241.7Y-256.34
X241.74Y-209.84
X241.75Y-200.3
X242.29Y-103.06
X242.31Y-180.5
X242.42Y-175.56
X242.99Y-212.37
X243.01Y-240.31
X243.59Y-260.7
X243.59Y-270.92
X243.6Y-111.96
X243.6Y-204.76
X243.63Y-225.2
X243.64Y-251.75
X244.1Y-282.24
X244.18Y-127.91
X244.19Y-289.18
X244.21Y-207.35
X244.25Y-218.11
X244.87Y-209.19
X245.47Y-330.6
X245.54Y-200.33
X245.55Y-204.07
X245.58Y-270.15
X246.13Y-335.58
X246.17Y-304.49
X246.19Y-242.36
X246.56Y-282.19
X246.66Y-333.68
X246.69Y-326.7
X246.73Y-307.66
X246.83Y-218.74
X247.39Y-323.54
X247.41Y-239.79
X247.45Y-224.52
X248.07Y-270.17
X248.09Y-111.92
X248.12Y-251.08
X248.16Y-179.31
X248.7Y-99.85
X248.71Y-150.08
X248.78Y-140.59
X248.78Y-242.24
X248.79Y-186.4
X248.8Y-166.63
X248.8Y-244.73
X249.34Y-310.79
X249.37Y-277.12
X249.37Y-300.65
X249.38Y-174.83
X249.97Y-291.81
X250.02Y-303.87
X250.03Y-223.8
X250.09Y-179.36
X250.57Y-99.85
X250.626Y-220.034
X250.63Y-146.94
X250.64Y-171.7
X250.7Y-164.85
X251.24Y-144.43
X251.27Y-242.31
X251.27Y-251.74
X251.29Y-258.74
X251.31Y-174.31
X251.9Y-109.43
X251.92Y-160.98
X251.93Y-223.15
X251.94Y-217.51
X252.51Y-100.41
X252.54Y-296.25
X252.57Y-205.45
X252.59Y-194.61
X253.1Y-119.11
X253.77Y-303.28
X253.8Y-268.3
X253.8Y-273.37
X253.81Y-279.06
X254.39Y-127.95
X254.43Y-135.54
X254.47Y-205.94
X254.648Y-125.458
X254.92Y-307.66
X255.53Y-112.74
X255.66Y-116.35
X255.66Y-279.11
X255.79Y-122.13
X256.27Y-125.45
X256.32Y-273.45
X256.36Y-270.15
X257.04Y-208.52
X257.54Y-112.72
X257.57Y-95.97
X257.58Y-110.0
X257.67Y-243.61
X257.7Y-235.26
X258.22Y-313.3
X258.8Y-129.9
X258.82Y-148.88
X258.84Y-242.29
X258.85Y-152.11
X258.86Y-155.19
X258.87Y-158.39
X258.89Y-141.25
X259.45Y-258.8
X259.56Y-164.75
X259.56Y-175.5
X259.56Y-261.27
X259.58Y-168.6
X260.07Y-162.19
X260.12Y-254.85
X260.18Y-252.36
X260.73Y-305.84
X260.74Y-301.91
X260.81Y-249.82
X261.24Y-89.92
X261.3Y-237.09
X261.97Y-110.79
X263.42Y-143.11
X264.01Y-201.59
X264.48Y-131.16
X264.5Y-134.28
X264.54Y-151.43
X264.54Y-289.88
X264.61Y-153.89
X264.61Y-166.65
X264.61Y-271.4
X264.65Y-170.47
X265.74Y-136.82
X265.8Y-163.4
X265.93Y-239.07
X265.95Y-313.3
X266.36Y-120.37
X266.37Y-129.25
X266.46Y-110.66
X266.96Y-112.75
X266.99Y-244.89
X267.09Y-282.3
X267.11Y-216.81
X267.14Y-214.34
X267.16Y-174.27
X267.45Y-266.49
X268.36Y-316.49
X268.38Y-117.21
X268.46Y-220.64
X268.85Y-282.28
X268.95Y-92.21
X268.97Y-110.14
X268.99Y-287.4
X269.6Y-133.04
X269.66Y-153.33
X270.32Y-220.63
X270.75Y-110.17
X270.81Y-119.06
X270.86Y-148.2
X270.87Y-103.01
X270.91Y-270.87
X270.97Y-218.65
X271.5Y-141.95
X271.51Y-122.85
X271.57Y-132.34
X271.58Y-216.83
X271.58Y-279.01
X272.13Y-151.99
X272.17Y-268.24
X272.19Y-264.38
X272.25Y-214.88
X272.78Y-85.92
X272.8Y-155.28
X272.84Y-129.15
X273.38Y-101.09
X273.46Y-225.68
X273.46Y-282.27
X273.5Y-165.32
X273.53Y-167.25
X273.99Y-123.54
X274.03Y-132.38
X274.03Y-313.38
X274.08Y-120.33
X274.09Y-180.56
X274.1Y-206.66
X274.11Y-222.02
X274.11Y-270.76
X274.14Y-192.05
X274.8Y-139.46
X275.32Y-268.3
X275.35Y-111.33
X275.4Y-210.55
X275.4Y-290.36
X275.49Y-205.38
X275.97Y-102.51
X275.97Y-105.65
X276.03Y-214.38
X276.56Y-320.27
X276.57Y-85.96
X276.66Y-180.57
X277.31Y-192.01
X277.32Y-188.23
X277.34Y-211.14
X277.97Y-226.27
X278.49Y-307.02
X278.5Y-290.32
X278.5Y-309.48
X278.61Y-216.89
X278.61Y-263.14
X279.18Y-261.38
X279.2Y-121.59
X279.2Y-126.7
X279.8Y-155.91
X279.84Y-207.31
X279.87Y-257.46
X279.9Y-193.32
X279.92Y-248.55
X280.28Y-96.26
X280.36Y-331.08
X280.42Y-85.97
X280.42Y-98.03
X280.47Y-250.58
X281.02Y-104.4
X281.12Y-254.9
X281.16Y-252.34
X281.73Y-243.56
X281.76Y-263.16
X281.79Y-111.33
X281.79Y-226.44
X281.8Y-245.35
X282.38Y-235.31
X282.39Y-279.03
X282.39Y-314.57
X282.44Y-240.93
X282.93Y-136.85
X283.0Y-296.21
X283.0Y-317.18
X283.03Y-327.25
X283.1Y-214.38
X283.67Y-111.3
X283.69Y-196.51
X283.7Y-199.02
X283.7Y-209.21
X283.7Y-230.84
X283.71Y-204.13
X283.71Y-226.42
X283.72Y-270.79
X284.07Y-148.36
X284.14Y-87.48
X284.18Y-105.15
X284.84Y-282.26
X284.86Y-300.64
X285.57Y-188.24
X285.57Y-279.02
X286.23Y-193.88
X286.27Y-180.64
X286.85Y-124.11
X286.85Y-265.76
X286.9Y-204.79
X286.92Y-176.79
X286.94Y-151.43
X287.48Y-287.33
X287.49Y-275.86
X287.5Y-293.73
X287.57Y-231.38
X288.02Y-86.85
X288.03Y-89.71
X288.18Y-199.12
X288.2Y-205.98
X288.6Y-105.8
X288.73Y-277.23
X288.8Y-211.18
X288.81Y-150.1
X288.81Y-193.3
X288.85Y-180.65
X288.97Y-164.71
X289.3Y-123.53
X289.35Y-136.83
X289.46Y-169.19
X290.01Y-302.54
X290.05Y-120.95
X290.1Y-216.28
X290.11Y-139.37
X290.11Y-160.96
X290.22Y-95.26
X290.53Y-90.64
X291.2Y-331.07
X291.26Y-89.21
X291.33Y-230.25
X291.35Y-228.26
X291.37Y-233.33
X291.52Y-300.64
X291.92Y-310.16
X291.92Y-334.92
X291.95Y-267.03
X291.96Y-105.05
X292.47Y-118.45
X292.6Y-254.25
X293.06Y-98.83
X293.25Y-259.99
X293.28Y-191.42
X293.87Y-177.39
X293.87Y-209.21
X293.87Y-233.99
X293.91Y-169.8
X293.96Y-205.99
X294.44Y-299.95
X294.49Y-254.25
X294.5Y-223.86
X294.54Y-287.3
X295.15Y-231.38
X295.19Y-216.14
X295.73Y-272.13
X295.74Y-186.37
X295.74Y-195.97
X295.75Y-166.12
X295.87Y-233.9
X296.49Y-253.63
X296.99Y-273.35
X296.99Y-305.08
X297.0Y-291.14
X297.01Y-308.27
X297.04Y-268.25
X297.09Y-209.23
X297.6Y-149.43
X297.67Y-205.42
X297.7Y-297.41
X297.71Y-194.0
X297.72Y-217.54
X297.75Y-178.04
X298.29Y-285.4
X298.3Y-114.6
X298.92Y-257.47
X298.92Y-259.97
X299.0Y-211.68
X299.49Y-84.14
X299.54Y-123.47
X299.58Y-97.53
X299.6Y-165.95
X299.6Y-186.34
X299.61Y-145.06
X300.15Y-282.24
X300.19Y-305.09
X300.23Y-205.45
X300.26Y-249.75
X300.81Y-292.39
X300.82Y-247.29
X300.85Y-193.46
X300.86Y-213.6
X301.36Y-333.62
X301.41Y-116.61
X301.41Y-122.88
X301.43Y-111.94
X301.48Y-186.32
X301.51Y-303.19
X302.07Y-279.02
X302.08Y-274.5
X302.13Y-174.94
X302.72Y-181.23
X302.74Y-300.02
X302.75Y-205.36
X302.76Y-202.83
X302.78Y-155.8
X302.8Y-250.48
X303.33Y-100.01
X303.33Y-114.61
X303.33Y-243.59
X303.34Y-193.87
X303.41Y-172.37
X303.95Y-295.51
X303.96Y-119.05
X303.98Y-237.79
X303.99Y-302.54
X304.57Y-268.89
X304.6Y-277.77
X304.64Y-232.11
X305.14Y-104.52
X305.19Y-126.68
X305.2Y-324.72
X305.22Y-116.61
X305.22Y-308.2
X305.25Y-144.51
X305.25Y-230.22
X305.26Y-285.4
X305.28Y-132.32
X305.33Y-184.51
X305.78Y-334.87
X305.88Y-274.6
X305.92Y-221.9
X305.93Y-279.02
X305.95Y-272.02
X305.98Y-213.6
X306.25Y-137.12
X306.54Y-231.49
X306.58Y-147.56
X307.09Y-313.37
X307.11Y-254.33
X307.13Y-126.65
X307.16Y-169.75
X307.16Y-287.38
X307.21Y-163.5
X307.22Y-225.06
X307.23Y-178.67
X307.74Y-99.88
X307.8Y-186.32
X307.81Y-135.49
X307.81Y-167.3
X307.84Y-214.92
X307.96Y-331.75
X308.34Y-119.05
X308.4Y-160.24
X309.04Y-106.4
X309.04Y-231.5
X309.04Y-291.16
X309.04Y-302.66
X309.72Y-268.86
X310.35Y-293.05
X310.37Y-144.38
X310.92Y-275.9
X311.03Y-208.59
X311.52Y-228.9
X311.53Y-132.42
X311.56Y-124.19
X311.59Y-232.11
X311.59Y-235.3
X311.6Y-134.24
X311.6Y-136.78
X311.67Y-189.46
X312.14Y-291.82
X312.22Y-326.64
X312.23Y-337.45
X312.3Y-181.38
X312.46Y-98.44
X313.47Y-298.03
X313.48Y-282.86
X313.49Y-281.0
X313.51Y-314.61
X313.52Y-169.17
X313.52Y-273.97
X313.54Y-209.26
X313.54Y-267.67
X313.55Y-199.18
X313.56Y-271.46
X313.57Y-126.68
X313.57Y-133.69
X313.57Y-139.39
X313.57Y-248.61
X314.05Y-97.37
X314.05Y-326.62
X314.24Y-212.43
X314.82Y-307.01
X314.88Y-216.19
X315.36Y-280.32
X315.44Y-173.67
X315.45Y-193.99
X315.52Y-178.03
X315.53Y-179.99
X315.54Y-251.7
X315.95Y-314.54
X316.06Y-301.91
X316.07Y-331.75
X316.75Y-156.53
X316.78Y-219.36
X317.024Y-107.274
X317.28Y-141.21
X317.28Y-291.8
X317.33Y-149.57
X317.34Y-223.33
X317.37Y-256.22
X317.38Y-273.99
X317.99Y-160.96
X318.07Y-190.25
X318.63Y-151.4
X319.1Y-97.56
X319.13Y-154.55
X319.21Y-277.13
X319.28Y-139.32
X319.29Y-265.17
X319.588Y-288.006
X319.79Y-85.95
X319.87Y-123.52
X319.94Y-136.79
X319.97Y-209.17
X319.98Y-228.91
X320.49Y-241.59
X320.53Y-141.25
X321.19Y-232.76
X321.67Y-88.06
X321.7Y-85.29
X321.8Y-263.21
X321.825Y-115.25
X322.43Y-333.7
X322.54Y-224.42
X322.55Y-159.55
X323.01Y-133.69
X323.02Y-100.06
X323.04Y-260.1
X323.1Y-140.56
X323.13Y-251.78
X323.13Y-255.51
X323.13Y-266.28
X323.64Y-98.0
X323.69Y-312.13
X323.76Y-214.34
X323.8Y-235.86
X324.3Y-330.56
X324.31Y-327.38
X324.35Y-273.98
X324.91Y-116.54
X324.94Y-253.77
X324.96Y-140.6
X325.03Y-217.53
X325.03Y-265.06
X325.04Y-248.6
X325.07Y-268.86
X325.08Y-167.33
X325.61Y-285.54
X325.67Y-202.91
X325.7Y-170.46
X325.7Y-294.31
X325.74Y-204.75
X326.15Y-88.74
X326.21Y-126.69
X326.23Y-275.95
X326.26Y-133.7
X326.28Y-212.4
X326.29Y-220.66
X326.31Y-267.61
X326.35Y-232.08
X326.36Y-181.2
X326.41Y-334.33
X326.87Y-307.06
X326.98Y-178.72
X326.99Y-191.44
X327.56Y-222.58
X327.58Y-198.03
X327.66Y-317.22
X327.69Y-219.36
X328.13Y-285.35
X328.63Y-105.39
X328.84Y-216.21
X328.86Y-184.51
X329.31Y-332.92
X329.39Y-100.07
X329.42Y-92.51
X329.42Y-236.52
X329.45Y-323.47
X329.61Y-225.66
X329.93Y-86.83
X330.12Y-239.08
X330.14Y-138.73
X330.24Y-232.05
X330.67Y-320.09
X330.74Y-314.65
X330.75Y-142.54
X331.26Y-90.55
X331.28Y-330.56
X331.33Y-277.14
X331.34Y-282.94
X331.41Y-241.59
X331.46Y-301.96
X331.47Y-312.13
X331.53Y-327.38
X331.57Y-309.59
X331.87Y-86.0
X331.92Y-83.66
X331.96Y-248.59
X331.96Y-307.06
X331.99Y-236.55
X332.06Y-199.02
X332.06Y-204.15
X332.58Y-318.32
X333.12Y-331.73
X333.23Y-315.82
X333.26Y-291.81
X333.3Y-296.94
X333.94Y-149.51
X333.97Y-301.93
X333.98Y-111.69
X334.46Y-96.76
X334.51Y-330.57
X334.53Y-304.54
X334.56Y-285.42
X334.63Y-159.62
X334.63Y-180.55
X335.24Y-234.59
X335.26Y-230.16
X335.74Y-103.22
X335.75Y-145.669
X335.81Y-273.99
X335.84Y-214.96
X335.85Y-187.68
X335.89Y-223.24
X335.96Y-181.78
X336.47Y-155.84
X336.47Y-238.48
X336.48Y-148.26
X336.55Y-171.7
X336.97Y-96.88
X337.081Y-221.942
X337.21Y-206.01
X337.7Y-139.32
X337.73Y-142.5
X337.83Y-187.56
X337.84Y-202.18
X337.85Y-209.14
X337.87Y-260.0
X338.33Y-274.01
X338.35Y-126.04
X338.37Y-291.78
X338.38Y-216.19
X338.4Y-224.46
X338.89Y-112.05
X338.94Y-295.57
X338.98Y-298.07
X338.99Y-287.95
X339.11Y-237.11
X339.28Y-137.53
X339.44Y-89.88
X339.57Y-119.07
X339.57Y-268.92
X339.62Y-175.58
X339.65Y-318.45
X339.66Y-315.3
X339.69Y-165.99
X339.755Y-239.035
X340.18Y-308.94
X340.23Y-168.57
X340.34Y-245.97
X340.78Y-107.05
X340.82Y-121.58
X340.83Y-114.6
X340.87Y-158.34
X340.92Y-143.14
X340.92Y-156.52
X341.41Y-301.97
X341.42Y-110.16
X341.44Y-124.15
X341.44Y-233.3
X341.46Y-268.83
X341.46Y-277.16
X342.16Y-200.96
X342.77Y-213.65
X342.87Y-199.01
X343.26Y-97.5
X343.36Y-136.83
X343.37Y-160.91
X343.37Y-165.99
X343.41Y-273.34
X343.44Y-204.73
X343.46Y-310.22
X343.92Y-88.04
X343.98Y-227.64
X344.03Y-90.67
X344.05Y-318.47
X344.64Y-231.47
X344.65Y-284.16
X344.66Y-141.89
X344.663Y-307.06
X344.67Y-199.0
X344.69Y-188.24
X344.7Y-235.92
X345.27Y-239.03
X345.27Y-282.27
X345.3Y-216.23
X345.32Y-133.62
X345.33Y-111.43
X345.76Y-90.58
X345.85Y-116.56
X345.9Y-300.68
X345.96Y-204.1
X346.0Y-272.7
X346.008Y-174.852
X346.58Y-127.95
X346.63Y-214.88
X347.08Y-308.86
X347.14Y-258.76
X347.22Y-213.04
X347.23Y-305.73
X347.38Y-219.95
X347.87Y-143.15
X347.93Y-204.07
X348.35Y-113.99
X348.35Y-131.81
X348.36Y-108.91
X348.45Y-232.67
X349.03Y-280.28
X349.06Y-241.61
X349.14Y-239.65
X349.2Y-145.69
X349.52Y-88.71
X349.67Y-230.19
X349.72Y-155.83
X350.22Y-84.92
X350.36Y-158.47
X350.87Y-136.83
X350.88Y-305.08
X351.01Y-162.15
X351.1Y-202.16
X351.1Y-228.81
X351.12Y-231.35
X351.49Y-85.99
X351.68Y-181.85
X352.13Y-310.17
X352.22Y-140.09
X352.44Y-216.12
X352.9Y-224.46
X352.93Y-158.39
X352.97Y-188.23
X352.99Y-165.97
X353.01Y-180.48
X353.46Y-115.24
X353.47Y-120.94
X353.52Y-199.11
X353.77Y-148.23
X354.18Y-320.99
X354.19Y-306.4
X354.63Y-88.61
X354.67Y-100.11
X354.77Y-233.99
X354.83Y-171.75
X354.85Y-204.77
X354.86Y-164.02
X354.87Y-145.69
X354.89Y-251.06
X354.92Y-181.21
X355.3Y-96.13
X355.32Y-105.04
X355.41Y-127.51
X355.45Y-157.2
X355.5Y-240.44
X356.05Y-175.6
X356.08Y-154.59
X356.08Y-298.12
X356.14Y-227.55
X356.14Y-291.81
X356.17Y-165.32
X356.6Y-103.9
X356.61Y-101.31
X356.66Y-129.32
X356.71Y-184.53
X357.36Y-191.49
X357.37Y-205.47
X357.39Y-160.25
X357.4Y-153.3
X357.42Y-171.01
X357.46Y-188.83
X357.89Y-301.96
X357.99Y-277.17
X358.09Y-229.52
X358.53Y-101.33
X358.56Y-258.09
X358.56Y-260.64
X358.63Y-163.5
X358.63Y-266.97
X358.64Y-174.2
X358.66Y-152.07
X359.25Y-141.88
X359.3Y-154.59
X359.32Y-148.17
X360.01Y-189.44
X360.02Y-245.34
X360.45Y-113.38
X360.51Y-241.0
X360.55Y-140.61
X360.6Y-143.2
X361.15Y-108.88
X361.25Y-148.26
X361.32Y-233.97
X361.73Y-273.38
X361.75Y-121.65
X361.77Y-116.51
X361.81Y-141.95
X362.31Y-329.25
X362.33Y-282.25
X362.35Y-298.19
X362.43Y-131.13
X362.43Y-253.07
X362.47Y-134.92
X362.89Y-332.43
X363.0Y-290.51
X363.05Y-241.65
X363.07Y-204.19
X363.1Y-125.37
X363.11Y-293.69
X363.15Y-249.82
X363.73Y-319.75
X363.83Y-236.42
X363.83Y-259.34
X364.23Y-323.53
X364.27Y-111.48
X364.29Y-136.83
X364.34Y-147.5
X364.45Y-261.17
X364.98Y-226.37
X364.98Y-252.99
X365.0Y-233.99
X365.03Y-188.23
X365.08Y-273.94
X365.54Y-310.24
X365.54Y-320.95
X365.6Y-265.74
X365.66Y-317.87
X366.15Y-330.47
X366.22Y-333.13
X366.24Y-230.18
X366.3Y-156.534
X366.76Y-97.41
X366.9Y-141.3
X366.91Y-158.38
X366.92Y-168.598
X366.92Y-188.27
X366.97Y-143.1
X367.61Y-179.98
X368.31Y-161.51
X368.31Y-238.37
X368.81Y-241.68
X368.81Y-247.33
X368.88Y-152.02
X368.98Y-230.11
X369.41Y-141.32
X369.48Y-168.55
X369.5Y-157.16
X369.52Y-155.17
X369.54Y-166.63
X370.23Y-237.73
X370.6Y-182.52
X370.69Y-245.42
X370.79Y-140.0
X370.81Y-295.69
X370.83Y-159.61
X372.03Y-331.28
X372.04Y-138.73
X372.08Y-164.67
X372.09Y-136.8
X372.56Y-301.99
X372.56Y-328.09
X372.67Y-245.34
X372.67Y-268.2
X373.22Y-277.21
X373.29Y-200.9
X373.4Y-143.17
X373.43Y-151.97
X373.57Y-161.66
X373.83Y-100.04
X373.97Y-205.38
X374.41Y-87.31
X374.7Y-153.89
X375.14Y-141.29
X375.28Y-161.48
X375.94Y-202.12
X376.5Y-273.34
X376.55Y-185.18
X376.59Y-237.06
X377.02Y-299.43
X377.04Y-266.98
X377.16Y-140.04
X377.66Y-154.71
X377.68Y-255.57
X377.78Y-141.89
X377.82Y-161.49
X377.82Y-252.94
X378.27Y-260.62
X378.33Y-167.98
X378.34Y-286.69
X378.4Y-327.43
X378.46Y-290.5
X378.47Y-282.29
X378.82Y-89.78
X378.92Y-320.92
X379.0Y-200.93
X379.02Y-316.03
X379.09Y-188.85
X379.17Y-181.18
X379.55Y-138.05
X380.13Y-307.12
X380.2Y-260.65
X380.27Y-331.21
X380.29Y-203.55
X380.3Y-173.02
X380.31Y-129.84
X380.38Y-256.78
X380.84Y-273.95
X380.89Y-186.33
X380.9Y-205.45
X380.96Y-127.29
X380.97Y-200.89
X381.48Y-228.26
X381.61Y-117.76
X381.64Y-188.2
X381.99Y-101.3
X382.0Y-105.17
X382.04Y-303.81
X382.07Y-131.8
X382.09Y-133.67
X382.14Y-200.89
X382.19Y-139.95
X382.24Y-141.82
X382.25Y-138.02
X382.32Y-190.06
X382.86Y-272.66
X382.87Y-216.18
X382.94Y-234.54
X383.35Y-129.87
X383.36Y-88.67
X383.37Y-239.04
X384.03Y-229.53
X384.03Y-232.03
X384.21Y-147.55
X384.55Y-119.67
X384.74Y-287.95
X384.75Y-145.63
X385.39Y-163.41
X385.46Y-171.04
X386.11Y-204.03
X386.49Y-129.11
X386.62Y-119.61
X386.73Y-230.7
X387.09Y-117.76
X387.27Y-164.02
X387.81Y-239.02
X387.99Y-166.53
X387.99Y-235.12
X388.43Y-241.57
X389.05Y-202.3
X389.05Y-261.93
X389.14Y-118.4
X389.7Y-173.69
X389.75Y-138.65
X390.31Y-271.46
X390.34Y-101.3
X390.41Y-136.15
X390.51Y-252.37
X390.52Y-160.22
X390.91Y-301.92
X390.96Y-244.05
X390.98Y-237.13
X391.53Y-119.71
X391.56Y-131.12
X391.59Y-259.43
X391.64Y-164.84
X391.74Y-128.52
X391.77Y-166.58
X392.22Y-216.82
X392.37Y-116.47
X392.89Y-280.3
X393.06Y-233.28
X393.11Y-272.06
X393.32Y-87.9
X394.2Y-162.24
X394.2Y-190.23
X394.67Y-313.41
X394.73Y-254.11
X394.89Y-301.41
X395.4Y-215.56
X395.43Y-263.79
X396.11Y-173.71
X396.29Y-165.36
X396.61Y-98.0
X396.71Y-214.33
X396.85Y-254.2
X396.91Y-167.86
X397.164Y-129.86
X397.42Y-132.38
X397.42Y-158.37
X397.48Y-326.22
X397.52Y-162.14
X397.54Y-216.73
X397.86Y-115.88
X398.06Y-323.63
X398.18Y-173.59
X398.22Y-260.58
X399.13Y-313.99
X399.25Y-167.42
X399.49Y-174.84
X399.51Y-212.99
X399.77Y-277.23
X399.78Y-102.42
X399.83Y-295.4
X399.86Y-153.43
X399.88Y-170.53
X400.07Y-155.21
X400.07Y-162.13
X400.24Y-230.81
X400.41Y-137.5
X400.66Y-150.76
X401.07Y-303.19
X401.28Y-202.17
X401.92Y-125.36
X402.685Y-172.3
X403.01Y-331.76
X403.07Y-277.83
X403.19Y-226.33
X403.3Y-228.81
X403.64Y-289.8
X403.66Y-254.87
X403.72Y-135.58
X403.73Y-231.43
X403.85Y-306.53
X404.36Y-147.65
X404.55Y-158.96
X404.57Y-286.65
X405.01Y-171.8
X405.05Y-263.81
X405.15Y-141.17
X405.59Y-289.82
X405.66Y-210.53
X405.77Y-324.37
X406.2Y-284.72
X406.85Y-144.43
X406.86Y-130.48
X406.86Y-150.88
X406.98Y-133.0
X407.06Y-138.02
X407.09Y-206.56
X407.39Y-93.02
X407.55Y-154.55
X407.55Y-177.55
X407.63Y-102.5
X407.7Y-286.69
X407.77Y-168.53
X408.07Y-291.85
X408.14Y-161.78
X408.365Y-139.35
X408.42Y-207.89
X410.1Y-172.5
X410.305Y-169.13
X410.31Y-202.18
X410.73Y-180.73
X410.9Y-132.33
X411.88Y-295.4
X411.88Y-308.89
X411.89Y-277.19
X411.97Y-260.6
X412.25Y-179.27
X412.272Y-153.04
X412.67Y-202.19
X412.89Y-158.32
X412.9Y-176.74
X413.18Y-263.73
X413.22Y-155.98
X413.44Y-273.94
X413.455Y-233.28
X414.0Y-99.9
X414.48Y-172.42
X415.69Y-119.01
X415.73Y-132.41
X415.94Y-329.56
X415.98Y-228.86
X416.08Y-202.77
X416.39Y-156.54
X416.6Y-293.8
X417.05Y-273.91
X417.19Y-94.26
X418.26Y-130.46
X418.26Y-154.56
X419.422Y-94.89
X420.39Y-129.17
X420.465Y-183.09
X420.81Y-163.43
X420.84Y-139.44
X420.84Y-154.53
X420.85Y-148.98
X422.351Y-179.97
X422.72Y-161.6
X422.74Y-156.38
X424.13Y-102.41
X425.29Y-177.51
X426.82Y-167.23
X426.83Y-171.04
T4
X367.71Y-210.45
X387.94Y-219.3
X390.57Y-207.91
T5
X112.5Y-245.58
X112.5Y-255.74
X112.52Y-133.44
X112.52Y-139.77
X112.52Y-143.0
X112.52Y-146.22
X112.53Y-130.19
X112.53Y-136.61
X112.53Y-149.36
X112.53Y-152.58
X112.53Y-155.72
X112.53Y-158.93
X112.54Y-127.03
X112.55Y-117.48
X112.55Y-120.66
X112.55Y-123.9
X112.55Y-162.12
X112.56Y-165.26
X112.56Y-168.42
X112.58Y-171.64
X112.59Y-174.86
X112.59Y-178.02
X115.65Y-245.58
X115.65Y-255.74
X119.64Y-227.03
X122.68Y-133.44
X122.68Y-139.77
X122.68Y-143.0
X122.68Y-146.22
X122.69Y-130.19
X122.69Y-136.61
X122.69Y-149.36
X122.69Y-152.58
X122.69Y-155.72
X122.69Y-158.93
X122.7Y-127.03
X122.71Y-117.48
X122.71Y-120.66
X122.71Y-123.9
X122.71Y-162.12
X122.72Y-165.26
X122.72Y-168.42
X122.74Y-171.64
X122.75Y-174.86
X122.75Y-178.02
X123.77Y-76.86
X123.77Y-87.02
X124.52Y-300.89
X124.61Y-330.97
X126.98Y-76.86
X126.98Y-87.02
X129.79Y-209.91
X129.79Y-220.07
X129.8Y-227.03
X130.2Y-76.86
X130.2Y-87.02
X132.27Y-232.03
X133.4Y-76.86
X133.4Y-87.02
X134.68Y-300.89
X134.77Y-330.97
X136.57Y-76.86
X136.57Y-87.02
X137.26Y-330.85
X137.31Y-300.9
X138.73Y-186.27
X139.75Y-76.86
X139.75Y-87.02
X142.43Y-232.03
X142.87Y-76.86
X142.87Y-87.02
X146.05Y-76.86
X146.05Y-87.02
X147.42Y-330.85
X147.47Y-300.9
X148.89Y-186.27
X149.25Y-76.86
X149.25Y-87.02
X149.9Y-330.7
X150.03Y-300.91
X152.42Y-76.86
X152.42Y-87.02
X155.14Y-209.16
X155.21Y-204.09
X155.27Y-213.6
X156.48Y-226.94
X160.06Y-330.7
X160.19Y-300.91
X162.64Y-300.91
X162.69Y-330.68
X165.14Y-209.16
X165.27Y-213.6
X165.37Y-204.09
X166.64Y-226.94
X171.7Y-226.97
X171.75Y-193.88
X172.8Y-300.91
X172.85Y-330.68
X176.11Y-147.67
X176.11Y-157.67
X176.75Y-277.81
X176.82Y-173.7
X176.82Y-183.86
X176.9Y-313.47
X180.39Y-150.72
X180.44Y-118.95
X180.58Y-182.48
X181.86Y-226.97
X181.91Y-193.88
X185.72Y-198.96
X185.72Y-208.96
X186.91Y-277.81
X187.06Y-313.47
X189.55Y-288.01
X190.55Y-150.72
X190.6Y-118.95
X190.74Y-182.48
X195.92Y-259.42
X196.72Y-108.86
X196.72Y-119.02
X198.45Y-125.95
X199.71Y-288.01
X204.86Y-313.48
X204.92Y-288.01
X206.08Y-259.42
X208.61Y-125.95
X212.36Y-134.19
X212.36Y-144.35
X212.45Y-158.47
X212.45Y-168.47
X215.02Y-313.48
X215.08Y-288.01
X216.24Y-155.77
X216.24Y-165.93
X217.38Y-97.51
X217.38Y-107.67
X218.1Y-313.32
X220.1Y-235.54
X220.1Y-245.7
X221.14Y-97.51
X221.14Y-107.67
X225.0Y-97.52
X225.0Y-107.68
X228.26Y-313.32
X228.75Y-97.51
X228.75Y-107.67
X229.66Y-112.67
X231.43Y-287.96
X231.48Y-120.29
X232.54Y-97.51
X232.54Y-107.67
X236.38Y-97.51
X236.38Y-107.67
X239.66Y-112.67
X240.27Y-97.5
X240.27Y-107.66
X241.59Y-287.96
X241.64Y-120.29
X244.09Y-97.5
X244.09Y-107.66
X247.9Y-97.5
X247.9Y-107.66
X251.44Y-208.59
X251.44Y-212.36
X251.71Y-97.5
X251.71Y-107.66
X251.88Y-112.74
X255.52Y-97.5
X255.52Y-107.66
X255.79Y-224.42
X259.36Y-97.5
X259.36Y-107.66
X261.44Y-208.59
X261.44Y-212.36
X262.01Y-320.97
X262.01Y-330.97
X262.04Y-112.74
X262.04Y-266.33
X263.12Y-97.5
X263.12Y-107.66
X264.56Y-244.81
X264.56Y-260.05
X265.22Y-232.69
X265.95Y-224.42
X265.95Y-309.57
X266.95Y-97.5
X266.95Y-107.66
X269.62Y-323.49
X269.62Y-333.65
X270.73Y-97.5
X270.73Y-107.66
X270.86Y-135.72
X270.86Y-145.72
X270.88Y-162.91
X270.88Y-173.07
X271.53Y-287.92
X271.53Y-298.08
X272.17Y-323.5
X272.17Y-333.66
X272.18Y-244.81
X272.18Y-260.05
X272.2Y-266.33
X273.35Y-125.55
X273.35Y-135.55
X273.45Y-160.26
X273.45Y-170.42
X274.55Y-117.79
X274.62Y-97.5
X274.62Y-107.66
X274.69Y-323.5
X274.69Y-333.5
X274.89Y-176.11
X275.22Y-232.69
X275.4Y-287.92
X275.4Y-297.92
X276.11Y-309.57
X277.39Y-158.38
X277.42Y-140.58
X278.33Y-97.5
X278.33Y-107.66
X278.45Y-323.51
X278.45Y-333.51
X278.7Y-287.93
X278.7Y-297.93
X279.93Y-186.36
X282.29Y-158.38
X282.32Y-140.58
X282.42Y-310.27
X282.42Y-320.27
X284.71Y-117.79
X285.05Y-176.11
X286.08Y-98.79
X286.08Y-108.95
X287.4Y-133.02
X287.4Y-143.18
X287.41Y-120.46
X287.41Y-130.62
X287.43Y-148.36
X287.43Y-158.52
X287.46Y-163.56
X287.46Y-173.72
X288.68Y-98.79
X288.68Y-108.95
X289.96Y-133.0
X289.96Y-143.16
X289.98Y-117.8
X289.98Y-127.8
X290.03Y-145.52
X290.03Y-155.68
X290.09Y-186.36
X291.08Y-98.79
X291.08Y-108.79
X291.9Y-165.95
X291.91Y-169.8
X293.7Y-92.61
X293.7Y-102.61
X293.71Y-122.88
X296.22Y-89.95
X296.22Y-99.95
X296.26Y-107.56
X298.76Y-89.95
X298.76Y-99.95
X298.8Y-107.56
X298.97Y-313.39
X298.97Y-323.55
X299.59Y-273.34
X301.34Y-107.56
X301.36Y-225.71
X302.06Y-165.95
X302.07Y-169.8
X303.87Y-122.88
X305.13Y-98.81
X305.13Y-108.97
X305.19Y-129.14
X305.19Y-139.14
X305.3Y-156.01
X305.3Y-166.01
X307.7Y-129.14
X307.7Y-139.14
X309.04Y-102.64
X309.14Y-181.35
X309.75Y-273.34
X310.44Y-126.68
X310.44Y-129.21
X310.91Y-289.31
X310.91Y-299.47
X310.93Y-307.05
X310.93Y-317.05
X311.52Y-225.71
X311.61Y-159.62
X311.61Y-162.16
X311.61Y-164.7
X311.61Y-167.24
X311.61Y-169.78
X311.61Y-172.32
X311.61Y-174.86
X311.61Y-177.4
X311.64Y-146.94
X311.64Y-149.49
X311.64Y-152.03
X311.64Y-154.56
X312.9Y-205.49
X312.9Y-215.49
X312.92Y-144.4
X315.4Y-309.13
X315.4Y-319.13
X317.1Y-253.65
X317.1Y-263.81
X319.2Y-102.64
X319.23Y-159.62
X319.23Y-162.16
X319.23Y-164.7
X319.23Y-167.24
X319.23Y-169.78
X319.23Y-172.32
X319.23Y-174.86
X319.23Y-177.4
X319.3Y-181.35
X320.44Y-126.68
X320.44Y-129.21
X321.64Y-146.94
X321.64Y-149.49
X321.64Y-152.03
X321.64Y-154.56
X323.03Y-103.835
X323.03Y-106.375
X323.03Y-108.915
X323.03Y-111.455
X323.03Y-113.995
X323.03Y-116.535
X323.03Y-119.075
X323.03Y-121.615
X323.03Y-124.155
X323.03Y-126.695
X323.03Y-129.235
X323.03Y-131.775
X323.08Y-144.4
X323.2Y-136.82
X326.32Y-282.94
X326.34Y-241.58
X330.65Y-103.835
X330.65Y-106.375
X330.65Y-108.915
X330.65Y-111.455
X330.65Y-113.995
X330.65Y-116.535
X330.65Y-119.075
X330.65Y-121.615
X330.65Y-124.155
X330.65Y-126.695
X330.65Y-129.235
X330.65Y-131.775
X331.99Y-182.56
X333.01Y-105.18
X333.15Y-91.37
X333.15Y-101.37
X333.36Y-136.82
X334.65Y-75.8
X334.65Y-83.42
X335.63Y-136.82
X335.661Y-91.37
X335.661Y-101.37
X336.48Y-282.94
X336.5Y-241.58
X337.19Y-75.8
X337.19Y-83.42
X338.201Y-91.37
X338.201Y-101.37
X339.73Y-75.8
X339.73Y-83.42
X340.7Y-91.37
X340.7Y-101.37
X340.89Y-324.86
X340.89Y-332.48
X342.15Y-182.56
X342.19Y-241.62
X342.27Y-75.8
X342.27Y-83.42
X342.29Y-282.91
X343.17Y-105.18
X345.21Y-315.9
X345.79Y-136.82
X348.33Y-105.16
X352.35Y-241.62
X352.45Y-282.91
X352.96Y-153.29
X352.96Y-163.45
X355.37Y-315.9
X356.13Y-324.86
X356.13Y-332.48
X358.0Y-282.87
X358.14Y-307.04
X358.19Y-273.99
X358.49Y-105.16
X365.02Y-105.18
X366.42Y-182.52
X367.02Y-138.07
X368.16Y-282.87
X368.3Y-307.04
X368.35Y-273.99
X372.73Y-282.93
X372.75Y-241.54
X372.85Y-307.12
X375.18Y-105.18
X376.58Y-182.52
X377.18Y-138.07
X377.541Y-115.36
X377.541Y-125.36
X377.68Y-100.04
X377.68Y-110.2
X380.06Y-112.71
X380.06Y-122.71
X381.66Y-182.35
X381.66Y-192.51
X382.6Y-112.71
X382.6Y-122.71
X382.89Y-282.93
X382.91Y-241.54
X383.01Y-307.12
X385.064Y-91.3
X385.064Y-101.3
X385.191Y-112.71
X385.191Y-122.71
X385.26Y-106.33
X386.537Y-182.448
X386.537Y-197.688
X387.8Y-106.33
X387.81Y-115.36
X387.81Y-125.36
X390.33Y-115.36
X390.33Y-125.36
X390.34Y-106.33
X391.78Y-256.95
X391.78Y-266.95
X391.81Y-162.24
X391.81Y-172.4
X392.89Y-112.69
X392.89Y-122.69
X394.157Y-182.448
X394.157Y-197.688
X394.5Y-149.48
X394.5Y-152.014
X394.5Y-154.526
X394.5Y-157.1
X394.75Y-91.24
X394.75Y-101.4
X395.45Y-112.69
X395.45Y-122.69
X397.58Y-226.33
X397.58Y-228.85
X397.58Y-231.38
X397.61Y-269.53
X397.61Y-272.06
X397.95Y-90.03
X397.95Y-100.03
X398.02Y-112.69
X398.02Y-122.69
X399.43Y-182.45
X399.43Y-197.69
X399.45Y-207.86
X399.45Y-218.02
X399.52Y-258.73
X399.52Y-266.35
X399.53Y-254.87
X399.54Y-262.52
X400.42Y-112.69
X400.42Y-122.69
X401.16Y-88.59
X401.16Y-98.75
X404.5Y-149.48
X404.5Y-152.014
X404.5Y-154.526
X404.5Y-157.1
X405.63Y-100.11
X405.63Y-110.11
X405.71Y-112.77
X405.71Y-122.77
X405.81Y-164.7
X405.81Y-174.7
X407.05Y-182.45
X407.05Y-197.69
X407.58Y-226.33
X407.58Y-228.85
X407.58Y-231.38
X407.61Y-269.53
X407.61Y-272.06
X408.2Y-87.43
X408.2Y-97.43
X409.02Y-164.86
X409.02Y-174.86
X409.25Y-312.29
X409.25Y-315.46
X409.58Y-112.77
X409.58Y-122.77
X409.59Y-309.1
X409.68Y-258.73
X409.68Y-266.35
X409.69Y-254.87
X409.7Y-262.52
X410.78Y-100.12
X410.78Y-110.12
X410.92Y-197.75
X411.08Y-297.66
X412.14Y-304.017
X413.31Y-87.4
X413.31Y-97.4
X413.34Y-130.47
X413.41Y-112.77
X413.41Y-122.77
X414.68Y-304.017
X415.85Y-100.09
X415.85Y-110.09
X417.19Y-112.77
X417.19Y-122.77
X417.22Y-304.017
X417.26Y-158.34
X418.39Y-87.4
X418.39Y-97.4
X419.25Y-312.29
X419.25Y-315.46
X419.75Y-309.1
X420.94Y-100.09
X420.94Y-110.09
X421.0Y-112.77
X421.0Y-122.77
X421.08Y-197.75
X421.08Y-297.66
X423.5Y-130.47
X424.86Y-112.77
X424.86Y-122.77
X427.42Y-158.34
T6
X110.51Y-89.51
X110.51Y-92.05
X110.51Y-94.59
X110.51Y-97.13
X110.51Y-99.67
X110.51Y-102.21
X110.51Y-104.75
X110.51Y-107.29
X110.51Y-109.83
X110.51Y-112.37
X110.51Y-115.01
X110.51Y-117.55
X110.51Y-120.09
X110.51Y-122.63
X110.51Y-125.17
X110.51Y-127.71
X110.51Y-130.25
X110.51Y-132.79
X110.55Y-137.93
X110.55Y-140.47
X110.55Y-143.01
X110.55Y-145.55
X110.55Y-148.09
X110.55Y-150.63
X110.55Y-153.17
X110.55Y-155.71
X110.61Y-160.86
X110.61Y-163.4
X110.61Y-165.94
X110.61Y-168.48
X110.61Y-171.02
X110.61Y-173.56
X110.61Y-176.1
X110.61Y-178.64
X111.95Y-233.35
X111.95Y-235.89
X111.95Y-238.43
X113.16Y-218.14
X113.16Y-220.68
X113.16Y-223.22
X114.625Y-331.765
X115.71Y-233.34
X115.71Y-235.88
X115.71Y-238.42
X116.44Y-208.575
X116.44Y-211.115
X119.625Y-331.765
X122.13Y-230.75
X122.13Y-233.29
X122.13Y-235.83
X122.13Y-238.37
X122.13Y-240.91
X122.13Y-243.45
X122.13Y-245.99
X122.13Y-248.53
X122.13Y-251.07
X122.13Y-253.61
X124.085Y-265.875
X127.23Y-207.935
X127.23Y-210.475
X127.23Y-213.015
X127.24Y-306.07
X127.24Y-308.61
X127.24Y-311.15
X127.24Y-313.69
X127.24Y-316.23
X127.24Y-318.77
X127.24Y-321.31
X127.24Y-323.85
X127.24Y-326.39
X127.25Y-272.77
X127.25Y-275.31
X127.25Y-277.85
X127.25Y-280.39
X127.25Y-282.93
X127.25Y-285.47
X127.25Y-288.01
X127.25Y-290.55
X127.25Y-293.09
X127.25Y-295.63
X129.085Y-265.875
X129.75Y-230.75
X129.75Y-233.29
X129.75Y-235.83
X129.75Y-238.37
X129.75Y-240.91
X129.75Y-243.45
X129.75Y-245.99
X129.75Y-248.53
X129.75Y-251.07
X129.75Y-253.61
X133.52Y-190.08
X133.52Y-192.62
X133.52Y-195.16
X133.52Y-197.7
X133.52Y-200.24
X133.52Y-202.78
X133.52Y-205.32
X133.52Y-207.86
X133.52Y-210.4
X133.52Y-212.94
X133.52Y-215.48
X133.52Y-218.02
X133.52Y-220.56
X133.52Y-223.1
X134.86Y-306.07
X134.86Y-308.61
X134.86Y-311.15
X134.86Y-313.69
X134.86Y-316.23
X134.86Y-318.77
X134.86Y-321.31
X134.86Y-323.85
X134.86Y-326.39
X134.87Y-235.84
X134.87Y-238.38
X134.87Y-240.92
X134.87Y-243.46
X134.87Y-246.0
X134.87Y-248.54
X134.87Y-251.08
X134.87Y-253.62
X134.87Y-272.77
X134.87Y-275.31
X134.87Y-277.85
X134.87Y-280.39
X134.87Y-282.93
X134.87Y-285.47
X134.87Y-288.01
X134.87Y-290.55
X134.87Y-293.09
X134.87Y-295.63
X139.87Y-272.77
X139.87Y-275.31
X139.87Y-277.85
X139.87Y-280.39
X139.87Y-282.93
X139.87Y-285.47
X139.87Y-288.01
X139.87Y-290.55
X139.87Y-293.09
X139.87Y-295.63
X139.92Y-305.98
X139.92Y-308.52
X139.92Y-311.06
X139.92Y-313.6
X139.92Y-316.14
X139.92Y-318.68
X139.92Y-321.22
X139.92Y-323.76
X139.92Y-326.3
X142.49Y-235.84
X142.49Y-238.38
X142.49Y-240.92
X142.49Y-243.46
X142.49Y-246.0
X142.49Y-248.54
X142.49Y-251.08
X142.49Y-253.62
X146.185Y-263.805
X147.49Y-272.77
X147.49Y-275.31
X147.49Y-277.85
X147.49Y-280.39
X147.49Y-282.93
X147.49Y-285.47
X147.49Y-288.01
X147.49Y-290.55
X147.49Y-293.09
X147.49Y-295.63
X147.54Y-238.39
X147.54Y-240.93
X147.54Y-243.47
X147.54Y-246.01
X147.54Y-248.55
X147.54Y-251.09
X147.54Y-253.63
X147.54Y-305.98
X147.54Y-308.52
X147.54Y-311.06
X147.54Y-313.6
X147.54Y-316.14
X147.54Y-318.68
X147.54Y-321.22
X147.54Y-323.76
X147.54Y-326.3
X148.76Y-190.08
X148.76Y-192.62
X148.76Y-195.16
X148.76Y-197.7
X148.76Y-200.24
X148.76Y-202.78
X148.76Y-205.32
X148.76Y-207.86
X148.76Y-210.4
X148.76Y-212.94
X148.76Y-215.48
X148.76Y-218.02
X148.76Y-220.56
X148.76Y-223.1
X151.185Y-263.805
X152.5Y-272.75
X152.5Y-275.29
X152.5Y-277.83
X152.5Y-280.37
X152.5Y-282.91
X152.5Y-285.45
X152.5Y-287.99
X152.5Y-290.53
X152.5Y-293.07
X152.5Y-295.61
X152.57Y-305.95
X152.57Y-308.49
X152.57Y-311.03
X152.57Y-313.57
X152.57Y-316.11
X152.57Y-318.65
X152.57Y-321.19
X152.57Y-323.73
X152.57Y-326.27
X155.16Y-238.39
X155.16Y-240.93
X155.16Y-243.47
X155.16Y-246.01
X155.16Y-248.55
X155.16Y-251.09
X155.16Y-253.63
X157.68Y-335.92
X158.99Y-230.77
X158.99Y-233.31
X158.99Y-235.85
X158.99Y-238.39
X158.99Y-240.93
X158.99Y-243.47
X158.99Y-246.01
X158.99Y-248.55
X158.99Y-251.09
X158.99Y-253.63
X160.07Y-76.98
X160.07Y-81.98
X160.12Y-272.75
X160.12Y-275.29
X160.12Y-277.83
X160.12Y-280.37
X160.12Y-282.91
X160.12Y-285.45
X160.12Y-287.99
X160.12Y-290.53
X160.12Y-293.07
X160.12Y-295.61
X160.19Y-305.95
X160.19Y-308.49
X160.19Y-311.03
X160.19Y-313.57
X160.19Y-316.11
X160.19Y-318.65
X160.19Y-321.19
X160.19Y-323.73
X160.19Y-326.27
X162.68Y-335.92
X165.36Y-305.89
X165.36Y-308.43
X165.36Y-310.97
X165.36Y-313.51
X165.36Y-316.05
X165.36Y-318.59
X165.36Y-321.13
X165.36Y-323.67
X165.36Y-326.21
X165.39Y-272.76
X165.39Y-275.3
X165.39Y-277.84
X165.39Y-280.38
X165.39Y-282.92
X165.39Y-285.46
X165.39Y-288.0
X165.39Y-290.54
X165.39Y-293.08
X165.39Y-295.62
X166.61Y-230.77
X166.61Y-233.31
X166.61Y-235.85
X166.61Y-238.39
X166.61Y-240.93
X166.61Y-243.47
X166.61Y-246.01
X166.61Y-248.55
X166.61Y-251.09
X166.61Y-253.63
X170.435Y-185.785
X170.435Y-190.785
X172.98Y-305.89
X172.98Y-308.43
X172.98Y-310.97
X172.98Y-313.51
X172.98Y-316.05
X172.98Y-318.59
X172.98Y-321.13
X172.98Y-323.67
X172.98Y-326.21
X173.01Y-272.76
X173.01Y-275.3
X173.01Y-277.84
X173.01Y-280.38
X173.01Y-282.92
X173.01Y-285.46
X173.01Y-288.0
X173.01Y-290.54
X173.01Y-293.08
X173.01Y-295.62
X174.269Y-198.958
X174.269Y-201.498
X174.269Y-204.038
X174.269Y-206.578
X174.269Y-209.118
X174.269Y-211.658
X174.269Y-214.198
X174.269Y-216.738
X174.269Y-219.278
X174.269Y-221.818
X174.29Y-230.77
X174.29Y-233.31
X174.29Y-235.85
X174.29Y-238.39
X174.29Y-240.93
X174.29Y-243.47
X174.29Y-246.01
X174.29Y-248.55
X174.29Y-251.09
X174.29Y-253.63
X178.72Y-305.23
X179.29Y-318.57
X179.29Y-321.11
X179.29Y-323.65
X179.29Y-326.19
X179.29Y-328.73
X179.29Y-331.27
X179.29Y-333.81
X179.29Y-336.35
X179.34Y-281.68
X179.34Y-284.22
X179.34Y-286.76
X179.34Y-289.3
X179.34Y-291.84
X179.34Y-294.38
X179.34Y-296.92
X179.34Y-299.46
X180.51Y-124.04
X180.51Y-126.58
X180.51Y-129.12
X180.51Y-131.66
X180.51Y-134.2
X180.51Y-136.74
X180.51Y-139.28
X180.51Y-141.82
X180.51Y-144.36
X180.51Y-146.9
X180.54Y-92.3
X180.54Y-94.84
X180.54Y-97.38
X180.54Y-99.92
X180.54Y-102.46
X180.54Y-105.0
X180.54Y-107.54
X180.54Y-110.08
X180.54Y-112.62
X180.54Y-115.16
X180.56Y-155.83
X180.56Y-158.37
X180.56Y-160.91
X180.56Y-163.45
X180.56Y-165.99
X180.56Y-168.53
X180.56Y-171.07
X180.56Y-173.61
X180.56Y-176.15
X180.56Y-178.69
X181.889Y-198.958
X181.889Y-201.498
X181.889Y-204.038
X181.889Y-206.578
X181.889Y-209.118
X181.889Y-211.658
X181.889Y-214.198
X181.889Y-216.738
X181.889Y-219.278
X181.889Y-221.818
X181.91Y-230.77
X181.91Y-233.31
X181.91Y-235.85
X181.91Y-238.39
X181.91Y-240.93
X181.91Y-243.47
X181.91Y-246.01
X181.91Y-248.55
X181.91Y-251.09
X181.91Y-253.63
X183.72Y-305.23
X185.52Y-77.07
X185.52Y-82.07
X186.91Y-318.57
X186.91Y-321.11
X186.91Y-323.65
X186.91Y-326.19
X186.91Y-328.73
X186.91Y-331.27
X186.91Y-333.81
X186.91Y-336.35
X186.96Y-281.68
X186.96Y-284.22
X186.96Y-286.76
X186.96Y-289.3
X186.96Y-291.84
X186.96Y-294.38
X186.96Y-296.92
X186.96Y-299.46
X188.13Y-124.04
X188.13Y-126.58
X188.13Y-129.12
X188.13Y-131.66
X188.13Y-134.2
X188.13Y-136.74
X188.13Y-139.28
X188.13Y-141.82
X188.13Y-144.36
X188.13Y-146.9
X188.16Y-92.3
X188.16Y-94.84
X188.16Y-97.38
X188.16Y-99.92
X188.16Y-102.46
X188.16Y-105.0
X188.16Y-107.54
X188.16Y-110.08
X188.16Y-112.62
X188.16Y-115.16
X188.18Y-155.83
X188.18Y-158.37
X188.18Y-160.91
X188.18Y-163.45
X188.18Y-165.99
X188.18Y-168.53
X188.18Y-171.07
X188.18Y-173.61
X188.18Y-176.15
X188.18Y-178.69
X188.25Y-214.29
X188.25Y-216.83
X188.25Y-219.37
X188.25Y-221.91
X188.25Y-224.45
X188.25Y-226.99
X192.0Y-318.6
X192.0Y-321.14
X192.0Y-323.68
X192.0Y-326.22
X192.0Y-328.76
X192.0Y-331.3
X192.0Y-333.84
X192.09Y-291.836
X192.09Y-294.376
X192.09Y-296.916
X192.09Y-299.456
X192.09Y-301.996
X192.09Y-304.536
X192.09Y-307.076
X193.31Y-201.58
X193.31Y-204.12
X193.31Y-206.66
X193.31Y-209.2
X193.31Y-211.74
X193.31Y-214.28
X193.31Y-216.82
X193.31Y-219.36
X193.31Y-221.9
X193.31Y-224.44
X193.31Y-226.98
X193.31Y-229.52
X193.31Y-232.06
X193.31Y-234.6
X193.31Y-237.14
X193.31Y-239.68
X193.31Y-242.22
X193.31Y-244.76
X193.31Y-247.3
X193.31Y-249.84
X193.41Y-130.4
X193.41Y-132.94
X193.41Y-135.48
X193.41Y-138.02
X193.41Y-140.56
X193.41Y-143.1
X193.41Y-145.64
X193.41Y-148.18
X193.41Y-150.72
X193.41Y-153.26
X193.41Y-155.8
X193.41Y-158.34
X193.41Y-160.88
X193.41Y-163.42
X193.41Y-165.96
X193.41Y-168.5
X193.41Y-171.04
X193.41Y-173.58
X193.41Y-176.12
X193.41Y-178.66
X197.02Y-103.07
X199.62Y-318.6
X199.62Y-321.14
X199.62Y-323.68
X199.62Y-326.22
X199.62Y-328.76
X199.62Y-331.3
X199.62Y-333.84
X199.71Y-291.836
X199.71Y-294.376
X199.71Y-296.916
X199.71Y-299.456
X199.71Y-301.996
X199.71Y-304.536
X199.71Y-307.076
X202.02Y-103.07
X207.28Y-318.52
X207.28Y-321.06
X207.28Y-323.6
X207.28Y-326.14
X207.28Y-328.68
X207.28Y-331.22
X207.28Y-333.76
X207.34Y-291.84
X207.34Y-294.38
X207.34Y-296.92
X207.34Y-299.46
X207.34Y-302.0
X207.34Y-304.54
X207.34Y-307.08
X208.55Y-201.58
X208.55Y-204.12
X208.55Y-206.66
X208.55Y-209.2
X208.55Y-211.74
X208.55Y-214.28
X208.55Y-216.82
X208.55Y-219.36
X208.55Y-221.9
X208.55Y-224.44
X208.55Y-226.98
X208.55Y-229.52
X208.55Y-232.06
X208.55Y-234.6
X208.55Y-237.14
X208.55Y-239.68
X208.55Y-242.22
X208.55Y-244.76
X208.55Y-247.3
X208.55Y-249.84
X208.65Y-130.4
X208.65Y-132.94
X208.65Y-135.48
X208.65Y-138.02
X208.65Y-140.56
X208.65Y-143.1
X208.65Y-145.64
X208.65Y-148.18
X208.65Y-150.72
X208.65Y-153.26
X208.65Y-155.8
X208.65Y-158.34
X208.65Y-160.88
X208.65Y-163.42
X208.65Y-165.96
X208.65Y-168.5
X208.65Y-171.04
X208.65Y-173.58
X208.65Y-176.12
X208.65Y-178.66
X211.045Y-117.715
X211.045Y-122.715
X214.9Y-318.52
X214.9Y-321.06
X214.9Y-323.6
X214.9Y-326.14
X214.9Y-328.68
X214.9Y-331.22
X214.9Y-333.76
X214.94Y-126.58
X214.94Y-129.12
X214.94Y-131.66
X214.94Y-134.2
X214.94Y-136.74
X214.94Y-139.28
X214.94Y-141.82
X214.94Y-144.36
X214.96Y-291.84
X214.96Y-294.38
X214.96Y-296.92
X214.96Y-299.46
X214.96Y-302.0
X214.96Y-304.54
X214.96Y-307.08
X217.42Y-89.78
X217.42Y-92.24
X217.42Y-94.78
X220.62Y-318.45
X220.62Y-320.99
X220.62Y-323.53
X220.62Y-326.07
X220.62Y-328.61
X220.62Y-331.15
X220.62Y-333.69
X220.675Y-291.81
X220.675Y-294.35
X220.675Y-296.89
X220.675Y-299.43
X220.675Y-301.97
X220.675Y-304.51
X220.675Y-307.05
X221.25Y-89.78
X221.25Y-92.24
X221.25Y-94.78
X221.29Y-149.47
X221.29Y-152.01
X221.29Y-154.55
X221.29Y-157.09
X221.29Y-159.63
X221.29Y-162.17
X221.29Y-164.71
X221.29Y-167.25
X222.56Y-126.58
X222.56Y-129.12
X222.56Y-131.66
X222.56Y-134.2
X222.56Y-136.74
X222.56Y-139.28
X222.56Y-141.82
X222.56Y-144.36
X224.96Y-89.78
X224.96Y-92.24
X224.96Y-94.78
X225.85Y-237.12
X225.85Y-239.66
X225.85Y-242.2
X225.85Y-244.74
X225.85Y-247.28
X225.85Y-249.82
X225.85Y-252.36
X225.85Y-254.9
X225.85Y-257.44
X225.85Y-259.98
X225.85Y-262.52
X227.61Y-124.13
X227.61Y-126.67
X227.61Y-129.21
X227.61Y-131.75
X227.61Y-134.29
X227.61Y-136.83
X227.61Y-139.37
X227.61Y-141.91
X227.61Y-144.45
X227.61Y-146.99
X227.61Y-149.53
X227.61Y-152.07
X227.61Y-154.61
X227.61Y-157.15
X227.61Y-159.69
X227.61Y-162.23
X227.61Y-164.77
X227.61Y-167.31
X227.61Y-169.85
X227.61Y-172.39
X228.24Y-318.45
X228.24Y-320.99
X228.24Y-323.53
X228.24Y-326.07
X228.24Y-328.61
X228.24Y-331.15
X228.24Y-333.69
X228.295Y-291.81
X228.295Y-294.35
X228.295Y-296.89
X228.295Y-299.43
X228.295Y-301.97
X228.295Y-304.51
X228.295Y-307.05
X228.39Y-234.58
X228.39Y-237.12
X228.39Y-239.66
X228.39Y-242.2
X228.39Y-244.74
X228.39Y-247.28
X228.39Y-249.82
X228.39Y-252.36
X228.39Y-254.9
X228.39Y-257.44
X228.39Y-259.98
X228.39Y-262.52
X228.39Y-265.06
X228.84Y-89.78
X228.84Y-92.24
X228.84Y-94.78
X230.93Y-234.58
X230.93Y-237.12
X230.93Y-262.52
X230.93Y-265.06
X232.58Y-89.78
X232.58Y-92.24
X232.58Y-94.78
X233.47Y-234.58
X233.47Y-237.12
X233.47Y-262.52
X233.47Y-265.06
X234.05Y-291.77
X234.05Y-294.31
X234.05Y-296.85
X234.05Y-299.39
X234.05Y-301.93
X234.05Y-304.47
X234.05Y-307.01
X236.01Y-234.58
X236.01Y-237.12
X236.01Y-262.52
X236.01Y-265.06
X236.42Y-89.78
X236.42Y-92.24
X236.42Y-94.78
X238.55Y-234.58
X238.55Y-237.12
X238.55Y-262.52
X238.55Y-265.06
X240.25Y-89.78
X240.25Y-92.24
X240.25Y-94.78
X241.09Y-234.58
X241.09Y-237.12
X241.09Y-262.52
X241.09Y-265.06
X241.67Y-291.77
X241.67Y-294.31
X241.67Y-296.85
X241.67Y-299.39
X241.67Y-301.93
X241.67Y-304.47
X241.67Y-307.01
X241.735Y-186.365
X241.735Y-191.365
X242.85Y-124.13
X242.85Y-126.67
X242.85Y-129.21
X242.85Y-131.75
X242.85Y-134.29
X242.85Y-136.83
X242.85Y-139.37
X242.85Y-141.91
X242.85Y-144.45
X242.85Y-146.99
X242.85Y-149.53
X242.85Y-152.07
X242.85Y-154.61
X242.85Y-157.15
X242.85Y-159.69
X242.85Y-162.23
X242.85Y-164.77
X242.85Y-167.31
X242.85Y-169.85
X242.85Y-172.39
X243.63Y-234.58
X243.63Y-237.12
X243.63Y-262.52
X243.63Y-265.06
X244.07Y-89.78
X244.07Y-92.24
X244.07Y-94.78
X244.31Y-221.2
X246.17Y-234.58
X246.17Y-237.12
X246.17Y-262.52
X246.17Y-265.06
X246.7Y-116.5
X246.7Y-119.04
X246.7Y-121.58
X246.7Y-124.12
X246.7Y-126.66
X246.7Y-129.2
X246.7Y-131.74
X246.7Y-134.28
X246.7Y-136.82
X246.7Y-139.36
X246.7Y-141.9
X246.7Y-144.44
X246.7Y-146.98
X246.7Y-149.52
X246.7Y-152.06
X246.7Y-154.6
X246.7Y-157.14
X246.7Y-159.68
X246.7Y-162.22
X246.7Y-164.76
X246.7Y-167.3
X246.7Y-169.84
X246.7Y-172.38
X246.7Y-174.92
X246.85Y-221.2
X247.93Y-89.78
X247.93Y-92.24
X247.93Y-94.78
X248.71Y-234.58
X248.71Y-237.12
X248.71Y-262.52
X248.71Y-265.06
X249.39Y-221.2
X251.25Y-234.58
X251.25Y-237.12
X251.25Y-262.52
X251.25Y-265.06
X251.77Y-89.78
X251.77Y-92.24
X251.77Y-94.78
X251.93Y-221.2
X253.12Y-124.13
X253.12Y-126.67
X253.12Y-129.21
X253.12Y-131.75
X253.12Y-134.29
X253.12Y-136.83
X253.12Y-139.37
X253.12Y-141.91
X253.12Y-144.45
X253.12Y-146.99
X253.12Y-149.53
X253.12Y-152.07
X253.12Y-154.61
X253.12Y-157.15
X253.12Y-159.69
X253.12Y-162.23
X253.12Y-164.77
X253.12Y-167.31
X253.12Y-169.85
X253.12Y-172.39
X253.79Y-234.58
X253.79Y-237.12
X253.79Y-239.66
X253.79Y-242.2
X253.79Y-244.74
X253.79Y-247.28
X253.79Y-249.82
X253.79Y-252.36
X253.79Y-254.9
X253.79Y-257.44
X253.79Y-259.98
X253.79Y-262.52
X253.79Y-265.06
X254.47Y-221.2
X254.545Y-329.47
X255.52Y-89.78
X255.52Y-92.24
X255.52Y-94.78
X256.33Y-237.12
X256.33Y-239.66
X256.33Y-242.2
X256.33Y-244.74
X256.33Y-247.28
X256.33Y-249.82
X256.33Y-252.36
X256.33Y-254.9
X256.33Y-257.44
X256.33Y-259.98
X256.33Y-262.52
X257.01Y-221.2
X257.085Y-329.47
X258.22Y-309.52
X259.33Y-89.78
X259.33Y-92.24
X259.33Y-94.78
X261.94Y-116.5
X261.94Y-119.04
X261.94Y-121.58
X261.94Y-124.12
X261.94Y-126.66
X261.94Y-129.2
X261.94Y-131.74
X261.94Y-134.28
X261.94Y-136.82
X261.94Y-139.36
X261.94Y-141.9
X261.94Y-144.44
X261.94Y-146.98
X261.94Y-149.52
X261.94Y-152.06
X261.94Y-154.6
X261.94Y-157.14
X261.94Y-159.68
X261.94Y-162.22
X261.94Y-164.76
X261.94Y-167.3
X261.94Y-169.84
X261.94Y-172.38
X261.94Y-174.92
X263.1Y-89.78
X263.1Y-92.24
X263.1Y-94.78
X263.22Y-309.52
X266.91Y-89.78
X266.91Y-92.24
X266.91Y-94.78
X268.36Y-124.13
X268.36Y-126.67
X268.36Y-129.21
X268.36Y-131.75
X268.36Y-134.29
X268.36Y-136.83
X268.36Y-139.37
X268.36Y-141.91
X268.36Y-144.45
X268.36Y-146.99
X268.36Y-149.53
X268.36Y-152.07
X268.36Y-154.61
X268.36Y-157.15
X268.36Y-159.69
X268.36Y-162.23
X268.36Y-164.77
X268.36Y-167.31
X268.36Y-169.85
X268.36Y-172.39
X270.7Y-89.78
X270.7Y-92.24
X270.7Y-94.78
X270.875Y-316.495
X274.52Y-89.78
X274.52Y-92.24
X274.52Y-94.78
X275.875Y-316.495
X277.069Y-121.625
X277.069Y-124.165
X277.069Y-126.705
X277.069Y-129.245
X277.069Y-131.785
X277.069Y-134.325
X277.069Y-136.865
X278.34Y-89.78
X278.34Y-92.24
X278.34Y-94.78
X279.855Y-190.185
X279.855Y-195.185
X279.865Y-198.935
X279.865Y-203.935
X282.38Y-89.77
X282.38Y-92.23
X282.38Y-94.77
X284.689Y-121.625
X284.689Y-124.165
X284.689Y-126.705
X284.689Y-129.245
X284.689Y-131.785
X284.689Y-134.325
X284.689Y-136.865
X286.04Y-89.78
X286.04Y-92.24
X286.04Y-94.78
X286.82Y-242.23
X286.82Y-244.77
X286.82Y-247.31
X286.82Y-249.85
X286.82Y-252.39
X286.82Y-254.93
X286.82Y-257.47
X286.82Y-260.01
X286.82Y-262.55
X287.47Y-314.61
X287.47Y-317.15
X287.47Y-319.69
X287.47Y-322.23
X287.47Y-324.77
X287.47Y-327.31
X287.47Y-329.85
X287.47Y-332.39
X287.47Y-334.93
X289.36Y-239.69
X289.36Y-242.23
X289.36Y-244.77
X289.36Y-247.31
X289.36Y-249.85
X289.36Y-252.39
X289.36Y-254.93
X289.36Y-257.47
X289.36Y-260.01
X289.36Y-262.55
X289.36Y-265.09
X291.9Y-239.69
X291.9Y-242.23
X291.9Y-262.55
X291.9Y-265.09
X293.74Y-126.675
X293.74Y-129.215
X293.74Y-131.755
X293.74Y-134.295
X293.74Y-136.835
X293.74Y-139.375
X293.74Y-141.915
X293.79Y-146.96
X293.79Y-149.5
X293.79Y-152.04
X293.79Y-154.58
X293.79Y-157.12
X293.79Y-159.66
X293.79Y-162.2
X294.44Y-239.69
X294.44Y-242.23
X294.44Y-262.55
X294.44Y-265.09
X295.09Y-314.61
X295.09Y-317.15
X295.09Y-319.69
X295.09Y-322.23
X295.09Y-324.77
X295.09Y-327.31
X295.09Y-329.85
X295.09Y-332.39
X295.09Y-334.93
X296.98Y-239.69
X296.98Y-242.23
X296.98Y-262.55
X296.98Y-265.09
X298.89Y-326.07
X299.52Y-239.69
X299.52Y-242.23
X299.52Y-262.55
X299.52Y-265.09
X300.285Y-289.855
X301.36Y-126.675
X301.36Y-129.215
X301.36Y-131.755
X301.36Y-134.295
X301.36Y-136.835
X301.36Y-139.375
X301.36Y-141.915
X301.41Y-146.96
X301.41Y-149.5
X301.41Y-152.04
X301.41Y-154.58
X301.41Y-157.12
X301.41Y-159.66
X301.41Y-162.2
X301.43Y-326.07
X302.06Y-239.69
X302.06Y-242.23
X302.06Y-262.55
X302.06Y-265.09
X302.55Y-90.0
X302.55Y-92.46
X302.55Y-95.0
X303.97Y-313.48
X303.97Y-318.48
X304.6Y-239.69
X304.6Y-242.23
X304.6Y-262.55
X304.6Y-265.09
X305.285Y-289.855
X306.36Y-90.0
X306.36Y-92.46
X306.36Y-95.0
X307.14Y-239.69
X307.14Y-242.23
X307.14Y-262.55
X307.14Y-265.09
X309.68Y-239.69
X309.68Y-242.23
X309.68Y-244.77
X309.68Y-247.31
X309.68Y-249.85
X309.68Y-252.39
X309.68Y-254.93
X309.68Y-257.47
X309.68Y-260.01
X309.68Y-262.55
X309.68Y-265.09
X310.16Y-90.0
X310.16Y-92.46
X310.16Y-95.0
X311.54Y-106.39
X311.54Y-108.93
X311.54Y-111.47
X311.54Y-114.01
X311.54Y-116.55
X311.54Y-119.09
X311.54Y-121.63
X312.22Y-242.23
X312.22Y-244.77
X312.22Y-247.31
X312.22Y-249.85
X312.22Y-252.39
X312.22Y-254.93
X312.22Y-257.47
X312.22Y-260.01
X312.22Y-262.55
X313.94Y-90.0
X313.94Y-92.46
X313.94Y-95.0
X315.42Y-286.74
X315.42Y-289.28
X315.42Y-291.82
X315.42Y-294.36
X315.42Y-296.9
X315.42Y-299.44
X317.79Y-90.0
X317.79Y-92.46
X317.79Y-95.0
X319.16Y-106.39
X319.16Y-108.93
X319.16Y-111.47
X319.16Y-114.01
X319.16Y-116.55
X319.16Y-119.09
X319.16Y-121.63
X321.158Y-286.741
X321.158Y-289.281
X321.158Y-291.821
X321.158Y-294.361
X321.158Y-296.901
X321.158Y-299.441
X321.158Y-301.981
X321.158Y-304.521
X321.158Y-307.061
X321.158Y-309.601
X321.158Y-312.141
X321.158Y-314.681
X321.158Y-317.221
X321.158Y-319.761
X321.158Y-322.301
X321.158Y-324.841
X321.158Y-327.381
X321.158Y-329.921
X321.158Y-332.461
X321.158Y-335.001
X321.62Y-90.0
X321.62Y-92.46
X321.62Y-95.0
X327.58Y-207.95
X327.58Y-210.49
X328.88Y-246.05
X328.88Y-248.59
X328.88Y-251.13
X328.88Y-253.67
X328.88Y-256.21
X328.88Y-258.75
X328.88Y-261.29
X328.88Y-263.83
X328.88Y-266.37
X328.88Y-268.91
X331.927Y-145.669
X331.927Y-148.209
X331.927Y-150.749
X331.927Y-153.289
X331.927Y-155.829
X331.927Y-158.369
X331.927Y-160.909
X331.927Y-163.449
X331.927Y-165.989
X331.927Y-168.529
X331.927Y-171.069
X331.927Y-173.609
X331.927Y-176.149
X331.927Y-178.689
X332.73Y-218.12
X332.73Y-220.66
X335.69Y-108.91
X335.69Y-111.45
X335.69Y-113.99
X335.69Y-116.53
X335.69Y-119.07
X335.69Y-121.61
X335.69Y-124.15
X335.69Y-126.69
X335.69Y-129.23
X335.69Y-131.77
X335.89Y-218.12
X335.89Y-220.66
X336.398Y-286.741
X336.398Y-289.281
X336.398Y-291.821
X336.398Y-294.361
X336.398Y-296.901
X336.398Y-299.441
X336.398Y-301.981
X336.398Y-304.521
X336.398Y-307.061
X336.398Y-309.601
X336.398Y-312.141
X336.398Y-314.681
X336.398Y-317.221
X336.398Y-319.761
X336.398Y-322.301
X336.398Y-324.841
X336.398Y-327.381
X336.398Y-329.921
X336.398Y-332.461
X336.398Y-335.001
X336.5Y-246.05
X336.5Y-248.59
X336.5Y-251.13
X336.5Y-253.67
X336.5Y-256.21
X336.5Y-258.75
X336.5Y-261.29
X336.5Y-263.83
X336.5Y-266.37
X336.5Y-268.91
X338.41Y-218.12
X338.41Y-220.66
X342.25Y-218.14
X342.25Y-220.68
X342.25Y-223.22
X343.31Y-108.91
X343.31Y-111.45
X343.31Y-113.99
X343.31Y-116.53
X343.31Y-119.07
X343.31Y-121.61
X343.31Y-124.15
X343.31Y-126.69
X343.31Y-129.23
X343.31Y-131.77
X344.663Y-286.741
X344.663Y-289.281
X344.663Y-291.821
X344.663Y-294.361
X344.663Y-296.901
X344.663Y-299.441
X344.663Y-301.981
X344.7Y-246.0
X344.7Y-248.54
X344.7Y-251.08
X344.7Y-253.62
X344.7Y-256.16
X344.7Y-258.7
X344.7Y-261.24
X344.7Y-263.78
X344.7Y-266.32
X344.7Y-268.86
X345.21Y-93.71
X347.167Y-145.669
X347.167Y-148.209
X347.167Y-150.749
X347.167Y-153.289
X347.167Y-155.829
X347.167Y-158.369
X347.167Y-160.909
X347.167Y-163.449
X347.167Y-165.989
X347.167Y-168.529
X347.167Y-171.069
X347.167Y-173.609
X347.167Y-176.149
X347.167Y-178.689
X347.63Y-91.23
X347.63Y-96.23
X350.87Y-108.95
X350.87Y-111.49
X350.87Y-114.03
X350.87Y-116.57
X350.87Y-119.11
X350.87Y-121.65
X350.87Y-124.19
X350.87Y-126.73
X350.87Y-129.27
X350.87Y-131.81
X350.874Y-93.71
X352.283Y-286.741
X352.283Y-289.281
X352.283Y-291.821
X352.283Y-294.361
X352.283Y-296.901
X352.283Y-299.441
X352.283Y-301.981
X352.32Y-246.0
X352.32Y-248.54
X352.32Y-251.08
X352.32Y-253.62
X352.32Y-256.16
X352.32Y-258.7
X352.32Y-261.24
X352.32Y-263.78
X352.32Y-266.32
X352.32Y-268.86
X353.294Y-91.23
X353.294Y-96.23
X356.64Y-93.71
X358.49Y-108.95
X358.49Y-111.49
X358.49Y-114.03
X358.49Y-116.57
X358.49Y-119.11
X358.49Y-121.65
X358.49Y-124.19
X358.49Y-126.73
X358.49Y-129.27
X358.49Y-131.81
X359.06Y-91.23
X359.06Y-96.23
X360.58Y-310.93
X360.58Y-313.47
X360.58Y-316.01
X360.58Y-318.55
X360.58Y-321.09
X360.58Y-323.63
X360.58Y-326.17
X360.59Y-250.44
X360.59Y-252.98
X360.59Y-255.52
X360.59Y-258.06
X360.59Y-260.6
X360.59Y-263.14
X360.59Y-265.68
X360.59Y-268.22
X360.59Y-286.73
X360.59Y-289.27
X360.59Y-291.81
X360.59Y-294.35
X360.59Y-296.89
X360.59Y-299.43
X360.59Y-301.97
X362.406Y-93.71
X364.826Y-91.23
X364.826Y-93.77
X364.826Y-96.23
X366.21Y-108.9
X366.21Y-111.44
X366.21Y-113.98
X366.21Y-116.52
X366.21Y-119.06
X366.21Y-121.6
X366.21Y-124.14
X366.21Y-126.68
X366.21Y-129.22
X366.21Y-131.76
X368.172Y-93.71
X368.2Y-310.93
X368.2Y-313.47
X368.2Y-316.01
X368.2Y-318.55
X368.2Y-321.09
X368.2Y-323.63
X368.2Y-326.17
X368.21Y-250.44
X368.21Y-252.98
X368.21Y-255.52
X368.21Y-258.06
X368.21Y-260.6
X368.21Y-263.14
X368.21Y-265.68
X368.21Y-268.22
X368.21Y-286.73
X368.21Y-289.27
X368.21Y-291.81
X368.21Y-294.35
X368.21Y-296.89
X368.21Y-299.43
X368.21Y-301.97
X370.592Y-91.23
X370.592Y-93.77
X370.592Y-96.23
X373.83Y-108.9
X373.83Y-111.44
X373.83Y-113.98
X373.83Y-116.52
X373.83Y-119.06
X373.83Y-121.6
X373.83Y-124.14
X373.83Y-126.68
X373.83Y-129.22
X373.83Y-131.76
X373.836Y-93.71
X375.24Y-286.73
X375.24Y-289.27
X375.24Y-291.81
X375.24Y-294.35
X375.24Y-296.89
X375.24Y-299.43
X375.24Y-301.97
X375.24Y-310.95
X375.24Y-313.49
X375.24Y-316.03
X375.24Y-318.57
X375.24Y-321.11
X375.24Y-323.65
X375.24Y-326.19
X375.28Y-245.339
X375.28Y-247.879
X375.28Y-250.419
X375.28Y-252.959
X375.28Y-255.499
X375.28Y-258.039
X375.28Y-260.579
X375.28Y-263.119
X375.28Y-265.659
X375.28Y-268.199
X376.256Y-91.23
X376.256Y-96.23
X379.551Y-93.71
X381.971Y-91.23
X381.971Y-96.23
X382.86Y-286.73
X382.86Y-289.27
X382.86Y-291.81
X382.86Y-294.35
X382.86Y-296.89
X382.86Y-299.43
X382.86Y-301.97
X382.86Y-310.95
X382.86Y-313.49
X382.86Y-316.03
X382.86Y-318.57
X382.86Y-321.11
X382.86Y-323.65
X382.86Y-326.19
X382.9Y-245.339
X382.9Y-247.879
X382.9Y-250.419
X382.9Y-252.959
X382.9Y-255.499
X382.9Y-258.039
X382.9Y-260.579
X382.9Y-263.119
X382.9Y-265.659
X382.9Y-268.199
X387.92Y-93.66
X389.2Y-254.1
X389.2Y-266.8
X390.34Y-91.18
X390.34Y-93.72
X390.34Y-96.18
X390.45Y-310.98
X390.45Y-313.52
X390.45Y-316.06
X390.45Y-318.6
X390.45Y-321.14
X390.45Y-323.68
X390.45Y-326.22
X390.45Y-328.76
X390.45Y-331.3
X390.45Y-333.84
X390.51Y-286.74
X390.51Y-289.28
X390.51Y-291.82
X390.51Y-294.36
X390.51Y-296.9
X390.51Y-299.44
X394.25Y-128.54
X394.25Y-131.08
X394.25Y-133.62
X394.25Y-136.16
X394.25Y-138.7
X394.25Y-141.24
X394.25Y-143.78
X394.25Y-146.32
X398.69Y-328.19
X398.69Y-330.73
X398.69Y-333.27
X399.44Y-248.58
X401.42Y-237.085
X401.42Y-243.46
X401.87Y-128.54
X401.87Y-131.08
X401.87Y-133.62
X401.87Y-136.16
X401.87Y-138.7
X401.87Y-141.24
X401.87Y-143.78
X401.87Y-146.32
X401.98Y-248.58
X403.192Y-100.106
X403.192Y-112.806
X403.94Y-234.665
X403.94Y-241.04
X405.8Y-329.55
X406.42Y-237.085
X406.42Y-243.46
X407.03Y-126.63
X407.12Y-248.51
X409.57Y-126.63
X409.66Y-248.51
X410.92Y-136.77
X410.92Y-139.31
X410.92Y-141.85
X410.92Y-144.39
X410.92Y-146.93
X410.92Y-149.47
X410.92Y-152.01
X410.92Y-154.55
X412.11Y-126.63
X412.325Y-289.945
X413.46Y-329.55
X413.645Y-219.985
X414.65Y-126.63
X415.45Y-267.0
X415.9Y-163.424
X415.9Y-165.964
X415.9Y-168.504
X415.9Y-171.044
X415.9Y-173.584
X415.9Y-176.124
X415.9Y-178.664
X415.9Y-181.204
X415.9Y-183.744
X415.98Y-134.24
X415.98Y-136.78
X415.98Y-139.32
X415.98Y-141.86
X415.98Y-144.4
X415.98Y-146.94
X415.98Y-149.48
X415.98Y-152.02
X415.98Y-154.56
X417.19Y-126.63
X417.325Y-289.945
X417.87Y-264.52
X417.87Y-269.52
X418.645Y-219.985
X419.73Y-126.63
X422.27Y-126.63
X423.52Y-163.424
X423.52Y-165.964
X423.52Y-168.504
X423.52Y-171.044
X423.52Y-173.584
X423.52Y-176.124
X423.52Y-178.664
X423.52Y-181.204
X423.52Y-183.744
X423.6Y-134.24
X423.6Y-136.78
X423.6Y-139.32
X423.6Y-141.86
X423.6Y-144.4
X423.6Y-146.94
X423.6Y-149.48
X423.6Y-152.02
X423.6Y-154.56
X424.81Y-126.63
X426.71Y-104.419
X426.71Y-109.419
X427.279Y-131.76
X427.279Y-134.3
X427.279Y-136.84
X427.279Y-139.38
X427.279Y-141.92
X427.279Y-144.46
X427.279Y-147.0
X427.279Y-149.54
X427.279Y-152.08
X427.279Y-154.62
T7
X125.52Y-97.82
X125.52Y-100.36
X125.52Y-102.9
X125.52Y-105.44
X125.52Y-107.98
X125.52Y-110.52
X125.52Y-113.06
X125.52Y-115.6
X125.52Y-118.14
X125.52Y-120.68
X125.52Y-123.22
X125.52Y-125.76
X125.52Y-128.3
X125.52Y-130.84
X125.52Y-133.38
X125.52Y-135.92
X125.52Y-138.46
X125.52Y-141.0
X125.52Y-143.54
X125.52Y-146.08
X125.52Y-148.62
X125.52Y-151.16
X125.52Y-153.7
X125.52Y-156.24
X125.52Y-158.78
X125.52Y-161.32
X125.52Y-163.86
X125.52Y-166.4
X125.52Y-168.94
X125.52Y-171.48
X125.52Y-174.02
X130.65Y-97.82
X130.65Y-100.36
X130.65Y-102.9
X130.65Y-105.44
X130.65Y-107.98
X130.65Y-110.52
X130.65Y-113.06
X130.65Y-115.6
X130.65Y-118.14
X130.65Y-120.68
X130.65Y-123.22
X130.65Y-125.76
X130.65Y-128.3
X130.65Y-130.84
X130.65Y-133.38
X130.65Y-135.92
X130.65Y-138.46
X130.65Y-141.0
X130.65Y-143.54
X130.65Y-146.08
X130.65Y-148.62
X130.65Y-151.16
X130.65Y-153.7
X130.65Y-156.24
X130.65Y-158.78
X130.65Y-161.32
X130.65Y-163.86
X130.65Y-166.4
X130.65Y-168.94
X130.65Y-171.48
X130.65Y-174.02
X145.84Y-97.9
X145.84Y-100.44
X145.84Y-102.98
X145.84Y-105.52
X145.84Y-108.06
X145.84Y-110.6
X145.84Y-113.14
X145.84Y-115.68
X145.84Y-118.22
X145.84Y-120.76
X145.84Y-123.3
X145.84Y-125.84
X145.84Y-128.38
X145.84Y-130.92
X145.84Y-133.46
X145.84Y-136.0
X145.84Y-138.54
X145.84Y-141.08
X145.84Y-143.62
X145.84Y-146.16
X145.84Y-148.7
X145.84Y-151.24
X145.84Y-153.78
X145.84Y-156.32
X145.84Y-158.86
X145.84Y-161.4
X145.84Y-163.94
X145.84Y-166.48
X145.84Y-169.02
X145.84Y-171.56
X145.84Y-174.1
X150.97Y-97.9
X150.97Y-100.44
X150.97Y-102.98
X150.97Y-105.52
X150.97Y-108.06
X150.97Y-110.6
X150.97Y-113.14
X150.97Y-115.68
X150.97Y-118.22
X150.97Y-120.76
X150.97Y-123.3
X150.97Y-125.84
X150.97Y-128.38
X150.97Y-130.92
X150.97Y-133.46
X150.97Y-136.0
X150.97Y-138.54
X150.97Y-141.08
X150.97Y-143.62
X150.97Y-146.16
X150.97Y-148.7
X150.97Y-151.24
X150.97Y-153.78
X150.97Y-156.32
X150.97Y-158.86
X150.97Y-161.4
X150.97Y-163.94
X150.97Y-166.48
X150.97Y-169.02
X150.97Y-171.56
X150.97Y-174.1
X166.19Y-97.95
X166.19Y-100.49
X166.19Y-103.03
X166.19Y-105.57
X166.19Y-108.11
X166.19Y-110.65
X166.19Y-113.19
X166.19Y-115.73
X166.19Y-118.27
X166.19Y-120.81
X166.19Y-123.35
X166.19Y-125.89
X166.19Y-128.43
X166.19Y-130.97
X166.19Y-133.51
X166.19Y-136.05
X166.19Y-138.59
X166.19Y-141.13
X166.19Y-143.67
X166.19Y-146.21
X166.19Y-148.75
X166.19Y-151.29
X166.19Y-153.83
X166.19Y-156.37
X166.19Y-158.91
X166.19Y-161.45
X166.19Y-163.99
X166.19Y-166.53
X166.19Y-169.07
X166.19Y-171.61
X166.19Y-174.15
X171.32Y-97.95
X171.32Y-100.49
X171.32Y-103.03
X171.32Y-105.57
X171.32Y-108.11
X171.32Y-110.65
X171.32Y-113.19
X171.32Y-115.73
X171.32Y-118.27
X171.32Y-120.81
X171.32Y-123.35
X171.32Y-125.89
X171.32Y-128.43
X171.32Y-130.97
X171.32Y-133.51
X171.32Y-136.05
X171.32Y-138.59
X171.32Y-141.13
X171.32Y-143.67
X171.32Y-146.21
X171.32Y-148.75
X171.32Y-151.29
X171.32Y-153.83
X171.32Y-156.37
X171.32Y-158.91
X171.32Y-161.45
X171.32Y-163.99
X171.32Y-166.53
X171.32Y-169.07
X171.32Y-171.61
X171.32Y-174.15
X342.31Y-207.91
X342.31Y-210.45
X344.85Y-207.91
X344.85Y-210.45
X347.39Y-207.91
X347.39Y-210.45
X349.84Y-219.3
X349.84Y-221.84
X349.93Y-207.91
X349.93Y-210.45
X352.38Y-219.3
X352.38Y-221.84
X352.47Y-207.91
X352.47Y-210.45
X354.92Y-219.3
X354.92Y-221.84
X355.01Y-207.91
X355.01Y-210.45
X357.46Y-219.3
X357.46Y-221.84
X357.55Y-207.91
X357.55Y-210.45
X360.0Y-219.3
X360.0Y-221.84
X360.09Y-207.91
X360.09Y-210.45
X362.54Y-219.3
X362.54Y-221.84
X362.63Y-207.91
X362.63Y-210.45
X365.08Y-219.3
X365.08Y-221.84
X365.17Y-207.91
X365.17Y-210.45
X367.62Y-219.3
X367.62Y-221.84
X367.71Y-207.91
X370.16Y-219.3
X370.16Y-221.84
X370.25Y-207.91
X370.25Y-210.45
X372.7Y-219.3
X372.7Y-221.84
X372.79Y-207.91
X372.79Y-210.45
X375.24Y-219.3
X375.24Y-221.84
X375.33Y-207.91
X375.33Y-210.45
X377.78Y-219.3
X377.78Y-221.84
X377.87Y-207.91
X377.87Y-210.45
X380.32Y-219.3
X380.32Y-221.84
X380.41Y-207.91
X380.41Y-210.45
X382.86Y-219.3
X382.86Y-221.84
X382.95Y-207.91
X382.95Y-210.45
X385.4Y-219.3
X385.4Y-221.84
X385.49Y-207.91
X385.49Y-210.45
X387.94Y-221.84
X388.03Y-207.91
X388.03Y-210.45
X390.48Y-219.3
X390.48Y-221.84
X390.57Y-210.45
X413.6Y-208.59
X416.05Y-208.59
X418.51Y-208.59
T8
X197.03Y-96.2
X199.57Y-96.2
X202.03Y-96.2
X228.925Y-81.38
X230.36Y-78.85
X231.695Y-81.38
X233.13Y-78.85
X234.465Y-81.38
X235.9Y-78.85
X237.235Y-81.38
X238.67Y-78.85
X240.005Y-81.38
X241.44Y-78.85
X242.775Y-81.38
X244.21Y-78.85
X245.545Y-81.38
X246.98Y-78.85
X248.315Y-81.38
X249.75Y-78.85
X251.085Y-81.38
X252.52Y-78.85
X253.855Y-81.38
X255.29Y-78.85
X256.625Y-81.38
X258.06Y-78.85
X259.395Y-81.38
X260.83Y-78.85
X262.165Y-81.38
X287.476Y-81.636
X288.841Y-78.816
X290.246Y-81.636
X291.611Y-78.816
X293.016Y-81.636
X294.381Y-78.816
X295.786Y-81.636
X297.151Y-78.816
X298.556Y-81.636
X299.921Y-78.816
X301.326Y-81.636
X302.691Y-78.816
X304.096Y-81.636
X305.461Y-78.816
X306.866Y-81.636
X308.231Y-78.816
X309.636Y-81.636
X311.001Y-78.816
X312.406Y-81.636
X313.771Y-78.816
X315.176Y-81.636
X316.541Y-78.816
X317.946Y-81.636
X319.311Y-78.816
X320.716Y-81.636
X357.1Y-81.46
X358.41Y-78.93
X359.87Y-81.46
X361.18Y-78.93
X362.64Y-81.46
X363.95Y-78.93
X365.41Y-81.46
X366.72Y-78.93
X368.18Y-81.46
X408.06Y-81.48
X409.445Y-78.64
X410.31Y-209.76
X410.83Y-81.48
X412.215Y-78.64
X413.6Y-81.48
X414.985Y-78.64
X416.37Y-81.48
X416.7Y-245.88
X416.74Y-255.87
X417.755Y-78.64
X419.14Y-81.48
X419.19Y-258.4
X419.2Y-243.35
X419.25Y-250.91
X421.62Y-206.33
X426.64Y-250.88
X429.19Y-245.88
X429.19Y-248.35
X429.19Y-253.36
X429.19Y-255.83
T9
X253.13Y-336.23
X263.26Y-336.23
T10
X258.34Y-316.77
T11
X269.54Y-182.6
X269.54Y-186.28
X269.54Y-190.23
X269.54Y-194.16
X269.54Y-198.14
X269.54Y-206.12
T12
X256.35Y-184.99
X256.36Y-191.36
X256.36Y-197.74
X262.67Y-184.99
X262.67Y-191.36
X262.72Y-197.74
T13
X235.68Y-244.79
X246.15Y-254.91
X294.52Y-257.44
X294.53Y-247.29
X304.65Y-247.29
X304.67Y-257.45
T14
X383.97Y-80.61
X387.66Y-76.6
X391.47Y-80.61
T15
X212.36Y-90.42
X350.06Y-80.28
X375.12Y-80.3
X400.97Y-80.21
X424.67Y-95.43
X424.88Y-192.59
X426.08Y-80.22
T16
X114.33Y-321.0
X117.89Y-192.74
X199.57Y-78.36
X212.39Y-192.65
X222.045Y-80.27
X269.145Y-80.27
X280.496Y-80.526
X327.596Y-80.526
T17
X424.78Y-320.92
X424.89Y-236.05
X424.92Y-266.11
T18
X117.98Y-80.23
T19
X239.0Y-320.6
M30
