%TF.GenerationSoftware,KiCad,Pcbnew,8.0.0*%
%TF.CreationDate,2024-03-10T17:08:58+00:00*%
%TF.ProjectId,Commodore PC10 III,436f6d6d-6f64-46f7-9265-205043313020,1.0*%
%TF.SameCoordinates,Original*%
%TF.FileFunction,Drillmap*%
%TF.FilePolarity,Positive*%
%FSLAX45Y45*%
G04 Gerber Fmt 4.5, Leading zero omitted, Abs format (unit mm)*
G04 Created by KiCad (PCBNEW 8.0.0) date 2024-03-10 17:08:58*
%MOMM*%
%LPD*%
G01*
G04 APERTURE LIST*
%ADD10C,0.100000*%
%ADD11C,0.200000*%
G04 APERTURE END LIST*
D10*
X42813000Y-33786000D02*
G75*
G02*
X42417020Y-33786000I-197990J0D01*
G01*
X42417020Y-33786000D02*
G75*
G02*
X42813000Y-33786000I197990J0D01*
G01*
X11499990Y-33826010D02*
G75*
G02*
X11104010Y-33826010I-197990J0D01*
G01*
X11104010Y-33826010D02*
G75*
G02*
X11499990Y-33826010I197990J0D01*
G01*
X10783000Y-7315000D02*
X43135000Y-7315000D01*
X43135000Y-34323000D01*
X10783000Y-34323000D01*
X10783000Y-7315000D01*
X11474990Y-7820010D02*
G75*
G02*
X11079010Y-7820010I-197990J0D01*
G01*
X11079010Y-7820010D02*
G75*
G02*
X11474990Y-7820010I197990J0D01*
G01*
D11*
X11038777Y-34639484D02*
X11038777Y-34439484D01*
X11038777Y-34439484D02*
X11086396Y-34439484D01*
X11086396Y-34439484D02*
X11114967Y-34449008D01*
X11114967Y-34449008D02*
X11134015Y-34468055D01*
X11134015Y-34468055D02*
X11143539Y-34487103D01*
X11143539Y-34487103D02*
X11153063Y-34525198D01*
X11153063Y-34525198D02*
X11153063Y-34553770D01*
X11153063Y-34553770D02*
X11143539Y-34591865D01*
X11143539Y-34591865D02*
X11134015Y-34610912D01*
X11134015Y-34610912D02*
X11114967Y-34629960D01*
X11114967Y-34629960D02*
X11086396Y-34639484D01*
X11086396Y-34639484D02*
X11038777Y-34639484D01*
X11238777Y-34639484D02*
X11238777Y-34506150D01*
X11238777Y-34544246D02*
X11248301Y-34525198D01*
X11248301Y-34525198D02*
X11257824Y-34515674D01*
X11257824Y-34515674D02*
X11276872Y-34506150D01*
X11276872Y-34506150D02*
X11295920Y-34506150D01*
X11362586Y-34639484D02*
X11362586Y-34506150D01*
X11362586Y-34439484D02*
X11353062Y-34449008D01*
X11353062Y-34449008D02*
X11362586Y-34458531D01*
X11362586Y-34458531D02*
X11372110Y-34449008D01*
X11372110Y-34449008D02*
X11362586Y-34439484D01*
X11362586Y-34439484D02*
X11362586Y-34458531D01*
X11486396Y-34639484D02*
X11467348Y-34629960D01*
X11467348Y-34629960D02*
X11457824Y-34610912D01*
X11457824Y-34610912D02*
X11457824Y-34439484D01*
X11591158Y-34639484D02*
X11572110Y-34629960D01*
X11572110Y-34629960D02*
X11562586Y-34610912D01*
X11562586Y-34610912D02*
X11562586Y-34439484D01*
X11819729Y-34639484D02*
X11819729Y-34439484D01*
X11819729Y-34439484D02*
X11886396Y-34582341D01*
X11886396Y-34582341D02*
X11953062Y-34439484D01*
X11953062Y-34439484D02*
X11953062Y-34639484D01*
X12134015Y-34639484D02*
X12134015Y-34534722D01*
X12134015Y-34534722D02*
X12124491Y-34515674D01*
X12124491Y-34515674D02*
X12105443Y-34506150D01*
X12105443Y-34506150D02*
X12067348Y-34506150D01*
X12067348Y-34506150D02*
X12048301Y-34515674D01*
X12134015Y-34629960D02*
X12114967Y-34639484D01*
X12114967Y-34639484D02*
X12067348Y-34639484D01*
X12067348Y-34639484D02*
X12048301Y-34629960D01*
X12048301Y-34629960D02*
X12038777Y-34610912D01*
X12038777Y-34610912D02*
X12038777Y-34591865D01*
X12038777Y-34591865D02*
X12048301Y-34572817D01*
X12048301Y-34572817D02*
X12067348Y-34563293D01*
X12067348Y-34563293D02*
X12114967Y-34563293D01*
X12114967Y-34563293D02*
X12134015Y-34553770D01*
X12229253Y-34506150D02*
X12229253Y-34706150D01*
X12229253Y-34515674D02*
X12248301Y-34506150D01*
X12248301Y-34506150D02*
X12286396Y-34506150D01*
X12286396Y-34506150D02*
X12305443Y-34515674D01*
X12305443Y-34515674D02*
X12314967Y-34525198D01*
X12314967Y-34525198D02*
X12324491Y-34544246D01*
X12324491Y-34544246D02*
X12324491Y-34601389D01*
X12324491Y-34601389D02*
X12314967Y-34620436D01*
X12314967Y-34620436D02*
X12305443Y-34629960D01*
X12305443Y-34629960D02*
X12286396Y-34639484D01*
X12286396Y-34639484D02*
X12248301Y-34639484D01*
X12248301Y-34639484D02*
X12229253Y-34629960D01*
X12410205Y-34620436D02*
X12419729Y-34629960D01*
X12419729Y-34629960D02*
X12410205Y-34639484D01*
X12410205Y-34639484D02*
X12400682Y-34629960D01*
X12400682Y-34629960D02*
X12410205Y-34620436D01*
X12410205Y-34620436D02*
X12410205Y-34639484D01*
X12410205Y-34515674D02*
X12419729Y-34525198D01*
X12419729Y-34525198D02*
X12410205Y-34534722D01*
X12410205Y-34534722D02*
X12400682Y-34525198D01*
X12400682Y-34525198D02*
X12410205Y-34515674D01*
X12410205Y-34515674D02*
X12410205Y-34534722D01*
M02*
